<svg width="85" height="165" viewBox="0 0 85 165" fill="none" xmlns="http://www.w3.org/2000/svg">
<mask id="path-1-outside-1_39_148" maskUnits="userSpaceOnUse" x="0" y="0" width="85" height="165" fill="black">
<rect fill="white" width="85" height="165"/>
<path d="M41.96 162V70.8C41.96 66.64 41.96 62.32 41.96 57.84C42.12 53.36 42.2 48.88 42.2 44.4C37.24 49.36 31.8 53.6 25.88 57.12C19.96 60.64 13.72 63.04 7.16 64.32L3.56 30.24C7.4 29.76 11.56 28.72 16.04 27.12C20.52 25.36 24.92 23.2 29.24 20.64C33.72 18.08 37.64 15.36 41 12.48C44.52 9.43999 47.16 6.47999 48.92 3.59999H81.8V162H41.96Z"/>
</mask>
<path d="M41.96 162V70.8C41.96 66.64 41.96 62.32 41.96 57.84C42.12 53.36 42.2 48.88 42.2 44.4C37.24 49.36 31.8 53.6 25.88 57.12C19.96 60.64 13.72 63.04 7.16 64.32L3.56 30.24C7.4 29.76 11.56 28.72 16.04 27.12C20.52 25.36 24.92 23.2 29.24 20.64C33.72 18.08 37.64 15.36 41 12.48C44.52 9.43999 47.16 6.47999 48.92 3.59999H81.8V162H41.96Z" fill="black"/>
<path d="M41.96 162H38.96V165H41.96V162ZM41.96 57.84L38.9619 57.7329L38.96 57.7864V57.84H41.96ZM42.2 44.4H45.2V37.1574L40.0787 42.2787L42.2 44.4ZM25.88 57.12L27.4132 59.6986L25.88 57.12ZM7.16 64.32L4.1766 64.6351L4.52059 67.8916L7.73453 67.2645L7.16 64.32ZM3.56 30.24L3.18789 27.2632L0.267418 27.6282L0.576599 30.5551L3.56 30.24ZM16.04 27.12L17.049 29.9452L17.0932 29.9294L17.137 29.9122L16.04 27.12ZM29.24 20.64L27.7516 18.0353L27.731 18.047L27.7106 18.0591L29.24 20.64ZM41 12.48L42.9524 14.7578L42.9609 14.7505L41 12.48ZM48.92 3.59999V0.599995H47.2375L46.3602 2.03564L48.92 3.59999ZM81.8 3.59999H84.8V0.599995H81.8V3.59999ZM81.8 162V165H84.8V162H81.8ZM41.96 162H44.96V70.8H41.96H38.96V162H41.96ZM41.96 70.8H44.96C44.96 70.7919 44.96 70.7837 44.96 70.7756C44.96 70.7675 44.96 70.7594 44.96 70.7512C44.96 70.7431 44.96 70.735 44.96 70.7269C44.96 70.7187 44.96 70.7106 44.96 70.7025C44.96 70.6943 44.96 70.6862 44.96 70.6781C44.96 70.6699 44.96 70.6618 44.96 70.6537C44.96 70.6455 44.96 70.6374 44.96 70.6293C44.96 70.6211 44.96 70.613 44.96 70.6049C44.96 70.5967 44.96 70.5886 44.96 70.5805C44.96 70.5723 44.96 70.5642 44.96 70.5561C44.96 70.5479 44.96 70.5398 44.96 70.5316C44.96 70.5235 44.96 70.5154 44.96 70.5072C44.96 70.4991 44.96 70.491 44.96 70.4828C44.96 70.4747 44.96 70.4665 44.96 70.4584C44.96 70.4502 44.96 70.4421 44.96 70.434C44.96 70.4258 44.96 70.4177 44.96 70.4095C44.96 70.4014 44.96 70.3932 44.96 70.3851C44.96 70.3769 44.96 70.3688 44.96 70.3607C44.96 70.3525 44.96 70.3444 44.96 70.3362C44.96 70.3281 44.96 70.3199 44.96 70.3118C44.96 70.3036 44.96 70.2955 44.96 70.2873C44.96 70.2792 44.96 70.271 44.96 70.2629C44.96 70.2547 44.96 70.2466 44.96 70.2384C44.96 70.2302 44.96 70.2221 44.96 70.2139C44.96 70.2058 44.96 70.1976 44.96 70.1895C44.96 70.1813 44.96 70.1732 44.96 70.165C44.96 70.1568 44.96 70.1487 44.96 70.1405C44.96 70.1324 44.96 70.1242 44.96 70.1161C44.96 70.1079 44.96 70.0997 44.96 70.0916C44.96 70.0834 44.96 70.0753 44.96 70.0671C44.96 70.0589 44.96 70.0508 44.96 70.0426C44.96 70.0344 44.96 70.0263 44.96 70.0181C44.96 70.0099 44.96 70.0018 44.96 69.9936C44.96 69.9855 44.96 69.9773 44.96 69.9691C44.96 69.961 44.96 69.9528 44.96 69.9446C44.96 69.9365 44.96 69.9283 44.96 69.9201C44.96 69.912 44.96 69.9038 44.96 69.8956C44.96 69.8874 44.96 69.8793 44.96 69.8711C44.96 69.8629 44.96 69.8548 44.96 69.8466C44.96 69.8384 44.96 69.8302 44.96 69.8221C44.96 69.8139 44.96 69.8057 44.96 69.7975C44.96 69.7894 44.96 69.7812 44.96 69.773C44.96 69.7648 44.96 69.7567 44.96 69.7485C44.96 69.7403 44.96 69.7321 44.96 69.724C44.96 69.7158 44.96 69.7076 44.96 69.6994C44.96 69.6912 44.96 69.683 44.96 69.6749C44.96 69.6667 44.96 69.6585 44.96 69.6503C44.96 69.6421 44.96 69.634 44.96 69.6258C44.96 69.6176 44.96 69.6094 44.96 69.6012C44.96 69.593 44.96 69.5849 44.96 69.5767C44.96 69.5685 44.96 69.5603 44.96 69.5521C44.96 69.5439 44.96 69.5357 44.96 69.5275C44.96 69.5193 44.96 69.5112 44.96 69.503C44.96 69.4948 44.96 69.4866 44.96 69.4784C44.96 69.4702 44.96 69.462 44.96 69.4538C44.96 69.4456 44.96 69.4374 44.96 69.4292C44.96 69.4211 44.96 69.4129 44.96 69.4047C44.96 69.3965 44.96 69.3883 44.96 69.3801C44.96 69.3719 44.96 69.3637 44.96 69.3555C44.96 69.3473 44.96 69.3391 44.96 69.3309C44.96 69.3227 44.96 69.3145 44.96 69.3063C44.96 69.2981 44.96 69.2899 44.96 69.2817C44.96 69.2735 44.96 69.2653 44.96 69.2571C44.96 69.2489 44.96 69.2407 44.96 69.2325C44.96 69.2243 44.96 69.2161 44.96 69.2079C44.96 69.1997 44.96 69.1915 44.96 69.1833C44.96 69.1751 44.96 69.1669 44.96 69.1586C44.96 69.1504 44.96 69.1422 44.96 69.134C44.96 69.1258 44.96 69.1176 44.96 69.1094C44.96 69.1012 44.96 69.093 44.96 69.0848C44.96 69.0766 44.96 69.0683 44.96 69.0601C44.96 69.0519 44.96 69.0437 44.96 69.0355C44.96 69.0273 44.96 69.0191 44.96 69.0109C44.96 69.0027 44.96 68.9944 44.96 68.9862C44.96 68.978 44.96 68.9698 44.96 68.9616C44.96 68.9534 44.96 68.9451 44.96 68.9369C44.96 68.9287 44.96 68.9205 44.96 68.9123C44.96 68.904 44.96 68.8958 44.96 68.8876C44.96 68.8794 44.96 68.8712 44.96 68.8629C44.96 68.8547 44.96 68.8465 44.96 68.8383C44.96 68.8301 44.96 68.8218 44.96 68.8136C44.96 68.8054 44.96 68.7972 44.96 68.7889C44.96 68.7807 44.96 68.7725 44.96 68.7643C44.96 68.756 44.96 68.7478 44.96 68.7396C44.96 68.7313 44.96 68.7231 44.96 68.7149C44.96 68.7067 44.96 68.6984 44.96 68.6902C44.96 68.682 44.96 68.6737 44.96 68.6655C44.96 68.6573 44.96 68.649 44.96 68.6408C44.96 68.6326 44.96 68.6244 44.96 68.6161C44.96 68.6079 44.96 68.5996 44.96 68.5914C44.96 68.5832 44.96 68.5749 44.96 68.5667C44.96 68.5585 44.96 68.5502 44.96 68.542C44.96 68.5338 44.96 68.5255 44.96 68.5173C44.96 68.509 44.96 68.5008 44.96 68.4926C44.96 68.4843 44.96 68.4761 44.96 68.4678C44.96 68.4596 44.96 68.4514 44.96 68.4431C44.96 68.4349 44.96 68.4266 44.96 68.4184C44.96 68.4101 44.96 68.4019 44.96 68.3937C44.96 68.3854 44.96 68.3772 44.96 68.3689C44.96 68.3607 44.96 68.3524 44.96 68.3442C44.96 68.3359 44.96 68.3277 44.96 68.3194C44.96 68.3112 44.96 68.3029 44.96 68.2947C44.96 68.2864 44.96 68.2782 44.96 68.2699C44.96 68.2617 44.96 68.2534 44.96 68.2452C44.96 68.2369 44.96 68.2287 44.96 68.2204C44.96 68.2122 44.96 68.2039 44.96 68.1957C44.96 68.1874 44.96 68.1792 44.96 68.1709C44.96 68.1627 44.96 68.1544 44.96 68.1461C44.96 68.1379 44.96 68.1296 44.96 68.1214C44.96 68.1131 44.96 68.1049 44.96 68.0966C44.96 68.0883 44.96 68.0801 44.96 68.0718C44.96 68.0635 44.96 68.0553 44.96 68.047C44.96 68.0388 44.96 68.0305 44.96 68.0222C44.96 68.014 44.96 68.0057 44.96 67.9975C44.96 67.9892 44.96 67.9809 44.96 67.9727C44.96 67.9644 44.96 67.9561 44.96 67.9479C44.96 67.9396 44.96 67.9313 44.96 67.9231C44.96 67.9148 44.96 67.9065 44.96 67.8982C44.96 67.89 44.96 67.8817 44.96 67.8734C44.96 67.8652 44.96 67.8569 44.96 67.8486C44.96 67.8404 44.96 67.8321 44.96 67.8238C44.96 67.8155 44.96 67.8073 44.96 67.799C44.96 67.7907 44.96 67.7824 44.96 67.7742C44.96 67.7659 44.96 67.7576 44.96 67.7493C44.96 67.7411 44.96 67.7328 44.96 67.7245C44.96 67.7162 44.96 67.708 44.96 67.6997C44.96 67.6914 44.96 67.6831 44.96 67.6748C44.96 67.6666 44.96 67.6583 44.96 67.65C44.96 67.6417 44.96 67.6334 44.96 67.6252C44.96 67.6169 44.96 67.6086 44.96 67.6003C44.96 67.592 44.96 67.5837 44.96 67.5754C44.96 67.5672 44.96 67.5589 44.96 67.5506C44.96 67.5423 44.96 67.534 44.96 67.5257C44.96 67.5174 44.96 67.5092 44.96 67.5009C44.96 67.4926 44.96 67.4843 44.96 67.476C44.96 67.4677 44.96 67.4594 44.96 67.4511C44.96 67.4428 44.96 67.4345 44.96 67.4263C44.96 67.418 44.96 67.4097 44.96 67.4014C44.96 67.3931 44.96 67.3848 44.96 67.3765C44.96 67.3682 44.96 67.3599 44.96 67.3516C44.96 67.3433 44.96 67.335 44.96 67.3267C44.96 67.3184 44.96 67.3101 44.96 67.3018C44.96 67.2935 44.96 67.2852 44.96 67.2769C44.96 67.2686 44.96 67.2603 44.96 67.252C44.96 67.2437 44.96 67.2354 44.96 67.2271C44.96 67.2188 44.96 67.2105 44.96 67.2022C44.96 67.1939 44.96 67.1856 44.96 67.1773C44.96 67.169 44.96 67.1607 44.96 67.1524C44.96 67.1441 44.96 67.1358 44.96 67.1275C44.96 67.1192 44.96 67.1109 44.96 67.1025C44.96 67.0942 44.96 67.0859 44.96 67.0776C44.96 67.0693 44.96 67.061 44.96 67.0527C44.96 67.0444 44.96 67.0361 44.96 67.0278C44.96 67.0194 44.96 67.0111 44.96 67.0028C44.96 66.9945 44.96 66.9862 44.96 66.9779C44.96 66.9696 44.96 66.9613 44.96 66.9529C44.96 66.9446 44.96 66.9363 44.96 66.928C44.96 66.9197 44.96 66.9114 44.96 66.903C44.96 66.8947 44.96 66.8864 44.96 66.8781C44.96 66.8698 44.96 66.8614 44.96 66.8531C44.96 66.8448 44.96 66.8365 44.96 66.8282C44.96 66.8198 44.96 66.8115 44.96 66.8032C44.96 66.7949 44.96 66.7865 44.96 66.7782C44.96 66.7699 44.96 66.7616 44.96 66.7533C44.96 66.7449 44.96 66.7366 44.96 66.7283C44.96 66.7199 44.96 66.7116 44.96 66.7033C44.96 66.695 44.96 66.6866 44.96 66.6783C44.96 66.67 44.96 66.6616 44.96 66.6533C44.96 66.645 44.96 66.6367 44.96 66.6283C44.96 66.62 44.96 66.6117 44.96 66.6033C44.96 66.595 44.96 66.5867 44.96 66.5783C44.96 66.57 44.96 66.5617 44.96 66.5533C44.96 66.545 44.96 66.5367 44.96 66.5283C44.96 66.52 44.96 66.5116 44.96 66.5033C44.96 66.495 44.96 66.4866 44.96 66.4783C44.96 66.47 44.96 66.4616 44.96 66.4533C44.96 66.4449 44.96 66.4366 44.96 66.4283C44.96 66.4199 44.96 66.4116 44.96 66.4032C44.96 66.3949 44.96 66.3865 44.96 66.3782C44.96 66.3699 44.96 66.3615 44.96 66.3532C44.96 66.3448 44.96 66.3365 44.96 66.3281C44.96 66.3198 44.96 66.3114 44.96 66.3031C44.96 66.2947 44.96 66.2864 44.96 66.2781C44.96 66.2697 44.96 66.2614 44.96 66.253C44.96 66.2447 44.96 66.2363 44.96 66.228C44.96 66.2196 44.96 66.2113 44.96 66.2029C44.96 66.1945 44.96 66.1862 44.96 66.1778C44.96 66.1695 44.96 66.1611 44.96 66.1528C44.96 66.1444 44.96 66.1361 44.96 66.1277C44.96 66.1194 44.96 66.111 44.96 66.1026C44.96 66.0943 44.96 66.0859 44.96 66.0776C44.96 66.0692 44.96 66.0609 44.96 66.0525C44.96 66.0441 44.96 66.0358 44.96 66.0274C44.96 66.0191 44.96 66.0107 44.96 66.0023C44.96 65.994 44.96 65.9856 44.96 65.9772C44.96 65.9689 44.96 65.9605 44.96 65.9522C44.96 65.9438 44.96 65.9354 44.96 65.9271C44.96 65.9187 44.96 65.9103 44.96 65.902C44.96 65.8936 44.96 65.8852 44.96 65.8769C44.96 65.8685 44.96 65.8601 44.96 65.8518C44.96 65.8434 44.96 65.835 44.96 65.8266C44.96 65.8183 44.96 65.8099 44.96 65.8015C44.96 65.7932 44.96 65.7848 44.96 65.7764C44.96 65.768 44.96 65.7597 44.96 65.7513C44.96 65.7429 44.96 65.7345 44.96 65.7262C44.96 65.7178 44.96 65.7094 44.96 65.701C44.96 65.6927 44.96 65.6843 44.96 65.6759C44.96 65.6675 44.96 65.6592 44.96 65.6508C44.96 65.6424 44.96 65.634 44.96 65.6256C44.96 65.6173 44.96 65.6089 44.96 65.6005C44.96 65.5921 44.96 65.5837 44.96 65.5753C44.96 65.567 44.96 65.5586 44.96 65.5502C44.96 65.5418 44.96 65.5334 44.96 65.525C44.96 65.5167 44.96 65.5083 44.96 65.4999C44.96 65.4915 44.96 65.4831 44.96 65.4747C44.96 65.4663 44.96 65.458 44.96 65.4496C44.96 65.4412 44.96 65.4328 44.96 65.4244C44.96 65.416 44.96 65.4076 44.96 65.3992C44.96 65.3908 44.96 65.3824 44.96 65.3741C44.96 65.3657 44.96 65.3573 44.96 65.3489C44.96 65.3405 44.96 65.3321 44.96 65.3237C44.96 65.3153 44.96 65.3069 44.96 65.2985C44.96 65.2901 44.96 65.2817 44.96 65.2733C44.96 65.2649 44.96 65.2565 44.96 65.2481C44.96 65.2397 44.96 65.2313 44.96 65.2229C44.96 65.2145 44.96 65.2061 44.96 65.1977C44.96 65.1893 44.96 65.1809 44.96 65.1725C44.96 65.1641 44.96 65.1557 44.96 65.1473C44.96 65.1389 44.96 65.1305 44.96 65.1221C44.96 65.1137 44.96 65.1053 44.96 65.0969C44.96 65.0885 44.96 65.0801 44.96 65.0717C44.96 65.0633 44.96 65.0548 44.96 65.0464C44.96 65.038 44.96 65.0296 44.96 65.0212C44.96 65.0128 44.96 65.0044 44.96 64.996C44.96 64.9876 44.96 64.9792 44.96 64.9707C44.96 64.9623 44.96 64.9539 44.96 64.9455C44.96 64.9371 44.96 64.9287 44.96 64.9203C44.96 64.9119 44.96 64.9034 44.96 64.895C44.96 64.8866 44.96 64.8782 44.96 64.8698C44.96 64.8614 44.96 64.8529 44.96 64.8445C44.96 64.8361 44.96 64.8277 44.96 64.8193C44.96 64.8109 44.96 64.8024 44.96 64.794C44.96 64.7856 44.96 64.7772 44.96 64.7687C44.96 64.7603 44.96 64.7519 44.96 64.7435C44.96 64.7351 44.96 64.7266 44.96 64.7182C44.96 64.7098 44.96 64.7014 44.96 64.6929C44.96 64.6845 44.96 64.6761 44.96 64.6677C44.96 64.6592 44.96 64.6508 44.96 64.6424C44.96 64.6339 44.96 64.6255 44.96 64.6171C44.96 64.6087 44.96 64.6002 44.96 64.5918C44.96 64.5834 44.96 64.5749 44.96 64.5665C44.96 64.5581 44.96 64.5497 44.96 64.5412C44.96 64.5328 44.96 64.5244 44.96 64.5159C44.96 64.5075 44.96 64.499 44.96 64.4906C44.96 64.4822 44.96 64.4737 44.96 64.4653C44.96 64.4569 44.96 64.4484 44.96 64.44C44.96 64.4316 44.96 64.4231 44.96 64.4147C44.96 64.4062 44.96 64.3978 44.96 64.3894C44.96 64.3809 44.96 64.3725 44.96 64.364C44.96 64.3556 44.96 64.3472 44.96 64.3387C44.96 64.3303 44.96 64.3218 44.96 64.3134C44.96 64.3049 44.96 64.2965 44.96 64.2881C44.96 64.2796 44.96 64.2712 44.96 64.2627C44.96 64.2543 44.96 64.2458 44.96 64.2374C44.96 64.2289 44.96 64.2205 44.96 64.212C44.96 64.2036 44.96 64.1951 44.96 64.1867C44.96 64.1782 44.96 64.1698 44.96 64.1613C44.96 64.1529 44.96 64.1444 44.96 64.136C44.96 64.1275 44.96 64.1191 44.96 64.1106C44.96 64.1022 44.96 64.0937 44.96 64.0853C44.96 64.0768 44.96 64.0684 44.96 64.0599C44.96 64.0514 44.96 64.043 44.96 64.0345C44.96 64.0261 44.96 64.0176 44.96 64.0092C44.96 64.0007 44.96 63.9922 44.96 63.9838C44.96 63.9753 44.96 63.9669 44.96 63.9584C44.96 63.9499 44.96 63.9415 44.96 63.933C44.96 63.9246 44.96 63.9161 44.96 63.9076C44.96 63.8992 44.96 63.8907 44.96 63.8822C44.96 63.8738 44.96 63.8653 44.96 63.8568C44.96 63.8484 44.96 63.8399 44.96 63.8314C44.96 63.823 44.96 63.8145 44.96 63.806C44.96 63.7976 44.96 63.7891 44.96 63.7806C44.96 63.7722 44.96 63.7637 44.96 63.7552C44.96 63.7467 44.96 63.7383 44.96 63.7298C44.96 63.7213 44.96 63.7129 44.96 63.7044C44.96 63.6959 44.96 63.6874 44.96 63.679C44.96 63.6705 44.96 63.662 44.96 63.6535C44.96 63.6451 44.96 63.6366 44.96 63.6281C44.96 63.6196 44.96 63.6112 44.96 63.6027C44.96 63.5942 44.96 63.5857 44.96 63.5773C44.96 63.5688 44.96 63.5603 44.96 63.5518C44.96 63.5433 44.96 63.5349 44.96 63.5264C44.96 63.5179 44.96 63.5094 44.96 63.5009C44.96 63.4924 44.96 63.484 44.96 63.4755C44.96 63.467 44.96 63.4585 44.96 63.45C44.96 63.4415 44.96 63.4331 44.96 63.4246C44.96 63.4161 44.96 63.4076 44.96 63.3991C44.96 63.3906 44.96 63.3821 44.96 63.3736C44.96 63.3652 44.96 63.3567 44.96 63.3482C44.96 63.3397 44.96 63.3312 44.96 63.3227C44.96 63.3142 44.96 63.3057 44.96 63.2972C44.96 63.2887 44.96 63.2802 44.96 63.2717C44.96 63.2633 44.96 63.2548 44.96 63.2463C44.96 63.2378 44.96 63.2293 44.96 63.2208C44.96 63.2123 44.96 63.2038 44.96 63.1953C44.96 63.1868 44.96 63.1783 44.96 63.1698C44.96 63.1613 44.96 63.1528 44.96 63.1443C44.96 63.1358 44.96 63.1273 44.96 63.1188C44.96 63.1103 44.96 63.1018 44.96 63.0933C44.96 63.0848 44.96 63.0763 44.96 63.0678C44.96 63.0593 44.96 63.0508 44.96 63.0423C44.96 63.0338 44.96 63.0253 44.96 63.0168C44.96 63.0082 44.96 62.9997 44.96 62.9912C44.96 62.9827 44.96 62.9742 44.96 62.9657C44.96 62.9572 44.96 62.9487 44.96 62.9402C44.96 62.9317 44.96 62.9232 44.96 62.9147C44.96 62.9061 44.96 62.8976 44.96 62.8891C44.96 62.8806 44.96 62.8721 44.96 62.8636C44.96 62.8551 44.96 62.8466 44.96 62.838C44.96 62.8295 44.96 62.821 44.96 62.8125C44.96 62.804 44.96 62.7955 44.96 62.7869C44.96 62.7784 44.96 62.7699 44.96 62.7614C44.96 62.7529 44.96 62.7444 44.96 62.7358C44.96 62.7273 44.96 62.7188 44.96 62.7103C44.96 62.7018 44.96 62.6932 44.96 62.6847C44.96 62.6762 44.96 62.6677 44.96 62.6591C44.96 62.6506 44.96 62.6421 44.96 62.6336C44.96 62.6251 44.96 62.6165 44.96 62.608C44.96 62.5995 44.96 62.591 44.96 62.5824C44.96 62.5739 44.96 62.5654 44.96 62.5568C44.96 62.5483 44.96 62.5398 44.96 62.5313C44.96 62.5227 44.96 62.5142 44.96 62.5057C44.96 62.4971 44.96 62.4886 44.96 62.4801C44.96 62.4715 44.96 62.463 44.96 62.4545C44.96 62.4459 44.96 62.4374 44.96 62.4289C44.96 62.4203 44.96 62.4118 44.96 62.4033C44.96 62.3947 44.96 62.3862 44.96 62.3777C44.96 62.3691 44.96 62.3606 44.96 62.3521C44.96 62.3435 44.96 62.335 44.96 62.3264C44.96 62.3179 44.96 62.3094 44.96 62.3008C44.96 62.2923 44.96 62.2837 44.96 62.2752C44.96 62.2667 44.96 62.2581 44.96 62.2496C44.96 62.241 44.96 62.2325 44.96 62.2239C44.96 62.2154 44.96 62.2069 44.96 62.1983C44.96 62.1898 44.96 62.1812 44.96 62.1727C44.96 62.1641 44.96 62.1556 44.96 62.147C44.96 62.1385 44.96 62.1299 44.96 62.1214C44.96 62.1128 44.96 62.1043 44.96 62.0957C44.96 62.0872 44.96 62.0786 44.96 62.0701C44.96 62.0615 44.96 62.053 44.96 62.0444C44.96 62.0359 44.96 62.0273 44.96 62.0188C44.96 62.0102 44.96 62.0017 44.96 61.9931C44.96 61.9846 44.96 61.976 44.96 61.9675C44.96 61.9589 44.96 61.9503 44.96 61.9418C44.96 61.9332 44.96 61.9247 44.96 61.9161C44.96 61.9076 44.96 61.899 44.96 61.8904C44.96 61.8819 44.96 61.8733 44.96 61.8648C44.96 61.8562 44.96 61.8476 44.96 61.8391C44.96 61.8305 44.96 61.8219 44.96 61.8134C44.96 61.8048 44.96 61.7963 44.96 61.7877C44.96 61.7791 44.96 61.7706 44.96 61.762C44.96 61.7534 44.96 61.7449 44.96 61.7363C44.96 61.7277 44.96 61.7192 44.96 61.7106C44.96 61.702 44.96 61.6935 44.96 61.6849C44.96 61.6763 44.96 61.6677 44.96 61.6592C44.96 61.6506 44.96 61.642 44.96 61.6335C44.96 61.6249 44.96 61.6163 44.96 61.6077C44.96 61.5992 44.96 61.5906 44.96 61.582C44.96 61.5735 44.96 61.5649 44.96 61.5563C44.96 61.5477 44.96 61.5392 44.96 61.5306C44.96 61.522 44.96 61.5134 44.96 61.5048C44.96 61.4963 44.96 61.4877 44.96 61.4791C44.96 61.4705 44.96 61.462 44.96 61.4534C44.96 61.4448 44.96 61.4362 44.96 61.4276C44.96 61.419 44.96 61.4105 44.96 61.4019C44.96 61.3933 44.96 61.3847 44.96 61.3761C44.96 61.3675 44.96 61.359 44.96 61.3504C44.96 61.3418 44.96 61.3332 44.96 61.3246C44.96 61.316 44.96 61.3074 44.96 61.2989C44.96 61.2903 44.96 61.2817 44.96 61.2731C44.96 61.2645 44.96 61.2559 44.96 61.2473C44.96 61.2387 44.96 61.2301 44.96 61.2215C44.96 61.213 44.96 61.2044 44.96 61.1958C44.96 61.1872 44.96 61.1786 44.96 61.17C44.96 61.1614 44.96 61.1528 44.96 61.1442C44.96 61.1356 44.96 61.127 44.96 61.1184C44.96 61.1098 44.96 61.1012 44.96 61.0926C44.96 61.084 44.96 61.0754 44.96 61.0668C44.96 61.0582 44.96 61.0496 44.96 61.041C44.96 61.0324 44.96 61.0238 44.96 61.0152C44.96 61.0066 44.96 60.998 44.96 60.9894C44.96 60.9808 44.96 60.9722 44.96 60.9636C44.96 60.955 44.96 60.9464 44.96 60.9378C44.96 60.9292 44.96 60.9206 44.96 60.912C44.96 60.9034 44.96 60.8948 44.96 60.8862C44.96 60.8776 44.96 60.869 44.96 60.8604C44.96 60.8517 44.96 60.8431 44.96 60.8345C44.96 60.8259 44.96 60.8173 44.96 60.8087C44.96 60.8001 44.96 60.7915 44.96 60.7829C44.96 60.7743 44.96 60.7656 44.96 60.757C44.96 60.7484 44.96 60.7398 44.96 60.7312C44.96 60.7226 44.96 60.714 44.96 60.7053C44.96 60.6967 44.96 60.6881 44.96 60.6795C44.96 60.6709 44.96 60.6623 44.96 60.6536C44.96 60.645 44.96 60.6364 44.96 60.6278C44.96 60.6192 44.96 60.6105 44.96 60.6019C44.96 60.5933 44.96 60.5847 44.96 60.5761C44.96 60.5674 44.96 60.5588 44.96 60.5502C44.96 60.5416 44.96 60.5329 44.96 60.5243C44.96 60.5157 44.96 60.5071 44.96 60.4984C44.96 60.4898 44.96 60.4812 44.96 60.4726C44.96 60.4639 44.96 60.4553 44.96 60.4467C44.96 60.4381 44.96 60.4294 44.96 60.4208C44.96 60.4122 44.96 60.4035 44.96 60.3949C44.96 60.3863 44.96 60.3776 44.96 60.369C44.96 60.3604 44.96 60.3518 44.96 60.3431C44.96 60.3345 44.96 60.3259 44.96 60.3172C44.96 60.3086 44.96 60.2999 44.96 60.2913C44.96 60.2827 44.96 60.274 44.96 60.2654C44.96 60.2568 44.96 60.2481 44.96 60.2395C44.96 60.2309 44.96 60.2222 44.96 60.2136C44.96 60.2049 44.96 60.1963 44.96 60.1877C44.96 60.179 44.96 60.1704 44.96 60.1617C44.96 60.1531 44.96 60.1445 44.96 60.1358C44.96 60.1272 44.96 60.1185 44.96 60.1099C44.96 60.1012 44.96 60.0926 44.96 60.084C44.96 60.0753 44.96 60.0667 44.96 60.058C44.96 60.0494 44.96 60.0407 44.96 60.0321C44.96 60.0234 44.96 60.0148 44.96 60.0061C44.96 59.9975 44.96 59.9888 44.96 59.9802C44.96 59.9715 44.96 59.9629 44.96 59.9542C44.96 59.9456 44.96 59.9369 44.96 59.9283C44.96 59.9196 44.96 59.911 44.96 59.9023C44.96 59.8937 44.96 59.885 44.96 59.8764C44.96 59.8677 44.96 59.859 44.96 59.8504C44.96 59.8417 44.96 59.8331 44.96 59.8244C44.96 59.8158 44.96 59.8071 44.96 59.7984C44.96 59.7898 44.96 59.7811 44.96 59.7725C44.96 59.7638 44.96 59.7551 44.96 59.7465C44.96 59.7378 44.96 59.7292 44.96 59.7205C44.96 59.7118 44.96 59.7032 44.96 59.6945C44.96 59.6859 44.96 59.6772 44.96 59.6685C44.96 59.6599 44.96 59.6512 44.96 59.6425C44.96 59.6339 44.96 59.6252 44.96 59.6165C44.96 59.6079 44.96 59.5992 44.96 59.5905C44.96 59.5819 44.96 59.5732 44.96 59.5645C44.96 59.5558 44.96 59.5472 44.96 59.5385C44.96 59.5298 44.96 59.5212 44.96 59.5125C44.96 59.5038 44.96 59.4952 44.96 59.4865C44.96 59.4778 44.96 59.4691 44.96 59.4605C44.96 59.4518 44.96 59.4431 44.96 59.4344C44.96 59.4258 44.96 59.4171 44.96 59.4084C44.96 59.3997 44.96 59.3911 44.96 59.3824C44.96 59.3737 44.96 59.365 44.96 59.3563C44.96 59.3477 44.96 59.339 44.96 59.3303C44.96 59.3216 44.96 59.3129 44.96 59.3043C44.96 59.2956 44.96 59.2869 44.96 59.2782C44.96 59.2695 44.96 59.2608 44.96 59.2522C44.96 59.2435 44.96 59.2348 44.96 59.2261C44.96 59.2174 44.96 59.2087 44.96 59.2C44.96 59.1914 44.96 59.1827 44.96 59.174C44.96 59.1653 44.96 59.1566 44.96 59.1479C44.96 59.1392 44.96 59.1305 44.96 59.1218C44.96 59.1132 44.96 59.1045 44.96 59.0958C44.96 59.0871 44.96 59.0784 44.96 59.0697C44.96 59.061 44.96 59.0523 44.96 59.0436C44.96 59.0349 44.96 59.0262 44.96 59.0175C44.96 59.0088 44.96 59.0001 44.96 58.9915C44.96 58.9828 44.96 58.9741 44.96 58.9654C44.96 58.9567 44.96 58.948 44.96 58.9393C44.96 58.9306 44.96 58.9219 44.96 58.9132C44.96 58.9045 44.96 58.8958 44.96 58.8871C44.96 58.8784 44.96 58.8697 44.96 58.861C44.96 58.8523 44.96 58.8436 44.96 58.8349C44.96 58.8261 44.96 58.8174 44.96 58.8087C44.96 58.8 44.96 58.7913 44.96 58.7826C44.96 58.7739 44.96 58.7652 44.96 58.7565C44.96 58.7478 44.96 58.7391 44.96 58.7304C44.96 58.7217 44.96 58.713 44.96 58.7043C44.96 58.6955 44.96 58.6868 44.96 58.6781C44.96 58.6694 44.96 58.6607 44.96 58.652C44.96 58.6433 44.96 58.6346 44.96 58.6258C44.96 58.6171 44.96 58.6084 44.96 58.5997C44.96 58.591 44.96 58.5823 44.96 58.5736C44.96 58.5648 44.96 58.5561 44.96 58.5474C44.96 58.5387 44.96 58.53 44.96 58.5213C44.96 58.5125 44.96 58.5038 44.96 58.4951C44.96 58.4864 44.96 58.4777 44.96 58.4689C44.96 58.4602 44.96 58.4515 44.96 58.4428C44.96 58.4341 44.96 58.4253 44.96 58.4166C44.96 58.4079 44.96 58.3992 44.96 58.3904C44.96 58.3817 44.96 58.373 44.96 58.3643C44.96 58.3555 44.96 58.3468 44.96 58.3381C44.96 58.3294 44.96 58.3206 44.96 58.3119C44.96 58.3032 44.96 58.2944 44.96 58.2857C44.96 58.277 44.96 58.2683 44.96 58.2595C44.96 58.2508 44.96 58.2421 44.96 58.2333C44.96 58.2246 44.96 58.2159 44.96 58.2071C44.96 58.1984 44.96 58.1897 44.96 58.1809C44.96 58.1722 44.96 58.1635 44.96 58.1547C44.96 58.146 44.96 58.1373 44.96 58.1285C44.96 58.1198 44.96 58.1111 44.96 58.1023C44.96 58.0936 44.96 58.0848 44.96 58.0761C44.96 58.0674 44.96 58.0586 44.96 58.0499C44.96 58.0411 44.96 58.0324 44.96 58.0237C44.96 58.0149 44.96 58.0062 44.96 57.9974C44.96 57.9887 44.96 57.9799 44.96 57.9712C44.96 57.9625 44.96 57.9537 44.96 57.945C44.96 57.9362 44.96 57.9275 44.96 57.9187C44.96 57.91 44.96 57.9012 44.96 57.8925C44.96 57.8837 44.96 57.875 44.96 57.8662C44.96 57.8575 44.96 57.8487 44.96 57.84H41.96H38.96C38.96 57.8487 38.96 57.8575 38.96 57.8662C38.96 57.875 38.96 57.8837 38.96 57.8925C38.96 57.9012 38.96 57.91 38.96 57.9187C38.96 57.9275 38.96 57.9362 38.96 57.945C38.96 57.9537 38.96 57.9625 38.96 57.9712C38.96 57.9799 38.96 57.9887 38.96 57.9974C38.96 58.0062 38.96 58.0149 38.96 58.0237C38.96 58.0324 38.96 58.0411 38.96 58.0499C38.96 58.0586 38.96 58.0674 38.96 58.0761C38.96 58.0848 38.96 58.0936 38.96 58.1023C38.96 58.1111 38.96 58.1198 38.96 58.1285C38.96 58.1373 38.96 58.146 38.96 58.1547C38.96 58.1635 38.96 58.1722 38.96 58.1809C38.96 58.1897 38.96 58.1984 38.96 58.2071C38.96 58.2159 38.96 58.2246 38.96 58.2333C38.96 58.2421 38.96 58.2508 38.96 58.2595C38.96 58.2683 38.96 58.277 38.96 58.2857C38.96 58.2944 38.96 58.3032 38.96 58.3119C38.96 58.3206 38.96 58.3294 38.96 58.3381C38.96 58.3468 38.96 58.3555 38.96 58.3643C38.96 58.373 38.96 58.3817 38.96 58.3904C38.96 58.3992 38.96 58.4079 38.96 58.4166C38.96 58.4253 38.96 58.4341 38.96 58.4428C38.96 58.4515 38.96 58.4602 38.96 58.4689C38.96 58.4777 38.96 58.4864 38.96 58.4951C38.96 58.5038 38.96 58.5125 38.96 58.5213C38.96 58.53 38.96 58.5387 38.96 58.5474C38.96 58.5561 38.96 58.5648 38.96 58.5736C38.96 58.5823 38.96 58.591 38.96 58.5997C38.96 58.6084 38.96 58.6171 38.96 58.6258C38.96 58.6346 38.96 58.6433 38.96 58.652C38.96 58.6607 38.96 58.6694 38.96 58.6781C38.96 58.6868 38.96 58.6955 38.96 58.7043C38.96 58.713 38.96 58.7217 38.96 58.7304C38.96 58.7391 38.96 58.7478 38.96 58.7565C38.96 58.7652 38.96 58.7739 38.96 58.7826C38.96 58.7913 38.96 58.8 38.96 58.8087C38.96 58.8174 38.96 58.8261 38.96 58.8349C38.96 58.8436 38.96 58.8523 38.96 58.861C38.96 58.8697 38.96 58.8784 38.96 58.8871C38.96 58.8958 38.96 58.9045 38.96 58.9132C38.96 58.9219 38.96 58.9306 38.96 58.9393C38.96 58.948 38.96 58.9567 38.96 58.9654C38.96 58.9741 38.96 58.9828 38.96 58.9915C38.96 59.0001 38.96 59.0088 38.96 59.0175C38.96 59.0262 38.96 59.0349 38.96 59.0436C38.96 59.0523 38.96 59.061 38.96 59.0697C38.96 59.0784 38.96 59.0871 38.96 59.0958C38.96 59.1045 38.96 59.1132 38.96 59.1218C38.96 59.1305 38.96 59.1392 38.96 59.1479C38.96 59.1566 38.96 59.1653 38.96 59.174C38.96 59.1827 38.96 59.1914 38.96 59.2C38.96 59.2087 38.96 59.2174 38.96 59.2261C38.96 59.2348 38.96 59.2435 38.96 59.2522C38.96 59.2608 38.96 59.2695 38.96 59.2782C38.96 59.2869 38.96 59.2956 38.96 59.3043C38.96 59.3129 38.96 59.3216 38.96 59.3303C38.96 59.339 38.96 59.3477 38.96 59.3563C38.96 59.365 38.96 59.3737 38.96 59.3824C38.96 59.3911 38.96 59.3997 38.96 59.4084C38.96 59.4171 38.96 59.4258 38.96 59.4344C38.96 59.4431 38.96 59.4518 38.96 59.4605C38.96 59.4691 38.96 59.4778 38.96 59.4865C38.96 59.4952 38.96 59.5038 38.96 59.5125C38.96 59.5212 38.96 59.5298 38.96 59.5385C38.96 59.5472 38.96 59.5558 38.96 59.5645C38.96 59.5732 38.96 59.5819 38.96 59.5905C38.96 59.5992 38.96 59.6079 38.96 59.6165C38.96 59.6252 38.96 59.6339 38.96 59.6425C38.96 59.6512 38.96 59.6599 38.96 59.6685C38.96 59.6772 38.96 59.6859 38.96 59.6945C38.96 59.7032 38.96 59.7118 38.96 59.7205C38.96 59.7292 38.96 59.7378 38.96 59.7465C38.96 59.7551 38.96 59.7638 38.96 59.7725C38.96 59.7811 38.96 59.7898 38.96 59.7984C38.96 59.8071 38.96 59.8158 38.96 59.8244C38.96 59.8331 38.96 59.8417 38.96 59.8504C38.96 59.859 38.96 59.8677 38.96 59.8764C38.96 59.885 38.96 59.8937 38.96 59.9023C38.96 59.911 38.96 59.9196 38.96 59.9283C38.96 59.9369 38.96 59.9456 38.96 59.9542C38.96 59.9629 38.96 59.9715 38.96 59.9802C38.96 59.9888 38.96 59.9975 38.96 60.0061C38.96 60.0148 38.96 60.0234 38.96 60.0321C38.96 60.0407 38.96 60.0494 38.96 60.058C38.96 60.0667 38.96 60.0753 38.96 60.084C38.96 60.0926 38.96 60.1012 38.96 60.1099C38.96 60.1185 38.96 60.1272 38.96 60.1358C38.96 60.1445 38.96 60.1531 38.96 60.1617C38.96 60.1704 38.96 60.179 38.96 60.1877C38.96 60.1963 38.96 60.2049 38.96 60.2136C38.96 60.2222 38.96 60.2309 38.96 60.2395C38.96 60.2481 38.96 60.2568 38.96 60.2654C38.96 60.274 38.96 60.2827 38.96 60.2913C38.96 60.2999 38.96 60.3086 38.96 60.3172C38.96 60.3259 38.96 60.3345 38.96 60.3431C38.96 60.3518 38.96 60.3604 38.96 60.369C38.96 60.3776 38.96 60.3863 38.96 60.3949C38.96 60.4035 38.96 60.4122 38.96 60.4208C38.96 60.4294 38.96 60.4381 38.96 60.4467C38.96 60.4553 38.96 60.4639 38.96 60.4726C38.96 60.4812 38.96 60.4898 38.96 60.4984C38.96 60.5071 38.96 60.5157 38.96 60.5243C38.96 60.5329 38.96 60.5416 38.96 60.5502C38.96 60.5588 38.96 60.5674 38.96 60.5761C38.96 60.5847 38.96 60.5933 38.96 60.6019C38.96 60.6105 38.96 60.6192 38.96 60.6278C38.96 60.6364 38.96 60.645 38.96 60.6536C38.96 60.6623 38.96 60.6709 38.96 60.6795C38.96 60.6881 38.96 60.6967 38.96 60.7053C38.96 60.714 38.96 60.7226 38.96 60.7312C38.96 60.7398 38.96 60.7484 38.96 60.757C38.96 60.7656 38.96 60.7743 38.96 60.7829C38.96 60.7915 38.96 60.8001 38.96 60.8087C38.96 60.8173 38.96 60.8259 38.96 60.8345C38.96 60.8431 38.96 60.8517 38.96 60.8604C38.96 60.869 38.96 60.8776 38.96 60.8862C38.96 60.8948 38.96 60.9034 38.96 60.912C38.96 60.9206 38.96 60.9292 38.96 60.9378C38.96 60.9464 38.96 60.955 38.96 60.9636C38.96 60.9722 38.96 60.9808 38.96 60.9894C38.96 60.998 38.96 61.0066 38.96 61.0152C38.96 61.0238 38.96 61.0324 38.96 61.041C38.96 61.0496 38.96 61.0582 38.96 61.0668C38.96 61.0754 38.96 61.084 38.96 61.0926C38.96 61.1012 38.96 61.1098 38.96 61.1184C38.96 61.127 38.96 61.1356 38.96 61.1442C38.96 61.1528 38.96 61.1614 38.96 61.17C38.96 61.1786 38.96 61.1872 38.96 61.1958C38.96 61.2044 38.96 61.213 38.96 61.2215C38.96 61.2301 38.96 61.2387 38.96 61.2473C38.96 61.2559 38.96 61.2645 38.96 61.2731C38.96 61.2817 38.96 61.2903 38.96 61.2989C38.96 61.3074 38.96 61.316 38.96 61.3246C38.96 61.3332 38.96 61.3418 38.96 61.3504C38.96 61.359 38.96 61.3675 38.96 61.3761C38.96 61.3847 38.96 61.3933 38.96 61.4019C38.96 61.4105 38.96 61.419 38.96 61.4276C38.96 61.4362 38.96 61.4448 38.96 61.4534C38.96 61.462 38.96 61.4705 38.96 61.4791C38.96 61.4877 38.96 61.4963 38.96 61.5048C38.96 61.5134 38.96 61.522 38.96 61.5306C38.96 61.5392 38.96 61.5477 38.96 61.5563C38.96 61.5649 38.96 61.5735 38.96 61.582C38.96 61.5906 38.96 61.5992 38.96 61.6077C38.96 61.6163 38.96 61.6249 38.96 61.6335C38.96 61.642 38.96 61.6506 38.96 61.6592C38.96 61.6677 38.96 61.6763 38.96 61.6849C38.96 61.6935 38.96 61.702 38.96 61.7106C38.96 61.7192 38.96 61.7277 38.96 61.7363C38.96 61.7449 38.96 61.7534 38.96 61.762C38.96 61.7706 38.96 61.7791 38.96 61.7877C38.96 61.7963 38.96 61.8048 38.96 61.8134C38.96 61.8219 38.96 61.8305 38.96 61.8391C38.96 61.8476 38.96 61.8562 38.96 61.8648C38.96 61.8733 38.96 61.8819 38.96 61.8904C38.96 61.899 38.96 61.9076 38.96 61.9161C38.96 61.9247 38.96 61.9332 38.96 61.9418C38.96 61.9503 38.96 61.9589 38.96 61.9675C38.96 61.976 38.96 61.9846 38.96 61.9931C38.96 62.0017 38.96 62.0102 38.96 62.0188C38.96 62.0273 38.96 62.0359 38.96 62.0444C38.96 62.053 38.96 62.0615 38.96 62.0701C38.96 62.0786 38.96 62.0872 38.96 62.0957C38.96 62.1043 38.96 62.1128 38.96 62.1214C38.96 62.1299 38.96 62.1385 38.96 62.147C38.96 62.1556 38.96 62.1641 38.96 62.1727C38.96 62.1812 38.96 62.1898 38.96 62.1983C38.96 62.2069 38.96 62.2154 38.96 62.2239C38.96 62.2325 38.96 62.241 38.96 62.2496C38.96 62.2581 38.96 62.2667 38.96 62.2752C38.96 62.2837 38.96 62.2923 38.96 62.3008C38.96 62.3094 38.96 62.3179 38.96 62.3264C38.96 62.335 38.96 62.3435 38.96 62.3521C38.96 62.3606 38.96 62.3691 38.96 62.3777C38.96 62.3862 38.96 62.3947 38.96 62.4033C38.96 62.4118 38.96 62.4203 38.96 62.4289C38.96 62.4374 38.96 62.4459 38.96 62.4545C38.96 62.463 38.96 62.4715 38.96 62.4801C38.96 62.4886 38.96 62.4971 38.96 62.5057C38.96 62.5142 38.96 62.5227 38.96 62.5313C38.96 62.5398 38.96 62.5483 38.96 62.5568C38.96 62.5654 38.96 62.5739 38.96 62.5824C38.96 62.591 38.96 62.5995 38.96 62.608C38.96 62.6165 38.96 62.6251 38.96 62.6336C38.96 62.6421 38.96 62.6506 38.96 62.6591C38.96 62.6677 38.96 62.6762 38.96 62.6847C38.96 62.6932 38.96 62.7018 38.96 62.7103C38.96 62.7188 38.96 62.7273 38.96 62.7358C38.96 62.7444 38.96 62.7529 38.96 62.7614C38.96 62.7699 38.96 62.7784 38.96 62.7869C38.96 62.7955 38.96 62.804 38.96 62.8125C38.96 62.821 38.96 62.8295 38.96 62.838C38.96 62.8466 38.96 62.8551 38.96 62.8636C38.96 62.8721 38.96 62.8806 38.96 62.8891C38.96 62.8976 38.96 62.9061 38.96 62.9147C38.96 62.9232 38.96 62.9317 38.96 62.9402C38.96 62.9487 38.96 62.9572 38.96 62.9657C38.96 62.9742 38.96 62.9827 38.96 62.9912C38.96 62.9997 38.96 63.0082 38.96 63.0168C38.96 63.0253 38.96 63.0338 38.96 63.0423C38.96 63.0508 38.96 63.0593 38.96 63.0678C38.96 63.0763 38.96 63.0848 38.96 63.0933C38.96 63.1018 38.96 63.1103 38.96 63.1188C38.96 63.1273 38.96 63.1358 38.96 63.1443C38.96 63.1528 38.96 63.1613 38.96 63.1698C38.96 63.1783 38.96 63.1868 38.96 63.1953C38.96 63.2038 38.96 63.2123 38.96 63.2208C38.96 63.2293 38.96 63.2378 38.96 63.2463C38.96 63.2548 38.96 63.2633 38.96 63.2717C38.96 63.2802 38.96 63.2887 38.96 63.2972C38.96 63.3057 38.96 63.3142 38.96 63.3227C38.96 63.3312 38.96 63.3397 38.96 63.3482C38.96 63.3567 38.96 63.3652 38.96 63.3736C38.96 63.3821 38.96 63.3906 38.96 63.3991C38.96 63.4076 38.96 63.4161 38.96 63.4246C38.96 63.4331 38.96 63.4415 38.96 63.45C38.96 63.4585 38.96 63.467 38.96 63.4755C38.96 63.484 38.96 63.4924 38.96 63.5009C38.96 63.5094 38.96 63.5179 38.96 63.5264C38.96 63.5349 38.96 63.5433 38.96 63.5518C38.96 63.5603 38.96 63.5688 38.96 63.5773C38.96 63.5857 38.96 63.5942 38.96 63.6027C38.96 63.6112 38.96 63.6196 38.96 63.6281C38.96 63.6366 38.96 63.6451 38.96 63.6535C38.96 63.662 38.96 63.6705 38.96 63.679C38.96 63.6874 38.96 63.6959 38.96 63.7044C38.96 63.7129 38.96 63.7213 38.96 63.7298C38.96 63.7383 38.96 63.7467 38.96 63.7552C38.96 63.7637 38.96 63.7722 38.96 63.7806C38.96 63.7891 38.96 63.7976 38.96 63.806C38.96 63.8145 38.96 63.823 38.96 63.8314C38.96 63.8399 38.96 63.8484 38.96 63.8568C38.96 63.8653 38.96 63.8738 38.96 63.8822C38.96 63.8907 38.96 63.8992 38.96 63.9076C38.96 63.9161 38.96 63.9246 38.96 63.933C38.96 63.9415 38.96 63.9499 38.96 63.9584C38.96 63.9669 38.96 63.9753 38.96 63.9838C38.96 63.9922 38.96 64.0007 38.96 64.0092C38.96 64.0176 38.96 64.0261 38.96 64.0345C38.96 64.043 38.96 64.0514 38.96 64.0599C38.96 64.0684 38.96 64.0768 38.96 64.0853C38.96 64.0937 38.96 64.1022 38.96 64.1106C38.96 64.1191 38.96 64.1275 38.96 64.136C38.96 64.1444 38.96 64.1529 38.96 64.1613C38.96 64.1698 38.96 64.1782 38.96 64.1867C38.96 64.1951 38.96 64.2036 38.96 64.212C38.96 64.2205 38.96 64.2289 38.96 64.2374C38.96 64.2458 38.96 64.2543 38.96 64.2627C38.96 64.2712 38.96 64.2796 38.96 64.2881C38.96 64.2965 38.96 64.3049 38.96 64.3134C38.96 64.3218 38.96 64.3303 38.96 64.3387C38.96 64.3472 38.96 64.3556 38.96 64.364C38.96 64.3725 38.96 64.3809 38.96 64.3894C38.96 64.3978 38.96 64.4062 38.96 64.4147C38.96 64.4231 38.96 64.4316 38.96 64.44C38.96 64.4484 38.96 64.4569 38.96 64.4653C38.96 64.4737 38.96 64.4822 38.96 64.4906C38.96 64.499 38.96 64.5075 38.96 64.5159C38.96 64.5244 38.96 64.5328 38.96 64.5412C38.96 64.5497 38.96 64.5581 38.96 64.5665C38.96 64.5749 38.96 64.5834 38.96 64.5918C38.96 64.6002 38.96 64.6087 38.96 64.6171C38.96 64.6255 38.96 64.6339 38.96 64.6424C38.96 64.6508 38.96 64.6592 38.96 64.6677C38.96 64.6761 38.96 64.6845 38.96 64.6929C38.96 64.7014 38.96 64.7098 38.96 64.7182C38.96 64.7266 38.96 64.7351 38.96 64.7435C38.96 64.7519 38.96 64.7603 38.96 64.7687C38.96 64.7772 38.96 64.7856 38.96 64.794C38.96 64.8024 38.96 64.8109 38.96 64.8193C38.96 64.8277 38.96 64.8361 38.96 64.8445C38.96 64.8529 38.96 64.8614 38.96 64.8698C38.96 64.8782 38.96 64.8866 38.96 64.895C38.96 64.9034 38.96 64.9119 38.96 64.9203C38.96 64.9287 38.96 64.9371 38.96 64.9455C38.96 64.9539 38.96 64.9623 38.96 64.9707C38.96 64.9792 38.96 64.9876 38.96 64.996C38.96 65.0044 38.96 65.0128 38.96 65.0212C38.96 65.0296 38.96 65.038 38.96 65.0464C38.96 65.0548 38.96 65.0633 38.96 65.0717C38.96 65.0801 38.96 65.0885 38.96 65.0969C38.96 65.1053 38.96 65.1137 38.96 65.1221C38.96 65.1305 38.96 65.1389 38.96 65.1473C38.96 65.1557 38.96 65.1641 38.96 65.1725C38.96 65.1809 38.96 65.1893 38.96 65.1977C38.96 65.2061 38.96 65.2145 38.96 65.2229C38.96 65.2313 38.96 65.2397 38.96 65.2481C38.96 65.2565 38.96 65.2649 38.96 65.2733C38.96 65.2817 38.96 65.2901 38.96 65.2985C38.96 65.3069 38.96 65.3153 38.96 65.3237C38.96 65.3321 38.96 65.3405 38.96 65.3489C38.96 65.3573 38.96 65.3657 38.96 65.3741C38.96 65.3824 38.96 65.3908 38.96 65.3992C38.96 65.4076 38.96 65.416 38.96 65.4244C38.96 65.4328 38.96 65.4412 38.96 65.4496C38.96 65.458 38.96 65.4663 38.96 65.4747C38.96 65.4831 38.96 65.4915 38.96 65.4999C38.96 65.5083 38.96 65.5167 38.96 65.525C38.96 65.5334 38.96 65.5418 38.96 65.5502C38.96 65.5586 38.96 65.567 38.96 65.5753C38.96 65.5837 38.96 65.5921 38.96 65.6005C38.96 65.6089 38.96 65.6173 38.96 65.6256C38.96 65.634 38.96 65.6424 38.96 65.6508C38.96 65.6592 38.96 65.6675 38.96 65.6759C38.96 65.6843 38.96 65.6927 38.96 65.701C38.96 65.7094 38.96 65.7178 38.96 65.7262C38.96 65.7345 38.96 65.7429 38.96 65.7513C38.96 65.7597 38.96 65.768 38.96 65.7764C38.96 65.7848 38.96 65.7932 38.96 65.8015C38.96 65.8099 38.96 65.8183 38.96 65.8266C38.96 65.835 38.96 65.8434 38.96 65.8518C38.96 65.8601 38.96 65.8685 38.96 65.8769C38.96 65.8852 38.96 65.8936 38.96 65.902C38.96 65.9103 38.96 65.9187 38.96 65.9271C38.96 65.9354 38.96 65.9438 38.96 65.9522C38.96 65.9605 38.96 65.9689 38.96 65.9772C38.96 65.9856 38.96 65.994 38.96 66.0023C38.96 66.0107 38.96 66.0191 38.96 66.0274C38.96 66.0358 38.96 66.0441 38.96 66.0525C38.96 66.0609 38.96 66.0692 38.96 66.0776C38.96 66.0859 38.96 66.0943 38.96 66.1026C38.96 66.111 38.96 66.1194 38.96 66.1277C38.96 66.1361 38.96 66.1444 38.96 66.1528C38.96 66.1611 38.96 66.1695 38.96 66.1778C38.96 66.1862 38.96 66.1945 38.96 66.2029C38.96 66.2113 38.96 66.2196 38.96 66.228C38.96 66.2363 38.96 66.2447 38.96 66.253C38.96 66.2614 38.96 66.2697 38.96 66.2781C38.96 66.2864 38.96 66.2947 38.96 66.3031C38.96 66.3114 38.96 66.3198 38.96 66.3281C38.96 66.3365 38.96 66.3448 38.96 66.3532C38.96 66.3615 38.96 66.3699 38.96 66.3782C38.96 66.3865 38.96 66.3949 38.96 66.4032C38.96 66.4116 38.96 66.4199 38.96 66.4283C38.96 66.4366 38.96 66.4449 38.96 66.4533C38.96 66.4616 38.96 66.47 38.96 66.4783C38.96 66.4866 38.96 66.495 38.96 66.5033C38.96 66.5116 38.96 66.52 38.96 66.5283C38.96 66.5367 38.96 66.545 38.96 66.5533C38.96 66.5617 38.96 66.57 38.96 66.5783C38.96 66.5867 38.96 66.595 38.96 66.6033C38.96 66.6117 38.96 66.62 38.96 66.6283C38.96 66.6367 38.96 66.645 38.96 66.6533C38.96 66.6616 38.96 66.67 38.96 66.6783C38.96 66.6866 38.96 66.695 38.96 66.7033C38.96 66.7116 38.96 66.7199 38.96 66.7283C38.96 66.7366 38.96 66.7449 38.96 66.7533C38.96 66.7616 38.96 66.7699 38.96 66.7782C38.96 66.7865 38.96 66.7949 38.96 66.8032C38.96 66.8115 38.96 66.8198 38.96 66.8282C38.96 66.8365 38.96 66.8448 38.96 66.8531C38.96 66.8614 38.96 66.8698 38.96 66.8781C38.96 66.8864 38.96 66.8947 38.96 66.903C38.96 66.9114 38.96 66.9197 38.96 66.928C38.96 66.9363 38.96 66.9446 38.96 66.9529C38.96 66.9613 38.96 66.9696 38.96 66.9779C38.96 66.9862 38.96 66.9945 38.96 67.0028C38.96 67.0111 38.96 67.0194 38.96 67.0278C38.96 67.0361 38.96 67.0444 38.96 67.0527C38.96 67.061 38.96 67.0693 38.96 67.0776C38.96 67.0859 38.96 67.0942 38.96 67.1025C38.96 67.1109 38.96 67.1192 38.96 67.1275C38.96 67.1358 38.96 67.1441 38.96 67.1524C38.96 67.1607 38.96 67.169 38.96 67.1773C38.96 67.1856 38.96 67.1939 38.96 67.2022C38.96 67.2105 38.96 67.2188 38.96 67.2271C38.96 67.2354 38.96 67.2437 38.96 67.252C38.96 67.2603 38.96 67.2686 38.96 67.2769C38.96 67.2852 38.96 67.2935 38.96 67.3018C38.96 67.3101 38.96 67.3184 38.96 67.3267C38.96 67.335 38.96 67.3433 38.96 67.3516C38.96 67.3599 38.96 67.3682 38.96 67.3765C38.96 67.3848 38.96 67.3931 38.96 67.4014C38.96 67.4097 38.96 67.418 38.96 67.4263C38.96 67.4345 38.96 67.4428 38.96 67.4511C38.96 67.4594 38.96 67.4677 38.96 67.476C38.96 67.4843 38.96 67.4926 38.96 67.5009C38.96 67.5092 38.96 67.5174 38.96 67.5257C38.96 67.534 38.96 67.5423 38.96 67.5506C38.96 67.5589 38.96 67.5672 38.96 67.5754C38.96 67.5837 38.96 67.592 38.96 67.6003C38.96 67.6086 38.96 67.6169 38.96 67.6252C38.96 67.6334 38.96 67.6417 38.96 67.65C38.96 67.6583 38.96 67.6666 38.96 67.6748C38.96 67.6831 38.96 67.6914 38.96 67.6997C38.96 67.708 38.96 67.7162 38.96 67.7245C38.96 67.7328 38.96 67.7411 38.96 67.7493C38.96 67.7576 38.96 67.7659 38.96 67.7742C38.96 67.7824 38.96 67.7907 38.96 67.799C38.96 67.8073 38.96 67.8155 38.96 67.8238C38.96 67.8321 38.96 67.8404 38.96 67.8486C38.96 67.8569 38.96 67.8652 38.96 67.8734C38.96 67.8817 38.96 67.89 38.96 67.8982C38.96 67.9065 38.96 67.9148 38.96 67.9231C38.96 67.9313 38.96 67.9396 38.96 67.9479C38.96 67.9561 38.96 67.9644 38.96 67.9727C38.96 67.9809 38.96 67.9892 38.96 67.9975C38.96 68.0057 38.96 68.014 38.96 68.0222C38.96 68.0305 38.96 68.0388 38.96 68.047C38.96 68.0553 38.96 68.0635 38.96 68.0718C38.96 68.0801 38.96 68.0883 38.96 68.0966C38.96 68.1049 38.96 68.1131 38.96 68.1214C38.96 68.1296 38.96 68.1379 38.96 68.1461C38.96 68.1544 38.96 68.1627 38.96 68.1709C38.96 68.1792 38.96 68.1874 38.96 68.1957C38.96 68.2039 38.96 68.2122 38.96 68.2204C38.96 68.2287 38.96 68.2369 38.96 68.2452C38.96 68.2534 38.96 68.2617 38.96 68.2699C38.96 68.2782 38.96 68.2864 38.96 68.2947C38.96 68.3029 38.96 68.3112 38.96 68.3194C38.96 68.3277 38.96 68.3359 38.96 68.3442C38.96 68.3524 38.96 68.3607 38.96 68.3689C38.96 68.3772 38.96 68.3854 38.96 68.3937C38.96 68.4019 38.96 68.4101 38.96 68.4184C38.96 68.4266 38.96 68.4349 38.96 68.4431C38.96 68.4514 38.96 68.4596 38.96 68.4678C38.96 68.4761 38.96 68.4843 38.96 68.4926C38.96 68.5008 38.96 68.509 38.96 68.5173C38.96 68.5255 38.96 68.5338 38.96 68.542C38.96 68.5502 38.96 68.5585 38.96 68.5667C38.96 68.5749 38.96 68.5832 38.96 68.5914C38.96 68.5996 38.96 68.6079 38.96 68.6161C38.96 68.6244 38.96 68.6326 38.96 68.6408C38.96 68.649 38.96 68.6573 38.96 68.6655C38.96 68.6737 38.96 68.682 38.96 68.6902C38.96 68.6984 38.96 68.7067 38.96 68.7149C38.96 68.7231 38.96 68.7313 38.96 68.7396C38.96 68.7478 38.96 68.756 38.96 68.7643C38.96 68.7725 38.96 68.7807 38.96 68.7889C38.96 68.7972 38.96 68.8054 38.96 68.8136C38.96 68.8218 38.96 68.8301 38.96 68.8383C38.96 68.8465 38.96 68.8547 38.96 68.8629C38.96 68.8712 38.96 68.8794 38.96 68.8876C38.96 68.8958 38.96 68.904 38.96 68.9123C38.96 68.9205 38.96 68.9287 38.96 68.9369C38.96 68.9451 38.96 68.9534 38.96 68.9616C38.96 68.9698 38.96 68.978 38.96 68.9862C38.96 68.9944 38.96 69.0027 38.96 69.0109C38.96 69.0191 38.96 69.0273 38.96 69.0355C38.96 69.0437 38.96 69.0519 38.96 69.0601C38.96 69.0683 38.96 69.0766 38.96 69.0848C38.96 69.093 38.96 69.1012 38.96 69.1094C38.96 69.1176 38.96 69.1258 38.96 69.134C38.96 69.1422 38.96 69.1504 38.96 69.1586C38.96 69.1669 38.96 69.1751 38.96 69.1833C38.96 69.1915 38.96 69.1997 38.96 69.2079C38.96 69.2161 38.96 69.2243 38.96 69.2325C38.96 69.2407 38.96 69.2489 38.96 69.2571C38.96 69.2653 38.96 69.2735 38.96 69.2817C38.96 69.2899 38.96 69.2981 38.96 69.3063C38.96 69.3145 38.96 69.3227 38.96 69.3309C38.96 69.3391 38.96 69.3473 38.96 69.3555C38.96 69.3637 38.96 69.3719 38.96 69.3801C38.96 69.3883 38.96 69.3965 38.96 69.4047C38.96 69.4129 38.96 69.4211 38.96 69.4292C38.96 69.4374 38.96 69.4456 38.96 69.4538C38.96 69.462 38.96 69.4702 38.96 69.4784C38.96 69.4866 38.96 69.4948 38.96 69.503C38.96 69.5112 38.96 69.5193 38.96 69.5275C38.96 69.5357 38.96 69.5439 38.96 69.5521C38.96 69.5603 38.96 69.5685 38.96 69.5767C38.96 69.5849 38.96 69.593 38.96 69.6012C38.96 69.6094 38.96 69.6176 38.96 69.6258C38.96 69.634 38.96 69.6421 38.96 69.6503C38.96 69.6585 38.96 69.6667 38.96 69.6749C38.96 69.683 38.96 69.6912 38.96 69.6994C38.96 69.7076 38.96 69.7158 38.96 69.724C38.96 69.7321 38.96 69.7403 38.96 69.7485C38.96 69.7567 38.96 69.7648 38.96 69.773C38.96 69.7812 38.96 69.7894 38.96 69.7975C38.96 69.8057 38.96 69.8139 38.96 69.8221C38.96 69.8302 38.96 69.8384 38.96 69.8466C38.96 69.8548 38.96 69.8629 38.96 69.8711C38.96 69.8793 38.96 69.8874 38.96 69.8956C38.96 69.9038 38.96 69.912 38.96 69.9201C38.96 69.9283 38.96 69.9365 38.96 69.9446C38.96 69.9528 38.96 69.961 38.96 69.9691C38.96 69.9773 38.96 69.9855 38.96 69.9936C38.96 70.0018 38.96 70.0099 38.96 70.0181C38.96 70.0263 38.96 70.0344 38.96 70.0426C38.96 70.0508 38.96 70.0589 38.96 70.0671C38.96 70.0753 38.96 70.0834 38.96 70.0916C38.96 70.0997 38.96 70.1079 38.96 70.1161C38.96 70.1242 38.96 70.1324 38.96 70.1405C38.96 70.1487 38.96 70.1568 38.96 70.165C38.96 70.1732 38.96 70.1813 38.96 70.1895C38.96 70.1976 38.96 70.2058 38.96 70.2139C38.96 70.2221 38.96 70.2302 38.96 70.2384C38.96 70.2466 38.96 70.2547 38.96 70.2629C38.96 70.271 38.96 70.2792 38.96 70.2873C38.96 70.2955 38.96 70.3036 38.96 70.3118C38.96 70.3199 38.96 70.3281 38.96 70.3362C38.96 70.3444 38.96 70.3525 38.96 70.3607C38.96 70.3688 38.96 70.3769 38.96 70.3851C38.96 70.3932 38.96 70.4014 38.96 70.4095C38.96 70.4177 38.96 70.4258 38.96 70.434C38.96 70.4421 38.96 70.4502 38.96 70.4584C38.96 70.4665 38.96 70.4747 38.96 70.4828C38.96 70.491 38.96 70.4991 38.96 70.5072C38.96 70.5154 38.96 70.5235 38.96 70.5316C38.96 70.5398 38.96 70.5479 38.96 70.5561C38.96 70.5642 38.96 70.5723 38.96 70.5805C38.96 70.5886 38.96 70.5967 38.96 70.6049C38.96 70.613 38.96 70.6211 38.96 70.6293C38.96 70.6374 38.96 70.6455 38.96 70.6537C38.96 70.6618 38.96 70.6699 38.96 70.6781C38.96 70.6862 38.96 70.6943 38.96 70.7025C38.96 70.7106 38.96 70.7187 38.96 70.7269C38.96 70.735 38.96 70.7431 38.96 70.7512C38.96 70.7594 38.96 70.7675 38.96 70.7756C38.96 70.7837 38.96 70.7919 38.96 70.8H41.96ZM41.96 57.84L44.9581 57.9471C45.1194 53.4314 45.2 48.9157 45.2 44.4H42.2H39.2C39.2 48.8443 39.1206 53.2886 38.9619 57.7329L41.96 57.84ZM42.2 44.4L40.0787 42.2787C35.2917 47.0657 30.0486 51.1511 24.3468 54.5414L25.88 57.12L27.4132 59.6986C33.5514 56.0489 39.1883 51.6543 44.3213 46.5213L42.2 44.4ZM25.88 57.12L24.3468 54.5414C18.7138 57.8907 12.797 60.1635 6.58547 61.3755L7.16 64.32L7.73453 67.2645C14.643 65.9165 21.2062 63.3893 27.4132 59.6986L25.88 57.12ZM7.16 64.32L10.1434 64.0049L6.5434 29.9248L3.56 30.24L0.576599 30.5551L4.1766 64.6351L7.16 64.32ZM3.56 30.24L3.93211 33.2168C8.03206 32.7043 12.4079 31.6028 17.049 29.9452L16.04 27.12L15.031 24.2948C10.7121 25.8372 6.76794 26.8157 3.18789 27.2632L3.56 30.24ZM16.04 27.12L17.137 29.9122C21.7728 28.091 26.3171 25.8593 30.7694 23.2209L29.24 20.64L27.7106 18.0591C23.5229 20.5407 19.2672 22.629 14.943 24.3277L16.04 27.12ZM29.24 20.64L30.7284 23.2447C35.3467 20.6057 39.427 17.7795 42.9524 14.7578L41 12.48L39.0476 10.2022C35.853 12.9405 32.0933 15.5543 27.7516 18.0353L29.24 20.64ZM41 12.48L42.9609 14.7505C46.6338 11.5784 49.5097 8.38823 51.4798 5.16434L48.92 3.59999L46.3602 2.03564C44.8103 4.57176 42.4062 7.30158 39.0391 10.2095L41 12.48ZM48.92 3.59999V6.59999H81.8V3.59999V0.599995H48.92V3.59999ZM81.8 3.59999H78.8V162H81.8H84.8V3.59999H81.8ZM81.8 162V159H41.96V162V165H81.8V162Z" fill="white" mask="url(#path-1-outside-1_39_148)"/>
</svg>
