<svg width="128" height="167" viewBox="0 0 128 167" fill="none" xmlns="http://www.w3.org/2000/svg">
<mask id="path-1-outside-1_40_45" maskUnits="userSpaceOnUse" x="0" y="0" width="128" height="167" fill="black">
<rect fill="white" width="128" height="167"/>
<path d="M8.4 164V137.6C21.52 129.12 32.72 121.2 42 113.84C51.28 106.48 58.8 99.52 64.56 92.96C70.48 86.4 74.8 80.16 77.52 74.24C80.24 68.32 81.6 62.56 81.6 56.96C81.6 50.88 79.92 45.84 76.56 41.84C73.2 37.68 68.16 35.6 61.44 35.6C54.4 35.6 48.88 38.4 44.88 44C41.04 49.44 38.96 57.44 38.64 68L3.36 57.2C3.68 45.2 6.48 35.2 11.76 27.2C17.2 19.2 24.48 13.2 33.6 9.19999C42.72 5.19999 52.88 3.2 64.08 3.2C77.84 3.2 89.04 5.76 97.68 10.88C106.32 15.84 112.64 22.24 116.64 30.08C120.64 37.76 122.64 45.76 122.64 54.08C122.64 64.32 120.08 73.92 114.96 82.88C110 91.68 102.64 100.24 92.88 108.56C83.28 116.72 71.6 124.96 57.84 133.28V133.52C60.56 133.36 63.76 133.2 67.44 133.04C71.12 132.88 74.88 132.8 78.72 132.8C82.72 132.64 86.32 132.56 89.52 132.56H124.32V164H8.4Z"/>
</mask>
<path d="M8.4 164V137.6C21.52 129.12 32.72 121.2 42 113.84C51.28 106.48 58.8 99.52 64.56 92.96C70.48 86.4 74.8 80.16 77.52 74.24C80.24 68.32 81.6 62.56 81.6 56.96C81.6 50.88 79.92 45.84 76.56 41.84C73.2 37.68 68.16 35.6 61.44 35.6C54.4 35.6 48.88 38.4 44.88 44C41.04 49.44 38.96 57.44 38.64 68L3.36 57.2C3.68 45.2 6.48 35.2 11.76 27.2C17.2 19.2 24.48 13.2 33.6 9.19999C42.72 5.19999 52.88 3.2 64.08 3.2C77.84 3.2 89.04 5.76 97.68 10.88C106.32 15.84 112.64 22.24 116.64 30.08C120.64 37.76 122.64 45.76 122.64 54.08C122.64 64.32 120.08 73.92 114.96 82.88C110 91.68 102.64 100.24 92.88 108.56C83.28 116.72 71.6 124.96 57.84 133.28V133.52C60.56 133.36 63.76 133.2 67.44 133.04C71.12 132.88 74.88 132.8 78.72 132.8C82.72 132.64 86.32 132.56 89.52 132.56H124.32V164H8.4Z" fill="black"/>
<path d="M8.4 164H5.4V167H8.4V164ZM8.4 137.6L6.77152 135.08L5.4 135.967V137.6H8.4ZM42 113.84L43.8642 116.19L42 113.84ZM64.56 92.96L62.3328 90.9501L62.3191 90.9653L62.3057 90.9806L64.56 92.96ZM76.56 41.84L74.2262 43.725L74.2443 43.7475L74.2629 43.7696L76.56 41.84ZM44.88 44L42.4388 42.2563L42.4339 42.2631L42.4291 42.27L44.88 44ZM38.64 68L37.7619 70.8686L41.5196 72.0189L41.6386 68.0909L38.64 68ZM3.36 57.2L0.361066 57.12L0.300247 59.4008L2.48186 60.0686L3.36 57.2ZM11.76 27.2L9.27922 25.5131L9.26758 25.5302L9.25617 25.5475L11.76 27.2ZM33.6 9.19999L32.395 6.45263H32.395L33.6 9.19999ZM97.68 10.88L96.1506 13.4609L96.1684 13.4714L96.1864 13.4818L97.68 10.88ZM116.64 30.08L113.968 31.4434L113.973 31.4546L113.979 31.4658L116.64 30.08ZM114.96 82.88L112.355 81.3916L112.351 81.3992L112.347 81.407L114.96 82.88ZM92.88 108.56L94.823 110.846L94.8262 110.843L92.88 108.56ZM57.84 133.28L56.2877 130.713L54.84 131.588V133.28H57.84ZM57.84 133.52H54.84V136.702L58.0162 136.515L57.84 133.52ZM78.72 132.8V135.8H78.78L78.8399 135.798L78.72 132.8ZM124.32 132.56H127.32V129.56H124.32V132.56ZM124.32 164V167H127.32V164H124.32ZM8.4 164H11.4V137.6H8.4H5.4V164H8.4ZM8.4 137.6L10.0285 140.12C23.2058 131.602 34.4889 123.626 43.8642 116.19L42 113.84L40.1358 111.49C30.9511 118.774 19.8342 126.638 6.77152 135.08L8.4 137.6ZM42 113.84L43.8642 116.19C53.2389 108.755 60.9023 101.673 66.8143 94.9394L64.56 92.96L62.3057 90.9806C56.6977 97.3674 49.3211 104.205 40.1358 111.49L42 113.84ZM64.56 92.96L66.7872 94.9699C72.8435 88.2589 77.363 81.7673 80.246 75.4925L77.52 74.24L74.794 72.9875C72.237 78.5526 68.1165 84.5411 62.3328 90.9501L64.56 92.96ZM77.52 74.24L80.246 75.4925C83.1172 69.2434 84.6 63.0574 84.6 56.96H81.6H78.6C78.6 62.0626 77.3628 67.3966 74.794 72.9875L77.52 74.24ZM81.6 56.96H84.6C84.6 50.296 82.7438 44.5374 78.8571 39.9104L76.56 41.84L74.2629 43.7696C77.0962 47.1426 78.6 51.464 78.6 56.96H81.6ZM76.56 41.84L78.8938 39.955C74.8217 34.9133 68.8122 32.6 61.44 32.6V35.6V38.6C67.5078 38.6 71.5783 40.4466 74.2262 43.725L76.56 41.84ZM61.44 35.6V32.6C53.4576 32.6 47.0171 35.8466 42.4388 42.2563L44.88 44L47.3212 45.7437C50.7429 40.9534 55.3424 38.6 61.44 38.6V35.6ZM44.88 44L42.4291 42.27C38.1043 48.3967 35.9696 57.0772 35.6414 67.9091L38.64 68L41.6386 68.0909C41.9504 57.8028 43.9757 50.4833 47.3309 45.73L44.88 44ZM38.64 68L39.5181 65.1314L4.23814 54.3314L3.36 57.2L2.48186 60.0686L37.7619 70.8686L38.64 68ZM3.36 57.2L6.35893 57.28C6.66774 45.6996 9.36171 36.28 14.2638 28.8525L11.76 27.2L9.25617 25.5475C3.59829 34.12 0.692255 44.7004 0.361066 57.12L3.36 57.2ZM11.76 27.2L14.2408 28.8869C19.354 21.3675 26.1855 15.7278 34.805 11.9474L33.6 9.19999L32.395 6.45263C22.7745 10.6721 15.046 17.0325 9.27922 25.5131L11.76 27.2ZM33.6 9.19999L34.805 11.9474C43.5004 8.13357 53.2431 6.2 64.08 6.2V3.2V0.199997C52.5169 0.199997 41.9396 2.26642 32.395 6.45263L33.6 9.19999ZM64.08 3.2V6.2C77.493 6.2 88.1142 8.69857 96.1506 13.4609L97.68 10.88L99.2094 8.29913C89.9658 2.82142 78.187 0.199997 64.08 0.199997V3.2ZM97.68 10.88L96.1864 13.4818C104.39 18.1914 110.266 24.188 113.968 31.4434L116.64 30.08L119.312 28.7166C115.014 20.292 108.25 13.4886 99.1736 8.27824L97.68 10.88ZM116.64 30.08L113.979 31.4658C117.766 38.7359 119.64 46.2624 119.64 54.08H122.64H125.64C125.64 45.2576 123.514 36.7841 119.301 28.6942L116.64 30.08ZM122.64 54.08H119.64C119.64 63.7937 117.218 72.8812 112.355 81.3916L114.96 82.88L117.565 84.3684C122.942 74.9588 125.64 64.8463 125.64 54.08H122.64ZM114.96 82.88L112.347 81.407C107.599 89.8296 100.495 98.1267 90.9338 106.277L92.88 108.56L94.8262 110.843C104.785 102.353 112.401 93.5304 117.573 84.353L114.96 82.88ZM92.88 108.56L90.9371 106.274C81.4876 114.306 69.9458 122.454 56.2877 130.713L57.84 133.28L59.3923 135.847C73.2542 127.466 85.0724 119.134 94.823 110.846L92.88 108.56ZM57.84 133.28H54.84V133.52H57.84H60.84V133.28H57.84ZM57.84 133.52L58.0162 136.515C60.7167 136.356 63.9007 136.197 67.5703 136.037L67.44 133.04L67.3097 130.043C63.6193 130.203 60.4033 130.364 57.6638 130.525L57.84 133.52ZM67.44 133.04L67.5703 136.037C71.2051 135.879 74.9216 135.8 78.72 135.8V132.8V129.8C74.8384 129.8 71.0349 129.881 67.3097 130.043L67.44 133.04ZM78.72 132.8L78.8399 135.798C82.8094 135.639 86.3684 135.56 89.52 135.56V132.56V129.56C86.2716 129.56 82.6306 129.641 78.6001 129.802L78.72 132.8ZM89.52 132.56V135.56H124.32V132.56V129.56H89.52V132.56ZM124.32 132.56H121.32V164H124.32H127.32V132.56H124.32ZM124.32 164V161H8.4V164V167H124.32V164Z" fill="white" mask="url(#path-1-outside-1_40_45)"/>
</svg>
