<svg width="130" height="170" viewBox="0 0 130 170" fill="none" xmlns="http://www.w3.org/2000/svg">
<mask id="path-1-outside-1_40_51" maskUnits="userSpaceOnUse" x="0" y="0" width="130" height="170" fill="black">
<rect fill="white" width="130" height="170"/>
<path d="M68.8 166.4C52.32 166.4 38.56 163.04 27.52 156.32C16.48 149.6 8.8 139.92 4.48 127.28L42.4 110.96C43.2 119.44 45.76 125.52 50.08 129.2C54.56 132.72 60.24 134.48 67.12 134.48C73.2 134.48 78 132.8 81.52 129.44C85.2 125.92 87.04 121.2 87.04 115.28C87.04 111.12 86.24 107.84 84.64 105.44C83.04 102.88 80.72 101.04 77.68 99.92C74.8 98.64 71.28 98 67.12 98C65.04 98 63.12 98.08 61.36 98.24C59.76 98.24 57.92 98.4 55.84 98.72V71.84C56.96 72 58.16 72.16 59.44 72.32C60.72 72.32 62.16 72.32 63.76 72.32C70.8 72.32 75.92 70.8 79.12 67.76C82.32 64.56 83.92 59.6 83.92 52.88C83.92 47.12 82.32 42.72 79.12 39.68C76.08 36.64 71.84 35.12 66.4 35.12C60.48 35.12 55.6 36.8 51.76 40.16C48.08 43.52 45.68 49.04 44.56 56.72L8.32 44.24C10.08 35.44 13.76 28 19.36 21.92C24.96 15.84 32.08 11.2 40.72 7.99999C49.36 4.79999 58.8 3.2 69.04 3.2C80.88 3.2 90.8 5.04 98.8 8.72C106.96 12.24 113.12 17.28 117.28 23.84C121.6 30.24 123.76 37.84 123.76 46.64C123.76 53.52 122.64 59.36 120.4 64.16C118.32 68.8 115.68 72.56 112.48 75.44C109.28 78.16 106.08 80.24 102.88 81.68C99.68 82.96 97.04 83.76 94.96 84.08V84.8C97.52 84.8 100.56 85.36 104.08 86.48C107.76 87.6 111.28 89.44 114.64 92C118.16 94.4 121.04 97.76 123.28 102.08C125.68 106.4 126.88 111.76 126.88 118.16C126.88 128.08 124.32 136.64 119.2 143.84C114.08 151.04 107.12 156.64 98.32 160.64C89.68 164.48 79.84 166.4 68.8 166.4Z"/>
</mask>
<path d="M68.8 166.4C52.32 166.4 38.56 163.04 27.52 156.32C16.48 149.6 8.8 139.92 4.48 127.28L42.4 110.96C43.2 119.44 45.76 125.52 50.08 129.2C54.56 132.72 60.24 134.48 67.12 134.48C73.2 134.48 78 132.8 81.52 129.44C85.2 125.92 87.04 121.2 87.04 115.28C87.04 111.12 86.24 107.84 84.64 105.44C83.04 102.88 80.72 101.04 77.68 99.92C74.8 98.64 71.28 98 67.12 98C65.04 98 63.12 98.08 61.36 98.24C59.76 98.24 57.92 98.4 55.84 98.72V71.84C56.96 72 58.16 72.16 59.44 72.32C60.72 72.32 62.16 72.32 63.76 72.32C70.8 72.32 75.92 70.8 79.12 67.76C82.32 64.56 83.92 59.6 83.92 52.88C83.92 47.12 82.32 42.72 79.12 39.68C76.08 36.64 71.84 35.12 66.4 35.12C60.48 35.12 55.6 36.8 51.76 40.16C48.08 43.52 45.68 49.04 44.56 56.72L8.32 44.24C10.08 35.44 13.76 28 19.36 21.92C24.96 15.84 32.08 11.2 40.72 7.99999C49.36 4.79999 58.8 3.2 69.04 3.2C80.88 3.2 90.8 5.04 98.8 8.72C106.96 12.24 113.12 17.28 117.28 23.84C121.6 30.24 123.76 37.84 123.76 46.64C123.76 53.52 122.64 59.36 120.4 64.16C118.32 68.8 115.68 72.56 112.48 75.44C109.28 78.16 106.08 80.24 102.88 81.68C99.68 82.96 97.04 83.76 94.96 84.08V84.8C97.52 84.8 100.56 85.36 104.08 86.48C107.76 87.6 111.28 89.44 114.64 92C118.16 94.4 121.04 97.76 123.28 102.08C125.68 106.4 126.88 111.76 126.88 118.16C126.88 128.08 124.32 136.64 119.2 143.84C114.08 151.04 107.12 156.64 98.32 160.64C89.68 164.48 79.84 166.4 68.8 166.4Z" fill="black"/>
<path d="M27.52 156.32L29.0798 153.757L27.52 156.32ZM4.48 127.28L3.29403 124.524L0.743057 125.622L1.64122 128.25L4.48 127.28ZM42.4 110.96L45.3867 110.678L44.9997 106.575L41.214 108.204L42.4 110.96ZM50.08 129.2L48.1346 131.484L48.1798 131.522L48.2265 131.559L50.08 129.2ZM81.52 129.44L83.5914 131.61L83.5937 131.608L81.52 129.44ZM84.64 105.44L82.096 107.03L82.1194 107.067L82.1439 107.104L84.64 105.44ZM77.68 99.92L76.4616 102.661L76.551 102.701L76.6429 102.735L77.68 99.92ZM61.36 98.24V101.24H61.4961L61.6316 101.228L61.36 98.24ZM55.84 98.72H52.84V102.217L56.2962 101.685L55.84 98.72ZM55.84 71.84L56.2643 68.8701L52.84 68.381V71.84H55.84ZM59.44 72.32L59.0679 75.2968L59.2532 75.32H59.44V72.32ZM79.12 67.76L81.1863 69.935L81.2141 69.9085L81.2413 69.8813L79.12 67.76ZM79.12 39.68L76.9987 41.8013L77.0259 41.8285L77.0538 41.855L79.12 39.68ZM51.76 40.16L49.7845 37.9023L49.7606 37.9231L49.7372 37.9445L51.76 40.16ZM44.56 56.72L43.5832 59.5565L47.0062 60.7353L47.5286 57.1529L44.56 56.72ZM8.32 44.24L5.37826 43.6516L4.86403 46.2228L7.34319 47.0765L8.32 44.24ZM19.36 21.92L21.5666 23.9524H21.5666L19.36 21.92ZM40.72 7.99999L39.6781 5.18674L40.72 7.99999ZM98.8 8.71999L97.5463 11.4455L97.5788 11.4604L97.6117 11.4746L98.8 8.71999ZM117.28 23.84L114.746 25.4466L114.769 25.4828L114.793 25.5184L117.28 23.84ZM120.4 64.16L117.681 62.8913L117.672 62.912L117.662 62.9328L120.4 64.16ZM112.48 75.44L114.423 77.7258L114.455 77.6983L114.487 77.6699L112.48 75.44ZM102.88 81.68L103.994 84.4654L104.053 84.4418L104.111 84.4158L102.88 81.68ZM94.96 84.08L94.5038 81.1149L91.96 81.5062V84.08H94.96ZM94.96 84.8H91.96V87.8H94.96V84.8ZM104.08 86.48L103.17 89.3388L103.188 89.3445L103.207 89.35L104.08 86.48ZM114.64 92L112.822 94.3863L112.885 94.4342L112.95 94.4787L114.64 92ZM123.28 102.08L120.617 103.461L120.637 103.499L120.658 103.537L123.28 102.08ZM119.2 143.84L116.755 142.101L119.2 143.84ZM98.32 160.64L99.5384 163.381L99.5499 163.376L99.5614 163.371L98.32 160.64ZM68.8 166.4V163.4C52.7209 163.4 39.5369 160.123 29.0798 153.757L27.52 156.32L25.9602 158.883C37.5831 165.957 51.9191 169.4 68.8 169.4V166.4ZM27.52 156.32L29.0798 153.757C18.6608 147.415 11.4201 138.31 7.31878 126.31L4.48 127.28L1.64122 128.25C6.17989 141.53 14.2992 151.785 25.9602 158.883L27.52 156.32ZM4.48 127.28L5.66597 130.036L43.586 113.716L42.4 110.96L41.214 108.204L3.29403 124.524L4.48 127.28ZM42.4 110.96L39.4133 111.242C40.2505 120.116 42.9805 127.093 48.1346 131.484L50.08 129.2L52.0254 126.916C48.5395 123.947 46.1495 118.764 45.3867 110.678L42.4 110.96ZM50.08 129.2L48.2265 131.559C53.3382 135.575 59.7118 137.48 67.12 137.48V134.48V131.48C60.7682 131.48 55.7818 129.865 51.9335 126.841L50.08 129.2ZM67.12 134.48V137.48C73.7697 137.48 79.3827 135.628 83.5914 131.61L81.52 129.44L79.4486 127.27C76.6173 129.972 72.6303 131.48 67.12 131.48V134.48ZM81.52 129.44L83.5937 131.608C87.9624 127.429 90.04 121.874 90.04 115.28H87.04H84.04C84.04 120.526 82.4376 124.411 79.4463 127.272L81.52 129.44ZM87.04 115.28H90.04C90.04 110.777 89.1801 106.842 87.1362 103.776L84.64 105.44L82.1439 107.104C83.2999 108.838 84.04 111.463 84.04 115.28H87.04ZM84.64 105.44L87.184 103.85C85.2048 100.683 82.3326 98.437 78.7171 97.105L77.68 99.92L76.6429 102.735C79.1074 103.643 80.8752 105.077 82.096 107.03L84.64 105.44ZM77.68 99.92L78.8984 97.1786C75.5331 95.6828 71.5719 95 67.12 95V98V101C70.9881 101 74.0669 101.597 76.4616 102.661L77.68 99.92ZM67.12 98V95C64.9647 95 62.9528 95.0828 61.0884 95.2523L61.36 98.24L61.6316 101.228C63.2872 101.077 65.1153 101 67.12 101V98ZM61.36 98.24V95.24C59.5683 95.24 57.5707 95.4184 55.3838 95.7549L55.84 98.72L56.2962 101.685C58.2693 101.382 59.9517 101.24 61.36 101.24V98.24ZM55.84 98.72H58.84V71.84H55.84H52.84V98.72H55.84ZM55.84 71.84L55.4157 74.8098C56.5553 74.9726 57.7729 75.1349 59.0679 75.2968L59.44 72.32L59.8121 69.3432C58.5472 69.185 57.3647 69.0274 56.2643 68.8701L55.84 71.84ZM59.44 72.32V75.32C59.4425 75.32 59.445 75.32 59.4475 75.32C59.45 75.32 59.4525 75.32 59.455 75.32C59.4575 75.32 59.46 75.32 59.4625 75.32C59.465 75.32 59.4675 75.32 59.47 75.32C59.4725 75.32 59.475 75.32 59.4776 75.32C59.4801 75.32 59.4826 75.32 59.4851 75.32C59.4876 75.32 59.4901 75.32 59.4926 75.32C59.4951 75.32 59.4976 75.32 59.5001 75.32C59.5026 75.32 59.5051 75.32 59.5077 75.32C59.5102 75.32 59.5127 75.32 59.5152 75.32C59.5177 75.32 59.5202 75.32 59.5227 75.32C59.5252 75.32 59.5278 75.32 59.5303 75.32C59.5328 75.32 59.5353 75.32 59.5378 75.32C59.5403 75.32 59.5428 75.32 59.5454 75.32C59.5479 75.32 59.5504 75.32 59.5529 75.32C59.5554 75.32 59.558 75.32 59.5605 75.32C59.563 75.32 59.5655 75.32 59.568 75.32C59.5706 75.32 59.5731 75.32 59.5756 75.32C59.5781 75.32 59.5806 75.32 59.5832 75.32C59.5857 75.32 59.5882 75.32 59.5907 75.32C59.5933 75.32 59.5958 75.32 59.5983 75.32C59.6008 75.32 59.6034 75.32 59.6059 75.32C59.6084 75.32 59.6109 75.32 59.6135 75.32C59.616 75.32 59.6185 75.32 59.6211 75.32C59.6236 75.32 59.6261 75.32 59.6286 75.32C59.6312 75.32 59.6337 75.32 59.6362 75.32C59.6388 75.32 59.6413 75.32 59.6438 75.32C59.6464 75.32 59.6489 75.32 59.6514 75.32C59.654 75.32 59.6565 75.32 59.659 75.32C59.6616 75.32 59.6641 75.32 59.6666 75.32C59.6692 75.32 59.6717 75.32 59.6743 75.32C59.6768 75.32 59.6793 75.32 59.6819 75.32C59.6844 75.32 59.687 75.32 59.6895 75.32C59.692 75.32 59.6946 75.32 59.6971 75.32C59.6997 75.32 59.7022 75.32 59.7047 75.32C59.7073 75.32 59.7098 75.32 59.7124 75.32C59.7149 75.32 59.7175 75.32 59.72 75.32C59.7226 75.32 59.7251 75.32 59.7276 75.32C59.7302 75.32 59.7327 75.32 59.7353 75.32C59.7378 75.32 59.7404 75.32 59.7429 75.32C59.7455 75.32 59.748 75.32 59.7506 75.32C59.7531 75.32 59.7557 75.32 59.7582 75.32C59.7608 75.32 59.7633 75.32 59.7659 75.32C59.7684 75.32 59.771 75.32 59.7735 75.32C59.7761 75.32 59.7787 75.32 59.7812 75.32C59.7838 75.32 59.7863 75.32 59.7889 75.32C59.7914 75.32 59.794 75.32 59.7965 75.32C59.7991 75.32 59.8017 75.32 59.8042 75.32C59.8068 75.32 59.8093 75.32 59.8119 75.32C59.8145 75.32 59.817 75.32 59.8196 75.32C59.8221 75.32 59.8247 75.32 59.8273 75.32C59.8298 75.32 59.8324 75.32 59.835 75.32C59.8375 75.32 59.8401 75.32 59.8426 75.32C59.8452 75.32 59.8478 75.32 59.8503 75.32C59.8529 75.32 59.8555 75.32 59.858 75.32C59.8606 75.32 59.8632 75.32 59.8657 75.32C59.8683 75.32 59.8709 75.32 59.8735 75.32C59.876 75.32 59.8786 75.32 59.8812 75.32C59.8837 75.32 59.8863 75.32 59.8889 75.32C59.8914 75.32 59.894 75.32 59.8966 75.32C59.8992 75.32 59.9017 75.32 59.9043 75.32C59.9069 75.32 59.9095 75.32 59.912 75.32C59.9146 75.32 59.9172 75.32 59.9198 75.32C59.9223 75.32 59.9249 75.32 59.9275 75.32C59.9301 75.32 59.9327 75.32 59.9352 75.32C59.9378 75.32 59.9404 75.32 59.943 75.32C59.9456 75.32 59.9481 75.32 59.9507 75.32C59.9533 75.32 59.9559 75.32 59.9585 75.32C59.9611 75.32 59.9636 75.32 59.9662 75.32C59.9688 75.32 59.9714 75.32 59.974 75.32C59.9766 75.32 59.9791 75.32 59.9817 75.32C59.9843 75.32 59.9869 75.32 59.9895 75.32C59.9921 75.32 59.9947 75.32 59.9973 75.32C59.9998 75.32 60.0024 75.32 60.005 75.32C60.0076 75.32 60.0102 75.32 60.0128 75.32C60.0154 75.32 60.018 75.32 60.0206 75.32C60.0232 75.32 60.0258 75.32 60.0284 75.32C60.031 75.32 60.0335 75.32 60.0361 75.32C60.0387 75.32 60.0413 75.32 60.0439 75.32C60.0465 75.32 60.0491 75.32 60.0517 75.32C60.0543 75.32 60.0569 75.32 60.0595 75.32C60.0621 75.32 60.0647 75.32 60.0673 75.32C60.0699 75.32 60.0725 75.32 60.0751 75.32C60.0777 75.32 60.0803 75.32 60.0829 75.32C60.0855 75.32 60.0881 75.32 60.0907 75.32C60.0933 75.32 60.0959 75.32 60.0985 75.32C60.1012 75.32 60.1038 75.32 60.1064 75.32C60.109 75.32 60.1116 75.32 60.1142 75.32C60.1168 75.32 60.1194 75.32 60.122 75.32C60.1246 75.32 60.1272 75.32 60.1298 75.32C60.1324 75.32 60.1351 75.32 60.1377 75.32C60.1403 75.32 60.1429 75.32 60.1455 75.32C60.1481 75.32 60.1507 75.32 60.1533 75.32C60.156 75.32 60.1586 75.32 60.1612 75.32C60.1638 75.32 60.1664 75.32 60.169 75.32C60.1716 75.32 60.1743 75.32 60.1769 75.32C60.1795 75.32 60.1821 75.32 60.1847 75.32C60.1873 75.32 60.19 75.32 60.1926 75.32C60.1952 75.32 60.1978 75.32 60.2004 75.32C60.2031 75.32 60.2057 75.32 60.2083 75.32C60.2109 75.32 60.2136 75.32 60.2162 75.32C60.2188 75.32 60.2214 75.32 60.2241 75.32C60.2267 75.32 60.2293 75.32 60.2319 75.32C60.2346 75.32 60.2372 75.32 60.2398 75.32C60.2424 75.32 60.2451 75.32 60.2477 75.32C60.2503 75.32 60.2529 75.32 60.2556 75.32C60.2582 75.32 60.2608 75.32 60.2635 75.32C60.2661 75.32 60.2687 75.32 60.2714 75.32C60.274 75.32 60.2766 75.32 60.2793 75.32C60.2819 75.32 60.2845 75.32 60.2872 75.32C60.2898 75.32 60.2924 75.32 60.2951 75.32C60.2977 75.32 60.3003 75.32 60.303 75.32C60.3056 75.32 60.3082 75.32 60.3109 75.32C60.3135 75.32 60.3162 75.32 60.3188 75.32C60.3214 75.32 60.3241 75.32 60.3267 75.32C60.3294 75.32 60.332 75.32 60.3346 75.32C60.3373 75.32 60.3399 75.32 60.3426 75.32C60.3452 75.32 60.3479 75.32 60.3505 75.32C60.3531 75.32 60.3558 75.32 60.3584 75.32C60.3611 75.32 60.3637 75.32 60.3664 75.32C60.369 75.32 60.3717 75.32 60.3743 75.32C60.377 75.32 60.3796 75.32 60.3823 75.32C60.3849 75.32 60.3876 75.32 60.3902 75.32C60.3929 75.32 60.3955 75.32 60.3982 75.32C60.4008 75.32 60.4035 75.32 60.4061 75.32C60.4088 75.32 60.4114 75.32 60.4141 75.32C60.4167 75.32 60.4194 75.32 60.422 75.32C60.4247 75.32 60.4273 75.32 60.43 75.32C60.4327 75.32 60.4353 75.32 60.438 75.32C60.4406 75.32 60.4433 75.32 60.4459 75.32C60.4486 75.32 60.4513 75.32 60.4539 75.32C60.4566 75.32 60.4592 75.32 60.4619 75.32C60.4646 75.32 60.4672 75.32 60.4699 75.32C60.4726 75.32 60.4752 75.32 60.4779 75.32C60.4805 75.32 60.4832 75.32 60.4859 75.32C60.4885 75.32 60.4912 75.32 60.4939 75.32C60.4965 75.32 60.4992 75.32 60.5019 75.32C60.5045 75.32 60.5072 75.32 60.5099 75.32C60.5125 75.32 60.5152 75.32 60.5179 75.32C60.5205 75.32 60.5232 75.32 60.5259 75.32C60.5286 75.32 60.5312 75.32 60.5339 75.32C60.5366 75.32 60.5392 75.32 60.5419 75.32C60.5446 75.32 60.5473 75.32 60.5499 75.32C60.5526 75.32 60.5553 75.32 60.558 75.32C60.5606 75.32 60.5633 75.32 60.566 75.32C60.5687 75.32 60.5714 75.32 60.574 75.32C60.5767 75.32 60.5794 75.32 60.5821 75.32C60.5847 75.32 60.5874 75.32 60.5901 75.32C60.5928 75.32 60.5955 75.32 60.5982 75.32C60.6008 75.32 60.6035 75.32 60.6062 75.32C60.6089 75.32 60.6116 75.32 60.6143 75.32C60.6169 75.32 60.6196 75.32 60.6223 75.32C60.625 75.32 60.6277 75.32 60.6304 75.32C60.6331 75.32 60.6357 75.32 60.6384 75.32C60.6411 75.32 60.6438 75.32 60.6465 75.32C60.6492 75.32 60.6519 75.32 60.6546 75.32C60.6573 75.32 60.6599 75.32 60.6626 75.32C60.6653 75.32 60.668 75.32 60.6707 75.32C60.6734 75.32 60.6761 75.32 60.6788 75.32C60.6815 75.32 60.6842 75.32 60.6869 75.32C60.6896 75.32 60.6923 75.32 60.695 75.32C60.6977 75.32 60.7004 75.32 60.7031 75.32C60.7058 75.32 60.7085 75.32 60.7112 75.32C60.7138 75.32 60.7165 75.32 60.7192 75.32C60.722 75.32 60.7247 75.32 60.7274 75.32C60.7301 75.32 60.7328 75.32 60.7355 75.32C60.7382 75.32 60.7409 75.32 60.7436 75.32C60.7463 75.32 60.749 75.32 60.7517 75.32C60.7544 75.32 60.7571 75.32 60.7598 75.32C60.7625 75.32 60.7652 75.32 60.7679 75.32C60.7706 75.32 60.7733 75.32 60.776 75.32C60.7788 75.32 60.7815 75.32 60.7842 75.32C60.7869 75.32 60.7896 75.32 60.7923 75.32C60.795 75.32 60.7977 75.32 60.8004 75.32C60.8032 75.32 60.8059 75.32 60.8086 75.32C60.8113 75.32 60.814 75.32 60.8167 75.32C60.8194 75.32 60.8222 75.32 60.8249 75.32C60.8276 75.32 60.8303 75.32 60.833 75.32C60.8357 75.32 60.8385 75.32 60.8412 75.32C60.8439 75.32 60.8466 75.32 60.8493 75.32C60.852 75.32 60.8548 75.32 60.8575 75.32C60.8602 75.32 60.8629 75.32 60.8657 75.32C60.8684 75.32 60.8711 75.32 60.8738 75.32C60.8765 75.32 60.8793 75.32 60.882 75.32C60.8847 75.32 60.8874 75.32 60.8902 75.32C60.8929 75.32 60.8956 75.32 60.8983 75.32C60.9011 75.32 60.9038 75.32 60.9065 75.32C60.9093 75.32 60.912 75.32 60.9147 75.32C60.9174 75.32 60.9202 75.32 60.9229 75.32C60.9256 75.32 60.9284 75.32 60.9311 75.32C60.9338 75.32 60.9366 75.32 60.9393 75.32C60.942 75.32 60.9448 75.32 60.9475 75.32C60.9502 75.32 60.953 75.32 60.9557 75.32C60.9584 75.32 60.9612 75.32 60.9639 75.32C60.9667 75.32 60.9694 75.32 60.9721 75.32C60.9749 75.32 60.9776 75.32 60.9803 75.32C60.9831 75.32 60.9858 75.32 60.9886 75.32C60.9913 75.32 60.994 75.32 60.9968 75.32C60.9995 75.32 61.0023 75.32 61.005 75.32C61.0078 75.32 61.0105 75.32 61.0132 75.32C61.016 75.32 61.0187 75.32 61.0215 75.32C61.0242 75.32 61.027 75.32 61.0297 75.32C61.0325 75.32 61.0352 75.32 61.038 75.32C61.0407 75.32 61.0435 75.32 61.0462 75.32C61.049 75.32 61.0517 75.32 61.0545 75.32C61.0572 75.32 61.06 75.32 61.0627 75.32C61.0655 75.32 61.0682 75.32 61.071 75.32C61.0737 75.32 61.0765 75.32 61.0792 75.32C61.082 75.32 61.0847 75.32 61.0875 75.32C61.0902 75.32 61.093 75.32 61.0958 75.32C61.0985 75.32 61.1013 75.32 61.104 75.32C61.1068 75.32 61.1095 75.32 61.1123 75.32C61.1151 75.32 61.1178 75.32 61.1206 75.32C61.1233 75.32 61.1261 75.32 61.1289 75.32C61.1316 75.32 61.1344 75.32 61.1371 75.32C61.1399 75.32 61.1427 75.32 61.1454 75.32C61.1482 75.32 61.151 75.32 61.1537 75.32C61.1565 75.32 61.1593 75.32 61.162 75.32C61.1648 75.32 61.1676 75.32 61.1703 75.32C61.1731 75.32 61.1759 75.32 61.1786 75.32C61.1814 75.32 61.1842 75.32 61.1869 75.32C61.1897 75.32 61.1925 75.32 61.1952 75.32C61.198 75.32 61.2008 75.32 61.2036 75.32C61.2063 75.32 61.2091 75.32 61.2119 75.32C61.2146 75.32 61.2174 75.32 61.2202 75.32C61.223 75.32 61.2257 75.32 61.2285 75.32C61.2313 75.32 61.2341 75.32 61.2369 75.32C61.2396 75.32 61.2424 75.32 61.2452 75.32C61.248 75.32 61.2507 75.32 61.2535 75.32C61.2563 75.32 61.2591 75.32 61.2619 75.32C61.2646 75.32 61.2674 75.32 61.2702 75.32C61.273 75.32 61.2758 75.32 61.2786 75.32C61.2813 75.32 61.2841 75.32 61.2869 75.32C61.2897 75.32 61.2925 75.32 61.2953 75.32C61.298 75.32 61.3008 75.32 61.3036 75.32C61.3064 75.32 61.3092 75.32 61.312 75.32C61.3148 75.32 61.3176 75.32 61.3204 75.32C61.3231 75.32 61.3259 75.32 61.3287 75.32C61.3315 75.32 61.3343 75.32 61.3371 75.32C61.3399 75.32 61.3427 75.32 61.3455 75.32C61.3483 75.32 61.3511 75.32 61.3539 75.32C61.3566 75.32 61.3594 75.32 61.3622 75.32C61.365 75.32 61.3678 75.32 61.3706 75.32C61.3734 75.32 61.3762 75.32 61.379 75.32C61.3818 75.32 61.3846 75.32 61.3874 75.32C61.3902 75.32 61.393 75.32 61.3958 75.32C61.3986 75.32 61.4014 75.32 61.4042 75.32C61.407 75.32 61.4098 75.32 61.4126 75.32C61.4154 75.32 61.4182 75.32 61.421 75.32C61.4238 75.32 61.4266 75.32 61.4294 75.32C61.4322 75.32 61.4351 75.32 61.4379 75.32C61.4407 75.32 61.4435 75.32 61.4463 75.32C61.4491 75.32 61.4519 75.32 61.4547 75.32C61.4575 75.32 61.4603 75.32 61.4631 75.32C61.4659 75.32 61.4688 75.32 61.4716 75.32C61.4744 75.32 61.4772 75.32 61.48 75.32C61.4828 75.32 61.4856 75.32 61.4884 75.32C61.4913 75.32 61.4941 75.32 61.4969 75.32C61.4997 75.32 61.5025 75.32 61.5053 75.32C61.5081 75.32 61.511 75.32 61.5138 75.32C61.5166 75.32 61.5194 75.32 61.5222 75.32C61.5251 75.32 61.5279 75.32 61.5307 75.32C61.5335 75.32 61.5363 75.32 61.5392 75.32C61.542 75.32 61.5448 75.32 61.5476 75.32C61.5504 75.32 61.5533 75.32 61.5561 75.32C61.5589 75.32 61.5617 75.32 61.5646 75.32C61.5674 75.32 61.5702 75.32 61.573 75.32C61.5759 75.32 61.5787 75.32 61.5815 75.32C61.5843 75.32 61.5872 75.32 61.59 75.32C61.5928 75.32 61.5957 75.32 61.5985 75.32C61.6013 75.32 61.6041 75.32 61.607 75.32C61.6098 75.32 61.6126 75.32 61.6155 75.32C61.6183 75.32 61.6211 75.32 61.624 75.32C61.6268 75.32 61.6296 75.32 61.6325 75.32C61.6353 75.32 61.6381 75.32 61.641 75.32C61.6438 75.32 61.6466 75.32 61.6495 75.32C61.6523 75.32 61.6552 75.32 61.658 75.32C61.6608 75.32 61.6637 75.32 61.6665 75.32C61.6694 75.32 61.6722 75.32 61.675 75.32C61.6779 75.32 61.6807 75.32 61.6836 75.32C61.6864 75.32 61.6892 75.32 61.6921 75.32C61.6949 75.32 61.6978 75.32 61.7006 75.32C61.7035 75.32 61.7063 75.32 61.7091 75.32C61.712 75.32 61.7148 75.32 61.7177 75.32C61.7205 75.32 61.7234 75.32 61.7262 75.32C61.7291 75.32 61.7319 75.32 61.7348 75.32C61.7376 75.32 61.7405 75.32 61.7433 75.32C61.7462 75.32 61.749 75.32 61.7519 75.32C61.7547 75.32 61.7576 75.32 61.7604 75.32C61.7633 75.32 61.7661 75.32 61.769 75.32C61.7718 75.32 61.7747 75.32 61.7776 75.32C61.7804 75.32 61.7833 75.32 61.7861 75.32C61.789 75.32 61.7918 75.32 61.7947 75.32C61.7976 75.32 61.8004 75.32 61.8033 75.32C61.8061 75.32 61.809 75.32 61.8118 75.32C61.8147 75.32 61.8176 75.32 61.8204 75.32C61.8233 75.32 61.8262 75.32 61.829 75.32C61.8319 75.32 61.8347 75.32 61.8376 75.32C61.8405 75.32 61.8433 75.32 61.8462 75.32C61.8491 75.32 61.8519 75.32 61.8548 75.32C61.8577 75.32 61.8605 75.32 61.8634 75.32C61.8663 75.32 61.8691 75.32 61.872 75.32C61.8749 75.32 61.8777 75.32 61.8806 75.32C61.8835 75.32 61.8863 75.32 61.8892 75.32C61.8921 75.32 61.895 75.32 61.8978 75.32C61.9007 75.32 61.9036 75.32 61.9065 75.32C61.9093 75.32 61.9122 75.32 61.9151 75.32C61.918 75.32 61.9208 75.32 61.9237 75.32C61.9266 75.32 61.9295 75.32 61.9323 75.32C61.9352 75.32 61.9381 75.32 61.941 75.32C61.9438 75.32 61.9467 75.32 61.9496 75.32C61.9525 75.32 61.9554 75.32 61.9582 75.32C61.9611 75.32 61.964 75.32 61.9669 75.32C61.9698 75.32 61.9727 75.32 61.9755 75.32C61.9784 75.32 61.9813 75.32 61.9842 75.32C61.9871 75.32 61.99 75.32 61.9928 75.32C61.9957 75.32 61.9986 75.32 62.0015 75.32C62.0044 75.32 62.0073 75.32 62.0102 75.32C62.0131 75.32 62.0159 75.32 62.0188 75.32C62.0217 75.32 62.0246 75.32 62.0275 75.32C62.0304 75.32 62.0333 75.32 62.0362 75.32C62.0391 75.32 62.042 75.32 62.0449 75.32C62.0477 75.32 62.0506 75.32 62.0535 75.32C62.0564 75.32 62.0593 75.32 62.0622 75.32C62.0651 75.32 62.068 75.32 62.0709 75.32C62.0738 75.32 62.0767 75.32 62.0796 75.32C62.0825 75.32 62.0854 75.32 62.0883 75.32C62.0912 75.32 62.0941 75.32 62.097 75.32C62.0999 75.32 62.1028 75.32 62.1057 75.32C62.1086 75.32 62.1115 75.32 62.1144 75.32C62.1173 75.32 62.1202 75.32 62.1231 75.32C62.126 75.32 62.1289 75.32 62.1318 75.32C62.1347 75.32 62.1376 75.32 62.1405 75.32C62.1435 75.32 62.1464 75.32 62.1493 75.32C62.1522 75.32 62.1551 75.32 62.158 75.32C62.1609 75.32 62.1638 75.32 62.1667 75.32C62.1696 75.32 62.1725 75.32 62.1755 75.32C62.1784 75.32 62.1813 75.32 62.1842 75.32C62.1871 75.32 62.19 75.32 62.1929 75.32C62.1958 75.32 62.1988 75.32 62.2017 75.32C62.2046 75.32 62.2075 75.32 62.2104 75.32C62.2133 75.32 62.2163 75.32 62.2192 75.32C62.2221 75.32 62.225 75.32 62.2279 75.32C62.2308 75.32 62.2338 75.32 62.2367 75.32C62.2396 75.32 62.2425 75.32 62.2454 75.32C62.2484 75.32 62.2513 75.32 62.2542 75.32C62.2571 75.32 62.2601 75.32 62.263 75.32C62.2659 75.32 62.2688 75.32 62.2718 75.32C62.2747 75.32 62.2776 75.32 62.2805 75.32C62.2835 75.32 62.2864 75.32 62.2893 75.32C62.2922 75.32 62.2952 75.32 62.2981 75.32C62.301 75.32 62.3039 75.32 62.3069 75.32C62.3098 75.32 62.3127 75.32 62.3157 75.32C62.3186 75.32 62.3215 75.32 62.3245 75.32C62.3274 75.32 62.3303 75.32 62.3333 75.32C62.3362 75.32 62.3391 75.32 62.3421 75.32C62.345 75.32 62.3479 75.32 62.3509 75.32C62.3538 75.32 62.3567 75.32 62.3597 75.32C62.3626 75.32 62.3656 75.32 62.3685 75.32C62.3714 75.32 62.3744 75.32 62.3773 75.32C62.3802 75.32 62.3832 75.32 62.3861 75.32C62.3891 75.32 62.392 75.32 62.395 75.32C62.3979 75.32 62.4008 75.32 62.4038 75.32C62.4067 75.32 62.4097 75.32 62.4126 75.32C62.4156 75.32 62.4185 75.32 62.4214 75.32C62.4244 75.32 62.4273 75.32 62.4303 75.32C62.4332 75.32 62.4362 75.32 62.4391 75.32C62.4421 75.32 62.445 75.32 62.448 75.32C62.4509 75.32 62.4539 75.32 62.4568 75.32C62.4598 75.32 62.4627 75.32 62.4657 75.32C62.4686 75.32 62.4716 75.32 62.4745 75.32C62.4775 75.32 62.4804 75.32 62.4834 75.32C62.4863 75.32 62.4893 75.32 62.4923 75.32C62.4952 75.32 62.4982 75.32 62.5011 75.32C62.5041 75.32 62.507 75.32 62.51 75.32C62.513 75.32 62.5159 75.32 62.5189 75.32C62.5218 75.32 62.5248 75.32 62.5277 75.32C62.5307 75.32 62.5337 75.32 62.5366 75.32C62.5396 75.32 62.5426 75.32 62.5455 75.32C62.5485 75.32 62.5514 75.32 62.5544 75.32C62.5574 75.32 62.5603 75.32 62.5633 75.32C62.5663 75.32 62.5692 75.32 62.5722 75.32C62.5752 75.32 62.5781 75.32 62.5811 75.32C62.5841 75.32 62.587 75.32 62.59 75.32C62.593 75.32 62.5959 75.32 62.5989 75.32C62.6019 75.32 62.6049 75.32 62.6078 75.32C62.6108 75.32 62.6138 75.32 62.6167 75.32C62.6197 75.32 62.6227 75.32 62.6257 75.32C62.6286 75.32 62.6316 75.32 62.6346 75.32C62.6376 75.32 62.6405 75.32 62.6435 75.32C62.6465 75.32 62.6495 75.32 62.6524 75.32C62.6554 75.32 62.6584 75.32 62.6614 75.32C62.6643 75.32 62.6673 75.32 62.6703 75.32C62.6733 75.32 62.6763 75.32 62.6792 75.32C62.6822 75.32 62.6852 75.32 62.6882 75.32C62.6912 75.32 62.6942 75.32 62.6971 75.32C62.7001 75.32 62.7031 75.32 62.7061 75.32C62.7091 75.32 62.7121 75.32 62.715 75.32C62.718 75.32 62.721 75.32 62.724 75.32C62.727 75.32 62.73 75.32 62.733 75.32C62.736 75.32 62.7389 75.32 62.7419 75.32C62.7449 75.32 62.7479 75.32 62.7509 75.32C62.7539 75.32 62.7569 75.32 62.7599 75.32C62.7629 75.32 62.7659 75.32 62.7689 75.32C62.7719 75.32 62.7748 75.32 62.7778 75.32C62.7808 75.32 62.7838 75.32 62.7868 75.32C62.7898 75.32 62.7928 75.32 62.7958 75.32C62.7988 75.32 62.8018 75.32 62.8048 75.32C62.8078 75.32 62.8108 75.32 62.8138 75.32C62.8168 75.32 62.8198 75.32 62.8228 75.32C62.8258 75.32 62.8288 75.32 62.8318 75.32C62.8348 75.32 62.8378 75.32 62.8408 75.32C62.8438 75.32 62.8468 75.32 62.8498 75.32C62.8528 75.32 62.8558 75.32 62.8588 75.32C62.8618 75.32 62.8649 75.32 62.8679 75.32C62.8709 75.32 62.8739 75.32 62.8769 75.32C62.8799 75.32 62.8829 75.32 62.8859 75.32C62.8889 75.32 62.8919 75.32 62.8949 75.32C62.8979 75.32 62.901 75.32 62.904 75.32C62.907 75.32 62.91 75.32 62.913 75.32C62.916 75.32 62.919 75.32 62.922 75.32C62.9251 75.32 62.9281 75.32 62.9311 75.32C62.9341 75.32 62.9371 75.32 62.9401 75.32C62.9431 75.32 62.9462 75.32 62.9492 75.32C62.9522 75.32 62.9552 75.32 62.9582 75.32C62.9613 75.32 62.9643 75.32 62.9673 75.32C62.9703 75.32 62.9733 75.32 62.9764 75.32C62.9794 75.32 62.9824 75.32 62.9854 75.32C62.9884 75.32 62.9915 75.32 62.9945 75.32C62.9975 75.32 63.0005 75.32 63.0036 75.32C63.0066 75.32 63.0096 75.32 63.0126 75.32C63.0157 75.32 63.0187 75.32 63.0217 75.32C63.0247 75.32 63.0278 75.32 63.0308 75.32C63.0338 75.32 63.0369 75.32 63.0399 75.32C63.0429 75.32 63.046 75.32 63.049 75.32C63.052 75.32 63.055 75.32 63.0581 75.32C63.0611 75.32 63.0641 75.32 63.0672 75.32C63.0702 75.32 63.0732 75.32 63.0763 75.32C63.0793 75.32 63.0824 75.32 63.0854 75.32C63.0884 75.32 63.0915 75.32 63.0945 75.32C63.0975 75.32 63.1006 75.32 63.1036 75.32C63.1066 75.32 63.1097 75.32 63.1127 75.32C63.1158 75.32 63.1188 75.32 63.1218 75.32C63.1249 75.32 63.1279 75.32 63.131 75.32C63.134 75.32 63.1371 75.32 63.1401 75.32C63.1431 75.32 63.1462 75.32 63.1492 75.32C63.1523 75.32 63.1553 75.32 63.1584 75.32C63.1614 75.32 63.1645 75.32 63.1675 75.32C63.1705 75.32 63.1736 75.32 63.1766 75.32C63.1797 75.32 63.1827 75.32 63.1858 75.32C63.1888 75.32 63.1919 75.32 63.1949 75.32C63.198 75.32 63.201 75.32 63.2041 75.32C63.2071 75.32 63.2102 75.32 63.2132 75.32C63.2163 75.32 63.2194 75.32 63.2224 75.32C63.2255 75.32 63.2285 75.32 63.2316 75.32C63.2346 75.32 63.2377 75.32 63.2407 75.32C63.2438 75.32 63.2469 75.32 63.2499 75.32C63.253 75.32 63.256 75.32 63.2591 75.32C63.2622 75.32 63.2652 75.32 63.2683 75.32C63.2713 75.32 63.2744 75.32 63.2775 75.32C63.2805 75.32 63.2836 75.32 63.2866 75.32C63.2897 75.32 63.2928 75.32 63.2958 75.32C63.2989 75.32 63.302 75.32 63.305 75.32C63.3081 75.32 63.3112 75.32 63.3142 75.32C63.3173 75.32 63.3204 75.32 63.3234 75.32C63.3265 75.32 63.3296 75.32 63.3326 75.32C63.3357 75.32 63.3388 75.32 63.3418 75.32C63.3449 75.32 63.348 75.32 63.3511 75.32C63.3541 75.32 63.3572 75.32 63.3603 75.32C63.3633 75.32 63.3664 75.32 63.3695 75.32C63.3726 75.32 63.3756 75.32 63.3787 75.32C63.3818 75.32 63.3849 75.32 63.3879 75.32C63.391 75.32 63.3941 75.32 63.3972 75.32C63.4002 75.32 63.4033 75.32 63.4064 75.32C63.4095 75.32 63.4126 75.32 63.4156 75.32C63.4187 75.32 63.4218 75.32 63.4249 75.32C63.428 75.32 63.431 75.32 63.4341 75.32C63.4372 75.32 63.4403 75.32 63.4434 75.32C63.4465 75.32 63.4495 75.32 63.4526 75.32C63.4557 75.32 63.4588 75.32 63.4619 75.32C63.465 75.32 63.468 75.32 63.4711 75.32C63.4742 75.32 63.4773 75.32 63.4804 75.32C63.4835 75.32 63.4866 75.32 63.4897 75.32C63.4928 75.32 63.4958 75.32 63.4989 75.32C63.502 75.32 63.5051 75.32 63.5082 75.32C63.5113 75.32 63.5144 75.32 63.5175 75.32C63.5206 75.32 63.5237 75.32 63.5268 75.32C63.5299 75.32 63.533 75.32 63.5361 75.32C63.5392 75.32 63.5423 75.32 63.5453 75.32C63.5484 75.32 63.5515 75.32 63.5546 75.32C63.5577 75.32 63.5608 75.32 63.5639 75.32C63.567 75.32 63.5701 75.32 63.5732 75.32C63.5763 75.32 63.5794 75.32 63.5825 75.32C63.5856 75.32 63.5887 75.32 63.5919 75.32C63.5949 75.32 63.5981 75.32 63.6012 75.32C63.6043 75.32 63.6074 75.32 63.6105 75.32C63.6136 75.32 63.6167 75.32 63.6198 75.32C63.6229 75.32 63.626 75.32 63.6291 75.32C63.6322 75.32 63.6353 75.32 63.6384 75.32C63.6415 75.32 63.6447 75.32 63.6478 75.32C63.6509 75.32 63.654 75.32 63.6571 75.32C63.6602 75.32 63.6633 75.32 63.6664 75.32C63.6695 75.32 63.6727 75.32 63.6758 75.32C63.6789 75.32 63.682 75.32 63.6851 75.32C63.6882 75.32 63.6914 75.32 63.6945 75.32C63.6976 75.32 63.7007 75.32 63.7038 75.32C63.7069 75.32 63.7101 75.32 63.7132 75.32C63.7163 75.32 63.7194 75.32 63.7225 75.32C63.7257 75.32 63.7288 75.32 63.7319 75.32C63.735 75.32 63.7381 75.32 63.7413 75.32C63.7444 75.32 63.7475 75.32 63.7506 75.32C63.7538 75.32 63.7569 75.32 63.76 75.32V72.32V69.32C63.7569 69.32 63.7538 69.32 63.7506 69.32C63.7475 69.32 63.7444 69.32 63.7413 69.32C63.7381 69.32 63.735 69.32 63.7319 69.32C63.7288 69.32 63.7257 69.32 63.7225 69.32C63.7194 69.32 63.7163 69.32 63.7132 69.32C63.7101 69.32 63.7069 69.32 63.7038 69.32C63.7007 69.32 63.6976 69.32 63.6945 69.32C63.6914 69.32 63.6882 69.32 63.6851 69.32C63.682 69.32 63.6789 69.32 63.6758 69.32C63.6727 69.32 63.6695 69.32 63.6664 69.32C63.6633 69.32 63.6602 69.32 63.6571 69.32C63.654 69.32 63.6509 69.32 63.6478 69.32C63.6447 69.32 63.6415 69.32 63.6384 69.32C63.6353 69.32 63.6322 69.32 63.6291 69.32C63.626 69.32 63.6229 69.32 63.6198 69.32C63.6167 69.32 63.6136 69.32 63.6105 69.32C63.6074 69.32 63.6043 69.32 63.6012 69.32C63.5981 69.32 63.5949 69.32 63.5919 69.32C63.5887 69.32 63.5856 69.32 63.5825 69.32C63.5794 69.32 63.5763 69.32 63.5732 69.32C63.5701 69.32 63.567 69.32 63.5639 69.32C63.5608 69.32 63.5577 69.32 63.5546 69.32C63.5515 69.32 63.5484 69.32 63.5453 69.32C63.5423 69.32 63.5392 69.32 63.5361 69.32C63.533 69.32 63.5299 69.32 63.5268 69.32C63.5237 69.32 63.5206 69.32 63.5175 69.32C63.5144 69.32 63.5113 69.32 63.5082 69.32C63.5051 69.32 63.502 69.32 63.4989 69.32C63.4958 69.32 63.4928 69.32 63.4897 69.32C63.4866 69.32 63.4835 69.32 63.4804 69.32C63.4773 69.32 63.4742 69.32 63.4711 69.32C63.468 69.32 63.465 69.32 63.4619 69.32C63.4588 69.32 63.4557 69.32 63.4526 69.32C63.4495 69.32 63.4465 69.32 63.4434 69.32C63.4403 69.32 63.4372 69.32 63.4341 69.32C63.431 69.32 63.428 69.32 63.4249 69.32C63.4218 69.32 63.4187 69.32 63.4156 69.32C63.4126 69.32 63.4095 69.32 63.4064 69.32C63.4033 69.32 63.4002 69.32 63.3972 69.32C63.3941 69.32 63.391 69.32 63.3879 69.32C63.3849 69.32 63.3818 69.32 63.3787 69.32C63.3756 69.32 63.3726 69.32 63.3695 69.32C63.3664 69.32 63.3633 69.32 63.3603 69.32C63.3572 69.32 63.3541 69.32 63.3511 69.32C63.348 69.32 63.3449 69.32 63.3418 69.32C63.3388 69.32 63.3357 69.32 63.3326 69.32C63.3296 69.32 63.3265 69.32 63.3234 69.32C63.3204 69.32 63.3173 69.32 63.3142 69.32C63.3112 69.32 63.3081 69.32 63.305 69.32C63.302 69.32 63.2989 69.32 63.2958 69.32C63.2928 69.32 63.2897 69.32 63.2866 69.32C63.2836 69.32 63.2805 69.32 63.2775 69.32C63.2744 69.32 63.2713 69.32 63.2683 69.32C63.2652 69.32 63.2622 69.32 63.2591 69.32C63.256 69.32 63.253 69.32 63.2499 69.32C63.2469 69.32 63.2438 69.32 63.2407 69.32C63.2377 69.32 63.2346 69.32 63.2316 69.32C63.2285 69.32 63.2255 69.32 63.2224 69.32C63.2194 69.32 63.2163 69.32 63.2132 69.32C63.2102 69.32 63.2071 69.32 63.2041 69.32C63.201 69.32 63.198 69.32 63.1949 69.32C63.1919 69.32 63.1888 69.32 63.1858 69.32C63.1827 69.32 63.1797 69.32 63.1766 69.32C63.1736 69.32 63.1705 69.32 63.1675 69.32C63.1645 69.32 63.1614 69.32 63.1584 69.32C63.1553 69.32 63.1523 69.32 63.1492 69.32C63.1462 69.32 63.1431 69.32 63.1401 69.32C63.1371 69.32 63.134 69.32 63.131 69.32C63.1279 69.32 63.1249 69.32 63.1218 69.32C63.1188 69.32 63.1158 69.32 63.1127 69.32C63.1097 69.32 63.1066 69.32 63.1036 69.32C63.1006 69.32 63.0975 69.32 63.0945 69.32C63.0915 69.32 63.0884 69.32 63.0854 69.32C63.0824 69.32 63.0793 69.32 63.0763 69.32C63.0732 69.32 63.0702 69.32 63.0672 69.32C63.0641 69.32 63.0611 69.32 63.0581 69.32C63.055 69.32 63.052 69.32 63.049 69.32C63.046 69.32 63.0429 69.32 63.0399 69.32C63.0369 69.32 63.0338 69.32 63.0308 69.32C63.0278 69.32 63.0247 69.32 63.0217 69.32C63.0187 69.32 63.0157 69.32 63.0126 69.32C63.0096 69.32 63.0066 69.32 63.0036 69.32C63.0005 69.32 62.9975 69.32 62.9945 69.32C62.9915 69.32 62.9884 69.32 62.9854 69.32C62.9824 69.32 62.9794 69.32 62.9764 69.32C62.9733 69.32 62.9703 69.32 62.9673 69.32C62.9643 69.32 62.9613 69.32 62.9582 69.32C62.9552 69.32 62.9522 69.32 62.9492 69.32C62.9462 69.32 62.9431 69.32 62.9401 69.32C62.9371 69.32 62.9341 69.32 62.9311 69.32C62.9281 69.32 62.9251 69.32 62.922 69.32C62.919 69.32 62.916 69.32 62.913 69.32C62.91 69.32 62.907 69.32 62.904 69.32C62.901 69.32 62.8979 69.32 62.8949 69.32C62.8919 69.32 62.8889 69.32 62.8859 69.32C62.8829 69.32 62.8799 69.32 62.8769 69.32C62.8739 69.32 62.8709 69.32 62.8679 69.32C62.8649 69.32 62.8618 69.32 62.8588 69.32C62.8558 69.32 62.8528 69.32 62.8498 69.32C62.8468 69.32 62.8438 69.32 62.8408 69.32C62.8378 69.32 62.8348 69.32 62.8318 69.32C62.8288 69.32 62.8258 69.32 62.8228 69.32C62.8198 69.32 62.8168 69.32 62.8138 69.32C62.8108 69.32 62.8078 69.32 62.8048 69.32C62.8018 69.32 62.7988 69.32 62.7958 69.32C62.7928 69.32 62.7898 69.32 62.7868 69.32C62.7838 69.32 62.7808 69.32 62.7778 69.32C62.7748 69.32 62.7719 69.32 62.7689 69.32C62.7659 69.32 62.7629 69.32 62.7599 69.32C62.7569 69.32 62.7539 69.32 62.7509 69.32C62.7479 69.32 62.7449 69.32 62.7419 69.32C62.7389 69.32 62.736 69.32 62.733 69.32C62.73 69.32 62.727 69.32 62.724 69.32C62.721 69.32 62.718 69.32 62.715 69.32C62.7121 69.32 62.7091 69.32 62.7061 69.32C62.7031 69.32 62.7001 69.32 62.6971 69.32C62.6942 69.32 62.6912 69.32 62.6882 69.32C62.6852 69.32 62.6822 69.32 62.6792 69.32C62.6763 69.32 62.6733 69.32 62.6703 69.32C62.6673 69.32 62.6643 69.32 62.6614 69.32C62.6584 69.32 62.6554 69.32 62.6524 69.32C62.6495 69.32 62.6465 69.32 62.6435 69.32C62.6405 69.32 62.6376 69.32 62.6346 69.32C62.6316 69.32 62.6286 69.32 62.6257 69.32C62.6227 69.32 62.6197 69.32 62.6167 69.32C62.6138 69.32 62.6108 69.32 62.6078 69.32C62.6049 69.32 62.6019 69.32 62.5989 69.32C62.5959 69.32 62.593 69.32 62.59 69.32C62.587 69.32 62.5841 69.32 62.5811 69.32C62.5781 69.32 62.5752 69.32 62.5722 69.32C62.5692 69.32 62.5663 69.32 62.5633 69.32C62.5603 69.32 62.5574 69.32 62.5544 69.32C62.5514 69.32 62.5485 69.32 62.5455 69.32C62.5426 69.32 62.5396 69.32 62.5366 69.32C62.5337 69.32 62.5307 69.32 62.5277 69.32C62.5248 69.32 62.5218 69.32 62.5189 69.32C62.5159 69.32 62.513 69.32 62.51 69.32C62.507 69.32 62.5041 69.32 62.5011 69.32C62.4982 69.32 62.4952 69.32 62.4923 69.32C62.4893 69.32 62.4863 69.32 62.4834 69.32C62.4804 69.32 62.4775 69.32 62.4745 69.32C62.4716 69.32 62.4686 69.32 62.4657 69.32C62.4627 69.32 62.4598 69.32 62.4568 69.32C62.4539 69.32 62.4509 69.32 62.448 69.32C62.445 69.32 62.4421 69.32 62.4391 69.32C62.4362 69.32 62.4332 69.32 62.4303 69.32C62.4273 69.32 62.4244 69.32 62.4214 69.32C62.4185 69.32 62.4156 69.32 62.4126 69.32C62.4097 69.32 62.4067 69.32 62.4038 69.32C62.4008 69.32 62.3979 69.32 62.395 69.32C62.392 69.32 62.3891 69.32 62.3861 69.32C62.3832 69.32 62.3802 69.32 62.3773 69.32C62.3744 69.32 62.3714 69.32 62.3685 69.32C62.3656 69.32 62.3626 69.32 62.3597 69.32C62.3567 69.32 62.3538 69.32 62.3509 69.32C62.3479 69.32 62.345 69.32 62.3421 69.32C62.3391 69.32 62.3362 69.32 62.3333 69.32C62.3303 69.32 62.3274 69.32 62.3245 69.32C62.3215 69.32 62.3186 69.32 62.3157 69.32C62.3127 69.32 62.3098 69.32 62.3069 69.32C62.3039 69.32 62.301 69.32 62.2981 69.32C62.2952 69.32 62.2922 69.32 62.2893 69.32C62.2864 69.32 62.2835 69.32 62.2805 69.32C62.2776 69.32 62.2747 69.32 62.2718 69.32C62.2688 69.32 62.2659 69.32 62.263 69.32C62.2601 69.32 62.2571 69.32 62.2542 69.32C62.2513 69.32 62.2484 69.32 62.2454 69.32C62.2425 69.32 62.2396 69.32 62.2367 69.32C62.2338 69.32 62.2308 69.32 62.2279 69.32C62.225 69.32 62.2221 69.32 62.2192 69.32C62.2163 69.32 62.2133 69.32 62.2104 69.32C62.2075 69.32 62.2046 69.32 62.2017 69.32C62.1988 69.32 62.1958 69.32 62.1929 69.32C62.19 69.32 62.1871 69.32 62.1842 69.32C62.1813 69.32 62.1784 69.32 62.1755 69.32C62.1725 69.32 62.1696 69.32 62.1667 69.32C62.1638 69.32 62.1609 69.32 62.158 69.32C62.1551 69.32 62.1522 69.32 62.1493 69.32C62.1464 69.32 62.1435 69.32 62.1405 69.32C62.1376 69.32 62.1347 69.32 62.1318 69.32C62.1289 69.32 62.126 69.32 62.1231 69.32C62.1202 69.32 62.1173 69.32 62.1144 69.32C62.1115 69.32 62.1086 69.32 62.1057 69.32C62.1028 69.32 62.0999 69.32 62.097 69.32C62.0941 69.32 62.0912 69.32 62.0883 69.32C62.0854 69.32 62.0825 69.32 62.0796 69.32C62.0767 69.32 62.0738 69.32 62.0709 69.32C62.068 69.32 62.0651 69.32 62.0622 69.32C62.0593 69.32 62.0564 69.32 62.0535 69.32C62.0506 69.32 62.0477 69.32 62.0449 69.32C62.042 69.32 62.0391 69.32 62.0362 69.32C62.0333 69.32 62.0304 69.32 62.0275 69.32C62.0246 69.32 62.0217 69.32 62.0188 69.32C62.0159 69.32 62.0131 69.32 62.0102 69.32C62.0073 69.32 62.0044 69.32 62.0015 69.32C61.9986 69.32 61.9957 69.32 61.9928 69.32C61.99 69.32 61.9871 69.32 61.9842 69.32C61.9813 69.32 61.9784 69.32 61.9755 69.32C61.9727 69.32 61.9698 69.32 61.9669 69.32C61.964 69.32 61.9611 69.32 61.9582 69.32C61.9554 69.32 61.9525 69.32 61.9496 69.32C61.9467 69.32 61.9438 69.32 61.941 69.32C61.9381 69.32 61.9352 69.32 61.9323 69.32C61.9295 69.32 61.9266 69.32 61.9237 69.32C61.9208 69.32 61.918 69.32 61.9151 69.32C61.9122 69.32 61.9093 69.32 61.9065 69.32C61.9036 69.32 61.9007 69.32 61.8978 69.32C61.895 69.32 61.8921 69.32 61.8892 69.32C61.8863 69.32 61.8835 69.32 61.8806 69.32C61.8777 69.32 61.8749 69.32 61.872 69.32C61.8691 69.32 61.8663 69.32 61.8634 69.32C61.8605 69.32 61.8577 69.32 61.8548 69.32C61.8519 69.32 61.8491 69.32 61.8462 69.32C61.8433 69.32 61.8405 69.32 61.8376 69.32C61.8347 69.32 61.8319 69.32 61.829 69.32C61.8262 69.32 61.8233 69.32 61.8204 69.32C61.8176 69.32 61.8147 69.32 61.8118 69.32C61.809 69.32 61.8061 69.32 61.8033 69.32C61.8004 69.32 61.7976 69.32 61.7947 69.32C61.7918 69.32 61.789 69.32 61.7861 69.32C61.7833 69.32 61.7804 69.32 61.7776 69.32C61.7747 69.32 61.7718 69.32 61.769 69.32C61.7661 69.32 61.7633 69.32 61.7604 69.32C61.7576 69.32 61.7547 69.32 61.7519 69.32C61.749 69.32 61.7462 69.32 61.7433 69.32C61.7405 69.32 61.7376 69.32 61.7348 69.32C61.7319 69.32 61.7291 69.32 61.7262 69.32C61.7234 69.32 61.7205 69.32 61.7177 69.32C61.7148 69.32 61.712 69.32 61.7091 69.32C61.7063 69.32 61.7035 69.32 61.7006 69.32C61.6978 69.32 61.6949 69.32 61.6921 69.32C61.6892 69.32 61.6864 69.32 61.6836 69.32C61.6807 69.32 61.6779 69.32 61.675 69.32C61.6722 69.32 61.6694 69.32 61.6665 69.32C61.6637 69.32 61.6608 69.32 61.658 69.32C61.6552 69.32 61.6523 69.32 61.6495 69.32C61.6466 69.32 61.6438 69.32 61.641 69.32C61.6381 69.32 61.6353 69.32 61.6325 69.32C61.6296 69.32 61.6268 69.32 61.624 69.32C61.6211 69.32 61.6183 69.32 61.6155 69.32C61.6126 69.32 61.6098 69.32 61.607 69.32C61.6041 69.32 61.6013 69.32 61.5985 69.32C61.5957 69.32 61.5928 69.32 61.59 69.32C61.5872 69.32 61.5843 69.32 61.5815 69.32C61.5787 69.32 61.5759 69.32 61.573 69.32C61.5702 69.32 61.5674 69.32 61.5646 69.32C61.5617 69.32 61.5589 69.32 61.5561 69.32C61.5533 69.32 61.5504 69.32 61.5476 69.32C61.5448 69.32 61.542 69.32 61.5392 69.32C61.5363 69.32 61.5335 69.32 61.5307 69.32C61.5279 69.32 61.5251 69.32 61.5222 69.32C61.5194 69.32 61.5166 69.32 61.5138 69.32C61.511 69.32 61.5081 69.32 61.5053 69.32C61.5025 69.32 61.4997 69.32 61.4969 69.32C61.4941 69.32 61.4913 69.32 61.4884 69.32C61.4856 69.32 61.4828 69.32 61.48 69.32C61.4772 69.32 61.4744 69.32 61.4716 69.32C61.4688 69.32 61.4659 69.32 61.4631 69.32C61.4603 69.32 61.4575 69.32 61.4547 69.32C61.4519 69.32 61.4491 69.32 61.4463 69.32C61.4435 69.32 61.4407 69.32 61.4379 69.32C61.4351 69.32 61.4322 69.32 61.4294 69.32C61.4266 69.32 61.4238 69.32 61.421 69.32C61.4182 69.32 61.4154 69.32 61.4126 69.32C61.4098 69.32 61.407 69.32 61.4042 69.32C61.4014 69.32 61.3986 69.32 61.3958 69.32C61.393 69.32 61.3902 69.32 61.3874 69.32C61.3846 69.32 61.3818 69.32 61.379 69.32C61.3762 69.32 61.3734 69.32 61.3706 69.32C61.3678 69.32 61.365 69.32 61.3622 69.32C61.3594 69.32 61.3566 69.32 61.3539 69.32C61.3511 69.32 61.3483 69.32 61.3455 69.32C61.3427 69.32 61.3399 69.32 61.3371 69.32C61.3343 69.32 61.3315 69.32 61.3287 69.32C61.3259 69.32 61.3231 69.32 61.3204 69.32C61.3176 69.32 61.3148 69.32 61.312 69.32C61.3092 69.32 61.3064 69.32 61.3036 69.32C61.3008 69.32 61.298 69.32 61.2953 69.32C61.2925 69.32 61.2897 69.32 61.2869 69.32C61.2841 69.32 61.2813 69.32 61.2786 69.32C61.2758 69.32 61.273 69.32 61.2702 69.32C61.2674 69.32 61.2646 69.32 61.2619 69.32C61.2591 69.32 61.2563 69.32 61.2535 69.32C61.2507 69.32 61.248 69.32 61.2452 69.32C61.2424 69.32 61.2396 69.32 61.2369 69.32C61.2341 69.32 61.2313 69.32 61.2285 69.32C61.2257 69.32 61.223 69.32 61.2202 69.32C61.2174 69.32 61.2146 69.32 61.2119 69.32C61.2091 69.32 61.2063 69.32 61.2036 69.32C61.2008 69.32 61.198 69.32 61.1952 69.32C61.1925 69.32 61.1897 69.32 61.1869 69.32C61.1842 69.32 61.1814 69.32 61.1786 69.32C61.1759 69.32 61.1731 69.32 61.1703 69.32C61.1676 69.32 61.1648 69.32 61.162 69.32C61.1593 69.32 61.1565 69.32 61.1537 69.32C61.151 69.32 61.1482 69.32 61.1454 69.32C61.1427 69.32 61.1399 69.32 61.1371 69.32C61.1344 69.32 61.1316 69.32 61.1289 69.32C61.1261 69.32 61.1233 69.32 61.1206 69.32C61.1178 69.32 61.1151 69.32 61.1123 69.32C61.1095 69.32 61.1068 69.32 61.104 69.32C61.1013 69.32 61.0985 69.32 61.0958 69.32C61.093 69.32 61.0902 69.32 61.0875 69.32C61.0847 69.32 61.082 69.32 61.0792 69.32C61.0765 69.32 61.0737 69.32 61.071 69.32C61.0682 69.32 61.0655 69.32 61.0627 69.32C61.06 69.32 61.0572 69.32 61.0545 69.32C61.0517 69.32 61.049 69.32 61.0462 69.32C61.0435 69.32 61.0407 69.32 61.038 69.32C61.0352 69.32 61.0325 69.32 61.0297 69.32C61.027 69.32 61.0242 69.32 61.0215 69.32C61.0187 69.32 61.016 69.32 61.0132 69.32C61.0105 69.32 61.0078 69.32 61.005 69.32C61.0023 69.32 60.9995 69.32 60.9968 69.32C60.994 69.32 60.9913 69.32 60.9886 69.32C60.9858 69.32 60.9831 69.32 60.9803 69.32C60.9776 69.32 60.9749 69.32 60.9721 69.32C60.9694 69.32 60.9667 69.32 60.9639 69.32C60.9612 69.32 60.9584 69.32 60.9557 69.32C60.953 69.32 60.9502 69.32 60.9475 69.32C60.9448 69.32 60.942 69.32 60.9393 69.32C60.9366 69.32 60.9338 69.32 60.9311 69.32C60.9284 69.32 60.9256 69.32 60.9229 69.32C60.9202 69.32 60.9174 69.32 60.9147 69.32C60.912 69.32 60.9093 69.32 60.9065 69.32C60.9038 69.32 60.9011 69.32 60.8983 69.32C60.8956 69.32 60.8929 69.32 60.8902 69.32C60.8874 69.32 60.8847 69.32 60.882 69.32C60.8793 69.32 60.8765 69.32 60.8738 69.32C60.8711 69.32 60.8684 69.32 60.8657 69.32C60.8629 69.32 60.8602 69.32 60.8575 69.32C60.8548 69.32 60.852 69.32 60.8493 69.32C60.8466 69.32 60.8439 69.32 60.8412 69.32C60.8385 69.32 60.8357 69.32 60.833 69.32C60.8303 69.32 60.8276 69.32 60.8249 69.32C60.8222 69.32 60.8194 69.32 60.8167 69.32C60.814 69.32 60.8113 69.32 60.8086 69.32C60.8059 69.32 60.8032 69.32 60.8004 69.32C60.7977 69.32 60.795 69.32 60.7923 69.32C60.7896 69.32 60.7869 69.32 60.7842 69.32C60.7815 69.32 60.7788 69.32 60.776 69.32C60.7733 69.32 60.7706 69.32 60.7679 69.32C60.7652 69.32 60.7625 69.32 60.7598 69.32C60.7571 69.32 60.7544 69.32 60.7517 69.32C60.749 69.32 60.7463 69.32 60.7436 69.32C60.7409 69.32 60.7382 69.32 60.7355 69.32C60.7328 69.32 60.7301 69.32 60.7274 69.32C60.7247 69.32 60.722 69.32 60.7192 69.32C60.7165 69.32 60.7138 69.32 60.7112 69.32C60.7085 69.32 60.7058 69.32 60.7031 69.32C60.7004 69.32 60.6977 69.32 60.695 69.32C60.6923 69.32 60.6896 69.32 60.6869 69.32C60.6842 69.32 60.6815 69.32 60.6788 69.32C60.6761 69.32 60.6734 69.32 60.6707 69.32C60.668 69.32 60.6653 69.32 60.6626 69.32C60.6599 69.32 60.6573 69.32 60.6546 69.32C60.6519 69.32 60.6492 69.32 60.6465 69.32C60.6438 69.32 60.6411 69.32 60.6384 69.32C60.6357 69.32 60.6331 69.32 60.6304 69.32C60.6277 69.32 60.625 69.32 60.6223 69.32C60.6196 69.32 60.6169 69.32 60.6143 69.32C60.6116 69.32 60.6089 69.32 60.6062 69.32C60.6035 69.32 60.6008 69.32 60.5982 69.32C60.5955 69.32 60.5928 69.32 60.5901 69.32C60.5874 69.32 60.5847 69.32 60.5821 69.32C60.5794 69.32 60.5767 69.32 60.574 69.32C60.5714 69.32 60.5687 69.32 60.566 69.32C60.5633 69.32 60.5606 69.32 60.558 69.32C60.5553 69.32 60.5526 69.32 60.5499 69.32C60.5473 69.32 60.5446 69.32 60.5419 69.32C60.5392 69.32 60.5366 69.32 60.5339 69.32C60.5312 69.32 60.5286 69.32 60.5259 69.32C60.5232 69.32 60.5205 69.32 60.5179 69.32C60.5152 69.32 60.5125 69.32 60.5099 69.32C60.5072 69.32 60.5045 69.32 60.5019 69.32C60.4992 69.32 60.4965 69.32 60.4939 69.32C60.4912 69.32 60.4885 69.32 60.4859 69.32C60.4832 69.32 60.4805 69.32 60.4779 69.32C60.4752 69.32 60.4726 69.32 60.4699 69.32C60.4672 69.32 60.4646 69.32 60.4619 69.32C60.4592 69.32 60.4566 69.32 60.4539 69.32C60.4513 69.32 60.4486 69.32 60.4459 69.32C60.4433 69.32 60.4406 69.32 60.438 69.32C60.4353 69.32 60.4327 69.32 60.43 69.32C60.4273 69.32 60.4247 69.32 60.422 69.32C60.4194 69.32 60.4167 69.32 60.4141 69.32C60.4114 69.32 60.4088 69.32 60.4061 69.32C60.4035 69.32 60.4008 69.32 60.3982 69.32C60.3955 69.32 60.3929 69.32 60.3902 69.32C60.3876 69.32 60.3849 69.32 60.3823 69.32C60.3796 69.32 60.377 69.32 60.3743 69.32C60.3717 69.32 60.369 69.32 60.3664 69.32C60.3637 69.32 60.3611 69.32 60.3584 69.32C60.3558 69.32 60.3531 69.32 60.3505 69.32C60.3479 69.32 60.3452 69.32 60.3426 69.32C60.3399 69.32 60.3373 69.32 60.3346 69.32C60.332 69.32 60.3294 69.32 60.3267 69.32C60.3241 69.32 60.3214 69.32 60.3188 69.32C60.3162 69.32 60.3135 69.32 60.3109 69.32C60.3082 69.32 60.3056 69.32 60.303 69.32C60.3003 69.32 60.2977 69.32 60.2951 69.32C60.2924 69.32 60.2898 69.32 60.2872 69.32C60.2845 69.32 60.2819 69.32 60.2793 69.32C60.2766 69.32 60.274 69.32 60.2714 69.32C60.2687 69.32 60.2661 69.32 60.2635 69.32C60.2608 69.32 60.2582 69.32 60.2556 69.32C60.2529 69.32 60.2503 69.32 60.2477 69.32C60.2451 69.32 60.2424 69.32 60.2398 69.32C60.2372 69.32 60.2346 69.32 60.2319 69.32C60.2293 69.32 60.2267 69.32 60.2241 69.32C60.2214 69.32 60.2188 69.32 60.2162 69.32C60.2136 69.32 60.2109 69.32 60.2083 69.32C60.2057 69.32 60.2031 69.32 60.2004 69.32C60.1978 69.32 60.1952 69.32 60.1926 69.32C60.19 69.32 60.1873 69.32 60.1847 69.32C60.1821 69.32 60.1795 69.32 60.1769 69.32C60.1743 69.32 60.1716 69.32 60.169 69.32C60.1664 69.32 60.1638 69.32 60.1612 69.32C60.1586 69.32 60.156 69.32 60.1533 69.32C60.1507 69.32 60.1481 69.32 60.1455 69.32C60.1429 69.32 60.1403 69.32 60.1377 69.32C60.1351 69.32 60.1324 69.32 60.1298 69.32C60.1272 69.32 60.1246 69.32 60.122 69.32C60.1194 69.32 60.1168 69.32 60.1142 69.32C60.1116 69.32 60.109 69.32 60.1064 69.32C60.1038 69.32 60.1012 69.32 60.0985 69.32C60.0959 69.32 60.0933 69.32 60.0907 69.32C60.0881 69.32 60.0855 69.32 60.0829 69.32C60.0803 69.32 60.0777 69.32 60.0751 69.32C60.0725 69.32 60.0699 69.32 60.0673 69.32C60.0647 69.32 60.0621 69.32 60.0595 69.32C60.0569 69.32 60.0543 69.32 60.0517 69.32C60.0491 69.32 60.0465 69.32 60.0439 69.32C60.0413 69.32 60.0387 69.32 60.0361 69.32C60.0335 69.32 60.031 69.32 60.0284 69.32C60.0258 69.32 60.0232 69.32 60.0206 69.32C60.018 69.32 60.0154 69.32 60.0128 69.32C60.0102 69.32 60.0076 69.32 60.005 69.32C60.0024 69.32 59.9998 69.32 59.9973 69.32C59.9947 69.32 59.9921 69.32 59.9895 69.32C59.9869 69.32 59.9843 69.32 59.9817 69.32C59.9791 69.32 59.9766 69.32 59.974 69.32C59.9714 69.32 59.9688 69.32 59.9662 69.32C59.9636 69.32 59.9611 69.32 59.9585 69.32C59.9559 69.32 59.9533 69.32 59.9507 69.32C59.9481 69.32 59.9456 69.32 59.943 69.32C59.9404 69.32 59.9378 69.32 59.9352 69.32C59.9327 69.32 59.9301 69.32 59.9275 69.32C59.9249 69.32 59.9223 69.32 59.9198 69.32C59.9172 69.32 59.9146 69.32 59.912 69.32C59.9095 69.32 59.9069 69.32 59.9043 69.32C59.9017 69.32 59.8992 69.32 59.8966 69.32C59.894 69.32 59.8914 69.32 59.8889 69.32C59.8863 69.32 59.8837 69.32 59.8812 69.32C59.8786 69.32 59.876 69.32 59.8735 69.32C59.8709 69.32 59.8683 69.32 59.8657 69.32C59.8632 69.32 59.8606 69.32 59.858 69.32C59.8555 69.32 59.8529 69.32 59.8503 69.32C59.8478 69.32 59.8452 69.32 59.8426 69.32C59.8401 69.32 59.8375 69.32 59.835 69.32C59.8324 69.32 59.8298 69.32 59.8273 69.32C59.8247 69.32 59.8221 69.32 59.8196 69.32C59.817 69.32 59.8145 69.32 59.8119 69.32C59.8093 69.32 59.8068 69.32 59.8042 69.32C59.8017 69.32 59.7991 69.32 59.7965 69.32C59.794 69.32 59.7914 69.32 59.7889 69.32C59.7863 69.32 59.7838 69.32 59.7812 69.32C59.7787 69.32 59.7761 69.32 59.7735 69.32C59.771 69.32 59.7684 69.32 59.7659 69.32C59.7633 69.32 59.7608 69.32 59.7582 69.32C59.7557 69.32 59.7531 69.32 59.7506 69.32C59.748 69.32 59.7455 69.32 59.7429 69.32C59.7404 69.32 59.7378 69.32 59.7353 69.32C59.7327 69.32 59.7302 69.32 59.7276 69.32C59.7251 69.32 59.7226 69.32 59.72 69.32C59.7175 69.32 59.7149 69.32 59.7124 69.32C59.7098 69.32 59.7073 69.32 59.7047 69.32C59.7022 69.32 59.6997 69.32 59.6971 69.32C59.6946 69.32 59.692 69.32 59.6895 69.32C59.687 69.32 59.6844 69.32 59.6819 69.32C59.6793 69.32 59.6768 69.32 59.6743 69.32C59.6717 69.32 59.6692 69.32 59.6666 69.32C59.6641 69.32 59.6616 69.32 59.659 69.32C59.6565 69.32 59.654 69.32 59.6514 69.32C59.6489 69.32 59.6464 69.32 59.6438 69.32C59.6413 69.32 59.6388 69.32 59.6362 69.32C59.6337 69.32 59.6312 69.32 59.6286 69.32C59.6261 69.32 59.6236 69.32 59.6211 69.32C59.6185 69.32 59.616 69.32 59.6135 69.32C59.6109 69.32 59.6084 69.32 59.6059 69.32C59.6034 69.32 59.6008 69.32 59.5983 69.32C59.5958 69.32 59.5933 69.32 59.5907 69.32C59.5882 69.32 59.5857 69.32 59.5832 69.32C59.5806 69.32 59.5781 69.32 59.5756 69.32C59.5731 69.32 59.5706 69.32 59.568 69.32C59.5655 69.32 59.563 69.32 59.5605 69.32C59.558 69.32 59.5554 69.32 59.5529 69.32C59.5504 69.32 59.5479 69.32 59.5454 69.32C59.5428 69.32 59.5403 69.32 59.5378 69.32C59.5353 69.32 59.5328 69.32 59.5303 69.32C59.5278 69.32 59.5252 69.32 59.5227 69.32C59.5202 69.32 59.5177 69.32 59.5152 69.32C59.5127 69.32 59.5102 69.32 59.5077 69.32C59.5051 69.32 59.5026 69.32 59.5001 69.32C59.4976 69.32 59.4951 69.32 59.4926 69.32C59.4901 69.32 59.4876 69.32 59.4851 69.32C59.4826 69.32 59.4801 69.32 59.4776 69.32C59.475 69.32 59.4725 69.32 59.47 69.32C59.4675 69.32 59.465 69.32 59.4625 69.32C59.46 69.32 59.4575 69.32 59.455 69.32C59.4525 69.32 59.45 69.32 59.4475 69.32C59.445 69.32 59.4425 69.32 59.44 69.32V72.32ZM63.76 72.32V75.32C71.1315 75.32 77.1766 73.7442 81.1863 69.935L79.12 67.76L77.0538 65.585C74.6634 67.8558 70.4686 69.32 63.76 69.32V72.32ZM79.12 67.76L81.2413 69.8813C85.2266 65.8961 86.92 60.0128 86.92 52.88H83.92H80.92C80.92 59.1872 79.4134 63.2239 76.9987 65.6387L79.12 67.76ZM83.92 52.88H86.92C86.92 46.5609 85.1496 41.2702 81.1863 37.505L79.12 39.68L77.0538 41.855C79.4904 44.1698 80.92 47.6791 80.92 52.88H83.92ZM79.12 39.68L81.2413 37.5587C77.499 33.8164 72.4136 32.12 66.4 32.12V35.12V38.12C71.2664 38.12 74.661 39.4636 76.9987 41.8013L79.12 39.68ZM66.4 35.12V32.12C59.8768 32.12 54.2576 33.9883 49.7845 37.9023L51.76 40.16L53.7355 42.4177C56.9424 39.6117 61.0832 38.12 66.4 38.12V35.12ZM51.76 40.16L49.7372 37.9445C45.3286 41.9698 42.7586 48.2832 41.5914 56.2871L44.56 56.72L47.5286 57.1529C48.6014 49.7968 50.8314 45.0702 53.7828 42.3755L51.76 40.16ZM44.56 56.72L45.5368 53.8835L9.29681 41.4035L8.32 44.24L7.34319 47.0765L43.5832 59.5565L44.56 56.72ZM8.32 44.24L11.2617 44.8283C12.9234 36.5201 16.3713 29.5931 21.5666 23.9524L19.36 21.92L17.1534 19.8876C11.1487 26.4069 7.23661 34.3599 5.37826 43.6516L8.32 44.24ZM19.36 21.92L21.5666 23.9524C26.8102 18.2594 33.5148 13.8677 41.7619 10.8132L40.72 7.99999L39.6781 5.18674C30.6452 8.53223 23.1098 13.4206 17.1534 19.8876L19.36 21.92ZM40.72 7.99999L41.7619 10.8132C50.0334 7.74976 59.1162 6.2 69.04 6.2V3.2V0.199997C58.4838 0.199997 48.6866 1.85023 39.6781 5.18674L40.72 7.99999ZM69.04 3.2V6.2C80.5886 6.2 90.0504 7.99734 97.5463 11.4455L98.8 8.71999L100.054 5.99453C91.5496 2.08265 81.1714 0.199997 69.04 0.199997V3.2ZM98.8 8.71999L97.6117 11.4746C105.3 14.7913 110.954 19.4666 114.746 25.4466L117.28 23.84L119.814 22.2334C115.286 15.0934 108.62 9.68866 99.9883 5.96536L98.8 8.71999ZM117.28 23.84L114.793 25.5184C118.734 31.3557 120.76 38.3519 120.76 46.64H123.76H126.76C126.76 37.3281 124.466 29.1243 119.767 22.1616L117.28 23.84ZM123.76 46.64H120.76C120.76 53.2074 119.689 58.5887 117.681 62.8913L120.4 64.16L123.119 65.4287C125.591 60.1313 126.76 53.8326 126.76 46.64H123.76ZM120.4 64.16L117.662 62.9328C115.723 67.2595 113.311 70.6558 110.473 73.2101L112.48 75.44L114.487 77.6699C118.049 74.4642 120.917 70.3405 123.138 65.3872L120.4 64.16ZM112.48 75.44L110.537 73.1542C107.511 75.7262 104.547 77.6401 101.649 78.9442L102.88 81.68L104.111 84.4158C107.613 82.8399 111.049 80.5938 114.423 77.7258L112.48 75.44ZM102.88 81.68L101.766 78.8946C98.6618 80.1362 96.2616 80.8445 94.5038 81.1149L94.96 84.08L95.4162 87.0451C97.8184 86.6756 100.698 85.7838 103.994 84.4654L102.88 81.68ZM94.96 84.08H91.96V84.8H94.96H97.96V84.08H94.96ZM94.96 84.8V87.8C97.1078 87.8 99.8261 88.2747 103.17 89.3388L104.08 86.48L104.99 83.6212C101.294 82.4453 97.9322 81.8 94.96 81.8V84.8ZM104.08 86.48L103.207 89.35C106.513 90.3565 109.718 92.0212 112.822 94.3863L114.64 92L116.458 89.6137C112.842 86.8588 109.007 84.8435 104.953 83.61L104.08 86.48ZM114.64 92L112.95 94.4787C116.005 96.5613 118.572 99.5184 120.617 103.461L123.28 102.08L125.943 100.699C123.508 96.0016 120.315 92.2386 116.33 89.5213L114.64 92ZM123.28 102.08L120.658 103.537C122.747 107.299 123.88 112.123 123.88 118.16H126.88H129.88C129.88 111.397 128.613 105.501 125.902 100.623L123.28 102.08ZM126.88 118.16H123.88C123.88 127.537 121.47 135.471 116.755 142.101L119.2 143.84L121.645 145.579C127.17 137.809 129.88 128.623 129.88 118.16H126.88ZM119.2 143.84L116.755 142.101C111.97 148.83 105.444 154.107 97.0786 157.909L98.32 160.64L99.5614 163.371C108.796 159.173 116.19 153.25 121.645 145.579L119.2 143.84ZM98.32 160.64L97.1016 157.899C88.9041 161.542 79.49 163.4 68.8 163.4V166.4V169.4C80.1901 169.4 90.4559 167.418 99.5384 163.381L98.32 160.64Z" fill="white" mask="url(#path-1-outside-1_40_51)"/>
</svg>
