<svg width="142" height="165" viewBox="0 0 142 165" fill="none" xmlns="http://www.w3.org/2000/svg">
<mask id="path-1-outside-1_40_57" maskUnits="userSpaceOnUse" x="0" y="0" width="142" height="165" fill="black">
<rect fill="white" width="142" height="165"/>
<path d="M78.68 162V127.2H3.32V101.28C4.28 99.84 5.16 98.48 5.96 97.2C6.76 95.76 7.96 93.76 9.56 91.2C11.32 88.48 13.96 84.48 17.48 79.2L66.92 3.59999H114.92V98.88H138.44V127.2H114.92V162H78.68ZM36.44 98.88H79.16V50.88C79.16 48.48 79.24 45.76 79.4 42.72C79.56 39.52 79.64 36.72 79.64 34.32C79.8 31.92 79.88 30.64 79.88 30.48H79.4C78.12 32.88 76.84 35.2 75.56 37.44C74.44 39.52 73.24 41.68 71.96 43.92C70.84 46 69.48 48.24 67.88 50.64L41.48 91.68C40.84 92.8 40.28 93.6 39.8 94.08C39.32 94.56 38.2 96.16 36.44 98.88Z"/>
</mask>
<path d="M78.68 162V127.2H3.32V101.28C4.28 99.84 5.16 98.48 5.96 97.2C6.76 95.76 7.96 93.76 9.56 91.2C11.32 88.48 13.96 84.48 17.48 79.2L66.92 3.59999H114.92V98.88H138.44V127.2H114.92V162H78.68ZM36.44 98.88H79.16V50.88C79.16 48.48 79.24 45.76 79.4 42.72C79.56 39.52 79.64 36.72 79.64 34.32C79.8 31.92 79.88 30.64 79.88 30.48H79.4C78.12 32.88 76.84 35.2 75.56 37.44C74.44 39.52 73.24 41.68 71.96 43.92C70.84 46 69.48 48.24 67.88 50.64L41.48 91.68C40.84 92.8 40.28 93.6 39.8 94.08C39.32 94.56 38.2 96.16 36.44 98.88Z" fill="black"/>
<path d="M78.68 162H75.68V165H78.68V162ZM78.68 127.2H81.68V124.2H78.68V127.2ZM3.32 127.2H0.32V130.2H3.32V127.2ZM3.32 101.28L0.823849 99.6159L0.32 100.372V101.28H3.32ZM5.96 97.2L8.50399 98.79L8.54495 98.7245L8.58247 98.6569L5.96 97.2ZM9.56 91.2L7.04129 89.5702L7.02849 89.59L7.01601 89.61L9.56 91.2ZM17.48 79.2L19.9762 80.8641L19.9835 80.8531L19.9908 80.8419L17.48 79.2ZM66.92 3.59999V0.599995H65.2973L64.4092 1.95803L66.92 3.59999ZM114.92 3.59999H117.92V0.599995H114.92V3.59999ZM114.92 98.88H111.92V101.88H114.92V98.88ZM138.44 98.88H141.44V95.88H138.44V98.88ZM138.44 127.2V130.2H141.44V127.2H138.44ZM114.92 127.2V124.2H111.92V127.2H114.92ZM114.92 162V165H117.92V162H114.92ZM36.44 98.88L33.9213 97.2502L30.9256 101.88H36.44V98.88ZM79.16 98.88V101.88H82.16V98.88H79.16ZM79.4 42.72L82.3959 42.8777L82.3963 42.8698L79.4 42.72ZM79.64 34.32L76.6467 34.1204L76.64 34.2201V34.32H79.64ZM79.88 30.48H82.88V27.48H79.88V30.48ZM79.4 30.48V27.48H77.6L76.7529 29.0682L79.4 30.48ZM75.56 37.44L72.9553 35.9516L72.9365 35.9844L72.9186 36.0177L75.56 37.44ZM71.96 43.92L69.3553 42.4316L69.3365 42.4644L69.3186 42.4977L71.96 43.92ZM67.88 50.64L65.3839 48.9759L65.3702 48.9963L65.3569 49.017L67.88 50.64ZM41.48 91.68L38.9569 90.057L38.9143 90.1232L38.8753 90.1916L41.48 91.68ZM39.8 94.08L37.6787 91.9587L37.6787 91.9587L39.8 94.08ZM78.68 162H81.68V127.2H78.68H75.68V162H78.68ZM78.68 127.2V124.2H3.32V127.2V130.2H78.68V127.2ZM3.32 127.2H6.32V101.28H3.32H0.32V127.2H3.32ZM3.32 101.28L5.81615 102.944C6.79016 101.483 7.68635 100.098 8.50399 98.79L5.96 97.2L3.41601 95.61C2.63365 96.8618 1.76984 98.1969 0.823849 99.6159L3.32 101.28ZM5.96 97.2L8.58247 98.6569C9.34491 97.2845 10.5129 95.3358 12.104 92.79L9.56 91.2L7.01601 89.61C5.40712 92.1842 4.17509 94.2355 3.33753 95.7431L5.96 97.2ZM9.56 91.2L12.0787 92.8298C13.8272 90.1275 16.458 86.1413 19.9762 80.8641L17.48 79.2L14.9839 77.5359C11.462 82.8187 8.81277 86.8325 7.04129 89.5702L9.56 91.2ZM17.48 79.2L19.9908 80.8419L69.4308 5.24196L66.92 3.59999L64.4092 1.95803L14.9692 77.558L17.48 79.2ZM66.92 3.59999V6.59999H114.92V3.59999V0.599995H66.92V3.59999ZM114.92 3.59999H111.92V98.88H114.92H117.92V3.59999H114.92ZM114.92 98.88V101.88H138.44V98.88V95.88H114.92V98.88ZM138.44 98.88H135.44V127.2H138.44H141.44V98.88H138.44ZM138.44 127.2V124.2H114.92V127.2V130.2H138.44V127.2ZM114.92 127.2H111.92V162H114.92H117.92V127.2H114.92ZM114.92 162V159H78.68V162V165H114.92V162ZM36.44 98.88V101.88H79.16V98.88V95.88H36.44V98.88ZM79.16 98.88H82.16V50.88H79.16H76.16V98.88H79.16ZM79.16 50.88H82.16C82.16 48.5443 82.2379 45.8783 82.3959 42.8777L79.4 42.72L76.4042 42.5623C76.2421 45.6417 76.16 48.4157 76.16 50.88H79.16ZM79.4 42.72L82.3963 42.8698C82.558 39.6353 82.64 36.7833 82.64 34.32H79.64H76.64C76.64 36.6567 76.562 39.4047 76.4037 42.5702L79.4 42.72ZM79.64 34.32L82.6334 34.5196C82.7866 32.2203 82.88 30.7721 82.88 30.48H79.88H76.88C76.88 30.4382 76.8704 30.6604 76.8258 31.3729C76.7862 32.0066 76.7266 32.9217 76.6467 34.1204L79.64 34.32ZM79.88 30.48V27.48H79.4V30.48V33.48H79.88V30.48ZM79.4 30.48L76.7529 29.0682C75.4859 31.4438 74.22 33.7382 72.9553 35.9516L75.56 37.44L78.1647 38.9284C79.46 36.6617 80.7541 34.3161 82.0471 31.8918L79.4 30.48ZM75.56 37.44L72.9186 36.0177C71.8116 38.0736 70.6239 40.2115 69.3553 42.4316L71.96 43.92L74.5647 45.4084C75.8561 43.1485 77.0684 40.9664 78.2014 38.8623L75.56 37.44ZM71.96 43.92L69.3186 42.4977C68.2516 44.4792 66.9426 46.6378 65.3839 48.9759L67.88 50.64L70.3762 52.3041C72.0174 49.8422 73.4284 47.5208 74.6014 45.3423L71.96 43.92ZM67.88 50.64L65.3569 49.017L38.9569 90.057L41.48 91.68L44.0031 93.303L70.4031 52.263L67.88 50.64ZM41.48 91.68L38.8753 90.1916C38.2715 91.2482 37.87 91.7674 37.6787 91.9587L39.8 94.08L41.9213 96.2013C42.69 95.4326 43.4085 94.3518 44.0847 93.1684L41.48 91.68ZM39.8 94.08L37.6787 91.9587C37.2239 92.4134 36.6814 93.1495 36.1423 93.9196C35.5523 94.7624 34.8101 95.8767 33.9213 97.2502L36.44 98.88L38.9587 100.51C39.8299 99.1633 40.5277 98.1176 41.0577 97.3604C41.323 96.9813 41.535 96.6909 41.6979 96.4791C41.8773 96.2459 41.9423 96.1803 41.9213 96.2013L39.8 94.08Z" fill="white" mask="url(#path-1-outside-1_40_57)"/>
</svg>
