<svg width="128" height="168" viewBox="0 0 128 168" fill="none" xmlns="http://www.w3.org/2000/svg">
<mask id="path-1-outside-1_40_63" maskUnits="userSpaceOnUse" x="0" y="0" width="128" height="168" fill="black">
<rect fill="white" width="128" height="168"/>
<path d="M64.2 164.4C50.92 164.4 39.24 161.76 29.16 156.48C19.24 151.04 10.92 142.24 4.2 130.08L40.44 112.08C42.2 118.48 44.92 123.6 48.6 127.44C52.28 131.28 57.8 133.2 65.16 133.2C69.8 133.2 73.8 132.32 77.16 130.56C80.52 128.8 83.08 126.24 84.84 122.88C86.76 119.36 87.72 115.12 87.72 110.16C87.72 105.36 86.84 101.36 85.08 98.16C83.32 94.96 80.76 92.56 77.4 90.96C74.2 89.2 70.12 88.32 65.16 88.32C60.04 88.32 55.4 89.12 51.24 90.72C47.08 92.16 43.64 94.48 40.92 97.68L9.96 91.92L19.8 3.59999H117.24V35.52H49.56L45.72 67.2L45 71.04H45.24C48.44 67.36 52.84 64.56 58.44 62.64C64.04 60.72 70.12 59.76 76.68 59.76C86.76 59.76 95.4 61.84 102.6 66C109.8 70.16 115.32 75.84 119.16 83.04C123 90.24 124.92 98.48 124.92 107.76C124.92 120.72 122.12 131.36 116.52 139.68C110.92 148 103.48 154.24 94.2 158.4C85.08 162.4 75.08 164.4 64.2 164.4Z"/>
</mask>
<path d="M64.2 164.4C50.92 164.4 39.24 161.76 29.16 156.48C19.24 151.04 10.92 142.24 4.2 130.08L40.44 112.08C42.2 118.48 44.92 123.6 48.6 127.44C52.28 131.28 57.8 133.2 65.16 133.2C69.8 133.2 73.8 132.32 77.16 130.56C80.52 128.8 83.08 126.24 84.84 122.88C86.76 119.36 87.72 115.12 87.72 110.16C87.72 105.36 86.84 101.36 85.08 98.16C83.32 94.96 80.76 92.56 77.4 90.96C74.2 89.2 70.12 88.32 65.16 88.32C60.04 88.32 55.4 89.12 51.24 90.72C47.08 92.16 43.64 94.48 40.92 97.68L9.96 91.92L19.8 3.59999H117.24V35.52H49.56L45.72 67.2L45 71.04H45.24C48.44 67.36 52.84 64.56 58.44 62.64C64.04 60.72 70.12 59.76 76.68 59.76C86.76 59.76 95.4 61.84 102.6 66C109.8 70.16 115.32 75.84 119.16 83.04C123 90.24 124.92 98.48 124.92 107.76C124.92 120.72 122.12 131.36 116.52 139.68C110.92 148 103.48 154.24 94.2 158.4C85.08 162.4 75.08 164.4 64.2 164.4Z" fill="black"/>
<path d="M29.16 156.48L27.7175 159.11L27.7426 159.124L27.768 159.137L29.16 156.48ZM4.2 130.08L2.86548 127.393L0.0581267 128.788L1.57428 131.531L4.2 130.08ZM40.44 112.08L43.3326 111.285L42.367 107.773L39.1055 109.393L40.44 112.08ZM77.16 130.56L75.768 127.902L77.16 130.56ZM84.84 122.88L82.2063 121.443L82.1942 121.466L82.1825 121.488L84.84 122.88ZM85.08 98.16L82.4514 99.6058L85.08 98.16ZM77.4 90.96L75.9542 93.5886L76.0311 93.6309L76.1102 93.6686L77.4 90.96ZM51.24 90.72L52.2213 93.5549L52.2694 93.5383L52.3169 93.52L51.24 90.72ZM40.92 97.68L40.3713 100.629L42.0801 100.947L43.2058 99.6229L40.92 97.68ZM9.96 91.92L6.97845 91.5878L6.66967 94.3593L9.41128 94.8694L9.96 91.92ZM19.8 3.59999V0.599995H17.1157L16.8184 3.26781L19.8 3.59999ZM117.24 3.59999H120.24V0.599995H117.24V3.59999ZM117.24 35.52V38.52H120.24V35.52H117.24ZM49.56 35.52V32.52H46.9017L46.5818 35.159L49.56 35.52ZM45.72 67.2L48.6686 67.7529L48.6865 67.6574L48.6982 67.561L45.72 67.2ZM45 71.04L42.0514 70.4871L41.3852 74.04H45V71.04ZM45.24 71.04V74.04H46.6069L47.5038 73.0085L45.24 71.04ZM58.44 62.64L57.467 59.8022L58.44 62.64ZM102.6 66L101.099 68.5976L102.6 66ZM119.16 83.04L116.513 84.4518V84.4518L119.16 83.04ZM116.52 139.68L114.031 138.005L116.52 139.68ZM94.2 158.4L95.405 161.147L95.4161 161.142L95.4272 161.138L94.2 158.4ZM64.2 164.4V161.4C51.3237 161.4 40.136 158.843 30.552 153.823L29.16 156.48L27.768 159.137C38.344 164.677 50.5163 167.4 64.2 167.4V164.4ZM29.16 156.48L30.6025 153.85C21.2834 148.739 13.3337 140.405 6.82572 128.629L4.2 130.08L1.57428 131.531C8.50627 144.075 17.1966 153.341 27.7175 159.11L29.16 156.48ZM4.2 130.08L5.53452 132.767L41.7745 114.767L40.44 112.08L39.1055 109.393L2.86548 127.393L4.2 130.08ZM40.44 112.08L37.5474 112.875C39.4073 119.639 42.334 125.237 46.434 129.516L48.6 127.44L50.766 125.364C47.506 121.963 44.9927 117.321 43.3326 111.285L40.44 112.08ZM48.6 127.44L46.434 129.516C50.8695 134.144 57.3043 136.2 65.16 136.2V133.2V130.2C58.2957 130.2 53.6905 128.416 50.766 125.364L48.6 127.44ZM65.16 133.2V136.2C70.178 136.2 74.6769 135.247 78.552 133.217L77.16 130.56L75.768 127.902C72.9231 129.393 69.422 130.2 65.16 130.2V133.2ZM77.16 130.56L78.552 133.217C82.4528 131.174 85.4542 128.173 87.4975 124.272L84.84 122.88L82.1825 121.488C80.7058 124.307 78.5872 126.426 75.768 127.902L77.16 130.56ZM84.84 122.88L87.4737 124.317C89.6846 120.263 90.72 115.505 90.72 110.16H87.72H84.72C84.72 114.735 83.8354 118.457 82.2063 121.443L84.84 122.88ZM87.72 110.16H90.72C90.72 105.008 89.7769 100.475 87.7086 96.7142L85.08 98.16L82.4514 99.6058C83.9031 102.245 84.72 105.712 84.72 110.16H87.72ZM85.08 98.16L87.7086 96.7142C85.6396 92.9523 82.6058 90.1162 78.6898 88.2514L77.4 90.96L76.1102 93.6686C78.9142 95.0038 81.0004 96.9677 82.4514 99.6058L85.08 98.16ZM77.4 90.96L78.8458 88.3314C75.0725 86.256 70.4523 85.32 65.16 85.32V88.32V91.32C69.7877 91.32 73.3275 92.144 75.9542 93.5886L77.4 90.96ZM65.16 88.32V85.32C59.7259 85.32 54.7138 86.1697 50.1631 87.92L51.24 90.72L52.3169 93.52C56.0862 92.0703 60.3541 91.32 65.16 91.32V88.32ZM51.24 90.72L50.2587 87.885C45.6174 89.4916 41.7185 92.1084 38.6342 95.7371L40.92 97.68L43.2058 99.6229C45.5615 96.8516 48.5426 94.8284 52.2213 93.5549L51.24 90.72ZM40.92 97.68L41.4687 94.7306L10.5087 88.9706L9.96 91.92L9.41128 94.8694L40.3713 100.629L40.92 97.68ZM9.96 91.92L12.9416 92.2522L22.7816 3.93218L19.8 3.59999L16.8184 3.26781L6.97845 91.5878L9.96 91.92ZM19.8 3.59999V6.59999H117.24V3.59999V0.599995H19.8V3.59999ZM117.24 3.59999H114.24V35.52H117.24H120.24V3.59999H117.24ZM117.24 35.52V32.52H49.56V35.52V38.52H117.24V35.52ZM49.56 35.52L46.5818 35.159L42.7418 66.839L45.72 67.2L48.6982 67.561L52.5382 35.881L49.56 35.52ZM45.72 67.2L42.7714 66.6471L42.0514 70.4871L45 71.04L47.9486 71.5929L48.6686 67.7529L45.72 67.2ZM45 71.04V74.04H45.24V71.04V68.04H45V71.04ZM45.24 71.04L47.5038 73.0085C50.2904 69.804 54.2057 67.2632 59.413 65.4778L58.44 62.64L57.467 59.8022C51.4743 61.8568 46.5896 64.916 42.9762 69.0715L45.24 71.04ZM58.44 62.64L59.413 65.4778C64.6679 63.6761 70.4155 62.76 76.68 62.76V59.76V56.76C69.8245 56.76 63.4121 57.7638 57.467 59.8022L58.44 62.64ZM76.68 59.76V62.76C86.3447 62.76 94.4432 64.7519 101.099 68.5976L102.6 66L104.101 63.4024C96.3568 58.9281 87.1754 56.76 76.68 56.76V59.76ZM102.6 66L101.099 68.5976C107.824 72.4828 112.942 77.7562 116.513 84.4518L119.16 83.04L121.807 81.6282C117.698 73.9238 111.776 67.8372 104.101 63.4024L102.6 66ZM119.16 83.04L116.513 84.4518C120.091 91.1608 121.92 98.9041 121.92 107.76H124.92H127.92C127.92 98.0559 125.909 89.3192 121.807 81.6282L119.16 83.04ZM124.92 107.76H121.92C121.92 120.296 119.213 130.306 114.031 138.005L116.52 139.68L119.009 141.355C125.027 132.414 127.92 121.144 127.92 107.76H124.92ZM116.52 139.68L114.031 138.005C108.749 145.853 101.749 151.728 92.9728 155.662L94.2 158.4L95.4272 161.138C105.211 156.752 113.091 150.147 119.009 141.355L116.52 139.68ZM94.2 158.4L92.995 155.653C84.2888 159.471 74.7039 161.4 64.2 161.4V164.4V167.4C75.4561 167.4 85.8712 165.329 95.405 161.147L94.2 158.4Z" fill="white" mask="url(#path-1-outside-1_40_63)"/>
</svg>
