<svg width="132" height="170" viewBox="0 0 132 170" fill="none" xmlns="http://www.w3.org/2000/svg">
<mask id="path-1-outside-1_57_1725" maskUnits="userSpaceOnUse" x="0" y="0" width="132" height="170" fill="black">
<rect fill="white" width="132" height="170"/>
<path d="M72.4 3.2C84.88 3.2 95.92 5.84 105.52 11.12C115.12 16.4 122 25.44 126.16 38.24L92.8 54.08C91.2 48.48 88.56 44.08 84.88 40.88C81.36 37.52 76.32 35.84 69.76 35.84C65.44 35.84 61.52 36.96 58 39.2C54.48 41.28 51.44 44.32 48.88 48.32C46.48 52.32 44.56 57.2 43.12 62.96C41.84 68.72 41.2 75.2 41.2 82.4C41.2 83.04 41.2 83.6 41.2 84.08C41.2 84.56 41.2 85.28 41.2 86.24L41.68 87.68C43.44 82.88 46.32 78.8 50.32 75.44C54.32 72.08 58.88 69.6 64 68C69.12 66.24 74.16 65.36 79.12 65.36C88.56 65.36 96.96 67.28 104.32 71.12C111.84 74.96 117.76 80.48 122.08 87.68C126.4 94.72 128.56 103.28 128.56 113.36C128.56 124.24 126.16 133.68 121.36 141.68C116.56 149.52 109.76 155.6 100.96 159.92C92.32 164.24 82.16 166.4 70.48 166.4C57.2 166.4 45.52 163.36 35.44 157.28C25.36 151.2 17.52 142.24 11.92 130.4C6.32 118.4 3.52 103.68 3.52 86.24C3.52 67.52 6.56 52 12.64 39.68C18.72 27.36 26.96 18.24 37.36 12.32C47.76 6.24 59.44 3.2 72.4 3.2ZM69.76 93.2C65.76 93.2 62.16 94.08 58.96 95.84C55.76 97.44 53.2 99.84 51.28 103.04C49.36 106.24 48.4 110 48.4 114.32C48.4 118.48 49.36 122.16 51.28 125.36C53.2 128.56 55.76 131.04 58.96 132.8C62.32 134.56 65.92 135.44 69.76 135.44C76.48 135.44 81.68 133.6 85.36 129.92C89.04 126.24 90.88 121.04 90.88 114.32C90.88 109.84 90 106.08 88.24 103.04C86.64 99.84 84.24 97.44 81.04 95.84C78 94.08 74.24 93.2 69.76 93.2Z"/>
</mask>
<path d="M72.4 3.2C84.88 3.2 95.92 5.84 105.52 11.12C115.12 16.4 122 25.44 126.16 38.24L92.8 54.08C91.2 48.48 88.56 44.08 84.88 40.88C81.36 37.52 76.32 35.84 69.76 35.84C65.44 35.84 61.52 36.96 58 39.2C54.48 41.28 51.44 44.32 48.88 48.32C46.48 52.32 44.56 57.2 43.12 62.96C41.84 68.72 41.2 75.2 41.2 82.4C41.2 83.04 41.2 83.6 41.2 84.08C41.2 84.56 41.2 85.28 41.2 86.24L41.68 87.68C43.44 82.88 46.32 78.8 50.32 75.44C54.32 72.08 58.88 69.6 64 68C69.12 66.24 74.16 65.36 79.12 65.36C88.56 65.36 96.96 67.28 104.32 71.12C111.84 74.96 117.76 80.48 122.08 87.68C126.4 94.72 128.56 103.28 128.56 113.36C128.56 124.24 126.16 133.68 121.36 141.68C116.56 149.52 109.76 155.6 100.96 159.92C92.32 164.24 82.16 166.4 70.48 166.4C57.2 166.4 45.52 163.36 35.44 157.28C25.36 151.2 17.52 142.24 11.92 130.4C6.32 118.4 3.52 103.68 3.52 86.24C3.52 67.52 6.56 52 12.64 39.68C18.72 27.36 26.96 18.24 37.36 12.32C47.76 6.24 59.44 3.2 72.4 3.2ZM69.76 93.2C65.76 93.2 62.16 94.08 58.96 95.84C55.76 97.44 53.2 99.84 51.28 103.04C49.36 106.24 48.4 110 48.4 114.32C48.4 118.48 49.36 122.16 51.28 125.36C53.2 128.56 55.76 131.04 58.96 132.8C62.32 134.56 65.92 135.44 69.76 135.44C76.48 135.44 81.68 133.6 85.36 129.92C89.04 126.24 90.88 121.04 90.88 114.32C90.88 109.84 90 106.08 88.24 103.04C86.64 99.84 84.24 97.44 81.04 95.84C78 94.08 74.24 93.2 69.76 93.2Z" fill="black"/>
<path d="M105.52 11.12L104.074 13.7486L105.52 11.12ZM126.16 38.24L127.447 40.95L129.828 39.8195L129.013 37.3127L126.16 38.24ZM92.8 54.08L89.9154 54.9042L90.8882 58.3088L94.0868 56.79L92.8 54.08ZM84.88 40.88L82.8086 43.0501L82.8589 43.0981L82.9115 43.1438L84.88 40.88ZM58 39.2L59.5262 41.7828L59.5688 41.7576L59.6106 41.731L58 39.2ZM48.88 48.32L46.3532 46.7028L46.3298 46.7393L46.3075 46.7765L48.88 48.32ZM43.12 62.96L40.2096 62.2324L40.2 62.2707L40.1914 62.3092L43.12 62.96ZM41.2 86.24H38.2V86.7268L38.354 87.1887L41.2 86.24ZM41.68 87.68L38.834 88.6287L41.5452 96.7623L44.4966 88.7128L41.68 87.68ZM50.32 75.44L52.2496 77.7371L50.32 75.44ZM64 68L64.8948 70.8634L64.9352 70.8508L64.9752 70.8371L64 68ZM104.32 71.12L102.932 73.7798L102.944 73.7858L102.956 73.7918L104.32 71.12ZM122.08 87.68L119.508 89.2235L119.515 89.2363L119.523 89.249L122.08 87.68ZM121.36 141.68L123.919 143.246L123.926 143.235L123.932 143.223L121.36 141.68ZM100.96 159.92L99.638 157.227L99.6282 157.232L99.6184 157.237L100.96 159.92ZM35.44 157.28L33.8905 159.849L35.44 157.28ZM11.92 130.4L9.20145 131.669L9.20473 131.676L9.20804 131.683L11.92 130.4ZM12.64 39.68L15.3302 41.0076H15.3302L12.64 39.68ZM37.36 12.32L38.8441 14.9272L38.8591 14.9186L38.8741 14.9099L37.36 12.32ZM58.96 95.84L60.3016 98.5233L60.3542 98.497L60.4058 98.4686L58.96 95.84ZM51.28 103.04L53.8525 104.583L51.28 103.04ZM51.28 125.36L53.8525 123.817L51.28 125.36ZM58.96 132.8L57.5143 135.429L57.541 135.443L57.568 135.457L58.96 132.8ZM88.24 103.04L85.5567 104.382L85.5978 104.464L85.6437 104.543L88.24 103.04ZM81.04 95.84L79.5369 98.4363L79.6163 98.4823L79.6984 98.5233L81.04 95.84ZM72.4 3.2V6.2C84.4457 6.2 94.9756 8.74441 104.074 13.7486L105.52 11.12L106.966 8.49135C96.8644 2.93558 85.3143 0.199997 72.4 0.199997V3.2ZM105.52 11.12L104.074 13.7486C112.861 18.5813 119.326 26.9183 123.307 39.1672L126.16 38.24L129.013 37.3127C124.674 23.9617 117.379 14.2187 106.966 8.49135L105.52 11.12ZM126.16 38.24L124.873 35.53L91.5132 51.37L92.8 54.08L94.0868 56.79L127.447 40.95L126.16 38.24ZM92.8 54.08L95.6846 53.2558C93.9565 47.2074 91.0458 42.266 86.8485 38.6162L84.88 40.88L82.9115 43.1438C86.0742 45.894 88.4436 49.7526 89.9154 54.9042L92.8 54.08ZM84.88 40.88L86.9514 38.7099C82.7022 34.6539 76.8171 32.84 69.76 32.84V35.84V38.84C75.8229 38.84 80.0178 40.3861 82.8086 43.0501L84.88 40.88ZM69.76 35.84V32.84C64.8907 32.84 60.4084 34.1115 56.3894 36.669L58 39.2L59.6106 41.731C62.6316 39.8085 65.9893 38.84 69.76 38.84V35.84ZM58 39.2L56.4738 36.6172C52.4886 38.9721 49.1256 42.371 46.3532 46.7028L48.88 48.32L51.4068 49.9372C53.7544 46.269 56.4714 43.5879 59.5262 41.7828L58 39.2ZM48.88 48.32L46.3075 46.7765C43.7203 51.0885 41.7028 56.2595 40.2096 62.2324L43.12 62.96L46.0304 63.6876C47.4172 58.1405 49.2397 53.5515 51.4525 49.8635L48.88 48.32ZM43.12 62.96L40.1914 62.3092C38.8549 68.3235 38.2 75.0271 38.2 82.4H41.2H44.2C44.2 75.3729 44.8251 69.1165 46.0486 63.6108L43.12 62.96ZM41.2 82.4H38.2C38.2 82.4012 38.2 82.4025 38.2 82.4037C38.2 82.405 38.2 82.4062 38.2 82.4075C38.2 82.4087 38.2 82.41 38.2 82.4112C38.2 82.4125 38.2 82.4137 38.2 82.415C38.2 82.4162 38.2 82.4175 38.2 82.4187C38.2 82.42 38.2 82.4212 38.2 82.4225C38.2 82.4237 38.2 82.425 38.2 82.4262C38.2 82.4274 38.2 82.4287 38.2 82.4299C38.2 82.4312 38.2 82.4324 38.2 82.4337C38.2 82.4349 38.2 82.4362 38.2 82.4374C38.2 82.4386 38.2 82.4399 38.2 82.4411C38.2 82.4424 38.2 82.4436 38.2 82.4449C38.2 82.4461 38.2 82.4474 38.2 82.4486C38.2 82.4498 38.2 82.4511 38.2 82.4523C38.2 82.4536 38.2 82.4548 38.2 82.456C38.2 82.4573 38.2 82.4585 38.2 82.4598C38.2 82.461 38.2 82.4622 38.2 82.4635C38.2 82.4647 38.2 82.466 38.2 82.4672C38.2 82.4684 38.2 82.4697 38.2 82.4709C38.2 82.4722 38.2 82.4734 38.2 82.4746C38.2 82.4759 38.2 82.4771 38.2 82.4783C38.2 82.4796 38.2 82.4808 38.2 82.4821C38.2 82.4833 38.2 82.4845 38.2 82.4858C38.2 82.487 38.2 82.4882 38.2 82.4895C38.2 82.4907 38.2 82.4919 38.2 82.4932C38.2 82.4944 38.2 82.4957 38.2 82.4969C38.2 82.4981 38.2 82.4993 38.2 82.5006C38.2 82.5018 38.2 82.5031 38.2 82.5043C38.2 82.5055 38.2 82.5067 38.2 82.508C38.2 82.5092 38.2 82.5104 38.2 82.5117C38.2 82.5129 38.2 82.5141 38.2 82.5154C38.2 82.5166 38.2 82.5178 38.2 82.5191C38.2 82.5203 38.2 82.5215 38.2 82.5228C38.2 82.524 38.2 82.5252 38.2 82.5264C38.2 82.5277 38.2 82.5289 38.2 82.5301C38.2 82.5314 38.2 82.5326 38.2 82.5338C38.2 82.535 38.2 82.5363 38.2 82.5375C38.2 82.5387 38.2 82.5399 38.2 82.5412C38.2 82.5424 38.2 82.5436 38.2 82.5449C38.2 82.5461 38.2 82.5473 38.2 82.5485C38.2 82.5498 38.2 82.551 38.2 82.5522C38.2 82.5534 38.2 82.5547 38.2 82.5559C38.2 82.5571 38.2 82.5583 38.2 82.5596C38.2 82.5608 38.2 82.562 38.2 82.5632C38.2 82.5645 38.2 82.5657 38.2 82.5669C38.2 82.5681 38.2 82.5693 38.2 82.5706C38.2 82.5718 38.2 82.573 38.2 82.5742C38.2 82.5755 38.2 82.5767 38.2 82.5779C38.2 82.5791 38.2 82.5803 38.2 82.5815C38.2 82.5828 38.2 82.584 38.2 82.5852C38.2 82.5864 38.2 82.5876 38.2 82.5889C38.2 82.5901 38.2 82.5913 38.2 82.5925C38.2 82.5937 38.2 82.595 38.2 82.5962C38.2 82.5974 38.2 82.5986 38.2 82.5998C38.2 82.601 38.2 82.6023 38.2 82.6035C38.2 82.6047 38.2 82.6059 38.2 82.6071C38.2 82.6083 38.2 82.6096 38.2 82.6108C38.2 82.612 38.2 82.6132 38.2 82.6144C38.2 82.6156 38.2 82.6169 38.2 82.6181C38.2 82.6193 38.2 82.6205 38.2 82.6217C38.2 82.6229 38.2 82.6241 38.2 82.6253C38.2 82.6266 38.2 82.6278 38.2 82.629C38.2 82.6302 38.2 82.6314 38.2 82.6326C38.2 82.6338 38.2 82.635 38.2 82.6362C38.2 82.6375 38.2 82.6387 38.2 82.6399C38.2 82.6411 38.2 82.6423 38.2 82.6435C38.2 82.6447 38.2 82.6459 38.2 82.6471C38.2 82.6483 38.2 82.6496 38.2 82.6508C38.2 82.652 38.2 82.6532 38.2 82.6544C38.2 82.6556 38.2 82.6568 38.2 82.658C38.2 82.6592 38.2 82.6604 38.2 82.6616C38.2 82.6628 38.2 82.664 38.2 82.6653C38.2 82.6665 38.2 82.6677 38.2 82.6689C38.2 82.6701 38.2 82.6713 38.2 82.6725C38.2 82.6737 38.2 82.6749 38.2 82.6761C38.2 82.6773 38.2 82.6785 38.2 82.6797C38.2 82.6809 38.2 82.6821 38.2 82.6833C38.2 82.6845 38.2 82.6857 38.2 82.6869C38.2 82.6881 38.2 82.6893 38.2 82.6905C38.2 82.6917 38.2 82.6929 38.2 82.6941C38.2 82.6953 38.2 82.6965 38.2 82.6977C38.2 82.6989 38.2 82.7001 38.2 82.7013C38.2 82.7025 38.2 82.7037 38.2 82.7049C38.2 82.7061 38.2 82.7073 38.2 82.7085C38.2 82.7097 38.2 82.7109 38.2 82.7121C38.2 82.7133 38.2 82.7145 38.2 82.7157C38.2 82.7169 38.2 82.7181 38.2 82.7193C38.2 82.7205 38.2 82.7217 38.2 82.7229C38.2 82.7241 38.2 82.7253 38.2 82.7265C38.2 82.7277 38.2 82.7289 38.2 82.7301C38.2 82.7313 38.2 82.7325 38.2 82.7337C38.2 82.7349 38.2 82.7361 38.2 82.7372C38.2 82.7384 38.2 82.7396 38.2 82.7408C38.2 82.742 38.2 82.7432 38.2 82.7444C38.2 82.7456 38.2 82.7468 38.2 82.748C38.2 82.7492 38.2 82.7504 38.2 82.7516C38.2 82.7527 38.2 82.7539 38.2 82.7551C38.2 82.7563 38.2 82.7575 38.2 82.7587C38.2 82.7599 38.2 82.7611 38.2 82.7623C38.2 82.7635 38.2 82.7646 38.2 82.7658C38.2 82.767 38.2 82.7682 38.2 82.7694C38.2 82.7706 38.2 82.7718 38.2 82.773C38.2 82.7742 38.2 82.7753 38.2 82.7765C38.2 82.7777 38.2 82.7789 38.2 82.7801C38.2 82.7813 38.2 82.7825 38.2 82.7837C38.2 82.7848 38.2 82.786 38.2 82.7872C38.2 82.7884 38.2 82.7896 38.2 82.7908C38.2 82.7919 38.2 82.7931 38.2 82.7943C38.2 82.7955 38.2 82.7967 38.2 82.7979C38.2 82.7991 38.2 82.8002 38.2 82.8014C38.2 82.8026 38.2 82.8038 38.2 82.805C38.2 82.8062 38.2 82.8073 38.2 82.8085C38.2 82.8097 38.2 82.8109 38.2 82.8121C38.2 82.8132 38.2 82.8144 38.2 82.8156C38.2 82.8168 38.2 82.818 38.2 82.8191C38.2 82.8203 38.2 82.8215 38.2 82.8227C38.2 82.8239 38.2 82.825 38.2 82.8262C38.2 82.8274 38.2 82.8286 38.2 82.8297C38.2 82.8309 38.2 82.8321 38.2 82.8333C38.2 82.8345 38.2 82.8356 38.2 82.8368C38.2 82.838 38.2 82.8392 38.2 82.8403C38.2 82.8415 38.2 82.8427 38.2 82.8439C38.2 82.845 38.2 82.8462 38.2 82.8474C38.2 82.8486 38.2 82.8497 38.2 82.8509C38.2 82.8521 38.2 82.8533 38.2 82.8544C38.2 82.8556 38.2 82.8568 38.2 82.858C38.2 82.8591 38.2 82.8603 38.2 82.8615C38.2 82.8627 38.2 82.8638 38.2 82.865C38.2 82.8662 38.2 82.8673 38.2 82.8685C38.2 82.8697 38.2 82.8708 38.2 82.872C38.2 82.8732 38.2 82.8744 38.2 82.8755C38.2 82.8767 38.2 82.8779 38.2 82.879C38.2 82.8802 38.2 82.8814 38.2 82.8826C38.2 82.8837 38.2 82.8849 38.2 82.8861C38.2 82.8872 38.2 82.8884 38.2 82.8896C38.2 82.8907 38.2 82.8919 38.2 82.8931C38.2 82.8942 38.2 82.8954 38.2 82.8966C38.2 82.8977 38.2 82.8989 38.2 82.9001C38.2 82.9012 38.2 82.9024 38.2 82.9036C38.2 82.9047 38.2 82.9059 38.2 82.9071C38.2 82.9082 38.2 82.9094 38.2 82.9106C38.2 82.9117 38.2 82.9129 38.2 82.914C38.2 82.9152 38.2 82.9164 38.2 82.9175C38.2 82.9187 38.2 82.9198 38.2 82.921C38.2 82.9222 38.2 82.9233 38.2 82.9245C38.2 82.9257 38.2 82.9268 38.2 82.928C38.2 82.9291 38.2 82.9303 38.2 82.9315C38.2 82.9326 38.2 82.9338 38.2 82.9349C38.2 82.9361 38.2 82.9373 38.2 82.9384C38.2 82.9396 38.2 82.9407 38.2 82.9419C38.2 82.9431 38.2 82.9442 38.2 82.9454C38.2 82.9465 38.2 82.9477 38.2 82.9488C38.2 82.95 38.2 82.9512 38.2 82.9523C38.2 82.9535 38.2 82.9546 38.2 82.9558C38.2 82.9569 38.2 82.9581 38.2 82.9592C38.2 82.9604 38.2 82.9616 38.2 82.9627C38.2 82.9639 38.2 82.965 38.2 82.9662C38.2 82.9673 38.2 82.9685 38.2 82.9696C38.2 82.9708 38.2 82.972 38.2 82.9731C38.2 82.9743 38.2 82.9754 38.2 82.9766C38.2 82.9777 38.2 82.9789 38.2 82.98C38.2 82.9812 38.2 82.9823 38.2 82.9835C38.2 82.9846 38.2 82.9858 38.2 82.9869C38.2 82.9881 38.2 82.9892 38.2 82.9904C38.2 82.9915 38.2 82.9927 38.2 82.9938C38.2 82.995 38.2 82.9961 38.2 82.9973C38.2 82.9984 38.2 82.9996 38.2 83.0007C38.2 83.0019 38.2 83.003 38.2 83.0042C38.2 83.0053 38.2 83.0065 38.2 83.0076C38.2 83.0087 38.2 83.0099 38.2 83.011C38.2 83.0122 38.2 83.0133 38.2 83.0145C38.2 83.0156 38.2 83.0168 38.2 83.0179C38.2 83.0191 38.2 83.0202 38.2 83.0213C38.2 83.0225 38.2 83.0236 38.2 83.0248C38.2 83.0259 38.2 83.0271 38.2 83.0282C38.2 83.0294 38.2 83.0305 38.2 83.0316C38.2 83.0328 38.2 83.0339 38.2 83.0351C38.2 83.0362 38.2 83.0374 38.2 83.0385C38.2 83.0396 38.2 83.0408 38.2 83.0419C38.2 83.0431 38.2 83.0442 38.2 83.0453C38.2 83.0465 38.2 83.0476 38.2 83.0488C38.2 83.0499 38.2 83.051 38.2 83.0522C38.2 83.0533 38.2 83.0544 38.2 83.0556C38.2 83.0567 38.2 83.0579 38.2 83.059C38.2 83.0601 38.2 83.0613 38.2 83.0624C38.2 83.0636 38.2 83.0647 38.2 83.0658C38.2 83.067 38.2 83.0681 38.2 83.0692C38.2 83.0704 38.2 83.0715 38.2 83.0726C38.2 83.0738 38.2 83.0749 38.2 83.076C38.2 83.0772 38.2 83.0783 38.2 83.0795C38.2 83.0806 38.2 83.0817 38.2 83.0828C38.2 83.084 38.2 83.0851 38.2 83.0862C38.2 83.0874 38.2 83.0885 38.2 83.0896C38.2 83.0908 38.2 83.0919 38.2 83.093C38.2 83.0942 38.2 83.0953 38.2 83.0964C38.2 83.0976 38.2 83.0987 38.2 83.0998C38.2 83.101 38.2 83.1021 38.2 83.1032C38.2 83.1043 38.2 83.1055 38.2 83.1066C38.2 83.1077 38.2 83.1089 38.2 83.11C38.2 83.1111 38.2 83.1122 38.2 83.1134C38.2 83.1145 38.2 83.1156 38.2 83.1168C38.2 83.1179 38.2 83.119 38.2 83.1201C38.2 83.1213 38.2 83.1224 38.2 83.1235C38.2 83.1246 38.2 83.1258 38.2 83.1269C38.2 83.128 38.2 83.1292 38.2 83.1303C38.2 83.1314 38.2 83.1325 38.2 83.1337C38.2 83.1348 38.2 83.1359 38.2 83.137C38.2 83.1381 38.2 83.1393 38.2 83.1404C38.2 83.1415 38.2 83.1426 38.2 83.1438C38.2 83.1449 38.2 83.146 38.2 83.1471C38.2 83.1482 38.2 83.1494 38.2 83.1505C38.2 83.1516 38.2 83.1527 38.2 83.1539C38.2 83.155 38.2 83.1561 38.2 83.1572C38.2 83.1583 38.2 83.1595 38.2 83.1606C38.2 83.1617 38.2 83.1628 38.2 83.1639C38.2 83.165 38.2 83.1662 38.2 83.1673C38.2 83.1684 38.2 83.1695 38.2 83.1706C38.2 83.1718 38.2 83.1729 38.2 83.174C38.2 83.1751 38.2 83.1762 38.2 83.1773C38.2 83.1785 38.2 83.1796 38.2 83.1807C38.2 83.1818 38.2 83.1829 38.2 83.184C38.2 83.1852 38.2 83.1863 38.2 83.1874C38.2 83.1885 38.2 83.1896 38.2 83.1907C38.2 83.1918 38.2 83.1929 38.2 83.1941C38.2 83.1952 38.2 83.1963 38.2 83.1974C38.2 83.1985 38.2 83.1996 38.2 83.2007C38.2 83.2018 38.2 83.203 38.2 83.2041C38.2 83.2052 38.2 83.2063 38.2 83.2074C38.2 83.2085 38.2 83.2096 38.2 83.2107C38.2 83.2119 38.2 83.213 38.2 83.2141C38.2 83.2152 38.2 83.2163 38.2 83.2174C38.2 83.2185 38.2 83.2196 38.2 83.2207C38.2 83.2218 38.2 83.2229 38.2 83.224C38.2 83.2252 38.2 83.2263 38.2 83.2274C38.2 83.2285 38.2 83.2296 38.2 83.2307C38.2 83.2318 38.2 83.2329 38.2 83.234C38.2 83.2351 38.2 83.2362 38.2 83.2373C38.2 83.2384 38.2 83.2395 38.2 83.2406C38.2 83.2417 38.2 83.2428 38.2 83.244C38.2 83.2451 38.2 83.2462 38.2 83.2473C38.2 83.2484 38.2 83.2495 38.2 83.2506C38.2 83.2517 38.2 83.2528 38.2 83.2539C38.2 83.255 38.2 83.2561 38.2 83.2572C38.2 83.2583 38.2 83.2594 38.2 83.2605C38.2 83.2616 38.2 83.2627 38.2 83.2638C38.2 83.2649 38.2 83.266 38.2 83.2671C38.2 83.2682 38.2 83.2693 38.2 83.2704C38.2 83.2715 38.2 83.2726 38.2 83.2737C38.2 83.2748 38.2 83.2759 38.2 83.277C38.2 83.2781 38.2 83.2792 38.2 83.2803C38.2 83.2814 38.2 83.2825 38.2 83.2836C38.2 83.2847 38.2 83.2858 38.2 83.2868C38.2 83.2879 38.2 83.289 38.2 83.2901C38.2 83.2912 38.2 83.2923 38.2 83.2934C38.2 83.2945 38.2 83.2956 38.2 83.2967C38.2 83.2978 38.2 83.2989 38.2 83.3C38.2 83.3011 38.2 83.3022 38.2 83.3033C38.2 83.3044 38.2 83.3055 38.2 83.3065C38.2 83.3076 38.2 83.3087 38.2 83.3098C38.2 83.3109 38.2 83.312 38.2 83.3131C38.2 83.3142 38.2 83.3153 38.2 83.3164C38.2 83.3175 38.2 83.3186 38.2 83.3197C38.2 83.3207 38.2 83.3218 38.2 83.3229C38.2 83.324 38.2 83.3251 38.2 83.3262C38.2 83.3273 38.2 83.3284 38.2 83.3295C38.2 83.3305 38.2 83.3316 38.2 83.3327C38.2 83.3338 38.2 83.3349 38.2 83.336C38.2 83.3371 38.2 83.3382 38.2 83.3392C38.2 83.3403 38.2 83.3414 38.2 83.3425C38.2 83.3436 38.2 83.3447 38.2 83.3457C38.2 83.3468 38.2 83.3479 38.2 83.349C38.2 83.3501 38.2 83.3512 38.2 83.3523C38.2 83.3533 38.2 83.3544 38.2 83.3555C38.2 83.3566 38.2 83.3577 38.2 83.3588C38.2 83.3598 38.2 83.3609 38.2 83.362C38.2 83.3631 38.2 83.3642 38.2 83.3652C38.2 83.3663 38.2 83.3674 38.2 83.3685C38.2 83.3696 38.2 83.3707 38.2 83.3717C38.2 83.3728 38.2 83.3739 38.2 83.375C38.2 83.3761 38.2 83.3771 38.2 83.3782C38.2 83.3793 38.2 83.3804 38.2 83.3815C38.2 83.3825 38.2 83.3836 38.2 83.3847C38.2 83.3858 38.2 83.3868 38.2 83.3879C38.2 83.389 38.2 83.3901 38.2 83.3912C38.2 83.3922 38.2 83.3933 38.2 83.3944C38.2 83.3955 38.2 83.3965 38.2 83.3976C38.2 83.3987 38.2 83.3998 38.2 83.4008C38.2 83.4019 38.2 83.403 38.2 83.4041C38.2 83.4051 38.2 83.4062 38.2 83.4073C38.2 83.4084 38.2 83.4094 38.2 83.4105C38.2 83.4116 38.2 83.4126 38.2 83.4137C38.2 83.4148 38.2 83.4159 38.2 83.4169C38.2 83.418 38.2 83.4191 38.2 83.4202C38.2 83.4212 38.2 83.4223 38.2 83.4234C38.2 83.4244 38.2 83.4255 38.2 83.4266C38.2 83.4276 38.2 83.4287 38.2 83.4298C38.2 83.4308 38.2 83.4319 38.2 83.433C38.2 83.4341 38.2 83.4351 38.2 83.4362C38.2 83.4373 38.2 83.4383 38.2 83.4394C38.2 83.4405 38.2 83.4415 38.2 83.4426C38.2 83.4437 38.2 83.4447 38.2 83.4458C38.2 83.4469 38.2 83.4479 38.2 83.449C38.2 83.4501 38.2 83.4511 38.2 83.4522C38.2 83.4533 38.2 83.4543 38.2 83.4554C38.2 83.4565 38.2 83.4575 38.2 83.4586C38.2 83.4596 38.2 83.4607 38.2 83.4618C38.2 83.4628 38.2 83.4639 38.2 83.465C38.2 83.466 38.2 83.4671 38.2 83.4681C38.2 83.4692 38.2 83.4703 38.2 83.4713C38.2 83.4724 38.2 83.4734 38.2 83.4745C38.2 83.4756 38.2 83.4766 38.2 83.4777C38.2 83.4788 38.2 83.4798 38.2 83.4809C38.2 83.4819 38.2 83.483 38.2 83.4841C38.2 83.4851 38.2 83.4862 38.2 83.4872C38.2 83.4883 38.2 83.4893 38.2 83.4904C38.2 83.4915 38.2 83.4925 38.2 83.4936C38.2 83.4946 38.2 83.4957 38.2 83.4967C38.2 83.4978 38.2 83.4989 38.2 83.4999C38.2 83.501 38.2 83.502 38.2 83.5031C38.2 83.5041 38.2 83.5052 38.2 83.5062C38.2 83.5073 38.2 83.5084 38.2 83.5094C38.2 83.5105 38.2 83.5115 38.2 83.5126C38.2 83.5136 38.2 83.5147 38.2 83.5157C38.2 83.5168 38.2 83.5178 38.2 83.5189C38.2 83.5199 38.2 83.521 38.2 83.522C38.2 83.5231 38.2 83.5242 38.2 83.5252C38.2 83.5262 38.2 83.5273 38.2 83.5284C38.2 83.5294 38.2 83.5305 38.2 83.5315C38.2 83.5325 38.2 83.5336 38.2 83.5347C38.2 83.5357 38.2 83.5367 38.2 83.5378C38.2 83.5388 38.2 83.5399 38.2 83.5409C38.2 83.542 38.2 83.543 38.2 83.5441C38.2 83.5451 38.2 83.5462 38.2 83.5472C38.2 83.5483 38.2 83.5493 38.2 83.5504C38.2 83.5514 38.2 83.5525 38.2 83.5535C38.2 83.5546 38.2 83.5556 38.2 83.5566C38.2 83.5577 38.2 83.5587 38.2 83.5598C38.2 83.5608 38.2 83.5619 38.2 83.5629C38.2 83.5639 38.2 83.565 38.2 83.566C38.2 83.5671 38.2 83.5681 38.2 83.5692C38.2 83.5702 38.2 83.5712 38.2 83.5723C38.2 83.5733 38.2 83.5744 38.2 83.5754C38.2 83.5765 38.2 83.5775 38.2 83.5785C38.2 83.5796 38.2 83.5806 38.2 83.5816C38.2 83.5827 38.2 83.5837 38.2 83.5848C38.2 83.5858 38.2 83.5869 38.2 83.5879C38.2 83.5889 38.2 83.59 38.2 83.591C38.2 83.592 38.2 83.5931 38.2 83.5941C38.2 83.5952 38.2 83.5962 38.2 83.5972C38.2 83.5983 38.2 83.5993 38.2 83.6003C38.2 83.6014 38.2 83.6024 38.2 83.6035C38.2 83.6045 38.2 83.6055 38.2 83.6066C38.2 83.6076 38.2 83.6086 38.2 83.6097C38.2 83.6107 38.2 83.6117 38.2 83.6128C38.2 83.6138 38.2 83.6148 38.2 83.6159C38.2 83.6169 38.2 83.6179 38.2 83.619C38.2 83.62 38.2 83.621 38.2 83.6221C38.2 83.6231 38.2 83.6241 38.2 83.6252C38.2 83.6262 38.2 83.6272 38.2 83.6283C38.2 83.6293 38.2 83.6303 38.2 83.6313C38.2 83.6324 38.2 83.6334 38.2 83.6344C38.2 83.6355 38.2 83.6365 38.2 83.6375C38.2 83.6385 38.2 83.6396 38.2 83.6406C38.2 83.6416 38.2 83.6427 38.2 83.6437C38.2 83.6447 38.2 83.6458 38.2 83.6468C38.2 83.6478 38.2 83.6488 38.2 83.6499C38.2 83.6509 38.2 83.6519 38.2 83.6529C38.2 83.654 38.2 83.655 38.2 83.656C38.2 83.657 38.2 83.6581 38.2 83.6591C38.2 83.6601 38.2 83.6611 38.2 83.6622C38.2 83.6632 38.2 83.6642 38.2 83.6652C38.2 83.6663 38.2 83.6673 38.2 83.6683C38.2 83.6693 38.2 83.6703 38.2 83.6714C38.2 83.6724 38.2 83.6734 38.2 83.6744C38.2 83.6755 38.2 83.6765 38.2 83.6775C38.2 83.6785 38.2 83.6796 38.2 83.6806C38.2 83.6816 38.2 83.6826 38.2 83.6836C38.2 83.6846 38.2 83.6857 38.2 83.6867C38.2 83.6877 38.2 83.6887 38.2 83.6897C38.2 83.6908 38.2 83.6918 38.2 83.6928C38.2 83.6938 38.2 83.6948 38.2 83.6958C38.2 83.6969 38.2 83.6979 38.2 83.6989C38.2 83.6999 38.2 83.7009 38.2 83.702C38.2 83.703 38.2 83.704 38.2 83.705C38.2 83.706 38.2 83.707 38.2 83.708C38.2 83.7091 38.2 83.7101 38.2 83.7111C38.2 83.7121 38.2 83.7131 38.2 83.7141C38.2 83.7151 38.2 83.7162 38.2 83.7172C38.2 83.7182 38.2 83.7192 38.2 83.7202C38.2 83.7212 38.2 83.7222 38.2 83.7233C38.2 83.7243 38.2 83.7253 38.2 83.7263C38.2 83.7273 38.2 83.7283 38.2 83.7293C38.2 83.7303 38.2 83.7313 38.2 83.7323C38.2 83.7334 38.2 83.7344 38.2 83.7354C38.2 83.7364 38.2 83.7374 38.2 83.7384C38.2 83.7394 38.2 83.7404 38.2 83.7414C38.2 83.7424 38.2 83.7434 38.2 83.7444C38.2 83.7455 38.2 83.7465 38.2 83.7475C38.2 83.7485 38.2 83.7495 38.2 83.7505C38.2 83.7515 38.2 83.7525 38.2 83.7535C38.2 83.7545 38.2 83.7555 38.2 83.7565C38.2 83.7575 38.2 83.7585 38.2 83.7596C38.2 83.7605 38.2 83.7616 38.2 83.7626C38.2 83.7636 38.2 83.7646 38.2 83.7656C38.2 83.7666 38.2 83.7676 38.2 83.7686C38.2 83.7696 38.2 83.7706 38.2 83.7716C38.2 83.7726 38.2 83.7736 38.2 83.7746C38.2 83.7756 38.2 83.7766 38.2 83.7776C38.2 83.7786 38.2 83.7796 38.2 83.7806C38.2 83.7816 38.2 83.7826 38.2 83.7836C38.2 83.7846 38.2 83.7856 38.2 83.7866C38.2 83.7876 38.2 83.7886 38.2 83.7896C38.2 83.7906 38.2 83.7916 38.2 83.7926C38.2 83.7936 38.2 83.7946 38.2 83.7956C38.2 83.7966 38.2 83.7976 38.2 83.7986C38.2 83.7996 38.2 83.8006 38.2 83.8016C38.2 83.8026 38.2 83.8036 38.2 83.8046C38.2 83.8055 38.2 83.8065 38.2 83.8075C38.2 83.8085 38.2 83.8095 38.2 83.8105C38.2 83.8115 38.2 83.8125 38.2 83.8135C38.2 83.8145 38.2 83.8155 38.2 83.8165C38.2 83.8175 38.2 83.8185 38.2 83.8195C38.2 83.8204 38.2 83.8214 38.2 83.8224C38.2 83.8234 38.2 83.8244 38.2 83.8254C38.2 83.8264 38.2 83.8274 38.2 83.8284C38.2 83.8294 38.2 83.8304 38.2 83.8313C38.2 83.8323 38.2 83.8333 38.2 83.8343C38.2 83.8353 38.2 83.8363 38.2 83.8373C38.2 83.8383 38.2 83.8393 38.2 83.8403C38.2 83.8412 38.2 83.8422 38.2 83.8432C38.2 83.8442 38.2 83.8452 38.2 83.8462C38.2 83.8472 38.2 83.8481 38.2 83.8491C38.2 83.8501 38.2 83.8511 38.2 83.8521C38.2 83.8531 38.2 83.8541 38.2 83.8551C38.2 83.856 38.2 83.857 38.2 83.858C38.2 83.859 38.2 83.86 38.2 83.861C38.2 83.8619 38.2 83.8629 38.2 83.8639C38.2 83.8649 38.2 83.8659 38.2 83.8669C38.2 83.8678 38.2 83.8688 38.2 83.8698C38.2 83.8708 38.2 83.8718 38.2 83.8728C38.2 83.8737 38.2 83.8747 38.2 83.8757C38.2 83.8767 38.2 83.8777 38.2 83.8786C38.2 83.8796 38.2 83.8806 38.2 83.8816C38.2 83.8826 38.2 83.8835 38.2 83.8845C38.2 83.8855 38.2 83.8865 38.2 83.8875C38.2 83.8884 38.2 83.8894 38.2 83.8904C38.2 83.8914 38.2 83.8923 38.2 83.8933C38.2 83.8943 38.2 83.8953 38.2 83.8963C38.2 83.8972 38.2 83.8982 38.2 83.8992C38.2 83.9001 38.2 83.9011 38.2 83.9021C38.2 83.9031 38.2 83.9041 38.2 83.905C38.2 83.906 38.2 83.907 38.2 83.908C38.2 83.9089 38.2 83.9099 38.2 83.9109C38.2 83.9118 38.2 83.9128 38.2 83.9138C38.2 83.9148 38.2 83.9157 38.2 83.9167C38.2 83.9177 38.2 83.9187 38.2 83.9196C38.2 83.9206 38.2 83.9216 38.2 83.9225C38.2 83.9235 38.2 83.9245 38.2 83.9255C38.2 83.9264 38.2 83.9274 38.2 83.9284C38.2 83.9293 38.2 83.9303 38.2 83.9313C38.2 83.9322 38.2 83.9332 38.2 83.9342C38.2 83.9352 38.2 83.9361 38.2 83.9371C38.2 83.938 38.2 83.939 38.2 83.94C38.2 83.9409 38.2 83.9419 38.2 83.9429C38.2 83.9439 38.2 83.9448 38.2 83.9458C38.2 83.9467 38.2 83.9477 38.2 83.9487C38.2 83.9496 38.2 83.9506 38.2 83.9516C38.2 83.9525 38.2 83.9535 38.2 83.9545C38.2 83.9554 38.2 83.9564 38.2 83.9574C38.2 83.9583 38.2 83.9593 38.2 83.9603C38.2 83.9612 38.2 83.9622 38.2 83.9632C38.2 83.9641 38.2 83.9651 38.2 83.966C38.2 83.967 38.2 83.968 38.2 83.9689C38.2 83.9699 38.2 83.9708 38.2 83.9718C38.2 83.9728 38.2 83.9737 38.2 83.9747C38.2 83.9756 38.2 83.9766 38.2 83.9776C38.2 83.9785 38.2 83.9795 38.2 83.9804C38.2 83.9814 38.2 83.9824 38.2 83.9833C38.2 83.9843 38.2 83.9852 38.2 83.9862C38.2 83.9872 38.2 83.9881 38.2 83.9891C38.2 83.99 38.2 83.991 38.2 83.9919C38.2 83.9929 38.2 83.9939 38.2 83.9948C38.2 83.9958 38.2 83.9967 38.2 83.9977C38.2 83.9986 38.2 83.9996 38.2 84.0005C38.2 84.0015 38.2 84.0024 38.2 84.0034C38.2 84.0043 38.2 84.0053 38.2 84.0063C38.2 84.0072 38.2 84.0082 38.2 84.0091C38.2 84.0101 38.2 84.011 38.2 84.012C38.2 84.0129 38.2 84.0139 38.2 84.0148C38.2 84.0158 38.2 84.0167 38.2 84.0177C38.2 84.0186 38.2 84.0196 38.2 84.0205C38.2 84.0215 38.2 84.0224 38.2 84.0234C38.2 84.0243 38.2 84.0253 38.2 84.0262C38.2 84.0272 38.2 84.0281 38.2 84.0291C38.2 84.03 38.2 84.031 38.2 84.0319C38.2 84.0329 38.2 84.0338 38.2 84.0348C38.2 84.0357 38.2 84.0367 38.2 84.0376C38.2 84.0386 38.2 84.0395 38.2 84.0405C38.2 84.0414 38.2 84.0423 38.2 84.0433C38.2 84.0442 38.2 84.0452 38.2 84.0461C38.2 84.0471 38.2 84.048 38.2 84.049C38.2 84.0499 38.2 84.0508 38.2 84.0518C38.2 84.0527 38.2 84.0537 38.2 84.0546C38.2 84.0556 38.2 84.0565 38.2 84.0574C38.2 84.0584 38.2 84.0593 38.2 84.0603C38.2 84.0612 38.2 84.0621 38.2 84.0631C38.2 84.064 38.2 84.065 38.2 84.0659C38.2 84.0668 38.2 84.0678 38.2 84.0687C38.2 84.0697 38.2 84.0706 38.2 84.0715C38.2 84.0725 38.2 84.0734 38.2 84.0744C38.2 84.0753 38.2 84.0762 38.2 84.0772C38.2 84.0781 38.2 84.0791 38.2 84.08H41.2H44.2C44.2 84.0791 44.2 84.0781 44.2 84.0772C44.2 84.0762 44.2 84.0753 44.2 84.0744C44.2 84.0734 44.2 84.0725 44.2 84.0715C44.2 84.0706 44.2 84.0697 44.2 84.0687C44.2 84.0678 44.2 84.0668 44.2 84.0659C44.2 84.065 44.2 84.064 44.2 84.0631C44.2 84.0621 44.2 84.0612 44.2 84.0603C44.2 84.0593 44.2 84.0584 44.2 84.0574C44.2 84.0565 44.2 84.0556 44.2 84.0546C44.2 84.0537 44.2 84.0527 44.2 84.0518C44.2 84.0508 44.2 84.0499 44.2 84.049C44.2 84.048 44.2 84.0471 44.2 84.0461C44.2 84.0452 44.2 84.0442 44.2 84.0433C44.2 84.0423 44.2 84.0414 44.2 84.0405C44.2 84.0395 44.2 84.0386 44.2 84.0376C44.2 84.0367 44.2 84.0357 44.2 84.0348C44.2 84.0338 44.2 84.0329 44.2 84.0319C44.2 84.031 44.2 84.03 44.2 84.0291C44.2 84.0281 44.2 84.0272 44.2 84.0262C44.2 84.0253 44.2 84.0243 44.2 84.0234C44.2 84.0224 44.2 84.0215 44.2 84.0205C44.2 84.0196 44.2 84.0186 44.2 84.0177C44.2 84.0167 44.2 84.0158 44.2 84.0148C44.2 84.0139 44.2 84.0129 44.2 84.012C44.2 84.011 44.2 84.0101 44.2 84.0091C44.2 84.0082 44.2 84.0072 44.2 84.0063C44.2 84.0053 44.2 84.0043 44.2 84.0034C44.2 84.0024 44.2 84.0015 44.2 84.0005C44.2 83.9996 44.2 83.9986 44.2 83.9977C44.2 83.9967 44.2 83.9958 44.2 83.9948C44.2 83.9939 44.2 83.9929 44.2 83.9919C44.2 83.991 44.2 83.99 44.2 83.9891C44.2 83.9881 44.2 83.9872 44.2 83.9862C44.2 83.9852 44.2 83.9843 44.2 83.9833C44.2 83.9824 44.2 83.9814 44.2 83.9804C44.2 83.9795 44.2 83.9785 44.2 83.9776C44.2 83.9766 44.2 83.9756 44.2 83.9747C44.2 83.9737 44.2 83.9728 44.2 83.9718C44.2 83.9708 44.2 83.9699 44.2 83.9689C44.2 83.968 44.2 83.967 44.2 83.966C44.2 83.9651 44.2 83.9641 44.2 83.9632C44.2 83.9622 44.2 83.9612 44.2 83.9603C44.2 83.9593 44.2 83.9583 44.2 83.9574C44.2 83.9564 44.2 83.9554 44.2 83.9545C44.2 83.9535 44.2 83.9525 44.2 83.9516C44.2 83.9506 44.2 83.9496 44.2 83.9487C44.2 83.9477 44.2 83.9467 44.2 83.9458C44.2 83.9448 44.2 83.9439 44.2 83.9429C44.2 83.9419 44.2 83.9409 44.2 83.94C44.2 83.939 44.2 83.938 44.2 83.9371C44.2 83.9361 44.2 83.9352 44.2 83.9342C44.2 83.9332 44.2 83.9322 44.2 83.9313C44.2 83.9303 44.2 83.9293 44.2 83.9284C44.2 83.9274 44.2 83.9264 44.2 83.9255C44.2 83.9245 44.2 83.9235 44.2 83.9225C44.2 83.9216 44.2 83.9206 44.2 83.9196C44.2 83.9187 44.2 83.9177 44.2 83.9167C44.2 83.9157 44.2 83.9148 44.2 83.9138C44.2 83.9128 44.2 83.9118 44.2 83.9109C44.2 83.9099 44.2 83.9089 44.2 83.908C44.2 83.907 44.2 83.906 44.2 83.905C44.2 83.9041 44.2 83.9031 44.2 83.9021C44.2 83.9011 44.2 83.9001 44.2 83.8992C44.2 83.8982 44.2 83.8972 44.2 83.8963C44.2 83.8953 44.2 83.8943 44.2 83.8933C44.2 83.8923 44.2 83.8914 44.2 83.8904C44.2 83.8894 44.2 83.8884 44.2 83.8875C44.2 83.8865 44.2 83.8855 44.2 83.8845C44.2 83.8835 44.2 83.8826 44.2 83.8816C44.2 83.8806 44.2 83.8796 44.2 83.8786C44.2 83.8777 44.2 83.8767 44.2 83.8757C44.2 83.8747 44.2 83.8737 44.2 83.8728C44.2 83.8718 44.2 83.8708 44.2 83.8698C44.2 83.8688 44.2 83.8678 44.2 83.8669C44.2 83.8659 44.2 83.8649 44.2 83.8639C44.2 83.8629 44.2 83.8619 44.2 83.861C44.2 83.86 44.2 83.859 44.2 83.858C44.2 83.857 44.2 83.856 44.2 83.8551C44.2 83.8541 44.2 83.8531 44.2 83.8521C44.2 83.8511 44.2 83.8501 44.2 83.8491C44.2 83.8481 44.2 83.8472 44.2 83.8462C44.2 83.8452 44.2 83.8442 44.2 83.8432C44.2 83.8422 44.2 83.8412 44.2 83.8403C44.2 83.8393 44.2 83.8383 44.2 83.8373C44.2 83.8363 44.2 83.8353 44.2 83.8343C44.2 83.8333 44.2 83.8323 44.2 83.8313C44.2 83.8304 44.2 83.8294 44.2 83.8284C44.2 83.8274 44.2 83.8264 44.2 83.8254C44.2 83.8244 44.2 83.8234 44.2 83.8224C44.2 83.8214 44.2 83.8204 44.2 83.8195C44.2 83.8185 44.2 83.8175 44.2 83.8165C44.2 83.8155 44.2 83.8145 44.2 83.8135C44.2 83.8125 44.2 83.8115 44.2 83.8105C44.2 83.8095 44.2 83.8085 44.2 83.8075C44.2 83.8065 44.2 83.8055 44.2 83.8046C44.2 83.8036 44.2 83.8026 44.2 83.8016C44.2 83.8006 44.2 83.7996 44.2 83.7986C44.2 83.7976 44.2 83.7966 44.2 83.7956C44.2 83.7946 44.2 83.7936 44.2 83.7926C44.2 83.7916 44.2 83.7906 44.2 83.7896C44.2 83.7886 44.2 83.7876 44.2 83.7866C44.2 83.7856 44.2 83.7846 44.2 83.7836C44.2 83.7826 44.2 83.7816 44.2 83.7806C44.2 83.7796 44.2 83.7786 44.2 83.7776C44.2 83.7766 44.2 83.7756 44.2 83.7746C44.2 83.7736 44.2 83.7726 44.2 83.7716C44.2 83.7706 44.2 83.7696 44.2 83.7686C44.2 83.7676 44.2 83.7666 44.2 83.7656C44.2 83.7646 44.2 83.7636 44.2 83.7626C44.2 83.7616 44.2 83.7605 44.2 83.7596C44.2 83.7585 44.2 83.7575 44.2 83.7565C44.2 83.7555 44.2 83.7545 44.2 83.7535C44.2 83.7525 44.2 83.7515 44.2 83.7505C44.2 83.7495 44.2 83.7485 44.2 83.7475C44.2 83.7465 44.2 83.7455 44.2 83.7444C44.2 83.7434 44.2 83.7424 44.2 83.7414C44.2 83.7404 44.2 83.7394 44.2 83.7384C44.2 83.7374 44.2 83.7364 44.2 83.7354C44.2 83.7344 44.2 83.7334 44.2 83.7323C44.2 83.7313 44.2 83.7303 44.2 83.7293C44.2 83.7283 44.2 83.7273 44.2 83.7263C44.2 83.7253 44.2 83.7243 44.2 83.7233C44.2 83.7222 44.2 83.7212 44.2 83.7202C44.2 83.7192 44.2 83.7182 44.2 83.7172C44.2 83.7162 44.2 83.7151 44.2 83.7141C44.2 83.7131 44.2 83.7121 44.2 83.7111C44.2 83.7101 44.2 83.7091 44.2 83.708C44.2 83.707 44.2 83.706 44.2 83.705C44.2 83.704 44.2 83.703 44.2 83.702C44.2 83.7009 44.2 83.6999 44.2 83.6989C44.2 83.6979 44.2 83.6969 44.2 83.6958C44.2 83.6948 44.2 83.6938 44.2 83.6928C44.2 83.6918 44.2 83.6908 44.2 83.6897C44.2 83.6887 44.2 83.6877 44.2 83.6867C44.2 83.6857 44.2 83.6846 44.2 83.6836C44.2 83.6826 44.2 83.6816 44.2 83.6806C44.2 83.6796 44.2 83.6785 44.2 83.6775C44.2 83.6765 44.2 83.6755 44.2 83.6744C44.2 83.6734 44.2 83.6724 44.2 83.6714C44.2 83.6703 44.2 83.6693 44.2 83.6683C44.2 83.6673 44.2 83.6663 44.2 83.6652C44.2 83.6642 44.2 83.6632 44.2 83.6622C44.2 83.6611 44.2 83.6601 44.2 83.6591C44.2 83.6581 44.2 83.657 44.2 83.656C44.2 83.655 44.2 83.654 44.2 83.6529C44.2 83.6519 44.2 83.6509 44.2 83.6499C44.2 83.6488 44.2 83.6478 44.2 83.6468C44.2 83.6458 44.2 83.6447 44.2 83.6437C44.2 83.6427 44.2 83.6416 44.2 83.6406C44.2 83.6396 44.2 83.6385 44.2 83.6375C44.2 83.6365 44.2 83.6355 44.2 83.6344C44.2 83.6334 44.2 83.6324 44.2 83.6313C44.2 83.6303 44.2 83.6293 44.2 83.6283C44.2 83.6272 44.2 83.6262 44.2 83.6252C44.2 83.6241 44.2 83.6231 44.2 83.6221C44.2 83.621 44.2 83.62 44.2 83.619C44.2 83.6179 44.2 83.6169 44.2 83.6159C44.2 83.6148 44.2 83.6138 44.2 83.6128C44.2 83.6117 44.2 83.6107 44.2 83.6097C44.2 83.6086 44.2 83.6076 44.2 83.6066C44.2 83.6055 44.2 83.6045 44.2 83.6035C44.2 83.6024 44.2 83.6014 44.2 83.6003C44.2 83.5993 44.2 83.5983 44.2 83.5972C44.2 83.5962 44.2 83.5952 44.2 83.5941C44.2 83.5931 44.2 83.592 44.2 83.591C44.2 83.59 44.2 83.5889 44.2 83.5879C44.2 83.5869 44.2 83.5858 44.2 83.5848C44.2 83.5837 44.2 83.5827 44.2 83.5816C44.2 83.5806 44.2 83.5796 44.2 83.5785C44.2 83.5775 44.2 83.5765 44.2 83.5754C44.2 83.5744 44.2 83.5733 44.2 83.5723C44.2 83.5712 44.2 83.5702 44.2 83.5692C44.2 83.5681 44.2 83.5671 44.2 83.566C44.2 83.565 44.2 83.5639 44.2 83.5629C44.2 83.5619 44.2 83.5608 44.2 83.5598C44.2 83.5587 44.2 83.5577 44.2 83.5566C44.2 83.5556 44.2 83.5546 44.2 83.5535C44.2 83.5525 44.2 83.5514 44.2 83.5504C44.2 83.5493 44.2 83.5483 44.2 83.5472C44.2 83.5462 44.2 83.5451 44.2 83.5441C44.2 83.543 44.2 83.542 44.2 83.5409C44.2 83.5399 44.2 83.5388 44.2 83.5378C44.2 83.5367 44.2 83.5357 44.2 83.5347C44.2 83.5336 44.2 83.5325 44.2 83.5315C44.2 83.5305 44.2 83.5294 44.2 83.5284C44.2 83.5273 44.2 83.5262 44.2 83.5252C44.2 83.5242 44.2 83.5231 44.2 83.522C44.2 83.521 44.2 83.5199 44.2 83.5189C44.2 83.5178 44.2 83.5168 44.2 83.5157C44.2 83.5147 44.2 83.5136 44.2 83.5126C44.2 83.5115 44.2 83.5105 44.2 83.5094C44.2 83.5084 44.2 83.5073 44.2 83.5062C44.2 83.5052 44.2 83.5041 44.2 83.5031C44.2 83.502 44.2 83.501 44.2 83.4999C44.2 83.4989 44.2 83.4978 44.2 83.4967C44.2 83.4957 44.2 83.4946 44.2 83.4936C44.2 83.4925 44.2 83.4915 44.2 83.4904C44.2 83.4893 44.2 83.4883 44.2 83.4872C44.2 83.4862 44.2 83.4851 44.2 83.4841C44.2 83.483 44.2 83.4819 44.2 83.4809C44.2 83.4798 44.2 83.4788 44.2 83.4777C44.2 83.4766 44.2 83.4756 44.2 83.4745C44.2 83.4734 44.2 83.4724 44.2 83.4713C44.2 83.4703 44.2 83.4692 44.2 83.4681C44.2 83.4671 44.2 83.466 44.2 83.465C44.2 83.4639 44.2 83.4628 44.2 83.4618C44.2 83.4607 44.2 83.4596 44.2 83.4586C44.2 83.4575 44.2 83.4565 44.2 83.4554C44.2 83.4543 44.2 83.4533 44.2 83.4522C44.2 83.4511 44.2 83.4501 44.2 83.449C44.2 83.4479 44.2 83.4469 44.2 83.4458C44.2 83.4447 44.2 83.4437 44.2 83.4426C44.2 83.4415 44.2 83.4405 44.2 83.4394C44.2 83.4383 44.2 83.4373 44.2 83.4362C44.2 83.4351 44.2 83.4341 44.2 83.433C44.2 83.4319 44.2 83.4308 44.2 83.4298C44.2 83.4287 44.2 83.4276 44.2 83.4266C44.2 83.4255 44.2 83.4244 44.2 83.4234C44.2 83.4223 44.2 83.4212 44.2 83.4202C44.2 83.4191 44.2 83.418 44.2 83.4169C44.2 83.4159 44.2 83.4148 44.2 83.4137C44.2 83.4126 44.2 83.4116 44.2 83.4105C44.2 83.4094 44.2 83.4084 44.2 83.4073C44.2 83.4062 44.2 83.4051 44.2 83.4041C44.2 83.403 44.2 83.4019 44.2 83.4008C44.2 83.3998 44.2 83.3987 44.2 83.3976C44.2 83.3965 44.2 83.3955 44.2 83.3944C44.2 83.3933 44.2 83.3922 44.2 83.3912C44.2 83.3901 44.2 83.389 44.2 83.3879C44.2 83.3868 44.2 83.3858 44.2 83.3847C44.2 83.3836 44.2 83.3825 44.2 83.3815C44.2 83.3804 44.2 83.3793 44.2 83.3782C44.2 83.3771 44.2 83.3761 44.2 83.375C44.2 83.3739 44.2 83.3728 44.2 83.3717C44.2 83.3707 44.2 83.3696 44.2 83.3685C44.2 83.3674 44.2 83.3663 44.2 83.3652C44.2 83.3642 44.2 83.3631 44.2 83.362C44.2 83.3609 44.2 83.3598 44.2 83.3588C44.2 83.3577 44.2 83.3566 44.2 83.3555C44.2 83.3544 44.2 83.3533 44.2 83.3523C44.2 83.3512 44.2 83.3501 44.2 83.349C44.2 83.3479 44.2 83.3468 44.2 83.3457C44.2 83.3447 44.2 83.3436 44.2 83.3425C44.2 83.3414 44.2 83.3403 44.2 83.3392C44.2 83.3382 44.2 83.3371 44.2 83.336C44.2 83.3349 44.2 83.3338 44.2 83.3327C44.2 83.3316 44.2 83.3305 44.2 83.3295C44.2 83.3284 44.2 83.3273 44.2 83.3262C44.2 83.3251 44.2 83.324 44.2 83.3229C44.2 83.3218 44.2 83.3207 44.2 83.3197C44.2 83.3186 44.2 83.3175 44.2 83.3164C44.2 83.3153 44.2 83.3142 44.2 83.3131C44.2 83.312 44.2 83.3109 44.2 83.3098C44.2 83.3087 44.2 83.3076 44.2 83.3065C44.2 83.3055 44.2 83.3044 44.2 83.3033C44.2 83.3022 44.2 83.3011 44.2 83.3C44.2 83.2989 44.2 83.2978 44.2 83.2967C44.2 83.2956 44.2 83.2945 44.2 83.2934C44.2 83.2923 44.2 83.2912 44.2 83.2901C44.2 83.289 44.2 83.2879 44.2 83.2868C44.2 83.2858 44.2 83.2847 44.2 83.2836C44.2 83.2825 44.2 83.2814 44.2 83.2803C44.2 83.2792 44.2 83.2781 44.2 83.277C44.2 83.2759 44.2 83.2748 44.2 83.2737C44.2 83.2726 44.2 83.2715 44.2 83.2704C44.2 83.2693 44.2 83.2682 44.2 83.2671C44.2 83.266 44.2 83.2649 44.2 83.2638C44.2 83.2627 44.2 83.2616 44.2 83.2605C44.2 83.2594 44.2 83.2583 44.2 83.2572C44.2 83.2561 44.2 83.255 44.2 83.2539C44.2 83.2528 44.2 83.2517 44.2 83.2506C44.2 83.2495 44.2 83.2484 44.2 83.2473C44.2 83.2462 44.2 83.2451 44.2 83.244C44.2 83.2428 44.2 83.2417 44.2 83.2406C44.2 83.2395 44.2 83.2384 44.2 83.2373C44.2 83.2362 44.2 83.2351 44.2 83.234C44.2 83.2329 44.2 83.2318 44.2 83.2307C44.2 83.2296 44.2 83.2285 44.2 83.2274C44.2 83.2263 44.2 83.2252 44.2 83.224C44.2 83.2229 44.2 83.2218 44.2 83.2207C44.2 83.2196 44.2 83.2185 44.2 83.2174C44.2 83.2163 44.2 83.2152 44.2 83.2141C44.2 83.213 44.2 83.2119 44.2 83.2107C44.2 83.2096 44.2 83.2085 44.2 83.2074C44.2 83.2063 44.2 83.2052 44.2 83.2041C44.2 83.203 44.2 83.2018 44.2 83.2007C44.2 83.1996 44.2 83.1985 44.2 83.1974C44.2 83.1963 44.2 83.1952 44.2 83.1941C44.2 83.1929 44.2 83.1918 44.2 83.1907C44.2 83.1896 44.2 83.1885 44.2 83.1874C44.2 83.1863 44.2 83.1852 44.2 83.184C44.2 83.1829 44.2 83.1818 44.2 83.1807C44.2 83.1796 44.2 83.1785 44.2 83.1773C44.2 83.1762 44.2 83.1751 44.2 83.174C44.2 83.1729 44.2 83.1718 44.2 83.1706C44.2 83.1695 44.2 83.1684 44.2 83.1673C44.2 83.1662 44.2 83.165 44.2 83.1639C44.2 83.1628 44.2 83.1617 44.2 83.1606C44.2 83.1595 44.2 83.1583 44.2 83.1572C44.2 83.1561 44.2 83.155 44.2 83.1539C44.2 83.1527 44.2 83.1516 44.2 83.1505C44.2 83.1494 44.2 83.1482 44.2 83.1471C44.2 83.146 44.2 83.1449 44.2 83.1438C44.2 83.1426 44.2 83.1415 44.2 83.1404C44.2 83.1393 44.2 83.1381 44.2 83.137C44.2 83.1359 44.2 83.1348 44.2 83.1337C44.2 83.1325 44.2 83.1314 44.2 83.1303C44.2 83.1292 44.2 83.128 44.2 83.1269C44.2 83.1258 44.2 83.1246 44.2 83.1235C44.2 83.1224 44.2 83.1213 44.2 83.1201C44.2 83.119 44.2 83.1179 44.2 83.1168C44.2 83.1156 44.2 83.1145 44.2 83.1134C44.2 83.1122 44.2 83.1111 44.2 83.11C44.2 83.1089 44.2 83.1077 44.2 83.1066C44.2 83.1055 44.2 83.1043 44.2 83.1032C44.2 83.1021 44.2 83.101 44.2 83.0998C44.2 83.0987 44.2 83.0976 44.2 83.0964C44.2 83.0953 44.2 83.0942 44.2 83.093C44.2 83.0919 44.2 83.0908 44.2 83.0896C44.2 83.0885 44.2 83.0874 44.2 83.0862C44.2 83.0851 44.2 83.084 44.2 83.0828C44.2 83.0817 44.2 83.0806 44.2 83.0795C44.2 83.0783 44.2 83.0772 44.2 83.076C44.2 83.0749 44.2 83.0738 44.2 83.0726C44.2 83.0715 44.2 83.0704 44.2 83.0692C44.2 83.0681 44.2 83.067 44.2 83.0658C44.2 83.0647 44.2 83.0636 44.2 83.0624C44.2 83.0613 44.2 83.0601 44.2 83.059C44.2 83.0579 44.2 83.0567 44.2 83.0556C44.2 83.0544 44.2 83.0533 44.2 83.0522C44.2 83.051 44.2 83.0499 44.2 83.0488C44.2 83.0476 44.2 83.0465 44.2 83.0453C44.2 83.0442 44.2 83.0431 44.2 83.0419C44.2 83.0408 44.2 83.0396 44.2 83.0385C44.2 83.0374 44.2 83.0362 44.2 83.0351C44.2 83.0339 44.2 83.0328 44.2 83.0316C44.2 83.0305 44.2 83.0294 44.2 83.0282C44.2 83.0271 44.2 83.0259 44.2 83.0248C44.2 83.0236 44.2 83.0225 44.2 83.0213C44.2 83.0202 44.2 83.0191 44.2 83.0179C44.2 83.0168 44.2 83.0156 44.2 83.0145C44.2 83.0133 44.2 83.0122 44.2 83.011C44.2 83.0099 44.2 83.0087 44.2 83.0076C44.2 83.0065 44.2 83.0053 44.2 83.0042C44.2 83.003 44.2 83.0019 44.2 83.0007C44.2 82.9996 44.2 82.9984 44.2 82.9973C44.2 82.9961 44.2 82.995 44.2 82.9938C44.2 82.9927 44.2 82.9915 44.2 82.9904C44.2 82.9892 44.2 82.9881 44.2 82.9869C44.2 82.9858 44.2 82.9846 44.2 82.9835C44.2 82.9823 44.2 82.9812 44.2 82.98C44.2 82.9789 44.2 82.9777 44.2 82.9766C44.2 82.9754 44.2 82.9743 44.2 82.9731C44.2 82.972 44.2 82.9708 44.2 82.9696C44.2 82.9685 44.2 82.9673 44.2 82.9662C44.2 82.965 44.2 82.9639 44.2 82.9627C44.2 82.9616 44.2 82.9604 44.2 82.9592C44.2 82.9581 44.2 82.9569 44.2 82.9558C44.2 82.9546 44.2 82.9535 44.2 82.9523C44.2 82.9512 44.2 82.95 44.2 82.9488C44.2 82.9477 44.2 82.9465 44.2 82.9454C44.2 82.9442 44.2 82.9431 44.2 82.9419C44.2 82.9407 44.2 82.9396 44.2 82.9384C44.2 82.9373 44.2 82.9361 44.2 82.9349C44.2 82.9338 44.2 82.9326 44.2 82.9315C44.2 82.9303 44.2 82.9291 44.2 82.928C44.2 82.9268 44.2 82.9257 44.2 82.9245C44.2 82.9233 44.2 82.9222 44.2 82.921C44.2 82.9198 44.2 82.9187 44.2 82.9175C44.2 82.9164 44.2 82.9152 44.2 82.914C44.2 82.9129 44.2 82.9117 44.2 82.9106C44.2 82.9094 44.2 82.9082 44.2 82.9071C44.2 82.9059 44.2 82.9047 44.2 82.9036C44.2 82.9024 44.2 82.9012 44.2 82.9001C44.2 82.8989 44.2 82.8977 44.2 82.8966C44.2 82.8954 44.2 82.8942 44.2 82.8931C44.2 82.8919 44.2 82.8907 44.2 82.8896C44.2 82.8884 44.2 82.8872 44.2 82.8861C44.2 82.8849 44.2 82.8837 44.2 82.8826C44.2 82.8814 44.2 82.8802 44.2 82.879C44.2 82.8779 44.2 82.8767 44.2 82.8755C44.2 82.8744 44.2 82.8732 44.2 82.872C44.2 82.8708 44.2 82.8697 44.2 82.8685C44.2 82.8673 44.2 82.8662 44.2 82.865C44.2 82.8638 44.2 82.8627 44.2 82.8615C44.2 82.8603 44.2 82.8591 44.2 82.858C44.2 82.8568 44.2 82.8556 44.2 82.8544C44.2 82.8533 44.2 82.8521 44.2 82.8509C44.2 82.8497 44.2 82.8486 44.2 82.8474C44.2 82.8462 44.2 82.845 44.2 82.8439C44.2 82.8427 44.2 82.8415 44.2 82.8403C44.2 82.8392 44.2 82.838 44.2 82.8368C44.2 82.8356 44.2 82.8345 44.2 82.8333C44.2 82.8321 44.2 82.8309 44.2 82.8297C44.2 82.8286 44.2 82.8274 44.2 82.8262C44.2 82.825 44.2 82.8239 44.2 82.8227C44.2 82.8215 44.2 82.8203 44.2 82.8191C44.2 82.818 44.2 82.8168 44.2 82.8156C44.2 82.8144 44.2 82.8132 44.2 82.8121C44.2 82.8109 44.2 82.8097 44.2 82.8085C44.2 82.8073 44.2 82.8062 44.2 82.805C44.2 82.8038 44.2 82.8026 44.2 82.8014C44.2 82.8002 44.2 82.7991 44.2 82.7979C44.2 82.7967 44.2 82.7955 44.2 82.7943C44.2 82.7931 44.2 82.7919 44.2 82.7908C44.2 82.7896 44.2 82.7884 44.2 82.7872C44.2 82.786 44.2 82.7848 44.2 82.7837C44.2 82.7825 44.2 82.7813 44.2 82.7801C44.2 82.7789 44.2 82.7777 44.2 82.7765C44.2 82.7753 44.2 82.7742 44.2 82.773C44.2 82.7718 44.2 82.7706 44.2 82.7694C44.2 82.7682 44.2 82.767 44.2 82.7658C44.2 82.7646 44.2 82.7635 44.2 82.7623C44.2 82.7611 44.2 82.7599 44.2 82.7587C44.2 82.7575 44.2 82.7563 44.2 82.7551C44.2 82.7539 44.2 82.7527 44.2 82.7516C44.2 82.7504 44.2 82.7492 44.2 82.748C44.2 82.7468 44.2 82.7456 44.2 82.7444C44.2 82.7432 44.2 82.742 44.2 82.7408C44.2 82.7396 44.2 82.7384 44.2 82.7372C44.2 82.7361 44.2 82.7349 44.2 82.7337C44.2 82.7325 44.2 82.7313 44.2 82.7301C44.2 82.7289 44.2 82.7277 44.2 82.7265C44.2 82.7253 44.2 82.7241 44.2 82.7229C44.2 82.7217 44.2 82.7205 44.2 82.7193C44.2 82.7181 44.2 82.7169 44.2 82.7157C44.2 82.7145 44.2 82.7133 44.2 82.7121C44.2 82.7109 44.2 82.7097 44.2 82.7085C44.2 82.7073 44.2 82.7061 44.2 82.7049C44.2 82.7037 44.2 82.7025 44.2 82.7013C44.2 82.7001 44.2 82.6989 44.2 82.6977C44.2 82.6965 44.2 82.6953 44.2 82.6941C44.2 82.6929 44.2 82.6917 44.2 82.6905C44.2 82.6893 44.2 82.6881 44.2 82.6869C44.2 82.6857 44.2 82.6845 44.2 82.6833C44.2 82.6821 44.2 82.6809 44.2 82.6797C44.2 82.6785 44.2 82.6773 44.2 82.6761C44.2 82.6749 44.2 82.6737 44.2 82.6725C44.2 82.6713 44.2 82.6701 44.2 82.6689C44.2 82.6677 44.2 82.6665 44.2 82.6653C44.2 82.664 44.2 82.6628 44.2 82.6616C44.2 82.6604 44.2 82.6592 44.2 82.658C44.2 82.6568 44.2 82.6556 44.2 82.6544C44.2 82.6532 44.2 82.652 44.2 82.6508C44.2 82.6496 44.2 82.6483 44.2 82.6471C44.2 82.6459 44.2 82.6447 44.2 82.6435C44.2 82.6423 44.2 82.6411 44.2 82.6399C44.2 82.6387 44.2 82.6375 44.2 82.6362C44.2 82.635 44.2 82.6338 44.2 82.6326C44.2 82.6314 44.2 82.6302 44.2 82.629C44.2 82.6278 44.2 82.6266 44.2 82.6253C44.2 82.6241 44.2 82.6229 44.2 82.6217C44.2 82.6205 44.2 82.6193 44.2 82.6181C44.2 82.6169 44.2 82.6156 44.2 82.6144C44.2 82.6132 44.2 82.612 44.2 82.6108C44.2 82.6096 44.2 82.6083 44.2 82.6071C44.2 82.6059 44.2 82.6047 44.2 82.6035C44.2 82.6023 44.2 82.601 44.2 82.5998C44.2 82.5986 44.2 82.5974 44.2 82.5962C44.2 82.595 44.2 82.5937 44.2 82.5925C44.2 82.5913 44.2 82.5901 44.2 82.5889C44.2 82.5876 44.2 82.5864 44.2 82.5852C44.2 82.584 44.2 82.5828 44.2 82.5815C44.2 82.5803 44.2 82.5791 44.2 82.5779C44.2 82.5767 44.2 82.5755 44.2 82.5742C44.2 82.573 44.2 82.5718 44.2 82.5706C44.2 82.5693 44.2 82.5681 44.2 82.5669C44.2 82.5657 44.2 82.5645 44.2 82.5632C44.2 82.562 44.2 82.5608 44.2 82.5596C44.2 82.5583 44.2 82.5571 44.2 82.5559C44.2 82.5547 44.2 82.5534 44.2 82.5522C44.2 82.551 44.2 82.5498 44.2 82.5485C44.2 82.5473 44.2 82.5461 44.2 82.5449C44.2 82.5436 44.2 82.5424 44.2 82.5412C44.2 82.5399 44.2 82.5387 44.2 82.5375C44.2 82.5363 44.2 82.535 44.2 82.5338C44.2 82.5326 44.2 82.5314 44.2 82.5301C44.2 82.5289 44.2 82.5277 44.2 82.5264C44.2 82.5252 44.2 82.524 44.2 82.5228C44.2 82.5215 44.2 82.5203 44.2 82.5191C44.2 82.5178 44.2 82.5166 44.2 82.5154C44.2 82.5141 44.2 82.5129 44.2 82.5117C44.2 82.5104 44.2 82.5092 44.2 82.508C44.2 82.5067 44.2 82.5055 44.2 82.5043C44.2 82.5031 44.2 82.5018 44.2 82.5006C44.2 82.4993 44.2 82.4981 44.2 82.4969C44.2 82.4957 44.2 82.4944 44.2 82.4932C44.2 82.4919 44.2 82.4907 44.2 82.4895C44.2 82.4882 44.2 82.487 44.2 82.4858C44.2 82.4845 44.2 82.4833 44.2 82.4821C44.2 82.4808 44.2 82.4796 44.2 82.4783C44.2 82.4771 44.2 82.4759 44.2 82.4746C44.2 82.4734 44.2 82.4722 44.2 82.4709C44.2 82.4697 44.2 82.4684 44.2 82.4672C44.2 82.466 44.2 82.4647 44.2 82.4635C44.2 82.4622 44.2 82.461 44.2 82.4598C44.2 82.4585 44.2 82.4573 44.2 82.456C44.2 82.4548 44.2 82.4536 44.2 82.4523C44.2 82.4511 44.2 82.4498 44.2 82.4486C44.2 82.4474 44.2 82.4461 44.2 82.4449C44.2 82.4436 44.2 82.4424 44.2 82.4411C44.2 82.4399 44.2 82.4386 44.2 82.4374C44.2 82.4362 44.2 82.4349 44.2 82.4337C44.2 82.4324 44.2 82.4312 44.2 82.4299C44.2 82.4287 44.2 82.4274 44.2 82.4262C44.2 82.425 44.2 82.4237 44.2 82.4225C44.2 82.4212 44.2 82.42 44.2 82.4187C44.2 82.4175 44.2 82.4162 44.2 82.415C44.2 82.4137 44.2 82.4125 44.2 82.4112C44.2 82.41 44.2 82.4087 44.2 82.4075C44.2 82.4062 44.2 82.405 44.2 82.4037C44.2 82.4025 44.2 82.4012 44.2 82.4H41.2ZM41.2 84.08H38.2C38.2 84.0809 38.2 84.0819 38.2 84.0828C38.2 84.0838 38.2 84.0847 38.2 84.0856C38.2 84.0866 38.2 84.0875 38.2 84.0885C38.2 84.0894 38.2 84.0903 38.2 84.0913C38.2 84.0922 38.2 84.0932 38.2 84.0941C38.2 84.0951 38.2 84.096 38.2 84.097C38.2 84.0979 38.2 84.0989 38.2 84.0998C38.2 84.1008 38.2 84.1017 38.2 84.1027C38.2 84.1036 38.2 84.1046 38.2 84.1055C38.2 84.1065 38.2 84.1074 38.2 84.1084C38.2 84.1094 38.2 84.1103 38.2 84.1113C38.2 84.1122 38.2 84.1132 38.2 84.1142C38.2 84.1151 38.2 84.1161 38.2 84.117C38.2 84.118 38.2 84.1189 38.2 84.1199C38.2 84.1209 38.2 84.1218 38.2 84.1228C38.2 84.1238 38.2 84.1247 38.2 84.1257C38.2 84.1267 38.2 84.1276 38.2 84.1286C38.2 84.1296 38.2 84.1305 38.2 84.1315C38.2 84.1325 38.2 84.1335 38.2 84.1344C38.2 84.1354 38.2 84.1364 38.2 84.1373C38.2 84.1383 38.2 84.1393 38.2 84.1403C38.2 84.1413 38.2 84.1422 38.2 84.1432C38.2 84.1442 38.2 84.1452 38.2 84.1461C38.2 84.1471 38.2 84.1481 38.2 84.1491C38.2 84.1501 38.2 84.151 38.2 84.152C38.2 84.153 38.2 84.154 38.2 84.155C38.2 84.156 38.2 84.157 38.2 84.1579C38.2 84.1589 38.2 84.1599 38.2 84.1609C38.2 84.1619 38.2 84.1629 38.2 84.1639C38.2 84.1649 38.2 84.1658 38.2 84.1668C38.2 84.1678 38.2 84.1688 38.2 84.1698C38.2 84.1708 38.2 84.1718 38.2 84.1728C38.2 84.1738 38.2 84.1748 38.2 84.1758C38.2 84.1768 38.2 84.1778 38.2 84.1788C38.2 84.1798 38.2 84.1808 38.2 84.1818C38.2 84.1828 38.2 84.1838 38.2 84.1848C38.2 84.1858 38.2 84.1868 38.2 84.1878C38.2 84.1888 38.2 84.1898 38.2 84.1908C38.2 84.1918 38.2 84.1929 38.2 84.1939C38.2 84.1949 38.2 84.1959 38.2 84.1969C38.2 84.1979 38.2 84.1989 38.2 84.1999C38.2 84.2009 38.2 84.202 38.2 84.203C38.2 84.204 38.2 84.205 38.2 84.206C38.2 84.207 38.2 84.2081 38.2 84.2091C38.2 84.2101 38.2 84.2111 38.2 84.2121C38.2 84.2132 38.2 84.2142 38.2 84.2152C38.2 84.2162 38.2 84.2172 38.2 84.2182C38.2 84.2193 38.2 84.2203 38.2 84.2213C38.2 84.2224 38.2 84.2234 38.2 84.2244C38.2 84.2254 38.2 84.2265 38.2 84.2275C38.2 84.2285 38.2 84.2296 38.2 84.2306C38.2 84.2316 38.2 84.2326 38.2 84.2337C38.2 84.2347 38.2 84.2357 38.2 84.2368C38.2 84.2378 38.2 84.2388 38.2 84.2399C38.2 84.2409 38.2 84.242 38.2 84.243C38.2 84.244 38.2 84.2451 38.2 84.2461C38.2 84.2471 38.2 84.2482 38.2 84.2492C38.2 84.2503 38.2 84.2513 38.2 84.2524C38.2 84.2534 38.2 84.2545 38.2 84.2555C38.2 84.2565 38.2 84.2576 38.2 84.2586C38.2 84.2597 38.2 84.2607 38.2 84.2618C38.2 84.2628 38.2 84.2639 38.2 84.2649C38.2 84.266 38.2 84.267 38.2 84.2681C38.2 84.2691 38.2 84.2702 38.2 84.2713C38.2 84.2723 38.2 84.2734 38.2 84.2744C38.2 84.2755 38.2 84.2765 38.2 84.2776C38.2 84.2786 38.2 84.2797 38.2 84.2808C38.2 84.2818 38.2 84.2829 38.2 84.284C38.2 84.285 38.2 84.2861 38.2 84.2871C38.2 84.2882 38.2 84.2893 38.2 84.2903C38.2 84.2914 38.2 84.2925 38.2 84.2935C38.2 84.2946 38.2 84.2957 38.2 84.2967C38.2 84.2978 38.2 84.2989 38.2 84.2999C38.2 84.301 38.2 84.3021 38.2 84.3032C38.2 84.3042 38.2 84.3053 38.2 84.3064C38.2 84.3075 38.2 84.3085 38.2 84.3096C38.2 84.3107 38.2 84.3118 38.2 84.3129C38.2 84.3139 38.2 84.315 38.2 84.3161C38.2 84.3172 38.2 84.3183 38.2 84.3193C38.2 84.3204 38.2 84.3215 38.2 84.3226C38.2 84.3237 38.2 84.3248 38.2 84.3258C38.2 84.3269 38.2 84.328 38.2 84.3291C38.2 84.3302 38.2 84.3313 38.2 84.3324C38.2 84.3335 38.2 84.3345 38.2 84.3356C38.2 84.3367 38.2 84.3378 38.2 84.3389C38.2 84.34 38.2 84.3411 38.2 84.3422C38.2 84.3433 38.2 84.3444 38.2 84.3455C38.2 84.3466 38.2 84.3477 38.2 84.3488C38.2 84.3499 38.2 84.351 38.2 84.3521C38.2 84.3532 38.2 84.3543 38.2 84.3554C38.2 84.3565 38.2 84.3576 38.2 84.3587C38.2 84.3598 38.2 84.3609 38.2 84.362C38.2 84.3631 38.2 84.3642 38.2 84.3653C38.2 84.3664 38.2 84.3675 38.2 84.3686C38.2 84.3698 38.2 84.3709 38.2 84.372C38.2 84.3731 38.2 84.3742 38.2 84.3753C38.2 84.3764 38.2 84.3775 38.2 84.3786C38.2 84.3798 38.2 84.3809 38.2 84.382C38.2 84.3831 38.2 84.3842 38.2 84.3854C38.2 84.3865 38.2 84.3876 38.2 84.3887C38.2 84.3898 38.2 84.391 38.2 84.3921C38.2 84.3932 38.2 84.3943 38.2 84.3954C38.2 84.3966 38.2 84.3977 38.2 84.3988C38.2 84.3999 38.2 84.4011 38.2 84.4022C38.2 84.4033 38.2 84.4045 38.2 84.4056C38.2 84.4067 38.2 84.4079 38.2 84.409C38.2 84.4101 38.2 84.4113 38.2 84.4124C38.2 84.4135 38.2 84.4146 38.2 84.4158C38.2 84.4169 38.2 84.4181 38.2 84.4192C38.2 84.4203 38.2 84.4215 38.2 84.4226C38.2 84.4238 38.2 84.4249 38.2 84.426C38.2 84.4272 38.2 84.4283 38.2 84.4295C38.2 84.4306 38.2 84.4317 38.2 84.4329C38.2 84.434 38.2 84.4352 38.2 84.4363C38.2 84.4375 38.2 84.4386 38.2 84.4398C38.2 84.4409 38.2 84.4421 38.2 84.4432C38.2 84.4444 38.2 84.4455 38.2 84.4467C38.2 84.4478 38.2 84.449 38.2 84.4501C38.2 84.4513 38.2 84.4524 38.2 84.4536C38.2 84.4547 38.2 84.4559 38.2 84.457C38.2 84.4582 38.2 84.4594 38.2 84.4605C38.2 84.4617 38.2 84.4628 38.2 84.464C38.2 84.4652 38.2 84.4663 38.2 84.4675C38.2 84.4687 38.2 84.4698 38.2 84.471C38.2 84.4721 38.2 84.4733 38.2 84.4745C38.2 84.4756 38.2 84.4768 38.2 84.478C38.2 84.4791 38.2 84.4803 38.2 84.4815C38.2 84.4827 38.2 84.4838 38.2 84.485C38.2 84.4862 38.2 84.4874 38.2 84.4885C38.2 84.4897 38.2 84.4909 38.2 84.492C38.2 84.4932 38.2 84.4944 38.2 84.4956C38.2 84.4967 38.2 84.4979 38.2 84.4991C38.2 84.5003 38.2 84.5015 38.2 84.5026C38.2 84.5038 38.2 84.505 38.2 84.5062C38.2 84.5074 38.2 84.5086 38.2 84.5097C38.2 84.5109 38.2 84.5121 38.2 84.5133C38.2 84.5145 38.2 84.5157 38.2 84.5169C38.2 84.5181 38.2 84.5192 38.2 84.5204C38.2 84.5216 38.2 84.5228 38.2 84.524C38.2 84.5252 38.2 84.5264 38.2 84.5276C38.2 84.5288 38.2 84.53 38.2 84.5312C38.2 84.5324 38.2 84.5336 38.2 84.5348C38.2 84.5359 38.2 84.5372 38.2 84.5383C38.2 84.5396 38.2 84.5408 38.2 84.5419C38.2 84.5432 38.2 84.5444 38.2 84.5456C38.2 84.5468 38.2 84.548 38.2 84.5492C38.2 84.5504 38.2 84.5516 38.2 84.5528C38.2 84.554 38.2 84.5552 38.2 84.5564C38.2 84.5576 38.2 84.5588 38.2 84.56C38.2 84.5612 38.2 84.5625 38.2 84.5637C38.2 84.5649 38.2 84.5661 38.2 84.5673C38.2 84.5685 38.2 84.5697 38.2 84.571C38.2 84.5722 38.2 84.5734 38.2 84.5746C38.2 84.5758 38.2 84.577 38.2 84.5783C38.2 84.5795 38.2 84.5807 38.2 84.5819C38.2 84.5831 38.2 84.5844 38.2 84.5856C38.2 84.5868 38.2 84.588 38.2 84.5893C38.2 84.5905 38.2 84.5917 38.2 84.5929C38.2 84.5942 38.2 84.5954 38.2 84.5966C38.2 84.5979 38.2 84.5991 38.2 84.6003C38.2 84.6015 38.2 84.6028 38.2 84.604C38.2 84.6052 38.2 84.6065 38.2 84.6077C38.2 84.6089 38.2 84.6102 38.2 84.6114C38.2 84.6126 38.2 84.6139 38.2 84.6151C38.2 84.6164 38.2 84.6176 38.2 84.6188C38.2 84.6201 38.2 84.6213 38.2 84.6226C38.2 84.6238 38.2 84.625 38.2 84.6263C38.2 84.6275 38.2 84.6288 38.2 84.63C38.2 84.6313 38.2 84.6325 38.2 84.6338C38.2 84.635 38.2 84.6362 38.2 84.6375C38.2 84.6387 38.2 84.64 38.2 84.6413C38.2 84.6425 38.2 84.6438 38.2 84.645C38.2 84.6463 38.2 84.6475 38.2 84.6488C38.2 84.65 38.2 84.6513 38.2 84.6525C38.2 84.6538 38.2 84.655 38.2 84.6563C38.2 84.6576 38.2 84.6588 38.2 84.6601C38.2 84.6613 38.2 84.6626 38.2 84.6639C38.2 84.6651 38.2 84.6664 38.2 84.6676C38.2 84.6689 38.2 84.6702 38.2 84.6714C38.2 84.6727 38.2 84.674 38.2 84.6752C38.2 84.6765 38.2 84.6778 38.2 84.679C38.2 84.6803 38.2 84.6816 38.2 84.6828C38.2 84.6841 38.2 84.6854 38.2 84.6867C38.2 84.6879 38.2 84.6892 38.2 84.6905C38.2 84.6918 38.2 84.693 38.2 84.6943C38.2 84.6956 38.2 84.6969 38.2 84.6982C38.2 84.6994 38.2 84.7007 38.2 84.702C38.2 84.7033 38.2 84.7045 38.2 84.7058C38.2 84.7071 38.2 84.7084 38.2 84.7097C38.2 84.711 38.2 84.7122 38.2 84.7135C38.2 84.7148 38.2 84.7161 38.2 84.7174C38.2 84.7187 38.2 84.72 38.2 84.7213C38.2 84.7225 38.2 84.7238 38.2 84.7251C38.2 84.7264 38.2 84.7277 38.2 84.729C38.2 84.7303 38.2 84.7316 38.2 84.7329C38.2 84.7342 38.2 84.7355 38.2 84.7368C38.2 84.7381 38.2 84.7393 38.2 84.7406C38.2 84.7419 38.2 84.7433 38.2 84.7446C38.2 84.7458 38.2 84.7471 38.2 84.7485C38.2 84.7498 38.2 84.7511 38.2 84.7524C38.2 84.7537 38.2 84.755 38.2 84.7563C38.2 84.7576 38.2 84.7589 38.2 84.7602C38.2 84.7615 38.2 84.7628 38.2 84.7641C38.2 84.7654 38.2 84.7667 38.2 84.7681C38.2 84.7694 38.2 84.7707 38.2 84.772C38.2 84.7733 38.2 84.7746 38.2 84.7759C38.2 84.7772 38.2 84.7786 38.2 84.7799C38.2 84.7812 38.2 84.7825 38.2 84.7838C38.2 84.7851 38.2 84.7865 38.2 84.7878C38.2 84.7891 38.2 84.7904 38.2 84.7917C38.2 84.7931 38.2 84.7944 38.2 84.7957C38.2 84.797 38.2 84.7984 38.2 84.7997C38.2 84.801 38.2 84.8023 38.2 84.8037C38.2 84.805 38.2 84.8063 38.2 84.8077C38.2 84.809 38.2 84.8103 38.2 84.8116C38.2 84.813 38.2 84.8143 38.2 84.8156C38.2 84.817 38.2 84.8183 38.2 84.8196C38.2 84.821 38.2 84.8223 38.2 84.8237C38.2 84.825 38.2 84.8263 38.2 84.8277C38.2 84.829 38.2 84.8303 38.2 84.8317C38.2 84.833 38.2 84.8344 38.2 84.8357C38.2 84.8371 38.2 84.8384 38.2 84.8397C38.2 84.8411 38.2 84.8424 38.2 84.8438C38.2 84.8451 38.2 84.8465 38.2 84.8478C38.2 84.8492 38.2 84.8505 38.2 84.8519C38.2 84.8532 38.2 84.8546 38.2 84.8559C38.2 84.8573 38.2 84.8586 38.2 84.86C38.2 84.8613 38.2 84.8627 38.2 84.864C38.2 84.8654 38.2 84.8667 38.2 84.8681C38.2 84.8694 38.2 84.8708 38.2 84.8722C38.2 84.8735 38.2 84.8749 38.2 84.8763C38.2 84.8776 38.2 84.879 38.2 84.8803C38.2 84.8817 38.2 84.8831 38.2 84.8844C38.2 84.8858 38.2 84.8871 38.2 84.8885C38.2 84.8899 38.2 84.8913 38.2 84.8926C38.2 84.894 38.2 84.8954 38.2 84.8967C38.2 84.8981 38.2 84.8995 38.2 84.9008C38.2 84.9022 38.2 84.9036 38.2 84.905C38.2 84.9063 38.2 84.9077 38.2 84.9091C38.2 84.9104 38.2 84.9118 38.2 84.9132C38.2 84.9146 38.2 84.916 38.2 84.9173C38.2 84.9187 38.2 84.9201 38.2 84.9215C38.2 84.9229 38.2 84.9242 38.2 84.9256C38.2 84.927 38.2 84.9284 38.2 84.9298C38.2 84.9312 38.2 84.9325 38.2 84.9339C38.2 84.9353 38.2 84.9367 38.2 84.9381C38.2 84.9395 38.2 84.9409 38.2 84.9422C38.2 84.9436 38.2 84.945 38.2 84.9464C38.2 84.9478 38.2 84.9492 38.2 84.9506C38.2 84.952 38.2 84.9534 38.2 84.9548C38.2 84.9562 38.2 84.9576 38.2 84.959C38.2 84.9604 38.2 84.9618 38.2 84.9632C38.2 84.9646 38.2 84.966 38.2 84.9674C38.2 84.9688 38.2 84.9702 38.2 84.9716C38.2 84.973 38.2 84.9744 38.2 84.9758C38.2 84.9772 38.2 84.9786 38.2 84.98C38.2 84.9814 38.2 84.9828 38.2 84.9842C38.2 84.9856 38.2 84.987 38.2 84.9884C38.2 84.9899 38.2 84.9913 38.2 84.9927C38.2 84.9941 38.2 84.9955 38.2 84.9969C38.2 84.9983 38.2 84.9997 38.2 85.0012C38.2 85.0026 38.2 85.004 38.2 85.0054C38.2 85.0068 38.2 85.0082 38.2 85.0097C38.2 85.0111 38.2 85.0125 38.2 85.0139C38.2 85.0154 38.2 85.0168 38.2 85.0182C38.2 85.0196 38.2 85.021 38.2 85.0225C38.2 85.0239 38.2 85.0253 38.2 85.0267C38.2 85.0282 38.2 85.0296 38.2 85.031C38.2 85.0324 38.2 85.0339 38.2 85.0353C38.2 85.0367 38.2 85.0382 38.2 85.0396C38.2 85.041 38.2 85.0425 38.2 85.0439C38.2 85.0453 38.2 85.0468 38.2 85.0482C38.2 85.0496 38.2 85.0511 38.2 85.0525C38.2 85.054 38.2 85.0554 38.2 85.0568C38.2 85.0583 38.2 85.0597 38.2 85.0611C38.2 85.0626 38.2 85.064 38.2 85.0655C38.2 85.0669 38.2 85.0684 38.2 85.0698C38.2 85.0712 38.2 85.0727 38.2 85.0741C38.2 85.0756 38.2 85.077 38.2 85.0785C38.2 85.0799 38.2 85.0814 38.2 85.0828C38.2 85.0843 38.2 85.0857 38.2 85.0872C38.2 85.0886 38.2 85.0901 38.2 85.0915C38.2 85.093 38.2 85.0945 38.2 85.0959C38.2 85.0974 38.2 85.0988 38.2 85.1003C38.2 85.1017 38.2 85.1032 38.2 85.1046C38.2 85.1061 38.2 85.1076 38.2 85.109C38.2 85.1105 38.2 85.112 38.2 85.1134C38.2 85.1149 38.2 85.1163 38.2 85.1178C38.2 85.1193 38.2 85.1207 38.2 85.1222C38.2 85.1237 38.2 85.1251 38.2 85.1266C38.2 85.1281 38.2 85.1295 38.2 85.131C38.2 85.1325 38.2 85.134 38.2 85.1354C38.2 85.1369 38.2 85.1384 38.2 85.1398C38.2 85.1413 38.2 85.1428 38.2 85.1443C38.2 85.1458 38.2 85.1472 38.2 85.1487C38.2 85.1502 38.2 85.1517 38.2 85.1531C38.2 85.1546 38.2 85.1561 38.2 85.1576C38.2 85.1591 38.2 85.1606 38.2 85.162C38.2 85.1635 38.2 85.165 38.2 85.1665C38.2 85.168 38.2 85.1694 38.2 85.1709C38.2 85.1724 38.2 85.1739 38.2 85.1754C38.2 85.1769 38.2 85.1784 38.2 85.1799C38.2 85.1814 38.2 85.1829 38.2 85.1843C38.2 85.1858 38.2 85.1873 38.2 85.1888C38.2 85.1903 38.2 85.1918 38.2 85.1933C38.2 85.1948 38.2 85.1963 38.2 85.1978C38.2 85.1993 38.2 85.2008 38.2 85.2023C38.2 85.2038 38.2 85.2053 38.2 85.2068C38.2 85.2083 38.2 85.2098 38.2 85.2113C38.2 85.2128 38.2 85.2143 38.2 85.2158C38.2 85.2173 38.2 85.2188 38.2 85.2203C38.2 85.2218 38.2 85.2234 38.2 85.2249C38.2 85.2264 38.2 85.2279 38.2 85.2294C38.2 85.2309 38.2 85.2324 38.2 85.2339C38.2 85.2354 38.2 85.237 38.2 85.2385C38.2 85.24 38.2 85.2415 38.2 85.243C38.2 85.2445 38.2 85.246 38.2 85.2476C38.2 85.2491 38.2 85.2506 38.2 85.2521C38.2 85.2536 38.2 85.2552 38.2 85.2567C38.2 85.2582 38.2 85.2597 38.2 85.2612C38.2 85.2628 38.2 85.2643 38.2 85.2658C38.2 85.2673 38.2 85.2689 38.2 85.2704C38.2 85.2719 38.2 85.2735 38.2 85.275C38.2 85.2765 38.2 85.278 38.2 85.2796C38.2 85.2811 38.2 85.2826 38.2 85.2842C38.2 85.2857 38.2 85.2872 38.2 85.2888C38.2 85.2903 38.2 85.2918 38.2 85.2934C38.2 85.2949 38.2 85.2964 38.2 85.298C38.2 85.2995 38.2 85.3011 38.2 85.3026C38.2 85.3041 38.2 85.3057 38.2 85.3072C38.2 85.3088 38.2 85.3103 38.2 85.3119C38.2 85.3134 38.2 85.3149 38.2 85.3165C38.2 85.318 38.2 85.3196 38.2 85.3211C38.2 85.3227 38.2 85.3242 38.2 85.3258C38.2 85.3273 38.2 85.3289 38.2 85.3304C38.2 85.332 38.2 85.3335 38.2 85.3351C38.2 85.3366 38.2 85.3382 38.2 85.3397C38.2 85.3413 38.2 85.3428 38.2 85.3444C38.2 85.346 38.2 85.3475 38.2 85.3491C38.2 85.3506 38.2 85.3522 38.2 85.3538C38.2 85.3553 38.2 85.3569 38.2 85.3584C38.2 85.36 38.2 85.3616 38.2 85.3631C38.2 85.3647 38.2 85.3663 38.2 85.3678C38.2 85.3694 38.2 85.371 38.2 85.3725C38.2 85.3741 38.2 85.3757 38.2 85.3772C38.2 85.3788 38.2 85.3804 38.2 85.3819C38.2 85.3835 38.2 85.3851 38.2 85.3866C38.2 85.3882 38.2 85.3898 38.2 85.3914C38.2 85.3929 38.2 85.3945 38.2 85.3961C38.2 85.3977 38.2 85.3992 38.2 85.4008C38.2 85.4024 38.2 85.404 38.2 85.4056C38.2 85.4072 38.2 85.4087 38.2 85.4103C38.2 85.4119 38.2 85.4135 38.2 85.4151C38.2 85.4166 38.2 85.4182 38.2 85.4198C38.2 85.4214 38.2 85.423 38.2 85.4246C38.2 85.4262 38.2 85.4277 38.2 85.4293C38.2 85.4309 38.2 85.4325 38.2 85.4341C38.2 85.4357 38.2 85.4373 38.2 85.4389C38.2 85.4405 38.2 85.4421 38.2 85.4437C38.2 85.4453 38.2 85.4469 38.2 85.4485C38.2 85.4501 38.2 85.4516 38.2 85.4532C38.2 85.4548 38.2 85.4565 38.2 85.4581C38.2 85.4596 38.2 85.4612 38.2 85.4628C38.2 85.4644 38.2 85.466 38.2 85.4677C38.2 85.4693 38.2 85.4709 38.2 85.4725C38.2 85.4741 38.2 85.4757 38.2 85.4773C38.2 85.4789 38.2 85.4805 38.2 85.4821C38.2 85.4837 38.2 85.4853 38.2 85.487C38.2 85.4886 38.2 85.4902 38.2 85.4918C38.2 85.4934 38.2 85.495 38.2 85.4966C38.2 85.4982 38.2 85.4999 38.2 85.5015C38.2 85.5031 38.2 85.5047 38.2 85.5063C38.2 85.5079 38.2 85.5096 38.2 85.5112C38.2 85.5128 38.2 85.5144 38.2 85.5161C38.2 85.5177 38.2 85.5193 38.2 85.5209C38.2 85.5226 38.2 85.5242 38.2 85.5258C38.2 85.5274 38.2 85.5291 38.2 85.5307C38.2 85.5323 38.2 85.5339 38.2 85.5356C38.2 85.5372 38.2 85.5388 38.2 85.5405C38.2 85.5421 38.2 85.5437 38.2 85.5453C38.2 85.547 38.2 85.5486 38.2 85.5503C38.2 85.5519 38.2 85.5535 38.2 85.5552C38.2 85.5568 38.2 85.5584 38.2 85.5601C38.2 85.5617 38.2 85.5634 38.2 85.565C38.2 85.5666 38.2 85.5683 38.2 85.5699C38.2 85.5716 38.2 85.5732 38.2 85.5749C38.2 85.5765 38.2 85.5781 38.2 85.5798C38.2 85.5814 38.2 85.5831 38.2 85.5847C38.2 85.5864 38.2 85.588 38.2 85.5897C38.2 85.5913 38.2 85.593 38.2 85.5946C38.2 85.5963 38.2 85.5979 38.2 85.5996C38.2 85.6012 38.2 85.6029 38.2 85.6046C38.2 85.6062 38.2 85.6079 38.2 85.6095C38.2 85.6112 38.2 85.6128 38.2 85.6145C38.2 85.6161 38.2 85.6178 38.2 85.6195C38.2 85.6211 38.2 85.6228 38.2 85.6245C38.2 85.6261 38.2 85.6278 38.2 85.6294C38.2 85.6311 38.2 85.6328 38.2 85.6344C38.2 85.6361 38.2 85.6378 38.2 85.6395C38.2 85.6411 38.2 85.6428 38.2 85.6445C38.2 85.6461 38.2 85.6478 38.2 85.6495C38.2 85.6511 38.2 85.6528 38.2 85.6545C38.2 85.6562 38.2 85.6578 38.2 85.6595C38.2 85.6612 38.2 85.6629 38.2 85.6645C38.2 85.6662 38.2 85.6679 38.2 85.6696C38.2 85.6712 38.2 85.6729 38.2 85.6746C38.2 85.6763 38.2 85.678 38.2 85.6797C38.2 85.6813 38.2 85.683 38.2 85.6847C38.2 85.6864 38.2 85.6881 38.2 85.6898C38.2 85.6915 38.2 85.6931 38.2 85.6948C38.2 85.6965 38.2 85.6982 38.2 85.6999C38.2 85.7016 38.2 85.7033 38.2 85.705C38.2 85.7066 38.2 85.7083 38.2 85.71C38.2 85.7117 38.2 85.7134 38.2 85.7151C38.2 85.7168 38.2 85.7185 38.2 85.7202C38.2 85.7219 38.2 85.7236 38.2 85.7253C38.2 85.727 38.2 85.7287 38.2 85.7304C38.2 85.7321 38.2 85.7338 38.2 85.7355C38.2 85.7372 38.2 85.7389 38.2 85.7406C38.2 85.7423 38.2 85.744 38.2 85.7457C38.2 85.7475 38.2 85.7492 38.2 85.7509C38.2 85.7526 38.2 85.7543 38.2 85.756C38.2 85.7577 38.2 85.7594 38.2 85.7611C38.2 85.7628 38.2 85.7646 38.2 85.7663C38.2 85.768 38.2 85.7697 38.2 85.7714C38.2 85.7731 38.2 85.7748 38.2 85.7766C38.2 85.7783 38.2 85.78 38.2 85.7817C38.2 85.7834 38.2 85.7852 38.2 85.7869C38.2 85.7886 38.2 85.7903 38.2 85.792C38.2 85.7938 38.2 85.7955 38.2 85.7972C38.2 85.7989 38.2 85.8007 38.2 85.8024C38.2 85.8041 38.2 85.8058 38.2 85.8076C38.2 85.8093 38.2 85.811 38.2 85.8128C38.2 85.8145 38.2 85.8162 38.2 85.818C38.2 85.8197 38.2 85.8214 38.2 85.8232C38.2 85.8249 38.2 85.8266 38.2 85.8284C38.2 85.8301 38.2 85.8318 38.2 85.8336C38.2 85.8353 38.2 85.8371 38.2 85.8388C38.2 85.8405 38.2 85.8423 38.2 85.844C38.2 85.8457 38.2 85.8475 38.2 85.8492C38.2 85.851 38.2 85.8527 38.2 85.8545C38.2 85.8562 38.2 85.858 38.2 85.8597C38.2 85.8615 38.2 85.8632 38.2 85.8649C38.2 85.8667 38.2 85.8685 38.2 85.8702C38.2 85.8719 38.2 85.8737 38.2 85.8755C38.2 85.8772 38.2 85.879 38.2 85.8807C38.2 85.8825 38.2 85.8842 38.2 85.886C38.2 85.8877 38.2 85.8895 38.2 85.8913C38.2 85.893 38.2 85.8948 38.2 85.8965C38.2 85.8983 38.2 85.9 38.2 85.9018C38.2 85.9036 38.2 85.9053 38.2 85.9071C38.2 85.9089 38.2 85.9106 38.2 85.9124C38.2 85.9142 38.2 85.9159 38.2 85.9177C38.2 85.9194 38.2 85.9212 38.2 85.923C38.2 85.9248 38.2 85.9265 38.2 85.9283C38.2 85.9301 38.2 85.9318 38.2 85.9336C38.2 85.9354 38.2 85.9372 38.2 85.9389C38.2 85.9407 38.2 85.9425 38.2 85.9443C38.2 85.946 38.2 85.9478 38.2 85.9496C38.2 85.9514 38.2 85.9531 38.2 85.9549C38.2 85.9567 38.2 85.9585 38.2 85.9603C38.2 85.9621 38.2 85.9638 38.2 85.9656C38.2 85.9674 38.2 85.9692 38.2 85.971C38.2 85.9727 38.2 85.9745 38.2 85.9763C38.2 85.9781 38.2 85.9799 38.2 85.9817C38.2 85.9835 38.2 85.9853 38.2 85.9871C38.2 85.9888 38.2 85.9906 38.2 85.9924C38.2 85.9942 38.2 85.996 38.2 85.9978C38.2 85.9996 38.2 86.0014 38.2 86.0032C38.2 86.005 38.2 86.0068 38.2 86.0086C38.2 86.0104 38.2 86.0122 38.2 86.014C38.2 86.0158 38.2 86.0176 38.2 86.0194C38.2 86.0212 38.2 86.023 38.2 86.0248C38.2 86.0266 38.2 86.0284 38.2 86.0302C38.2 86.032 38.2 86.0338 38.2 86.0356C38.2 86.0374 38.2 86.0392 38.2 86.0411C38.2 86.0429 38.2 86.0447 38.2 86.0465C38.2 86.0483 38.2 86.0501 38.2 86.0519C38.2 86.0537 38.2 86.0556 38.2 86.0574C38.2 86.0592 38.2 86.061 38.2 86.0628C38.2 86.0646 38.2 86.0665 38.2 86.0683C38.2 86.0701 38.2 86.0719 38.2 86.0737C38.2 86.0755 38.2 86.0774 38.2 86.0792C38.2 86.081 38.2 86.0828 38.2 86.0847C38.2 86.0865 38.2 86.0883 38.2 86.0901C38.2 86.0919 38.2 86.0938 38.2 86.0956C38.2 86.0974 38.2 86.0993 38.2 86.1011C38.2 86.1029 38.2 86.1048 38.2 86.1066C38.2 86.1084 38.2 86.1102 38.2 86.1121C38.2 86.1139 38.2 86.1157 38.2 86.1176C38.2 86.1194 38.2 86.1212 38.2 86.1231C38.2 86.1249 38.2 86.1268 38.2 86.1286C38.2 86.1304 38.2 86.1323 38.2 86.1341C38.2 86.136 38.2 86.1378 38.2 86.1396C38.2 86.1415 38.2 86.1433 38.2 86.1452C38.2 86.147 38.2 86.1488 38.2 86.1507C38.2 86.1525 38.2 86.1544 38.2 86.1562C38.2 86.1581 38.2 86.1599 38.2 86.1618C38.2 86.1636 38.2 86.1655 38.2 86.1673C38.2 86.1692 38.2 86.171 38.2 86.1729C38.2 86.1747 38.2 86.1766 38.2 86.1785C38.2 86.1803 38.2 86.1822 38.2 86.184C38.2 86.1859 38.2 86.1877 38.2 86.1896C38.2 86.1915 38.2 86.1933 38.2 86.1952C38.2 86.197 38.2 86.1989 38.2 86.2008C38.2 86.2026 38.2 86.2045 38.2 86.2063C38.2 86.2082 38.2 86.2101 38.2 86.2119C38.2 86.2138 38.2 86.2157 38.2 86.2175C38.2 86.2194 38.2 86.2213 38.2 86.2231C38.2 86.225 38.2 86.2269 38.2 86.2288C38.2 86.2306 38.2 86.2325 38.2 86.2344C38.2 86.2363 38.2 86.2381 38.2 86.24H41.2H44.2C44.2 86.2381 44.2 86.2363 44.2 86.2344C44.2 86.2325 44.2 86.2306 44.2 86.2288C44.2 86.2269 44.2 86.225 44.2 86.2231C44.2 86.2213 44.2 86.2194 44.2 86.2175C44.2 86.2157 44.2 86.2138 44.2 86.2119C44.2 86.2101 44.2 86.2082 44.2 86.2063C44.2 86.2045 44.2 86.2026 44.2 86.2008C44.2 86.1989 44.2 86.197 44.2 86.1952C44.2 86.1933 44.2 86.1915 44.2 86.1896C44.2 86.1877 44.2 86.1859 44.2 86.184C44.2 86.1822 44.2 86.1803 44.2 86.1785C44.2 86.1766 44.2 86.1747 44.2 86.1729C44.2 86.171 44.2 86.1692 44.2 86.1673C44.2 86.1655 44.2 86.1636 44.2 86.1618C44.2 86.1599 44.2 86.1581 44.2 86.1562C44.2 86.1544 44.2 86.1525 44.2 86.1507C44.2 86.1488 44.2 86.147 44.2 86.1452C44.2 86.1433 44.2 86.1415 44.2 86.1396C44.2 86.1378 44.2 86.136 44.2 86.1341C44.2 86.1323 44.2 86.1304 44.2 86.1286C44.2 86.1268 44.2 86.1249 44.2 86.1231C44.2 86.1212 44.2 86.1194 44.2 86.1176C44.2 86.1157 44.2 86.1139 44.2 86.1121C44.2 86.1102 44.2 86.1084 44.2 86.1066C44.2 86.1048 44.2 86.1029 44.2 86.1011C44.2 86.0993 44.2 86.0974 44.2 86.0956C44.2 86.0938 44.2 86.0919 44.2 86.0901C44.2 86.0883 44.2 86.0865 44.2 86.0847C44.2 86.0828 44.2 86.081 44.2 86.0792C44.2 86.0774 44.2 86.0755 44.2 86.0737C44.2 86.0719 44.2 86.0701 44.2 86.0683C44.2 86.0665 44.2 86.0646 44.2 86.0628C44.2 86.061 44.2 86.0592 44.2 86.0574C44.2 86.0556 44.2 86.0537 44.2 86.0519C44.2 86.0501 44.2 86.0483 44.2 86.0465C44.2 86.0447 44.2 86.0429 44.2 86.0411C44.2 86.0392 44.2 86.0374 44.2 86.0356C44.2 86.0338 44.2 86.032 44.2 86.0302C44.2 86.0284 44.2 86.0266 44.2 86.0248C44.2 86.023 44.2 86.0212 44.2 86.0194C44.2 86.0176 44.2 86.0158 44.2 86.014C44.2 86.0122 44.2 86.0104 44.2 86.0086C44.2 86.0068 44.2 86.005 44.2 86.0032C44.2 86.0014 44.2 85.9996 44.2 85.9978C44.2 85.996 44.2 85.9942 44.2 85.9924C44.2 85.9906 44.2 85.9888 44.2 85.9871C44.2 85.9853 44.2 85.9835 44.2 85.9817C44.2 85.9799 44.2 85.9781 44.2 85.9763C44.2 85.9745 44.2 85.9727 44.2 85.971C44.2 85.9692 44.2 85.9674 44.2 85.9656C44.2 85.9638 44.2 85.9621 44.2 85.9603C44.2 85.9585 44.2 85.9567 44.2 85.9549C44.2 85.9531 44.2 85.9514 44.2 85.9496C44.2 85.9478 44.2 85.946 44.2 85.9443C44.2 85.9425 44.2 85.9407 44.2 85.9389C44.2 85.9372 44.2 85.9354 44.2 85.9336C44.2 85.9318 44.2 85.9301 44.2 85.9283C44.2 85.9265 44.2 85.9248 44.2 85.923C44.2 85.9212 44.2 85.9194 44.2 85.9177C44.2 85.9159 44.2 85.9142 44.2 85.9124C44.2 85.9106 44.2 85.9089 44.2 85.9071C44.2 85.9053 44.2 85.9036 44.2 85.9018C44.2 85.9 44.2 85.8983 44.2 85.8965C44.2 85.8948 44.2 85.893 44.2 85.8913C44.2 85.8895 44.2 85.8877 44.2 85.886C44.2 85.8842 44.2 85.8825 44.2 85.8807C44.2 85.879 44.2 85.8772 44.2 85.8755C44.2 85.8737 44.2 85.8719 44.2 85.8702C44.2 85.8685 44.2 85.8667 44.2 85.8649C44.2 85.8632 44.2 85.8615 44.2 85.8597C44.2 85.858 44.2 85.8562 44.2 85.8545C44.2 85.8527 44.2 85.851 44.2 85.8492C44.2 85.8475 44.2 85.8457 44.2 85.844C44.2 85.8423 44.2 85.8405 44.2 85.8388C44.2 85.8371 44.2 85.8353 44.2 85.8336C44.2 85.8318 44.2 85.8301 44.2 85.8284C44.2 85.8266 44.2 85.8249 44.2 85.8232C44.2 85.8214 44.2 85.8197 44.2 85.818C44.2 85.8162 44.2 85.8145 44.2 85.8128C44.2 85.811 44.2 85.8093 44.2 85.8076C44.2 85.8058 44.2 85.8041 44.2 85.8024C44.2 85.8007 44.2 85.7989 44.2 85.7972C44.2 85.7955 44.2 85.7938 44.2 85.792C44.2 85.7903 44.2 85.7886 44.2 85.7869C44.2 85.7852 44.2 85.7834 44.2 85.7817C44.2 85.78 44.2 85.7783 44.2 85.7766C44.2 85.7748 44.2 85.7731 44.2 85.7714C44.2 85.7697 44.2 85.768 44.2 85.7663C44.2 85.7646 44.2 85.7628 44.2 85.7611C44.2 85.7594 44.2 85.7577 44.2 85.756C44.2 85.7543 44.2 85.7526 44.2 85.7509C44.2 85.7492 44.2 85.7475 44.2 85.7457C44.2 85.744 44.2 85.7423 44.2 85.7406C44.2 85.7389 44.2 85.7372 44.2 85.7355C44.2 85.7338 44.2 85.7321 44.2 85.7304C44.2 85.7287 44.2 85.727 44.2 85.7253C44.2 85.7236 44.2 85.7219 44.2 85.7202C44.2 85.7185 44.2 85.7168 44.2 85.7151C44.2 85.7134 44.2 85.7117 44.2 85.71C44.2 85.7083 44.2 85.7066 44.2 85.705C44.2 85.7033 44.2 85.7016 44.2 85.6999C44.2 85.6982 44.2 85.6965 44.2 85.6948C44.2 85.6931 44.2 85.6915 44.2 85.6898C44.2 85.6881 44.2 85.6864 44.2 85.6847C44.2 85.683 44.2 85.6813 44.2 85.6797C44.2 85.678 44.2 85.6763 44.2 85.6746C44.2 85.6729 44.2 85.6712 44.2 85.6696C44.2 85.6679 44.2 85.6662 44.2 85.6645C44.2 85.6629 44.2 85.6612 44.2 85.6595C44.2 85.6578 44.2 85.6562 44.2 85.6545C44.2 85.6528 44.2 85.6511 44.2 85.6495C44.2 85.6478 44.2 85.6461 44.2 85.6445C44.2 85.6428 44.2 85.6411 44.2 85.6395C44.2 85.6378 44.2 85.6361 44.2 85.6344C44.2 85.6328 44.2 85.6311 44.2 85.6294C44.2 85.6278 44.2 85.6261 44.2 85.6245C44.2 85.6228 44.2 85.6211 44.2 85.6195C44.2 85.6178 44.2 85.6161 44.2 85.6145C44.2 85.6128 44.2 85.6112 44.2 85.6095C44.2 85.6079 44.2 85.6062 44.2 85.6046C44.2 85.6029 44.2 85.6012 44.2 85.5996C44.2 85.5979 44.2 85.5963 44.2 85.5946C44.2 85.593 44.2 85.5913 44.2 85.5897C44.2 85.588 44.2 85.5864 44.2 85.5847C44.2 85.5831 44.2 85.5814 44.2 85.5798C44.2 85.5781 44.2 85.5765 44.2 85.5749C44.2 85.5732 44.2 85.5716 44.2 85.5699C44.2 85.5683 44.2 85.5666 44.2 85.565C44.2 85.5634 44.2 85.5617 44.2 85.5601C44.2 85.5584 44.2 85.5568 44.2 85.5552C44.2 85.5535 44.2 85.5519 44.2 85.5503C44.2 85.5486 44.2 85.547 44.2 85.5453C44.2 85.5437 44.2 85.5421 44.2 85.5405C44.2 85.5388 44.2 85.5372 44.2 85.5356C44.2 85.5339 44.2 85.5323 44.2 85.5307C44.2 85.5291 44.2 85.5274 44.2 85.5258C44.2 85.5242 44.2 85.5226 44.2 85.5209C44.2 85.5193 44.2 85.5177 44.2 85.5161C44.2 85.5144 44.2 85.5128 44.2 85.5112C44.2 85.5096 44.2 85.5079 44.2 85.5063C44.2 85.5047 44.2 85.5031 44.2 85.5015C44.2 85.4999 44.2 85.4982 44.2 85.4966C44.2 85.495 44.2 85.4934 44.2 85.4918C44.2 85.4902 44.2 85.4886 44.2 85.487C44.2 85.4853 44.2 85.4837 44.2 85.4821C44.2 85.4805 44.2 85.4789 44.2 85.4773C44.2 85.4757 44.2 85.4741 44.2 85.4725C44.2 85.4709 44.2 85.4693 44.2 85.4677C44.2 85.466 44.2 85.4644 44.2 85.4628C44.2 85.4612 44.2 85.4596 44.2 85.4581C44.2 85.4565 44.2 85.4548 44.2 85.4532C44.2 85.4516 44.2 85.4501 44.2 85.4485C44.2 85.4469 44.2 85.4453 44.2 85.4437C44.2 85.4421 44.2 85.4405 44.2 85.4389C44.2 85.4373 44.2 85.4357 44.2 85.4341C44.2 85.4325 44.2 85.4309 44.2 85.4293C44.2 85.4277 44.2 85.4262 44.2 85.4246C44.2 85.423 44.2 85.4214 44.2 85.4198C44.2 85.4182 44.2 85.4166 44.2 85.4151C44.2 85.4135 44.2 85.4119 44.2 85.4103C44.2 85.4087 44.2 85.4072 44.2 85.4056C44.2 85.404 44.2 85.4024 44.2 85.4008C44.2 85.3992 44.2 85.3977 44.2 85.3961C44.2 85.3945 44.2 85.3929 44.2 85.3914C44.2 85.3898 44.2 85.3882 44.2 85.3866C44.2 85.3851 44.2 85.3835 44.2 85.3819C44.2 85.3804 44.2 85.3788 44.2 85.3772C44.2 85.3757 44.2 85.3741 44.2 85.3725C44.2 85.371 44.2 85.3694 44.2 85.3678C44.2 85.3663 44.2 85.3647 44.2 85.3631C44.2 85.3616 44.2 85.36 44.2 85.3584C44.2 85.3569 44.2 85.3553 44.2 85.3538C44.2 85.3522 44.2 85.3506 44.2 85.3491C44.2 85.3475 44.2 85.346 44.2 85.3444C44.2 85.3428 44.2 85.3413 44.2 85.3397C44.2 85.3382 44.2 85.3366 44.2 85.3351C44.2 85.3335 44.2 85.332 44.2 85.3304C44.2 85.3289 44.2 85.3273 44.2 85.3258C44.2 85.3242 44.2 85.3227 44.2 85.3211C44.2 85.3196 44.2 85.318 44.2 85.3165C44.2 85.3149 44.2 85.3134 44.2 85.3119C44.2 85.3103 44.2 85.3088 44.2 85.3072C44.2 85.3057 44.2 85.3041 44.2 85.3026C44.2 85.3011 44.2 85.2995 44.2 85.298C44.2 85.2964 44.2 85.2949 44.2 85.2934C44.2 85.2918 44.2 85.2903 44.2 85.2888C44.2 85.2872 44.2 85.2857 44.2 85.2842C44.2 85.2826 44.2 85.2811 44.2 85.2796C44.2 85.278 44.2 85.2765 44.2 85.275C44.2 85.2735 44.2 85.2719 44.2 85.2704C44.2 85.2689 44.2 85.2673 44.2 85.2658C44.2 85.2643 44.2 85.2628 44.2 85.2612C44.2 85.2597 44.2 85.2582 44.2 85.2567C44.2 85.2552 44.2 85.2536 44.2 85.2521C44.2 85.2506 44.2 85.2491 44.2 85.2476C44.2 85.246 44.2 85.2445 44.2 85.243C44.2 85.2415 44.2 85.24 44.2 85.2385C44.2 85.237 44.2 85.2354 44.2 85.2339C44.2 85.2324 44.2 85.2309 44.2 85.2294C44.2 85.2279 44.2 85.2264 44.2 85.2249C44.2 85.2234 44.2 85.2218 44.2 85.2203C44.2 85.2188 44.2 85.2173 44.2 85.2158C44.2 85.2143 44.2 85.2128 44.2 85.2113C44.2 85.2098 44.2 85.2083 44.2 85.2068C44.2 85.2053 44.2 85.2038 44.2 85.2023C44.2 85.2008 44.2 85.1993 44.2 85.1978C44.2 85.1963 44.2 85.1948 44.2 85.1933C44.2 85.1918 44.2 85.1903 44.2 85.1888C44.2 85.1873 44.2 85.1858 44.2 85.1843C44.2 85.1829 44.2 85.1814 44.2 85.1799C44.2 85.1784 44.2 85.1769 44.2 85.1754C44.2 85.1739 44.2 85.1724 44.2 85.1709C44.2 85.1694 44.2 85.168 44.2 85.1665C44.2 85.165 44.2 85.1635 44.2 85.162C44.2 85.1606 44.2 85.1591 44.2 85.1576C44.2 85.1561 44.2 85.1546 44.2 85.1531C44.2 85.1517 44.2 85.1502 44.2 85.1487C44.2 85.1472 44.2 85.1458 44.2 85.1443C44.2 85.1428 44.2 85.1413 44.2 85.1398C44.2 85.1384 44.2 85.1369 44.2 85.1354C44.2 85.134 44.2 85.1325 44.2 85.131C44.2 85.1295 44.2 85.1281 44.2 85.1266C44.2 85.1251 44.2 85.1237 44.2 85.1222C44.2 85.1207 44.2 85.1193 44.2 85.1178C44.2 85.1163 44.2 85.1149 44.2 85.1134C44.2 85.112 44.2 85.1105 44.2 85.109C44.2 85.1076 44.2 85.1061 44.2 85.1046C44.2 85.1032 44.2 85.1017 44.2 85.1003C44.2 85.0988 44.2 85.0974 44.2 85.0959C44.2 85.0945 44.2 85.093 44.2 85.0915C44.2 85.0901 44.2 85.0886 44.2 85.0872C44.2 85.0857 44.2 85.0843 44.2 85.0828C44.2 85.0814 44.2 85.0799 44.2 85.0785C44.2 85.077 44.2 85.0756 44.2 85.0741C44.2 85.0727 44.2 85.0712 44.2 85.0698C44.2 85.0684 44.2 85.0669 44.2 85.0655C44.2 85.064 44.2 85.0626 44.2 85.0611C44.2 85.0597 44.2 85.0583 44.2 85.0568C44.2 85.0554 44.2 85.054 44.2 85.0525C44.2 85.0511 44.2 85.0496 44.2 85.0482C44.2 85.0468 44.2 85.0453 44.2 85.0439C44.2 85.0425 44.2 85.041 44.2 85.0396C44.2 85.0382 44.2 85.0367 44.2 85.0353C44.2 85.0339 44.2 85.0324 44.2 85.031C44.2 85.0296 44.2 85.0282 44.2 85.0267C44.2 85.0253 44.2 85.0239 44.2 85.0225C44.2 85.021 44.2 85.0196 44.2 85.0182C44.2 85.0168 44.2 85.0154 44.2 85.0139C44.2 85.0125 44.2 85.0111 44.2 85.0097C44.2 85.0082 44.2 85.0068 44.2 85.0054C44.2 85.004 44.2 85.0026 44.2 85.0012C44.2 84.9997 44.2 84.9983 44.2 84.9969C44.2 84.9955 44.2 84.9941 44.2 84.9927C44.2 84.9913 44.2 84.9899 44.2 84.9884C44.2 84.987 44.2 84.9856 44.2 84.9842C44.2 84.9828 44.2 84.9814 44.2 84.98C44.2 84.9786 44.2 84.9772 44.2 84.9758C44.2 84.9744 44.2 84.973 44.2 84.9716C44.2 84.9702 44.2 84.9688 44.2 84.9674C44.2 84.966 44.2 84.9646 44.2 84.9632C44.2 84.9618 44.2 84.9604 44.2 84.959C44.2 84.9576 44.2 84.9562 44.2 84.9548C44.2 84.9534 44.2 84.952 44.2 84.9506C44.2 84.9492 44.2 84.9478 44.2 84.9464C44.2 84.945 44.2 84.9436 44.2 84.9422C44.2 84.9409 44.2 84.9395 44.2 84.9381C44.2 84.9367 44.2 84.9353 44.2 84.9339C44.2 84.9325 44.2 84.9312 44.2 84.9298C44.2 84.9284 44.2 84.927 44.2 84.9256C44.2 84.9242 44.2 84.9229 44.2 84.9215C44.2 84.9201 44.2 84.9187 44.2 84.9173C44.2 84.916 44.2 84.9146 44.2 84.9132C44.2 84.9118 44.2 84.9104 44.2 84.9091C44.2 84.9077 44.2 84.9063 44.2 84.905C44.2 84.9036 44.2 84.9022 44.2 84.9008C44.2 84.8995 44.2 84.8981 44.2 84.8967C44.2 84.8954 44.2 84.894 44.2 84.8926C44.2 84.8913 44.2 84.8899 44.2 84.8885C44.2 84.8871 44.2 84.8858 44.2 84.8844C44.2 84.8831 44.2 84.8817 44.2 84.8803C44.2 84.879 44.2 84.8776 44.2 84.8763C44.2 84.8749 44.2 84.8735 44.2 84.8722C44.2 84.8708 44.2 84.8694 44.2 84.8681C44.2 84.8667 44.2 84.8654 44.2 84.864C44.2 84.8627 44.2 84.8613 44.2 84.86C44.2 84.8586 44.2 84.8573 44.2 84.8559C44.2 84.8546 44.2 84.8532 44.2 84.8519C44.2 84.8505 44.2 84.8492 44.2 84.8478C44.2 84.8465 44.2 84.8451 44.2 84.8438C44.2 84.8424 44.2 84.8411 44.2 84.8397C44.2 84.8384 44.2 84.8371 44.2 84.8357C44.2 84.8344 44.2 84.833 44.2 84.8317C44.2 84.8303 44.2 84.829 44.2 84.8277C44.2 84.8263 44.2 84.825 44.2 84.8237C44.2 84.8223 44.2 84.821 44.2 84.8196C44.2 84.8183 44.2 84.817 44.2 84.8156C44.2 84.8143 44.2 84.813 44.2 84.8116C44.2 84.8103 44.2 84.809 44.2 84.8077C44.2 84.8063 44.2 84.805 44.2 84.8037C44.2 84.8023 44.2 84.801 44.2 84.7997C44.2 84.7984 44.2 84.797 44.2 84.7957C44.2 84.7944 44.2 84.7931 44.2 84.7917C44.2 84.7904 44.2 84.7891 44.2 84.7878C44.2 84.7865 44.2 84.7851 44.2 84.7838C44.2 84.7825 44.2 84.7812 44.2 84.7799C44.2 84.7786 44.2 84.7772 44.2 84.7759C44.2 84.7746 44.2 84.7733 44.2 84.772C44.2 84.7707 44.2 84.7694 44.2 84.7681C44.2 84.7667 44.2 84.7654 44.2 84.7641C44.2 84.7628 44.2 84.7615 44.2 84.7602C44.2 84.7589 44.2 84.7576 44.2 84.7563C44.2 84.755 44.2 84.7537 44.2 84.7524C44.2 84.7511 44.2 84.7498 44.2 84.7485C44.2 84.7471 44.2 84.7458 44.2 84.7446C44.2 84.7433 44.2 84.7419 44.2 84.7406C44.2 84.7393 44.2 84.7381 44.2 84.7368C44.2 84.7355 44.2 84.7342 44.2 84.7329C44.2 84.7316 44.2 84.7303 44.2 84.729C44.2 84.7277 44.2 84.7264 44.2 84.7251C44.2 84.7238 44.2 84.7225 44.2 84.7213C44.2 84.72 44.2 84.7187 44.2 84.7174C44.2 84.7161 44.2 84.7148 44.2 84.7135C44.2 84.7122 44.2 84.711 44.2 84.7097C44.2 84.7084 44.2 84.7071 44.2 84.7058C44.2 84.7045 44.2 84.7033 44.2 84.702C44.2 84.7007 44.2 84.6994 44.2 84.6982C44.2 84.6969 44.2 84.6956 44.2 84.6943C44.2 84.693 44.2 84.6918 44.2 84.6905C44.2 84.6892 44.2 84.6879 44.2 84.6867C44.2 84.6854 44.2 84.6841 44.2 84.6828C44.2 84.6816 44.2 84.6803 44.2 84.679C44.2 84.6778 44.2 84.6765 44.2 84.6752C44.2 84.674 44.2 84.6727 44.2 84.6714C44.2 84.6702 44.2 84.6689 44.2 84.6676C44.2 84.6664 44.2 84.6651 44.2 84.6639C44.2 84.6626 44.2 84.6613 44.2 84.6601C44.2 84.6588 44.2 84.6576 44.2 84.6563C44.2 84.655 44.2 84.6538 44.2 84.6525C44.2 84.6513 44.2 84.65 44.2 84.6488C44.2 84.6475 44.2 84.6463 44.2 84.645C44.2 84.6438 44.2 84.6425 44.2 84.6413C44.2 84.64 44.2 84.6387 44.2 84.6375C44.2 84.6362 44.2 84.635 44.2 84.6338C44.2 84.6325 44.2 84.6313 44.2 84.63C44.2 84.6288 44.2 84.6275 44.2 84.6263C44.2 84.625 44.2 84.6238 44.2 84.6226C44.2 84.6213 44.2 84.6201 44.2 84.6188C44.2 84.6176 44.2 84.6164 44.2 84.6151C44.2 84.6139 44.2 84.6126 44.2 84.6114C44.2 84.6102 44.2 84.6089 44.2 84.6077C44.2 84.6065 44.2 84.6052 44.2 84.604C44.2 84.6028 44.2 84.6015 44.2 84.6003C44.2 84.5991 44.2 84.5979 44.2 84.5966C44.2 84.5954 44.2 84.5942 44.2 84.5929C44.2 84.5917 44.2 84.5905 44.2 84.5893C44.2 84.588 44.2 84.5868 44.2 84.5856C44.2 84.5844 44.2 84.5831 44.2 84.5819C44.2 84.5807 44.2 84.5795 44.2 84.5783C44.2 84.577 44.2 84.5758 44.2 84.5746C44.2 84.5734 44.2 84.5722 44.2 84.571C44.2 84.5697 44.2 84.5685 44.2 84.5673C44.2 84.5661 44.2 84.5649 44.2 84.5637C44.2 84.5625 44.2 84.5612 44.2 84.56C44.2 84.5588 44.2 84.5576 44.2 84.5564C44.2 84.5552 44.2 84.554 44.2 84.5528C44.2 84.5516 44.2 84.5504 44.2 84.5492C44.2 84.548 44.2 84.5468 44.2 84.5456C44.2 84.5444 44.2 84.5432 44.2 84.5419C44.2 84.5408 44.2 84.5396 44.2 84.5383C44.2 84.5372 44.2 84.5359 44.2 84.5348C44.2 84.5336 44.2 84.5324 44.2 84.5312C44.2 84.53 44.2 84.5288 44.2 84.5276C44.2 84.5264 44.2 84.5252 44.2 84.524C44.2 84.5228 44.2 84.5216 44.2 84.5204C44.2 84.5192 44.2 84.5181 44.2 84.5169C44.2 84.5157 44.2 84.5145 44.2 84.5133C44.2 84.5121 44.2 84.5109 44.2 84.5097C44.2 84.5086 44.2 84.5074 44.2 84.5062C44.2 84.505 44.2 84.5038 44.2 84.5026C44.2 84.5015 44.2 84.5003 44.2 84.4991C44.2 84.4979 44.2 84.4967 44.2 84.4956C44.2 84.4944 44.2 84.4932 44.2 84.492C44.2 84.4909 44.2 84.4897 44.2 84.4885C44.2 84.4874 44.2 84.4862 44.2 84.485C44.2 84.4838 44.2 84.4827 44.2 84.4815C44.2 84.4803 44.2 84.4791 44.2 84.478C44.2 84.4768 44.2 84.4756 44.2 84.4745C44.2 84.4733 44.2 84.4721 44.2 84.471C44.2 84.4698 44.2 84.4687 44.2 84.4675C44.2 84.4663 44.2 84.4652 44.2 84.464C44.2 84.4628 44.2 84.4617 44.2 84.4605C44.2 84.4594 44.2 84.4582 44.2 84.457C44.2 84.4559 44.2 84.4547 44.2 84.4536C44.2 84.4524 44.2 84.4513 44.2 84.4501C44.2 84.449 44.2 84.4478 44.2 84.4467C44.2 84.4455 44.2 84.4444 44.2 84.4432C44.2 84.4421 44.2 84.4409 44.2 84.4398C44.2 84.4386 44.2 84.4375 44.2 84.4363C44.2 84.4352 44.2 84.434 44.2 84.4329C44.2 84.4317 44.2 84.4306 44.2 84.4295C44.2 84.4283 44.2 84.4272 44.2 84.426C44.2 84.4249 44.2 84.4238 44.2 84.4226C44.2 84.4215 44.2 84.4203 44.2 84.4192C44.2 84.4181 44.2 84.4169 44.2 84.4158C44.2 84.4146 44.2 84.4135 44.2 84.4124C44.2 84.4113 44.2 84.4101 44.2 84.409C44.2 84.4079 44.2 84.4067 44.2 84.4056C44.2 84.4045 44.2 84.4033 44.2 84.4022C44.2 84.4011 44.2 84.3999 44.2 84.3988C44.2 84.3977 44.2 84.3966 44.2 84.3954C44.2 84.3943 44.2 84.3932 44.2 84.3921C44.2 84.391 44.2 84.3898 44.2 84.3887C44.2 84.3876 44.2 84.3865 44.2 84.3854C44.2 84.3842 44.2 84.3831 44.2 84.382C44.2 84.3809 44.2 84.3798 44.2 84.3786C44.2 84.3775 44.2 84.3764 44.2 84.3753C44.2 84.3742 44.2 84.3731 44.2 84.372C44.2 84.3709 44.2 84.3698 44.2 84.3686C44.2 84.3675 44.2 84.3664 44.2 84.3653C44.2 84.3642 44.2 84.3631 44.2 84.362C44.2 84.3609 44.2 84.3598 44.2 84.3587C44.2 84.3576 44.2 84.3565 44.2 84.3554C44.2 84.3543 44.2 84.3532 44.2 84.3521C44.2 84.351 44.2 84.3499 44.2 84.3488C44.2 84.3477 44.2 84.3466 44.2 84.3455C44.2 84.3444 44.2 84.3433 44.2 84.3422C44.2 84.3411 44.2 84.34 44.2 84.3389C44.2 84.3378 44.2 84.3367 44.2 84.3356C44.2 84.3345 44.2 84.3335 44.2 84.3324C44.2 84.3313 44.2 84.3302 44.2 84.3291C44.2 84.328 44.2 84.3269 44.2 84.3258C44.2 84.3248 44.2 84.3237 44.2 84.3226C44.2 84.3215 44.2 84.3204 44.2 84.3193C44.2 84.3183 44.2 84.3172 44.2 84.3161C44.2 84.315 44.2 84.3139 44.2 84.3129C44.2 84.3118 44.2 84.3107 44.2 84.3096C44.2 84.3085 44.2 84.3075 44.2 84.3064C44.2 84.3053 44.2 84.3042 44.2 84.3032C44.2 84.3021 44.2 84.301 44.2 84.2999C44.2 84.2989 44.2 84.2978 44.2 84.2967C44.2 84.2957 44.2 84.2946 44.2 84.2935C44.2 84.2925 44.2 84.2914 44.2 84.2903C44.2 84.2893 44.2 84.2882 44.2 84.2871C44.2 84.2861 44.2 84.285 44.2 84.284C44.2 84.2829 44.2 84.2818 44.2 84.2808C44.2 84.2797 44.2 84.2786 44.2 84.2776C44.2 84.2765 44.2 84.2755 44.2 84.2744C44.2 84.2734 44.2 84.2723 44.2 84.2713C44.2 84.2702 44.2 84.2691 44.2 84.2681C44.2 84.267 44.2 84.266 44.2 84.2649C44.2 84.2639 44.2 84.2628 44.2 84.2618C44.2 84.2607 44.2 84.2597 44.2 84.2586C44.2 84.2576 44.2 84.2565 44.2 84.2555C44.2 84.2545 44.2 84.2534 44.2 84.2524C44.2 84.2513 44.2 84.2503 44.2 84.2492C44.2 84.2482 44.2 84.2471 44.2 84.2461C44.2 84.2451 44.2 84.244 44.2 84.243C44.2 84.242 44.2 84.2409 44.2 84.2399C44.2 84.2388 44.2 84.2378 44.2 84.2368C44.2 84.2357 44.2 84.2347 44.2 84.2337C44.2 84.2326 44.2 84.2316 44.2 84.2306C44.2 84.2296 44.2 84.2285 44.2 84.2275C44.2 84.2265 44.2 84.2254 44.2 84.2244C44.2 84.2234 44.2 84.2224 44.2 84.2213C44.2 84.2203 44.2 84.2193 44.2 84.2182C44.2 84.2172 44.2 84.2162 44.2 84.2152C44.2 84.2142 44.2 84.2132 44.2 84.2121C44.2 84.2111 44.2 84.2101 44.2 84.2091C44.2 84.2081 44.2 84.207 44.2 84.206C44.2 84.205 44.2 84.204 44.2 84.203C44.2 84.202 44.2 84.2009 44.2 84.1999C44.2 84.1989 44.2 84.1979 44.2 84.1969C44.2 84.1959 44.2 84.1949 44.2 84.1939C44.2 84.1929 44.2 84.1918 44.2 84.1908C44.2 84.1898 44.2 84.1888 44.2 84.1878C44.2 84.1868 44.2 84.1858 44.2 84.1848C44.2 84.1838 44.2 84.1828 44.2 84.1818C44.2 84.1808 44.2 84.1798 44.2 84.1788C44.2 84.1778 44.2 84.1768 44.2 84.1758C44.2 84.1748 44.2 84.1738 44.2 84.1728C44.2 84.1718 44.2 84.1708 44.2 84.1698C44.2 84.1688 44.2 84.1678 44.2 84.1668C44.2 84.1658 44.2 84.1649 44.2 84.1639C44.2 84.1629 44.2 84.1619 44.2 84.1609C44.2 84.1599 44.2 84.1589 44.2 84.1579C44.2 84.157 44.2 84.156 44.2 84.155C44.2 84.154 44.2 84.153 44.2 84.152C44.2 84.151 44.2 84.1501 44.2 84.1491C44.2 84.1481 44.2 84.1471 44.2 84.1461C44.2 84.1452 44.2 84.1442 44.2 84.1432C44.2 84.1422 44.2 84.1413 44.2 84.1403C44.2 84.1393 44.2 84.1383 44.2 84.1373C44.2 84.1364 44.2 84.1354 44.2 84.1344C44.2 84.1335 44.2 84.1325 44.2 84.1315C44.2 84.1305 44.2 84.1296 44.2 84.1286C44.2 84.1276 44.2 84.1267 44.2 84.1257C44.2 84.1247 44.2 84.1238 44.2 84.1228C44.2 84.1218 44.2 84.1209 44.2 84.1199C44.2 84.1189 44.2 84.118 44.2 84.117C44.2 84.1161 44.2 84.1151 44.2 84.1142C44.2 84.1132 44.2 84.1122 44.2 84.1113C44.2 84.1103 44.2 84.1094 44.2 84.1084C44.2 84.1074 44.2 84.1065 44.2 84.1055C44.2 84.1046 44.2 84.1036 44.2 84.1027C44.2 84.1017 44.2 84.1008 44.2 84.0998C44.2 84.0989 44.2 84.0979 44.2 84.097C44.2 84.096 44.2 84.0951 44.2 84.0941C44.2 84.0932 44.2 84.0922 44.2 84.0913C44.2 84.0903 44.2 84.0894 44.2 84.0885C44.2 84.0875 44.2 84.0866 44.2 84.0856C44.2 84.0847 44.2 84.0838 44.2 84.0828C44.2 84.0819 44.2 84.0809 44.2 84.08H41.2ZM41.2 86.24L38.354 87.1887L38.834 88.6287L41.68 87.68L44.5261 86.7313L44.0461 85.2913L41.2 86.24ZM41.68 87.68L44.4966 88.7128C46.0723 84.4155 48.6414 80.768 52.2496 77.7371L50.32 75.44L48.3904 73.1429C43.9986 76.832 40.8077 81.3445 38.8634 86.6472L41.68 87.68ZM50.32 75.44L52.2496 77.7371C55.9373 74.6394 60.1434 72.3483 64.8948 70.8634L64 68L63.1052 65.1366C57.6166 66.8517 52.7027 69.5206 48.3904 73.1429L50.32 75.44ZM64 68L64.9752 70.8371C69.8101 69.1751 74.5209 68.36 79.12 68.36V65.36V62.36C73.7991 62.36 68.4299 63.3049 63.0248 65.1629L64 68ZM79.12 65.36V68.36C88.1437 68.36 96.0563 70.1923 102.932 73.7798L104.32 71.12L105.708 68.4602C97.8637 64.3677 88.9763 62.36 79.12 62.36V65.36ZM104.32 71.12L102.956 73.7918C109.978 77.3778 115.478 82.5082 119.508 89.2235L122.08 87.68L124.652 86.1365C120.042 78.4518 113.702 72.5422 105.684 68.4482L104.32 71.12ZM122.08 87.68L119.523 89.249C123.495 95.7226 125.56 103.712 125.56 113.36H128.56H131.56C131.56 102.848 129.305 93.7173 124.637 86.1109L122.08 87.68ZM128.56 113.36H125.56C125.56 123.788 123.264 132.675 118.788 140.137L121.36 141.68L123.932 143.223C129.056 134.685 131.56 124.692 131.56 113.36H128.56ZM121.36 141.68L118.801 140.114C114.318 147.436 107.963 153.14 99.638 157.227L100.96 159.92L102.282 162.613C111.557 158.06 118.802 151.604 123.919 143.246L121.36 141.68ZM100.96 159.92L99.6184 157.237C91.4732 161.309 81.7904 163.4 70.48 163.4V166.4V169.4C82.5296 169.4 93.1668 167.171 102.302 162.603L100.96 159.92ZM70.48 166.4V163.4C57.6745 163.4 46.5441 160.474 36.9895 154.711L35.44 157.28L33.8905 159.849C44.4959 166.246 56.7255 169.4 70.48 169.4V166.4ZM35.44 157.28L36.9895 154.711C27.4711 148.97 20.009 140.486 14.632 129.117L11.92 130.4L9.20804 131.683C15.031 143.994 23.2489 153.43 33.8905 159.849L35.44 157.28ZM11.92 130.4L14.6385 129.131C9.2729 117.634 6.52 103.374 6.52 86.24H3.52H0.52C0.52 103.986 3.3671 119.166 9.20145 131.669L11.92 130.4ZM3.52 86.24H6.52C6.52 67.8222 9.51406 52.793 15.3302 41.0076L12.64 39.68L9.94977 38.3523C3.60594 51.207 0.52 67.2178 0.52 86.24H3.52ZM12.64 39.68L15.3302 41.0076C21.1855 29.1431 29.0391 20.5085 38.8441 14.9272L37.36 12.32L35.8759 9.7128C24.8809 15.9715 16.2545 25.5769 9.94977 38.3523L12.64 39.68ZM37.36 12.32L38.8741 14.9099C48.78 9.11876 59.9304 6.2 72.4 6.2V3.2V0.199997C58.9496 0.199997 46.74 3.36123 35.8459 9.7301L37.36 12.32ZM69.76 93.2V90.2C65.3038 90.2 61.1985 91.185 57.5142 93.2113L58.96 95.84L60.4058 98.4686C63.1215 96.975 66.2162 96.2 69.76 96.2V93.2ZM58.96 95.84L57.6184 93.1567C53.8854 95.0232 50.9078 97.8294 48.7075 101.497L51.28 103.04L53.8525 104.583C55.4922 101.851 57.6346 99.8568 60.3016 98.5233L58.96 95.84ZM51.28 103.04L48.7075 101.497C46.4662 105.232 45.4 109.543 45.4 114.32H48.4H51.4C51.4 110.457 52.2539 107.248 53.8525 104.583L51.28 103.04ZM48.4 114.32H45.4C45.4 118.96 46.4766 123.185 48.7075 126.903L51.28 125.36L53.8525 123.817C52.2435 121.135 51.4 118 51.4 114.32H48.4ZM51.28 125.36L48.7075 126.903C50.8943 130.548 53.8388 133.407 57.5143 135.429L58.96 132.8L60.4058 130.171C57.6812 128.673 55.5057 126.572 53.8525 123.817L51.28 125.36ZM58.96 132.8L57.568 135.457C61.363 137.445 65.4414 138.44 69.76 138.44V135.44V132.44C66.3986 132.44 63.277 131.675 60.352 130.143L58.96 132.8ZM69.76 135.44V138.44C77.0336 138.44 83.088 136.435 87.4813 132.041L85.36 129.92L83.2387 127.799C80.272 130.765 75.9265 132.44 69.76 132.44V135.44ZM85.36 129.92L87.4813 132.041C91.8747 127.648 93.88 121.594 93.88 114.32H90.88H87.88C87.88 120.486 86.2053 124.832 83.2387 127.799L85.36 129.92ZM90.88 114.32H93.88C93.88 109.455 92.9241 105.143 90.8363 101.537L88.24 103.04L85.6437 104.543C87.0759 107.017 87.88 110.225 87.88 114.32H90.88ZM88.24 103.04L90.9233 101.698C89.033 97.9178 86.1622 95.047 82.3816 93.1567L81.04 95.84L79.6984 98.5233C82.3178 99.833 84.247 101.762 85.5567 104.382L88.24 103.04ZM81.04 95.84L82.5431 93.2437C78.9369 91.1559 74.6251 90.2 69.76 90.2V93.2V96.2C73.8549 96.2 77.0631 97.0041 79.5369 98.4363L81.04 95.84Z" fill="white" mask="url(#path-1-outside-1_57_1725)"/>
</svg>
