<svg width="135" height="165" viewBox="0 0 135 165" fill="none" xmlns="http://www.w3.org/2000/svg">
<mask id="path-1-outside-1_57_1731" maskUnits="userSpaceOnUse" x="0" y="0" width="135" height="165" fill="black">
<rect fill="white" width="135" height="165"/>
<path d="M3.92 3.59999H131.36V32.88C118.56 45.68 108.48 58.96 101.12 72.72C93.76 86.48 88.56 100.8 85.52 115.68C82.64 130.4 81.2 145.84 81.2 162H40.4C40.4 135.6 45.28 111.28 55.04 89.04C64.8 66.64 80.56 45.36 102.32 25.2L110.96 36H3.92V3.59999Z"/>
</mask>
<path d="M3.92 3.59999H131.36V32.88C118.56 45.68 108.48 58.96 101.12 72.72C93.76 86.48 88.56 100.8 85.52 115.68C82.64 130.4 81.2 145.84 81.2 162H40.4C40.4 135.6 45.28 111.28 55.04 89.04C64.8 66.64 80.56 45.36 102.32 25.2L110.96 36H3.92V3.59999Z" fill="black"/>
<path d="M3.92 3.59999V0.599995H0.92V3.59999H3.92ZM131.36 3.59999H134.36V0.599995H131.36V3.59999ZM131.36 32.88L133.481 35.0013L134.36 34.1226V32.88H131.36ZM101.12 72.72L103.765 74.1349L101.12 72.72ZM85.52 115.68L82.5807 115.079L82.5782 115.092L82.5758 115.104L85.52 115.68ZM81.2 162V165H84.2V162H81.2ZM40.4 162H37.4V165H40.4V162ZM55.04 89.04L57.7871 90.2456L57.7903 90.2383L55.04 89.04ZM102.32 25.2L104.663 23.3259L102.647 20.807L100.281 22.9993L102.32 25.2ZM110.96 36V39H117.202L113.303 34.1259L110.96 36ZM3.92 36H0.92V39H3.92V36ZM3.92 3.59999V6.59999H131.36V3.59999V0.599995H3.92V3.59999ZM131.36 3.59999H128.36V32.88H131.36H134.36V3.59999H131.36ZM131.36 32.88L129.239 30.7587C116.263 43.7346 105.994 57.2474 98.4747 71.305L101.12 72.72L103.765 74.1349C110.966 60.6726 120.857 47.6254 133.481 35.0013L131.36 32.88ZM101.12 72.72L98.4747 71.305C90.9816 85.3138 85.6804 99.9075 82.5807 115.079L85.52 115.68L88.4593 116.281C91.4396 101.693 96.5384 87.6462 103.765 74.1349L101.12 72.72ZM85.52 115.68L82.5758 115.104C79.656 130.028 78.2 145.661 78.2 162H81.2H84.2C84.2 146.019 85.624 130.772 88.4642 116.256L85.52 115.68ZM81.2 162V159H40.4V162V165H81.2V162ZM40.4 162H43.4C43.4 135.979 48.208 112.073 57.7871 90.2456L55.04 89.04L52.2929 87.8344C42.3521 110.487 37.4 135.221 37.4 162H40.4ZM55.04 89.04L57.7903 90.2383C67.3534 68.2901 82.8391 47.3381 104.359 27.4007L102.32 25.2L100.281 22.9993C78.2809 43.3818 62.2466 64.9899 52.2897 87.8417L55.04 89.04ZM102.32 25.2L99.9774 27.0741L108.617 37.8741L110.96 36L113.303 34.1259L104.663 23.3259L102.32 25.2ZM110.96 36V33H3.92V36V39H110.96V36ZM3.92 36H6.92V3.59999H3.92H0.92V36H3.92Z" fill="white" mask="url(#path-1-outside-1_57_1731)"/>
</svg>
