<svg width="133" height="170" viewBox="0 0 133 170" fill="none" xmlns="http://www.w3.org/2000/svg">
<mask id="path-1-outside-1_67_3870" maskUnits="userSpaceOnUse" x="0" y="0" width="133" height="170" fill="black">
<rect fill="white" width="133" height="170"/>
<path d="M66.68 3.67999C84.12 3.67999 98.12 7.59999 108.68 15.44C119.24 23.12 124.52 33.68 124.52 47.12C124.52 55.44 122.52 62.72 118.52 68.96C114.52 75.04 108.52 79.68 100.52 82.88V83.12C109.8 86.16 117 90.88 122.12 97.28C127.24 103.52 129.8 111.36 129.8 120.8C129.8 130.08 127.24 138.16 122.12 145.04C117.16 151.76 109.96 157.04 100.52 160.88C91.08 164.56 79.8 166.4 66.68 166.4C53.72 166.4 42.52 164.56 33.08 160.88C23.8 157.04 16.6 151.76 11.48 145.04C6.36 138.16 3.8 130.08 3.8 120.8C3.8 111.36 6.36 103.52 11.48 97.28C16.6 90.88 23.8 86.16 33.08 83.12V82.88C25.24 79.84 19.24 75.28 15.08 69.2C10.92 62.96 8.84 55.6 8.84 47.12C8.84 38.16 11.24 30.48 16.04 24.08C21 17.52 27.8 12.48 36.44 8.95999C45.08 5.43999 55.16 3.67999 66.68 3.67999ZM66.68 33.68C60.6 33.68 55.8 35.28 52.28 38.48C48.76 41.68 47 46.16 47 51.92C47 57.52 48.76 62 52.28 65.36C55.96 68.56 60.76 70.16 66.68 70.16C72.76 70.16 77.56 68.56 81.08 65.36C84.76 62 86.6 57.52 86.6 51.92C86.6 46.16 84.76 41.68 81.08 38.48C77.56 35.28 72.76 33.68 66.68 33.68ZM66.68 136.4C71.48 136.4 75.56 135.6 78.92 134C82.44 132.4 85.08 130.16 86.84 127.28C88.76 124.24 89.72 120.72 89.72 116.72C89.72 112.56 88.76 109.04 86.84 106.16C85.08 103.12 82.44 100.88 78.92 99.44C75.56 97.84 71.56 97.04 66.92 97.04C62.12 97.04 57.96 97.84 54.44 99.44C51.08 100.88 48.44 103.12 46.52 106.16C44.76 109.04 43.88 112.56 43.88 116.72C43.88 120.72 44.76 124.24 46.52 127.28C48.44 130.16 51.08 132.4 54.44 134C57.96 135.6 62.04 136.4 66.68 136.4Z"/>
</mask>
<path d="M66.68 3.67999C84.12 3.67999 98.12 7.59999 108.68 15.44C119.24 23.12 124.52 33.68 124.52 47.12C124.52 55.44 122.52 62.72 118.52 68.96C114.52 75.04 108.52 79.68 100.52 82.88V83.12C109.8 86.16 117 90.88 122.12 97.28C127.24 103.52 129.8 111.36 129.8 120.8C129.8 130.08 127.24 138.16 122.12 145.04C117.16 151.76 109.96 157.04 100.52 160.88C91.08 164.56 79.8 166.4 66.68 166.4C53.72 166.4 42.52 164.56 33.08 160.88C23.8 157.04 16.6 151.76 11.48 145.04C6.36 138.16 3.8 130.08 3.8 120.8C3.8 111.36 6.36 103.52 11.48 97.28C16.6 90.88 23.8 86.16 33.08 83.12V82.88C25.24 79.84 19.24 75.28 15.08 69.2C10.92 62.96 8.84 55.6 8.84 47.12C8.84 38.16 11.24 30.48 16.04 24.08C21 17.52 27.8 12.48 36.44 8.95999C45.08 5.43999 55.16 3.67999 66.68 3.67999ZM66.68 33.68C60.6 33.68 55.8 35.28 52.28 38.48C48.76 41.68 47 46.16 47 51.92C47 57.52 48.76 62 52.28 65.36C55.96 68.56 60.76 70.16 66.68 70.16C72.76 70.16 77.56 68.56 81.08 65.36C84.76 62 86.6 57.52 86.6 51.92C86.6 46.16 84.76 41.68 81.08 38.48C77.56 35.28 72.76 33.68 66.68 33.68ZM66.68 136.4C71.48 136.4 75.56 135.6 78.92 134C82.44 132.4 85.08 130.16 86.84 127.28C88.76 124.24 89.72 120.72 89.72 116.72C89.72 112.56 88.76 109.04 86.84 106.16C85.08 103.12 82.44 100.88 78.92 99.44C75.56 97.84 71.56 97.04 66.92 97.04C62.12 97.04 57.96 97.84 54.44 99.44C51.08 100.88 48.44 103.12 46.52 106.16C44.76 109.04 43.88 112.56 43.88 116.72C43.88 120.72 44.76 124.24 46.52 127.28C48.44 130.16 51.08 132.4 54.44 134C57.96 135.6 62.04 136.4 66.68 136.4Z" fill="black"/>
<path d="M108.68 15.44L106.892 17.8487L106.904 17.8575L106.915 17.8662L108.68 15.44ZM118.52 68.96L121.026 70.6088L121.036 70.594L121.046 70.579L118.52 68.96ZM100.52 82.88L99.4058 80.0946L97.52 80.8489V82.88H100.52ZM100.52 83.12H97.52V85.2941L99.5861 85.9709L100.52 83.12ZM122.12 97.28L119.777 99.1541L119.789 99.1686L119.801 99.1829L122.12 97.28ZM122.12 145.04L119.713 143.249L119.706 143.258L122.12 145.04ZM100.52 160.88L101.61 163.675L101.63 163.667L101.65 163.659L100.52 160.88ZM33.08 160.88L31.9329 163.652L31.9615 163.664L31.9904 163.675L33.08 160.88ZM11.48 145.04L9.0733 146.831L9.08343 146.845L9.09371 146.858L11.48 145.04ZM11.48 97.28L13.7992 99.1829L13.811 99.1686L13.8226 99.1541L11.48 97.28ZM33.08 83.12L34.0139 85.9709L36.08 85.2941V83.12H33.08ZM33.08 82.88H36.08V80.8256L34.1646 80.0829L33.08 82.88ZM15.08 69.2L12.5839 70.8641L12.5939 70.8791L12.6041 70.8941L15.08 69.2ZM16.04 24.08L13.647 22.2707L13.64 22.28L16.04 24.08ZM52.28 38.48L54.298 40.6998H54.298L52.28 38.48ZM52.28 65.36L50.2086 67.5301L50.2589 67.5781L50.3115 67.6238L52.28 65.36ZM81.08 65.36L83.098 67.5798L83.1028 67.5755L81.08 65.36ZM81.08 38.48L79.062 40.6998L79.0865 40.7221L79.1115 40.7438L81.08 38.48ZM78.92 134L77.6786 131.269L77.6543 131.28L77.6302 131.291L78.92 134ZM86.84 127.28L84.3035 125.678L84.2917 125.697L84.2802 125.716L86.84 127.28ZM86.84 106.16L84.2437 107.663L84.2912 107.745L84.3439 107.824L86.84 106.16ZM78.92 99.44L77.6302 102.149L77.7062 102.185L77.7841 102.217L78.92 99.44ZM54.44 99.44L55.6218 102.197L55.6517 102.185L55.6814 102.171L54.44 99.44ZM46.52 106.16L43.9835 104.558L43.9717 104.577L43.9602 104.596L46.52 106.16ZM46.52 127.28L43.9237 128.783L43.9712 128.865L44.0238 128.944L46.52 127.28ZM54.44 134L53.1502 136.709L53.1743 136.72L53.1986 136.731L54.44 134ZM66.68 3.67999V6.67999C83.6846 6.67999 96.9945 10.5008 106.892 17.8487L108.68 15.44L110.468 13.0313C99.2455 4.69919 84.5554 0.679989 66.68 0.679989V3.67999ZM108.68 15.44L106.915 17.8662C116.673 24.9624 121.52 34.6066 121.52 47.12H124.52H127.52C127.52 32.7534 121.807 21.2776 110.445 13.0138L108.68 15.44ZM124.52 47.12H121.52C121.52 54.9386 119.648 61.6418 115.994 67.341L118.52 68.96L121.046 70.579C125.392 63.7982 127.52 55.9414 127.52 47.12H124.52ZM118.52 68.96L116.014 67.3111C112.409 72.7903 106.944 77.0794 99.4058 80.0946L100.52 82.88L101.634 85.6654C110.096 82.2806 116.631 77.2897 121.026 70.6088L118.52 68.96ZM100.52 82.88H97.52V83.12H100.52H103.52V82.88H100.52ZM100.52 83.12L99.5861 85.9709C108.419 88.8646 115.087 93.2909 119.777 99.1541L122.12 97.28L124.463 95.4059C118.913 88.4691 111.181 83.4554 101.454 80.2691L100.52 83.12ZM122.12 97.28L119.801 99.1829C124.408 104.798 126.8 111.931 126.8 120.8H129.8H132.8C132.8 110.789 130.072 102.242 124.439 95.377L122.12 97.28ZM129.8 120.8H126.8C126.8 129.491 124.416 136.93 119.713 143.249L122.12 145.04L124.527 146.831C130.064 139.39 132.8 130.669 132.8 120.8H129.8ZM122.12 145.04L119.706 143.258C115.14 149.446 108.431 154.423 99.3896 158.101L100.52 160.88L101.65 163.659C111.489 159.657 119.18 154.074 124.534 146.822L122.12 145.04ZM100.52 160.88L99.4304 158.085C90.4234 161.596 79.5319 163.4 66.68 163.4V166.4V169.4C80.0682 169.4 91.7366 167.524 101.61 163.675L100.52 160.88ZM66.68 166.4V163.4C53.9934 163.4 43.1803 161.598 34.1696 158.085L33.08 160.88L31.9904 163.675C41.8597 167.522 53.4467 169.4 66.68 169.4V166.4ZM33.08 160.88L34.2271 158.108C25.3442 154.432 18.6089 149.447 13.8663 143.222L11.48 145.04L9.09371 146.858C14.5911 154.073 22.2558 159.648 31.9329 163.652L33.08 160.88ZM11.48 145.04L13.8867 143.249C9.18414 136.93 6.8 129.491 6.8 120.8H3.8H0.8C0.8 130.669 3.53586 139.39 9.0733 146.831L11.48 145.04ZM3.8 120.8H6.8C6.8 111.931 9.19177 104.798 13.7992 99.1829L11.48 97.28L9.16078 95.377C3.52823 102.242 0.8 110.789 0.8 120.8H3.8ZM11.48 97.28L13.8226 99.1541C18.5131 93.2909 25.1807 88.8646 34.0139 85.9709L33.08 83.12L32.1461 80.2691C22.4193 83.4554 14.6869 88.4691 9.1374 95.4059L11.48 97.28ZM33.08 83.12H36.08V82.88H33.08H30.08V83.12H33.08ZM33.08 82.88L34.1646 80.0829C26.8065 77.2298 21.3273 73.0179 17.5559 67.5059L15.08 69.2L12.6041 70.8941C17.1527 77.542 23.6735 82.4502 31.9954 85.6771L33.08 82.88ZM15.08 69.2L17.5762 67.5359C13.7864 61.8513 11.84 55.0877 11.84 47.12H8.84H5.84C5.84 56.1123 8.05358 64.0687 12.5839 70.8641L15.08 69.2ZM8.84 47.12H11.84C11.84 38.7273 14.0758 31.6989 18.44 25.88L16.04 24.08L13.64 22.28C8.40416 29.2611 5.84 37.5927 5.84 47.12H8.84ZM16.04 24.08L18.433 25.8893C23.0255 19.8153 29.3632 15.0826 37.5719 11.7383L36.44 8.95999L35.3081 6.18172C26.2368 9.87743 18.9745 15.2246 13.647 22.2707L16.04 24.08ZM36.44 8.95999L37.5719 11.7383C45.7789 8.39468 55.4598 6.67999 66.68 6.67999V3.67999V0.679989C54.8602 0.679989 44.3811 2.48531 35.3081 6.18172L36.44 8.95999ZM66.68 33.68V30.68C60.0682 30.68 54.4747 32.4305 50.262 36.2602L52.28 38.48L54.298 40.6998C57.1254 38.1295 61.1318 36.68 66.68 36.68V33.68ZM52.28 38.48L50.262 36.2602C45.9867 40.1468 44 45.5079 44 51.92H47H50C50 46.8121 51.5333 43.2132 54.298 40.6998L52.28 38.48ZM47 51.92H44C44 58.2048 46.0045 63.5171 50.2086 67.5301L52.28 65.36L54.3514 63.1899C51.5155 60.4829 50 56.8352 50 51.92H47ZM52.28 65.36L50.3115 67.6238C54.6482 71.3949 60.1982 73.16 66.68 73.16V70.16V67.16C61.3218 67.16 57.2718 65.7251 54.2485 63.0962L52.28 65.36ZM66.68 70.16V73.16C73.2918 73.16 78.8853 71.4095 83.098 67.5798L81.08 65.36L79.062 63.1402C76.2347 65.7105 72.2282 67.16 66.68 67.16V70.16ZM81.08 65.36L83.1028 67.5755C87.4859 63.5735 89.6 58.2474 89.6 51.92H86.6H83.6C83.6 56.7926 82.0341 60.4265 79.0572 63.1445L81.08 65.36ZM86.6 51.92H89.6C89.6 45.4648 87.504 40.0905 83.0485 36.2162L81.08 38.48L79.1115 40.7438C82.016 43.2695 83.6 46.8552 83.6 51.92H86.6ZM81.08 38.48L83.098 36.2602C78.8854 32.4305 73.2918 30.68 66.68 30.68V33.68V36.68C72.2282 36.68 76.2347 38.1295 79.062 40.6998L81.08 38.48ZM66.68 136.4V139.4C71.8016 139.4 76.3478 138.548 80.2098 136.709L78.92 134L77.6302 131.291C74.7722 132.652 71.1584 133.4 66.68 133.4V136.4ZM78.92 134L80.1614 136.731C84.1457 134.92 87.2831 132.308 89.3999 128.844L86.84 127.28L84.2802 125.716C82.877 128.012 80.7343 129.88 77.6786 131.269L78.92 134ZM86.84 127.28L89.3765 128.882C91.6326 125.31 92.72 121.221 92.72 116.72H89.72H86.72C86.72 120.219 85.8874 123.17 84.3035 125.678L86.84 127.28ZM89.72 116.72H92.72C92.72 112.089 91.6461 107.961 89.3362 104.496L86.84 106.16L84.3439 107.824C85.8739 110.119 86.72 113.031 86.72 116.72H89.72ZM86.84 106.16L89.4363 104.657C87.3156 100.994 84.1361 98.3325 80.0559 96.6634L78.92 99.44L77.7841 102.217C80.7439 103.427 82.8444 105.246 84.2437 107.663L86.84 106.16ZM78.92 99.44L80.2098 96.7314C76.3601 94.8982 71.8989 94.04 66.92 94.04V97.04V100.04C71.2211 100.04 74.7599 100.782 77.6302 102.149L78.92 99.44ZM66.92 97.04V94.04C61.7924 94.04 57.1907 94.8943 53.1986 96.7089L54.44 99.44L55.6814 102.171C58.7293 100.786 62.4477 100.04 66.92 100.04V97.04ZM54.44 99.44L53.2582 96.6826C49.3501 98.3575 46.2335 100.996 43.9835 104.558L46.52 106.16L49.0565 107.762C50.6465 105.244 52.8099 103.403 55.6218 102.197L54.44 99.44ZM46.52 106.16L43.9602 104.596C41.8521 108.045 40.88 112.136 40.88 116.72H43.88H46.88C46.88 112.984 47.6679 110.035 49.0798 107.724L46.52 106.16ZM43.88 116.72H40.88C40.88 121.173 41.8643 125.226 43.9237 128.783L46.52 127.28L49.1163 125.777C47.6557 123.254 46.88 120.267 46.88 116.72H43.88ZM46.52 127.28L44.0238 128.944C46.2669 132.309 49.3393 134.894 53.1502 136.709L54.44 134L55.7298 131.291C52.8207 129.906 50.6131 128.011 49.0162 125.616L46.52 127.28ZM54.44 134L53.1986 136.731C57.1785 138.54 61.696 139.4 66.68 139.4V136.4V133.4C62.384 133.4 58.7415 132.66 55.6814 131.269L54.44 134Z" fill="white" mask="url(#path-1-outside-1_67_3870)"/>
</svg>
