<svg width="131" height="170" viewBox="0 0 131 170" fill="none" xmlns="http://www.w3.org/2000/svg">
<mask id="path-1-outside-1_67_3875" maskUnits="userSpaceOnUse" x="0" y="0" width="131" height="170" fill="black">
<rect fill="white" width="131" height="170"/>
<path d="M62.88 3.2C77.12 3.2 89.04 6.31999 98.64 12.56C108.24 18.64 115.44 27.76 120.24 39.92C125.2 51.92 127.68 66.72 127.68 84.32C127.68 103.36 124.88 118.96 119.28 131.12C113.68 143.28 106 152.24 96.24 158C86.64 163.6 75.52 166.4 62.88 166.4C49.6 166.4 37.92 163.68 27.84 158.24C17.92 152.64 10.56 143.84 5.76 131.84L42.72 117.2C44 122.64 46.32 127.04 49.68 130.4C53.04 133.6 57.68 135.2 63.6 135.2C68.4 135.2 72.48 134.24 75.84 132.32C79.36 130.24 82.24 127.36 84.48 123.68C86.72 119.84 88.32 115.12 89.28 109.52C90.4 103.92 90.96 97.52 90.96 90.32C90.96 89.68 90.96 89.04 90.96 88.4C90.96 87.76 90.96 87.12 90.96 86.48H90.24C88.48 91.28 85.68 95.28 81.84 98.48C78 101.52 73.6 103.76 68.64 105.2C63.68 106.64 58.64 107.36 53.52 107.36C43.92 107.36 35.36 105.36 27.84 101.36C20.32 97.2 14.4 91.44 10.08 84.08C5.92 76.56 3.84 67.84 3.84 57.92C3.84 46.56 6.24 36.8 11.04 28.64C16 20.48 22.88 14.24 31.68 9.92C40.64 5.44 51.04 3.2 62.88 3.2ZM62.88 34.88C56.48 34.88 51.36 36.8 47.52 40.64C43.68 44.48 41.76 49.92 41.76 56.96C41.76 63.36 43.68 68.4 47.52 72.08C51.52 75.6 56.64 77.36 62.88 77.36C67.04 77.36 70.72 76.48 73.92 74.72C77.12 72.96 79.6 70.56 81.36 67.52C83.28 64.32 84.24 60.56 84.24 56.24C84.24 51.76 83.28 48 81.36 44.96C79.6 41.76 77.12 39.28 73.92 37.52C70.72 35.76 67.04 34.88 62.88 34.88Z"/>
</mask>
<path d="M62.88 3.2C77.12 3.2 89.04 6.31999 98.64 12.56C108.24 18.64 115.44 27.76 120.24 39.92C125.2 51.92 127.68 66.72 127.68 84.32C127.68 103.36 124.88 118.96 119.28 131.12C113.68 143.28 106 152.24 96.24 158C86.64 163.6 75.52 166.4 62.88 166.4C49.6 166.4 37.92 163.68 27.84 158.24C17.92 152.64 10.56 143.84 5.76 131.84L42.72 117.2C44 122.64 46.32 127.04 49.68 130.4C53.04 133.6 57.68 135.2 63.6 135.2C68.4 135.2 72.48 134.24 75.84 132.32C79.36 130.24 82.24 127.36 84.48 123.68C86.72 119.84 88.32 115.12 89.28 109.52C90.4 103.92 90.96 97.52 90.96 90.32C90.96 89.68 90.96 89.04 90.96 88.4C90.96 87.76 90.96 87.12 90.96 86.48H90.24C88.48 91.28 85.68 95.28 81.84 98.48C78 101.52 73.6 103.76 68.64 105.2C63.68 106.64 58.64 107.36 53.52 107.36C43.92 107.36 35.36 105.36 27.84 101.36C20.32 97.2 14.4 91.44 10.08 84.08C5.92 76.56 3.84 67.84 3.84 57.92C3.84 46.56 6.24 36.8 11.04 28.64C16 20.48 22.88 14.24 31.68 9.92C40.64 5.44 51.04 3.2 62.88 3.2ZM62.88 34.88C56.48 34.88 51.36 36.8 47.52 40.64C43.68 44.48 41.76 49.92 41.76 56.96C41.76 63.36 43.68 68.4 47.52 72.08C51.52 75.6 56.64 77.36 62.88 77.36C67.04 77.36 70.72 76.48 73.92 74.72C77.12 72.96 79.6 70.56 81.36 67.52C83.28 64.32 84.24 60.56 84.24 56.24C84.24 51.76 83.28 48 81.36 44.96C79.6 41.76 77.12 39.28 73.92 37.52C70.72 35.76 67.04 34.88 62.88 34.88Z" fill="black"/>
<path d="M98.64 12.56L97.005 15.0753L97.0199 15.085L97.0349 15.0944L98.64 12.56ZM120.24 39.92L117.45 41.0215L117.458 41.0438L117.468 41.066L120.24 39.92ZM119.28 131.12L116.555 129.865L119.28 131.12ZM96.24 158L97.7516 160.591L97.7582 160.587L97.7648 160.584L96.24 158ZM27.84 158.24L26.3652 160.852L26.3901 160.867L26.4152 160.88L27.84 158.24ZM5.76 131.84L4.6552 129.051L1.85665 130.159L2.97457 132.954L5.76 131.84ZM42.72 117.2L45.6403 116.513L44.8447 113.132L41.6152 114.411L42.72 117.2ZM49.68 130.4L47.5587 132.521L47.5845 132.547L47.611 132.572L49.68 130.4ZM75.84 132.32L77.3284 134.925L77.3474 134.914L77.3662 134.903L75.84 132.32ZM84.48 123.68L87.0426 125.24L87.0572 125.216L87.0713 125.192L84.48 123.68ZM89.28 109.52L86.3383 108.932L86.3301 108.972L86.3231 109.013L89.28 109.52ZM90.96 86.48H93.96V83.48H90.96V86.48ZM90.24 86.48V83.48H88.1447L87.4234 85.4472L90.24 86.48ZM81.84 98.48L83.7021 100.832L83.7316 100.809L83.7606 100.785L81.84 98.48ZM68.64 105.2L69.4764 108.081L68.64 105.2ZM27.84 101.36L26.3878 103.985L26.4094 103.997L26.4312 104.009L27.84 101.36ZM10.08 84.08L7.4549 85.5322L7.4734 85.5656L7.49275 85.5986L10.08 84.08ZM11.04 28.64L8.47643 27.0817L8.46518 27.1003L8.4542 27.1189L11.04 28.64ZM31.68 9.92L33.002 12.613L33.0118 12.6082L33.0216 12.6033L31.68 9.92ZM47.52 40.64L49.6413 42.7613L47.52 40.64ZM47.52 72.08L45.4443 74.246L45.4903 74.29L45.5381 74.3321L47.52 72.08ZM73.92 74.72L75.3658 77.3486H75.3658L73.92 74.72ZM81.36 67.52L78.7875 65.9765L78.7755 65.9966L78.7637 66.0169L81.36 67.52ZM81.36 44.96L78.7314 46.4058L78.7751 46.4853L78.8235 46.562L81.36 44.96ZM73.92 37.52L72.4742 40.1486H72.4743L73.92 37.52ZM62.88 3.2V6.2C76.6812 6.2 87.9981 9.22083 97.005 15.0753L98.64 12.56L100.275 10.0447C90.0819 3.41916 77.5589 0.199997 62.88 0.199997V3.2ZM98.64 12.56L97.0349 15.0944C106.02 20.7849 112.846 29.3603 117.45 41.0215L120.24 39.92L123.03 38.8185C118.034 26.1597 110.46 16.4951 100.245 10.0255L98.64 12.56ZM120.24 39.92L117.468 41.066C122.234 52.5982 124.68 66.9819 124.68 84.32H127.68H130.68C130.68 66.4581 128.166 51.2418 123.013 38.774L120.24 39.92ZM127.68 84.32H124.68C124.68 103.097 121.914 118.228 116.555 129.865L119.28 131.12L122.005 132.375C127.846 119.692 130.68 103.623 130.68 84.32H127.68ZM119.28 131.12L116.555 129.865C111.163 141.573 103.859 150.02 94.7152 155.416L96.24 158L97.7648 160.584C108.141 154.46 116.197 144.987 122.005 132.375L119.28 131.12ZM96.24 158L94.7284 155.409C85.6474 160.706 75.0631 163.4 62.88 163.4V166.4V169.4C75.9769 169.4 87.6327 166.494 97.7516 160.591L96.24 158ZM62.88 166.4V163.4C50.0177 163.4 38.8419 160.769 29.2648 155.6L27.84 158.24L26.4152 160.88C36.9981 166.591 49.1823 169.4 62.88 169.4V166.4ZM27.84 158.24L29.3148 155.628C20.0687 150.408 13.1278 142.182 8.54543 130.726L5.76 131.84L2.97457 132.954C7.99218 145.498 15.7713 154.872 26.3652 160.852L27.84 158.24ZM5.76 131.84L6.8648 134.629L43.8248 119.989L42.72 117.2L41.6152 114.411L4.6552 129.051L5.76 131.84ZM42.72 117.2L39.7998 117.887C41.1847 123.773 43.7393 128.702 47.5587 132.521L49.68 130.4L51.8013 128.279C48.9007 125.378 46.8153 121.507 45.6403 116.513L42.72 117.2ZM49.68 130.4L47.611 132.572C51.6708 136.439 57.1309 138.2 63.6 138.2V135.2V132.2C58.2291 132.2 54.4092 130.761 51.749 128.228L49.68 130.4ZM63.6 135.2V138.2C68.7979 138.2 73.4183 137.159 77.3284 134.925L75.84 132.32L74.3516 129.715C71.5417 131.321 68.0021 132.2 63.6 132.2V135.2ZM75.84 132.32L77.3662 134.903C81.3333 132.559 84.5606 129.317 87.0426 125.24L84.48 123.68L81.9174 122.12C79.9194 125.403 77.3867 127.921 74.3138 129.737L75.84 132.32ZM84.48 123.68L87.0713 125.192C89.5349 120.968 91.2323 115.887 92.2369 110.027L89.28 109.52L86.3231 109.013C85.4077 114.353 83.9052 118.712 81.8887 122.168L84.48 123.68ZM89.28 109.52L92.2217 110.108C93.389 104.272 93.96 97.669 93.96 90.32H90.96H87.96C87.96 97.371 87.411 103.568 86.3383 108.932L89.28 109.52ZM90.96 90.32H93.96C93.96 90.3187 93.96 90.3175 93.96 90.3163C93.96 90.315 93.96 90.3138 93.96 90.3125C93.96 90.3112 93.96 90.31 93.96 90.3087C93.96 90.3075 93.96 90.3062 93.96 90.305C93.96 90.3037 93.96 90.3025 93.96 90.3013C93.96 90.3 93.96 90.2988 93.96 90.2975C93.96 90.2962 93.96 90.295 93.96 90.2937C93.96 90.2925 93.96 90.2912 93.96 90.29C93.96 90.2887 93.96 90.2875 93.96 90.2862C93.96 90.285 93.96 90.2838 93.96 90.2825C93.96 90.2812 93.96 90.28 93.96 90.2787C93.96 90.2775 93.96 90.2762 93.96 90.275C93.96 90.2737 93.96 90.2725 93.96 90.2712C93.96 90.27 93.96 90.2688 93.96 90.2675C93.96 90.2663 93.96 90.265 93.96 90.2637C93.96 90.2625 93.96 90.2612 93.96 90.26C93.96 90.2587 93.96 90.2575 93.96 90.2562C93.96 90.255 93.96 90.2538 93.96 90.2525C93.96 90.2513 93.96 90.25 93.96 90.2487C93.96 90.2475 93.96 90.2462 93.96 90.245C93.96 90.2437 93.96 90.2425 93.96 90.2412C93.96 90.24 93.96 90.2388 93.96 90.2375C93.96 90.2363 93.96 90.235 93.96 90.2337C93.96 90.2325 93.96 90.2312 93.96 90.23C93.96 90.2287 93.96 90.2275 93.96 90.2262C93.96 90.225 93.96 90.2237 93.96 90.2225C93.96 90.2213 93.96 90.22 93.96 90.2188C93.96 90.2175 93.96 90.2162 93.96 90.215C93.96 90.2137 93.96 90.2125 93.96 90.2112C93.96 90.21 93.96 90.2087 93.96 90.2075C93.96 90.2063 93.96 90.205 93.96 90.2038C93.96 90.2025 93.96 90.2012 93.96 90.2C93.96 90.1987 93.96 90.1975 93.96 90.1962C93.96 90.195 93.96 90.1937 93.96 90.1925C93.96 90.1913 93.96 90.19 93.96 90.1888C93.96 90.1875 93.96 90.1862 93.96 90.185C93.96 90.1837 93.96 90.1825 93.96 90.1812C93.96 90.18 93.96 90.1787 93.96 90.1775C93.96 90.1763 93.96 90.175 93.96 90.1738C93.96 90.1725 93.96 90.1712 93.96 90.17C93.96 90.1687 93.96 90.1675 93.96 90.1662C93.96 90.165 93.96 90.1637 93.96 90.1625C93.96 90.1612 93.96 90.16 93.96 90.1588C93.96 90.1575 93.96 90.1562 93.96 90.155C93.96 90.1537 93.96 90.1525 93.96 90.1512C93.96 90.15 93.96 90.1487 93.96 90.1475C93.96 90.1462 93.96 90.145 93.96 90.1438C93.96 90.1425 93.96 90.1413 93.96 90.14C93.96 90.1387 93.96 90.1375 93.96 90.1362C93.96 90.135 93.96 90.1337 93.96 90.1325C93.96 90.1312 93.96 90.13 93.96 90.1288C93.96 90.1275 93.96 90.1263 93.96 90.125C93.96 90.1237 93.96 90.1225 93.96 90.1212C93.96 90.12 93.96 90.1187 93.96 90.1175C93.96 90.1162 93.96 90.115 93.96 90.1138C93.96 90.1125 93.96 90.1113 93.96 90.11C93.96 90.1087 93.96 90.1075 93.96 90.1062C93.96 90.105 93.96 90.1037 93.96 90.1025C93.96 90.1012 93.96 90.1 93.96 90.0987C93.96 90.0975 93.96 90.0963 93.96 90.095C93.96 90.0938 93.96 90.0925 93.96 90.0912C93.96 90.09 93.96 90.0887 93.96 90.0875C93.96 90.0862 93.96 90.085 93.96 90.0837C93.96 90.0825 93.96 90.0813 93.96 90.08C93.96 90.0788 93.96 90.0775 93.96 90.0762C93.96 90.075 93.96 90.0737 93.96 90.0725C93.96 90.0712 93.96 90.07 93.96 90.0687C93.96 90.0675 93.96 90.0663 93.96 90.065C93.96 90.0638 93.96 90.0625 93.96 90.0612C93.96 90.06 93.96 90.0587 93.96 90.0575C93.96 90.0562 93.96 90.055 93.96 90.0537C93.96 90.0525 93.96 90.0513 93.96 90.05C93.96 90.0488 93.96 90.0475 93.96 90.0462C93.96 90.045 93.96 90.0437 93.96 90.0425C93.96 90.0412 93.96 90.04 93.96 90.0387C93.96 90.0375 93.96 90.0362 93.96 90.035C93.96 90.0338 93.96 90.0325 93.96 90.0312C93.96 90.03 93.96 90.0287 93.96 90.0275C93.96 90.0262 93.96 90.025 93.96 90.0237C93.96 90.0225 93.96 90.0212 93.96 90.02C93.96 90.0188 93.96 90.0175 93.96 90.0163C93.96 90.015 93.96 90.0137 93.96 90.0125C93.96 90.0112 93.96 90.01 93.96 90.0087C93.96 90.0075 93.96 90.0062 93.96 90.005C93.96 90.0038 93.96 90.0025 93.96 90.0013C93.96 90 93.96 89.9987 93.96 89.9975C93.96 89.9962 93.96 89.995 93.96 89.9937C93.96 89.9925 93.96 89.9912 93.96 89.99C93.96 89.9887 93.96 89.9875 93.96 89.9863C93.96 89.985 93.96 89.9837 93.96 89.9825C93.96 89.9812 93.96 89.98 93.96 89.9787C93.96 89.9775 93.96 89.9762 93.96 89.975C93.96 89.9737 93.96 89.9725 93.96 89.9713C93.96 89.97 93.96 89.9688 93.96 89.9675C93.96 89.9662 93.96 89.965 93.96 89.9637C93.96 89.9625 93.96 89.9612 93.96 89.96C93.96 89.9587 93.96 89.9575 93.96 89.9563C93.96 89.955 93.96 89.9538 93.96 89.9525C93.96 89.9512 93.96 89.95 93.96 89.9487C93.96 89.9475 93.96 89.9462 93.96 89.945C93.96 89.9437 93.96 89.9425 93.96 89.9413C93.96 89.94 93.96 89.9388 93.96 89.9375C93.96 89.9362 93.96 89.935 93.96 89.9337C93.96 89.9325 93.96 89.9312 93.96 89.93C93.96 89.9287 93.96 89.9275 93.96 89.9262C93.96 89.925 93.96 89.9238 93.96 89.9225C93.96 89.9212 93.96 89.92 93.96 89.9187C93.96 89.9175 93.96 89.9162 93.96 89.915C93.96 89.9137 93.96 89.9125 93.96 89.9112C93.96 89.91 93.96 89.9088 93.96 89.9075C93.96 89.9062 93.96 89.905 93.96 89.9037C93.96 89.9025 93.96 89.9012 93.96 89.9C93.96 89.8987 93.96 89.8975 93.96 89.8962C93.96 89.895 93.96 89.8938 93.96 89.8925C93.96 89.8913 93.96 89.89 93.96 89.8887C93.96 89.8875 93.96 89.8862 93.96 89.885C93.96 89.8837 93.96 89.8825 93.96 89.8812C93.96 89.88 93.96 89.8788 93.96 89.8775C93.96 89.8763 93.96 89.875 93.96 89.8737C93.96 89.8725 93.96 89.8712 93.96 89.87C93.96 89.8687 93.96 89.8675 93.96 89.8662C93.96 89.865 93.96 89.8637 93.96 89.8625C93.96 89.8613 93.96 89.86 93.96 89.8587C93.96 89.8575 93.96 89.8562 93.96 89.855C93.96 89.8537 93.96 89.8525 93.96 89.8512C93.96 89.85 93.96 89.8487 93.96 89.8475C93.96 89.8463 93.96 89.845 93.96 89.8438C93.96 89.8425 93.96 89.8412 93.96 89.84C93.96 89.8387 93.96 89.8375 93.96 89.8362C93.96 89.835 93.96 89.8337 93.96 89.8325C93.96 89.8313 93.96 89.83 93.96 89.8288C93.96 89.8275 93.96 89.8262 93.96 89.825C93.96 89.8237 93.96 89.8225 93.96 89.8212C93.96 89.82 93.96 89.8187 93.96 89.8175C93.96 89.8163 93.96 89.815 93.96 89.8138C93.96 89.8125 93.96 89.8112 93.96 89.81C93.96 89.8087 93.96 89.8075 93.96 89.8062C93.96 89.805 93.96 89.8037 93.96 89.8025C93.96 89.8012 93.96 89.8 93.96 89.7988C93.96 89.7975 93.96 89.7962 93.96 89.795C93.96 89.7937 93.96 89.7925 93.96 89.7912C93.96 89.79 93.96 89.7887 93.96 89.7875C93.96 89.7862 93.96 89.785 93.96 89.7838C93.96 89.7825 93.96 89.7812 93.96 89.78C93.96 89.7787 93.96 89.7775 93.96 89.7762C93.96 89.775 93.96 89.7737 93.96 89.7725C93.96 89.7712 93.96 89.77 93.96 89.7688C93.96 89.7675 93.96 89.7663 93.96 89.765C93.96 89.7637 93.96 89.7625 93.96 89.7612C93.96 89.76 93.96 89.7587 93.96 89.7575C93.96 89.7562 93.96 89.755 93.96 89.7538C93.96 89.7525 93.96 89.7513 93.96 89.75C93.96 89.7487 93.96 89.7475 93.96 89.7462C93.96 89.745 93.96 89.7437 93.96 89.7425C93.96 89.7412 93.96 89.74 93.96 89.7387C93.96 89.7375 93.96 89.7363 93.96 89.735C93.96 89.7337 93.96 89.7325 93.96 89.7312C93.96 89.73 93.96 89.7287 93.96 89.7275C93.96 89.7262 93.96 89.725 93.96 89.7237C93.96 89.7225 93.96 89.7213 93.96 89.72C93.96 89.7188 93.96 89.7175 93.96 89.7162C93.96 89.715 93.96 89.7137 93.96 89.7125C93.96 89.7112 93.96 89.71 93.96 89.7087C93.96 89.7075 93.96 89.7063 93.96 89.705C93.96 89.7038 93.96 89.7025 93.96 89.7012C93.96 89.7 93.96 89.6987 93.96 89.6975C93.96 89.6962 93.96 89.695 93.96 89.6937C93.96 89.6925 93.96 89.6913 93.96 89.69C93.96 89.6888 93.96 89.6875 93.96 89.6862C93.96 89.685 93.96 89.6837 93.96 89.6825C93.96 89.6812 93.96 89.68 93.96 89.6787C93.96 89.6775 93.96 89.6762 93.96 89.675C93.96 89.6738 93.96 89.6725 93.96 89.6712C93.96 89.67 93.96 89.6687 93.96 89.6675C93.96 89.6662 93.96 89.665 93.96 89.6637C93.96 89.6625 93.96 89.6612 93.96 89.66C93.96 89.6588 93.96 89.6575 93.96 89.6562C93.96 89.655 93.96 89.6537 93.96 89.6525C93.96 89.6512 93.96 89.65 93.96 89.6487C93.96 89.6475 93.96 89.6462 93.96 89.645C93.96 89.6438 93.96 89.6425 93.96 89.6413C93.96 89.64 93.96 89.6387 93.96 89.6375C93.96 89.6362 93.96 89.635 93.96 89.6337C93.96 89.6325 93.96 89.6312 93.96 89.63C93.96 89.6287 93.96 89.6275 93.96 89.6263C93.96 89.625 93.96 89.6237 93.96 89.6225C93.96 89.6212 93.96 89.62 93.96 89.6187C93.96 89.6175 93.96 89.6162 93.96 89.615C93.96 89.6137 93.96 89.6125 93.96 89.6113C93.96 89.61 93.96 89.6087 93.96 89.6075C93.96 89.6062 93.96 89.605 93.96 89.6037C93.96 89.6025 93.96 89.6012 93.96 89.6C93.96 89.5987 93.96 89.5975 93.96 89.5963C93.96 89.595 93.96 89.5938 93.96 89.5925C93.96 89.5912 93.96 89.59 93.96 89.5887C93.96 89.5875 93.96 89.5862 93.96 89.585C93.96 89.5837 93.96 89.5825 93.96 89.5813C93.96 89.58 93.96 89.5788 93.96 89.5775C93.96 89.5762 93.96 89.575 93.96 89.5737C93.96 89.5725 93.96 89.5712 93.96 89.57C93.96 89.5687 93.96 89.5675 93.96 89.5662C93.96 89.565 93.96 89.5638 93.96 89.5625C93.96 89.5612 93.96 89.56 93.96 89.5587C93.96 89.5575 93.96 89.5562 93.96 89.555C93.96 89.5537 93.96 89.5525 93.96 89.5512C93.96 89.55 93.96 89.5488 93.96 89.5475C93.96 89.5462 93.96 89.545 93.96 89.5437C93.96 89.5425 93.96 89.5412 93.96 89.54C93.96 89.5387 93.96 89.5375 93.96 89.5362C93.96 89.535 93.96 89.5338 93.96 89.5325C93.96 89.5312 93.96 89.53 93.96 89.5287C93.96 89.5275 93.96 89.5262 93.96 89.525C93.96 89.5237 93.96 89.5225 93.96 89.5212C93.96 89.52 93.96 89.5188 93.96 89.5175C93.96 89.5163 93.96 89.515 93.96 89.5137C93.96 89.5125 93.96 89.5112 93.96 89.51C93.96 89.5087 93.96 89.5075 93.96 89.5062C93.96 89.505 93.96 89.5037 93.96 89.5025C93.96 89.5013 93.96 89.5 93.96 89.4987C93.96 89.4975 93.96 89.4962 93.96 89.495C93.96 89.4937 93.96 89.4925 93.96 89.4912C93.96 89.49 93.96 89.4887 93.96 89.4875C93.96 89.4863 93.96 89.485 93.96 89.4837C93.96 89.4825 93.96 89.4812 93.96 89.48C93.96 89.4787 93.96 89.4775 93.96 89.4762C93.96 89.475 93.96 89.4737 93.96 89.4725C93.96 89.4713 93.96 89.47 93.96 89.4688C93.96 89.4675 93.96 89.4662 93.96 89.465C93.96 89.4637 93.96 89.4625 93.96 89.4612C93.96 89.46 93.96 89.4587 93.96 89.4575C93.96 89.4563 93.96 89.455 93.96 89.4538C93.96 89.4525 93.96 89.4512 93.96 89.45C93.96 89.4487 93.96 89.4475 93.96 89.4462C93.96 89.445 93.96 89.4437 93.96 89.4425C93.96 89.4412 93.96 89.44 93.96 89.4388C93.96 89.4375 93.96 89.4362 93.96 89.435C93.96 89.4337 93.96 89.4325 93.96 89.4312C93.96 89.43 93.96 89.4287 93.96 89.4275C93.96 89.4262 93.96 89.425 93.96 89.4238C93.96 89.4225 93.96 89.4212 93.96 89.42C93.96 89.4187 93.96 89.4175 93.96 89.4162C93.96 89.415 93.96 89.4137 93.96 89.4125C93.96 89.4112 93.96 89.41 93.96 89.4088C93.96 89.4075 93.96 89.4062 93.96 89.405C93.96 89.4037 93.96 89.4025 93.96 89.4012C93.96 89.4 93.96 89.3987 93.96 89.3975C93.96 89.3962 93.96 89.395 93.96 89.3938C93.96 89.3925 93.96 89.3913 93.96 89.39C93.96 89.3887 93.96 89.3875 93.96 89.3862C93.96 89.385 93.96 89.3837 93.96 89.3825C93.96 89.3812 93.96 89.38 93.96 89.3787C93.96 89.3775 93.96 89.3763 93.96 89.375C93.96 89.3737 93.96 89.3725 93.96 89.3712C93.96 89.37 93.96 89.3687 93.96 89.3675C93.96 89.3662 93.96 89.365 93.96 89.3637C93.96 89.3625 93.96 89.3613 93.96 89.36C93.96 89.3587 93.96 89.3575 93.96 89.3562C93.96 89.355 93.96 89.3537 93.96 89.3525C93.96 89.3512 93.96 89.35 93.96 89.3487C93.96 89.3475 93.96 89.3463 93.96 89.345C93.96 89.3438 93.96 89.3425 93.96 89.3412C93.96 89.34 93.96 89.3387 93.96 89.3375C93.96 89.3362 93.96 89.335 93.96 89.3337C93.96 89.3325 93.96 89.3312 93.96 89.33C93.96 89.3288 93.96 89.3275 93.96 89.3262C93.96 89.325 93.96 89.3237 93.96 89.3225C93.96 89.3212 93.96 89.32 93.96 89.3187C93.96 89.3175 93.96 89.3162 93.96 89.315C93.96 89.3138 93.96 89.3125 93.96 89.3112C93.96 89.31 93.96 89.3087 93.96 89.3075C93.96 89.3062 93.96 89.305 93.96 89.3037C93.96 89.3025 93.96 89.3012 93.96 89.3C93.96 89.2988 93.96 89.2975 93.96 89.2962C93.96 89.295 93.96 89.2937 93.96 89.2925C93.96 89.2912 93.96 89.29 93.96 89.2887C93.96 89.2875 93.96 89.2862 93.96 89.285C93.96 89.2838 93.96 89.2825 93.96 89.2812C93.96 89.28 93.96 89.2787 93.96 89.2775C93.96 89.2762 93.96 89.275 93.96 89.2737C93.96 89.2725 93.96 89.2712 93.96 89.27C93.96 89.2687 93.96 89.2675 93.96 89.2663C93.96 89.265 93.96 89.2637 93.96 89.2625C93.96 89.2612 93.96 89.26 93.96 89.2587C93.96 89.2575 93.96 89.2562 93.96 89.255C93.96 89.2537 93.96 89.2525 93.96 89.2513C93.96 89.25 93.96 89.2487 93.96 89.2475C93.96 89.2462 93.96 89.245 93.96 89.2437C93.96 89.2425 93.96 89.2412 93.96 89.24C93.96 89.2387 93.96 89.2375 93.96 89.2363C93.96 89.235 93.96 89.2337 93.96 89.2325C93.96 89.2312 93.96 89.23 93.96 89.2287C93.96 89.2275 93.96 89.2262 93.96 89.225C93.96 89.2237 93.96 89.2225 93.96 89.2213C93.96 89.22 93.96 89.2188 93.96 89.2175C93.96 89.2162 93.96 89.215 93.96 89.2137C93.96 89.2125 93.96 89.2112 93.96 89.21C93.96 89.2087 93.96 89.2075 93.96 89.2062C93.96 89.205 93.96 89.2038 93.96 89.2025C93.96 89.2012 93.96 89.2 93.96 89.1987C93.96 89.1975 93.96 89.1962 93.96 89.195C93.96 89.1937 93.96 89.1925 93.96 89.1912C93.96 89.19 93.96 89.1888 93.96 89.1875C93.96 89.1862 93.96 89.185 93.96 89.1837C93.96 89.1825 93.96 89.1812 93.96 89.18C93.96 89.1787 93.96 89.1775 93.96 89.1762C93.96 89.175 93.96 89.1738 93.96 89.1725C93.96 89.1712 93.96 89.17 93.96 89.1687C93.96 89.1675 93.96 89.1662 93.96 89.165C93.96 89.1637 93.96 89.1625 93.96 89.1612C93.96 89.16 93.96 89.1588 93.96 89.1575C93.96 89.1562 93.96 89.155 93.96 89.1537C93.96 89.1525 93.96 89.1512 93.96 89.15C93.96 89.1487 93.96 89.1475 93.96 89.1462C93.96 89.145 93.96 89.1437 93.96 89.1425C93.96 89.1413 93.96 89.14 93.96 89.1387C93.96 89.1375 93.96 89.1362 93.96 89.135C93.96 89.1337 93.96 89.1325 93.96 89.1312C93.96 89.13 93.96 89.1287 93.96 89.1275C93.96 89.1263 93.96 89.125 93.96 89.1237C93.96 89.1225 93.96 89.1212 93.96 89.12C93.96 89.1187 93.96 89.1175 93.96 89.1162C93.96 89.115 93.96 89.1137 93.96 89.1125C93.96 89.1113 93.96 89.11 93.96 89.1087C93.96 89.1075 93.96 89.1062 93.96 89.105C93.96 89.1037 93.96 89.1025 93.96 89.1012C93.96 89.1 93.96 89.0987 93.96 89.0975C93.96 89.0963 93.96 89.095 93.96 89.0938C93.96 89.0925 93.96 89.0912 93.96 89.09C93.96 89.0887 93.96 89.0875 93.96 89.0862C93.96 89.085 93.96 89.0837 93.96 89.0825C93.96 89.0812 93.96 89.08 93.96 89.0788C93.96 89.0775 93.96 89.0762 93.96 89.075C93.96 89.0737 93.96 89.0725 93.96 89.0712C93.96 89.07 93.96 89.0687 93.96 89.0675C93.96 89.0662 93.96 89.065 93.96 89.0638C93.96 89.0625 93.96 89.0612 93.96 89.06C93.96 89.0587 93.96 89.0575 93.96 89.0562C93.96 89.055 93.96 89.0537 93.96 89.0525C93.96 89.0512 93.96 89.05 93.96 89.0488C93.96 89.0475 93.96 89.0462 93.96 89.045C93.96 89.0437 93.96 89.0425 93.96 89.0412C93.96 89.04 93.96 89.0387 93.96 89.0375C93.96 89.0362 93.96 89.035 93.96 89.0337C93.96 89.0325 93.96 89.0312 93.96 89.03C93.96 89.0287 93.96 89.0275 93.96 89.0262C93.96 89.025 93.96 89.0237 93.96 89.0225C93.96 89.0212 93.96 89.02 93.96 89.0187C93.96 89.0175 93.96 89.0163 93.96 89.015C93.96 89.0137 93.96 89.0125 93.96 89.0112C93.96 89.01 93.96 89.0087 93.96 89.0075C93.96 89.0062 93.96 89.005 93.96 89.0037C93.96 89.0025 93.96 89.0013 93.96 89C93.96 88.9987 93.96 88.9975 93.96 88.9962C93.96 88.995 93.96 88.9937 93.96 88.9925C93.96 88.9912 93.96 88.99 93.96 88.9887C93.96 88.9875 93.96 88.9863 93.96 88.985C93.96 88.9837 93.96 88.9825 93.96 88.9812C93.96 88.98 93.96 88.9787 93.96 88.9775C93.96 88.9762 93.96 88.975 93.96 88.9737C93.96 88.9725 93.96 88.9712 93.96 88.97C93.96 88.9688 93.96 88.9675 93.96 88.9662C93.96 88.965 93.96 88.9637 93.96 88.9625C93.96 88.9612 93.96 88.96 93.96 88.9587C93.96 88.9575 93.96 88.9562 93.96 88.955C93.96 88.9538 93.96 88.9525 93.96 88.9512C93.96 88.95 93.96 88.9487 93.96 88.9475C93.96 88.9462 93.96 88.945 93.96 88.9437C93.96 88.9425 93.96 88.9412 93.96 88.94C93.96 88.9388 93.96 88.9375 93.96 88.9362C93.96 88.935 93.96 88.9337 93.96 88.9325C93.96 88.9312 93.96 88.93 93.96 88.9287C93.96 88.9275 93.96 88.9262 93.96 88.925C93.96 88.9238 93.96 88.9225 93.96 88.9212C93.96 88.92 93.96 88.9187 93.96 88.9175C93.96 88.9162 93.96 88.915 93.96 88.9137C93.96 88.9125 93.96 88.9112 93.96 88.91C93.96 88.9087 93.96 88.9075 93.96 88.9062C93.96 88.905 93.96 88.9037 93.96 88.9025C93.96 88.9012 93.96 88.9 93.96 88.8987C93.96 88.8975 93.96 88.8962 93.96 88.895C93.96 88.8937 93.96 88.8925 93.96 88.8913C93.96 88.89 93.96 88.8887 93.96 88.8875C93.96 88.8862 93.96 88.885 93.96 88.8837C93.96 88.8825 93.96 88.8812 93.96 88.88C93.96 88.8787 93.96 88.8775 93.96 88.8763C93.96 88.875 93.96 88.8737 93.96 88.8725C93.96 88.8712 93.96 88.87 93.96 88.8687C93.96 88.8675 93.96 88.8662 93.96 88.865C93.96 88.8637 93.96 88.8625 93.96 88.8613C93.96 88.86 93.96 88.8587 93.96 88.8575C93.96 88.8562 93.96 88.855 93.96 88.8537C93.96 88.8525 93.96 88.8512 93.96 88.85C93.96 88.8487 93.96 88.8475 93.96 88.8462C93.96 88.845 93.96 88.8438 93.96 88.8425C93.96 88.8412 93.96 88.84 93.96 88.8387C93.96 88.8375 93.96 88.8362 93.96 88.835C93.96 88.8337 93.96 88.8325 93.96 88.8312C93.96 88.83 93.96 88.8288 93.96 88.8275C93.96 88.8262 93.96 88.825 93.96 88.8237C93.96 88.8225 93.96 88.8212 93.96 88.82C93.96 88.8187 93.96 88.8175 93.96 88.8162C93.96 88.815 93.96 88.8138 93.96 88.8125C93.96 88.8112 93.96 88.81 93.96 88.8087C93.96 88.8075 93.96 88.8062 93.96 88.805C93.96 88.8037 93.96 88.8025 93.96 88.8012C93.96 88.8 93.96 88.7988 93.96 88.7975C93.96 88.7962 93.96 88.795 93.96 88.7937C93.96 88.7925 93.96 88.7912 93.96 88.79C93.96 88.7887 93.96 88.7875 93.96 88.7862C93.96 88.785 93.96 88.7837 93.96 88.7825C93.96 88.7812 93.96 88.78 93.96 88.7787C93.96 88.7775 93.96 88.7762 93.96 88.775C93.96 88.7737 93.96 88.7725 93.96 88.7712C93.96 88.77 93.96 88.7687 93.96 88.7675C93.96 88.7663 93.96 88.765 93.96 88.7637C93.96 88.7625 93.96 88.7612 93.96 88.76C93.96 88.7587 93.96 88.7575 93.96 88.7562C93.96 88.755 93.96 88.7537 93.96 88.7525C93.96 88.7513 93.96 88.75 93.96 88.7487C93.96 88.7475 93.96 88.7462 93.96 88.745C93.96 88.7437 93.96 88.7425 93.96 88.7412C93.96 88.74 93.96 88.7387 93.96 88.7375C93.96 88.7362 93.96 88.735 93.96 88.7337C93.96 88.7325 93.96 88.7312 93.96 88.73C93.96 88.7287 93.96 88.7275 93.96 88.7262C93.96 88.725 93.96 88.7237 93.96 88.7225C93.96 88.7212 93.96 88.72 93.96 88.7188C93.96 88.7175 93.96 88.7162 93.96 88.715C93.96 88.7137 93.96 88.7125 93.96 88.7112C93.96 88.71 93.96 88.7087 93.96 88.7075C93.96 88.7062 93.96 88.705 93.96 88.7038C93.96 88.7025 93.96 88.7012 93.96 88.7C93.96 88.6987 93.96 88.6975 93.96 88.6962C93.96 88.695 93.96 88.6937 93.96 88.6925C93.96 88.6912 93.96 88.69 93.96 88.6888C93.96 88.6875 93.96 88.6862 93.96 88.685C93.96 88.6837 93.96 88.6825 93.96 88.6812C93.96 88.68 93.96 88.6787 93.96 88.6775C93.96 88.6762 93.96 88.675 93.96 88.6737C93.96 88.6725 93.96 88.6712 93.96 88.67C93.96 88.6687 93.96 88.6675 93.96 88.6662C93.96 88.665 93.96 88.6637 93.96 88.6625C93.96 88.6612 93.96 88.66 93.96 88.6587C93.96 88.6575 93.96 88.6562 93.96 88.655C93.96 88.6537 93.96 88.6525 93.96 88.6512C93.96 88.65 93.96 88.6487 93.96 88.6475C93.96 88.6462 93.96 88.645 93.96 88.6437C93.96 88.6425 93.96 88.6413 93.96 88.64C93.96 88.6387 93.96 88.6375 93.96 88.6362C93.96 88.635 93.96 88.6337 93.96 88.6325C93.96 88.6312 93.96 88.63 93.96 88.6287C93.96 88.6275 93.96 88.6263 93.96 88.625C93.96 88.6237 93.96 88.6225 93.96 88.6212C93.96 88.62 93.96 88.6187 93.96 88.6175C93.96 88.6162 93.96 88.615 93.96 88.6137C93.96 88.6125 93.96 88.6112 93.96 88.61C93.96 88.6087 93.96 88.6075 93.96 88.6062C93.96 88.605 93.96 88.6037 93.96 88.6025C93.96 88.6012 93.96 88.6 93.96 88.5987C93.96 88.5975 93.96 88.5962 93.96 88.595C93.96 88.5938 93.96 88.5925 93.96 88.5912C93.96 88.59 93.96 88.5887 93.96 88.5875C93.96 88.5862 93.96 88.585 93.96 88.5837C93.96 88.5825 93.96 88.5812 93.96 88.58C93.96 88.5788 93.96 88.5775 93.96 88.5762C93.96 88.575 93.96 88.5737 93.96 88.5725C93.96 88.5712 93.96 88.57 93.96 88.5687C93.96 88.5675 93.96 88.5662 93.96 88.565C93.96 88.5638 93.96 88.5625 93.96 88.5612C93.96 88.56 93.96 88.5587 93.96 88.5575C93.96 88.5562 93.96 88.555 93.96 88.5537C93.96 88.5525 93.96 88.5512 93.96 88.55C93.96 88.5487 93.96 88.5475 93.96 88.5462C93.96 88.545 93.96 88.5437 93.96 88.5425C93.96 88.5412 93.96 88.54 93.96 88.5387C93.96 88.5375 93.96 88.5362 93.96 88.535C93.96 88.5337 93.96 88.5325 93.96 88.5312C93.96 88.53 93.96 88.5287 93.96 88.5275C93.96 88.5262 93.96 88.525 93.96 88.5237C93.96 88.5225 93.96 88.5212 93.96 88.52C93.96 88.5187 93.96 88.5175 93.96 88.5163C93.96 88.515 93.96 88.5137 93.96 88.5125C93.96 88.5112 93.96 88.51 93.96 88.5087C93.96 88.5075 93.96 88.5062 93.96 88.505C93.96 88.5037 93.96 88.5025 93.96 88.5013C93.96 88.5 93.96 88.4987 93.96 88.4975C93.96 88.4962 93.96 88.495 93.96 88.4937C93.96 88.4925 93.96 88.4912 93.96 88.49C93.96 88.4887 93.96 88.4875 93.96 88.4862C93.96 88.485 93.96 88.4837 93.96 88.4825C93.96 88.4812 93.96 88.48 93.96 88.4787C93.96 88.4775 93.96 88.4762 93.96 88.475C93.96 88.4737 93.96 88.4725 93.96 88.4712C93.96 88.47 93.96 88.4688 93.96 88.4675C93.96 88.4662 93.96 88.465 93.96 88.4637C93.96 88.4625 93.96 88.4612 93.96 88.46C93.96 88.4587 93.96 88.4575 93.96 88.4562C93.96 88.455 93.96 88.4538 93.96 88.4525C93.96 88.4512 93.96 88.45 93.96 88.4487C93.96 88.4475 93.96 88.4462 93.96 88.445C93.96 88.4437 93.96 88.4425 93.96 88.4412C93.96 88.44 93.96 88.4387 93.96 88.4375C93.96 88.4362 93.96 88.435 93.96 88.4337C93.96 88.4325 93.96 88.4312 93.96 88.43C93.96 88.4287 93.96 88.4275 93.96 88.4262C93.96 88.425 93.96 88.4237 93.96 88.4225C93.96 88.4212 93.96 88.42 93.96 88.4187C93.96 88.4175 93.96 88.4162 93.96 88.415C93.96 88.4137 93.96 88.4125 93.96 88.4112C93.96 88.41 93.96 88.4087 93.96 88.4075C93.96 88.4062 93.96 88.405 93.96 88.4037C93.96 88.4025 93.96 88.4012 93.96 88.4H90.96H87.96C87.96 88.4012 87.96 88.4025 87.96 88.4037C87.96 88.405 87.96 88.4062 87.96 88.4075C87.96 88.4087 87.96 88.41 87.96 88.4112C87.96 88.4125 87.96 88.4137 87.96 88.415C87.96 88.4162 87.96 88.4175 87.96 88.4187C87.96 88.42 87.96 88.4212 87.96 88.4225C87.96 88.4237 87.96 88.425 87.96 88.4262C87.96 88.4275 87.96 88.4287 87.96 88.43C87.96 88.4312 87.96 88.4325 87.96 88.4337C87.96 88.435 87.96 88.4362 87.96 88.4375C87.96 88.4387 87.96 88.44 87.96 88.4412C87.96 88.4425 87.96 88.4437 87.96 88.445C87.96 88.4462 87.96 88.4475 87.96 88.4487C87.96 88.45 87.96 88.4512 87.96 88.4525C87.96 88.4538 87.96 88.455 87.96 88.4562C87.96 88.4575 87.96 88.4587 87.96 88.46C87.96 88.4612 87.96 88.4625 87.96 88.4637C87.96 88.465 87.96 88.4662 87.96 88.4675C87.96 88.4688 87.96 88.47 87.96 88.4712C87.96 88.4725 87.96 88.4737 87.96 88.475C87.96 88.4762 87.96 88.4775 87.96 88.4787C87.96 88.48 87.96 88.4812 87.96 88.4825C87.96 88.4837 87.96 88.485 87.96 88.4862C87.96 88.4875 87.96 88.4887 87.96 88.49C87.96 88.4912 87.96 88.4925 87.96 88.4937C87.96 88.495 87.96 88.4962 87.96 88.4975C87.96 88.4987 87.96 88.5 87.96 88.5013C87.96 88.5025 87.96 88.5037 87.96 88.505C87.96 88.5062 87.96 88.5075 87.96 88.5087C87.96 88.51 87.96 88.5112 87.96 88.5125C87.96 88.5137 87.96 88.515 87.96 88.5163C87.96 88.5175 87.96 88.5187 87.96 88.52C87.96 88.5212 87.96 88.5225 87.96 88.5237C87.96 88.525 87.96 88.5262 87.96 88.5275C87.96 88.5287 87.96 88.53 87.96 88.5312C87.96 88.5325 87.96 88.5337 87.96 88.535C87.96 88.5362 87.96 88.5375 87.96 88.5387C87.96 88.54 87.96 88.5412 87.96 88.5425C87.96 88.5437 87.96 88.545 87.96 88.5462C87.96 88.5475 87.96 88.5487 87.96 88.55C87.96 88.5512 87.96 88.5525 87.96 88.5537C87.96 88.555 87.96 88.5562 87.96 88.5575C87.96 88.5587 87.96 88.56 87.96 88.5612C87.96 88.5625 87.96 88.5638 87.96 88.565C87.96 88.5662 87.96 88.5675 87.96 88.5687C87.96 88.57 87.96 88.5712 87.96 88.5725C87.96 88.5737 87.96 88.575 87.96 88.5762C87.96 88.5775 87.96 88.5788 87.96 88.58C87.96 88.5812 87.96 88.5825 87.96 88.5837C87.96 88.585 87.96 88.5862 87.96 88.5875C87.96 88.5887 87.96 88.59 87.96 88.5912C87.96 88.5925 87.96 88.5938 87.96 88.595C87.96 88.5962 87.96 88.5975 87.96 88.5987C87.96 88.6 87.96 88.6012 87.96 88.6025C87.96 88.6037 87.96 88.605 87.96 88.6062C87.96 88.6075 87.96 88.6087 87.96 88.61C87.96 88.6112 87.96 88.6125 87.96 88.6137C87.96 88.615 87.96 88.6162 87.96 88.6175C87.96 88.6187 87.96 88.62 87.96 88.6212C87.96 88.6225 87.96 88.6237 87.96 88.625C87.96 88.6263 87.96 88.6275 87.96 88.6287C87.96 88.63 87.96 88.6312 87.96 88.6325C87.96 88.6337 87.96 88.635 87.96 88.6362C87.96 88.6375 87.96 88.6387 87.96 88.64C87.96 88.6413 87.96 88.6425 87.96 88.6437C87.96 88.645 87.96 88.6462 87.96 88.6475C87.96 88.6487 87.96 88.65 87.96 88.6512C87.96 88.6525 87.96 88.6537 87.96 88.655C87.96 88.6562 87.96 88.6575 87.96 88.6587C87.96 88.66 87.96 88.6612 87.96 88.6625C87.96 88.6637 87.96 88.665 87.96 88.6662C87.96 88.6675 87.96 88.6687 87.96 88.67C87.96 88.6712 87.96 88.6725 87.96 88.6737C87.96 88.675 87.96 88.6762 87.96 88.6775C87.96 88.6787 87.96 88.68 87.96 88.6812C87.96 88.6825 87.96 88.6837 87.96 88.685C87.96 88.6862 87.96 88.6875 87.96 88.6888C87.96 88.69 87.96 88.6912 87.96 88.6925C87.96 88.6937 87.96 88.695 87.96 88.6962C87.96 88.6975 87.96 88.6987 87.96 88.7C87.96 88.7012 87.96 88.7025 87.96 88.7038C87.96 88.705 87.96 88.7062 87.96 88.7075C87.96 88.7087 87.96 88.71 87.96 88.7112C87.96 88.7125 87.96 88.7137 87.96 88.715C87.96 88.7162 87.96 88.7175 87.96 88.7188C87.96 88.72 87.96 88.7212 87.96 88.7225C87.96 88.7237 87.96 88.725 87.96 88.7262C87.96 88.7275 87.96 88.7287 87.96 88.73C87.96 88.7312 87.96 88.7325 87.96 88.7337C87.96 88.735 87.96 88.7362 87.96 88.7375C87.96 88.7387 87.96 88.74 87.96 88.7412C87.96 88.7425 87.96 88.7437 87.96 88.745C87.96 88.7462 87.96 88.7475 87.96 88.7487C87.96 88.75 87.96 88.7513 87.96 88.7525C87.96 88.7537 87.96 88.755 87.96 88.7562C87.96 88.7575 87.96 88.7587 87.96 88.76C87.96 88.7612 87.96 88.7625 87.96 88.7637C87.96 88.765 87.96 88.7663 87.96 88.7675C87.96 88.7687 87.96 88.77 87.96 88.7712C87.96 88.7725 87.96 88.7737 87.96 88.775C87.96 88.7762 87.96 88.7775 87.96 88.7787C87.96 88.78 87.96 88.7812 87.96 88.7825C87.96 88.7837 87.96 88.785 87.96 88.7862C87.96 88.7875 87.96 88.7887 87.96 88.79C87.96 88.7912 87.96 88.7925 87.96 88.7937C87.96 88.795 87.96 88.7962 87.96 88.7975C87.96 88.7988 87.96 88.8 87.96 88.8012C87.96 88.8025 87.96 88.8037 87.96 88.805C87.96 88.8062 87.96 88.8075 87.96 88.8087C87.96 88.81 87.96 88.8112 87.96 88.8125C87.96 88.8138 87.96 88.815 87.96 88.8162C87.96 88.8175 87.96 88.8187 87.96 88.82C87.96 88.8212 87.96 88.8225 87.96 88.8237C87.96 88.825 87.96 88.8262 87.96 88.8275C87.96 88.8288 87.96 88.83 87.96 88.8312C87.96 88.8325 87.96 88.8337 87.96 88.835C87.96 88.8362 87.96 88.8375 87.96 88.8387C87.96 88.84 87.96 88.8412 87.96 88.8425C87.96 88.8438 87.96 88.845 87.96 88.8462C87.96 88.8475 87.96 88.8487 87.96 88.85C87.96 88.8512 87.96 88.8525 87.96 88.8537C87.96 88.855 87.96 88.8562 87.96 88.8575C87.96 88.8587 87.96 88.86 87.96 88.8613C87.96 88.8625 87.96 88.8637 87.96 88.865C87.96 88.8662 87.96 88.8675 87.96 88.8687C87.96 88.87 87.96 88.8712 87.96 88.8725C87.96 88.8737 87.96 88.875 87.96 88.8763C87.96 88.8775 87.96 88.8787 87.96 88.88C87.96 88.8812 87.96 88.8825 87.96 88.8837C87.96 88.885 87.96 88.8862 87.96 88.8875C87.96 88.8887 87.96 88.89 87.96 88.8913C87.96 88.8925 87.96 88.8937 87.96 88.895C87.96 88.8962 87.96 88.8975 87.96 88.8987C87.96 88.9 87.96 88.9012 87.96 88.9025C87.96 88.9037 87.96 88.905 87.96 88.9062C87.96 88.9075 87.96 88.9087 87.96 88.91C87.96 88.9112 87.96 88.9125 87.96 88.9137C87.96 88.915 87.96 88.9162 87.96 88.9175C87.96 88.9187 87.96 88.92 87.96 88.9212C87.96 88.9225 87.96 88.9238 87.96 88.925C87.96 88.9262 87.96 88.9275 87.96 88.9287C87.96 88.93 87.96 88.9312 87.96 88.9325C87.96 88.9337 87.96 88.935 87.96 88.9362C87.96 88.9375 87.96 88.9388 87.96 88.94C87.96 88.9412 87.96 88.9425 87.96 88.9437C87.96 88.945 87.96 88.9462 87.96 88.9475C87.96 88.9487 87.96 88.95 87.96 88.9512C87.96 88.9525 87.96 88.9538 87.96 88.955C87.96 88.9562 87.96 88.9575 87.96 88.9587C87.96 88.96 87.96 88.9612 87.96 88.9625C87.96 88.9637 87.96 88.965 87.96 88.9662C87.96 88.9675 87.96 88.9688 87.96 88.97C87.96 88.9712 87.96 88.9725 87.96 88.9737C87.96 88.975 87.96 88.9762 87.96 88.9775C87.96 88.9787 87.96 88.98 87.96 88.9812C87.96 88.9825 87.96 88.9837 87.96 88.985C87.96 88.9863 87.96 88.9875 87.96 88.9887C87.96 88.99 87.96 88.9912 87.96 88.9925C87.96 88.9937 87.96 88.995 87.96 88.9962C87.96 88.9975 87.96 88.9987 87.96 89C87.96 89.0013 87.96 89.0025 87.96 89.0037C87.96 89.005 87.96 89.0062 87.96 89.0075C87.96 89.0087 87.96 89.01 87.96 89.0112C87.96 89.0125 87.96 89.0137 87.96 89.015C87.96 89.0163 87.96 89.0175 87.96 89.0187C87.96 89.02 87.96 89.0212 87.96 89.0225C87.96 89.0237 87.96 89.025 87.96 89.0262C87.96 89.0275 87.96 89.0287 87.96 89.03C87.96 89.0312 87.96 89.0325 87.96 89.0337C87.96 89.035 87.96 89.0362 87.96 89.0375C87.96 89.0387 87.96 89.04 87.96 89.0412C87.96 89.0425 87.96 89.0437 87.96 89.045C87.96 89.0462 87.96 89.0475 87.96 89.0488C87.96 89.05 87.96 89.0512 87.96 89.0525C87.96 89.0537 87.96 89.055 87.96 89.0562C87.96 89.0575 87.96 89.0587 87.96 89.06C87.96 89.0612 87.96 89.0625 87.96 89.0638C87.96 89.065 87.96 89.0662 87.96 89.0675C87.96 89.0687 87.96 89.07 87.96 89.0712C87.96 89.0725 87.96 89.0737 87.96 89.075C87.96 89.0762 87.96 89.0775 87.96 89.0788C87.96 89.08 87.96 89.0812 87.96 89.0825C87.96 89.0837 87.96 89.085 87.96 89.0862C87.96 89.0875 87.96 89.0887 87.96 89.09C87.96 89.0912 87.96 89.0925 87.96 89.0938C87.96 89.095 87.96 89.0963 87.96 89.0975C87.96 89.0987 87.96 89.1 87.96 89.1012C87.96 89.1025 87.96 89.1037 87.96 89.105C87.96 89.1062 87.96 89.1075 87.96 89.1087C87.96 89.11 87.96 89.1113 87.96 89.1125C87.96 89.1137 87.96 89.115 87.96 89.1162C87.96 89.1175 87.96 89.1187 87.96 89.12C87.96 89.1212 87.96 89.1225 87.96 89.1237C87.96 89.125 87.96 89.1263 87.96 89.1275C87.96 89.1287 87.96 89.13 87.96 89.1312C87.96 89.1325 87.96 89.1337 87.96 89.135C87.96 89.1362 87.96 89.1375 87.96 89.1387C87.96 89.14 87.96 89.1413 87.96 89.1425C87.96 89.1437 87.96 89.145 87.96 89.1462C87.96 89.1475 87.96 89.1487 87.96 89.15C87.96 89.1512 87.96 89.1525 87.96 89.1537C87.96 89.155 87.96 89.1562 87.96 89.1575C87.96 89.1588 87.96 89.16 87.96 89.1612C87.96 89.1625 87.96 89.1637 87.96 89.165C87.96 89.1662 87.96 89.1675 87.96 89.1687C87.96 89.17 87.96 89.1712 87.96 89.1725C87.96 89.1738 87.96 89.175 87.96 89.1762C87.96 89.1775 87.96 89.1787 87.96 89.18C87.96 89.1812 87.96 89.1825 87.96 89.1837C87.96 89.185 87.96 89.1862 87.96 89.1875C87.96 89.1888 87.96 89.19 87.96 89.1912C87.96 89.1925 87.96 89.1937 87.96 89.195C87.96 89.1962 87.96 89.1975 87.96 89.1987C87.96 89.2 87.96 89.2012 87.96 89.2025C87.96 89.2038 87.96 89.205 87.96 89.2062C87.96 89.2075 87.96 89.2087 87.96 89.21C87.96 89.2112 87.96 89.2125 87.96 89.2137C87.96 89.215 87.96 89.2162 87.96 89.2175C87.96 89.2188 87.96 89.22 87.96 89.2213C87.96 89.2225 87.96 89.2237 87.96 89.225C87.96 89.2262 87.96 89.2275 87.96 89.2287C87.96 89.23 87.96 89.2312 87.96 89.2325C87.96 89.2337 87.96 89.235 87.96 89.2363C87.96 89.2375 87.96 89.2387 87.96 89.24C87.96 89.2412 87.96 89.2425 87.96 89.2437C87.96 89.245 87.96 89.2462 87.96 89.2475C87.96 89.2487 87.96 89.25 87.96 89.2513C87.96 89.2525 87.96 89.2537 87.96 89.255C87.96 89.2562 87.96 89.2575 87.96 89.2587C87.96 89.26 87.96 89.2612 87.96 89.2625C87.96 89.2637 87.96 89.265 87.96 89.2663C87.96 89.2675 87.96 89.2687 87.96 89.27C87.96 89.2712 87.96 89.2725 87.96 89.2737C87.96 89.275 87.96 89.2762 87.96 89.2775C87.96 89.2787 87.96 89.28 87.96 89.2812C87.96 89.2825 87.96 89.2838 87.96 89.285C87.96 89.2862 87.96 89.2875 87.96 89.2887C87.96 89.29 87.96 89.2912 87.96 89.2925C87.96 89.2937 87.96 89.295 87.96 89.2962C87.96 89.2975 87.96 89.2988 87.96 89.3C87.96 89.3012 87.96 89.3025 87.96 89.3037C87.96 89.305 87.96 89.3062 87.96 89.3075C87.96 89.3087 87.96 89.31 87.96 89.3112C87.96 89.3125 87.96 89.3138 87.96 89.315C87.96 89.3162 87.96 89.3175 87.96 89.3187C87.96 89.32 87.96 89.3212 87.96 89.3225C87.96 89.3237 87.96 89.325 87.96 89.3262C87.96 89.3275 87.96 89.3288 87.96 89.33C87.96 89.3312 87.96 89.3325 87.96 89.3337C87.96 89.335 87.96 89.3362 87.96 89.3375C87.96 89.3387 87.96 89.34 87.96 89.3412C87.96 89.3425 87.96 89.3438 87.96 89.345C87.96 89.3463 87.96 89.3475 87.96 89.3487C87.96 89.35 87.96 89.3512 87.96 89.3525C87.96 89.3537 87.96 89.355 87.96 89.3562C87.96 89.3575 87.96 89.3587 87.96 89.36C87.96 89.3613 87.96 89.3625 87.96 89.3637C87.96 89.365 87.96 89.3662 87.96 89.3675C87.96 89.3687 87.96 89.37 87.96 89.3712C87.96 89.3725 87.96 89.3737 87.96 89.375C87.96 89.3763 87.96 89.3775 87.96 89.3787C87.96 89.38 87.96 89.3812 87.96 89.3825C87.96 89.3837 87.96 89.385 87.96 89.3862C87.96 89.3875 87.96 89.3887 87.96 89.39C87.96 89.3913 87.96 89.3925 87.96 89.3938C87.96 89.395 87.96 89.3962 87.96 89.3975C87.96 89.3987 87.96 89.4 87.96 89.4012C87.96 89.4025 87.96 89.4037 87.96 89.405C87.96 89.4062 87.96 89.4075 87.96 89.4088C87.96 89.41 87.96 89.4112 87.96 89.4125C87.96 89.4137 87.96 89.415 87.96 89.4162C87.96 89.4175 87.96 89.4187 87.96 89.42C87.96 89.4212 87.96 89.4225 87.96 89.4238C87.96 89.425 87.96 89.4262 87.96 89.4275C87.96 89.4287 87.96 89.43 87.96 89.4312C87.96 89.4325 87.96 89.4337 87.96 89.435C87.96 89.4362 87.96 89.4375 87.96 89.4388C87.96 89.44 87.96 89.4412 87.96 89.4425C87.96 89.4437 87.96 89.445 87.96 89.4462C87.96 89.4475 87.96 89.4487 87.96 89.45C87.96 89.4512 87.96 89.4525 87.96 89.4538C87.96 89.455 87.96 89.4563 87.96 89.4575C87.96 89.4587 87.96 89.46 87.96 89.4612C87.96 89.4625 87.96 89.4637 87.96 89.465C87.96 89.4662 87.96 89.4675 87.96 89.4688C87.96 89.47 87.96 89.4713 87.96 89.4725C87.96 89.4737 87.96 89.475 87.96 89.4762C87.96 89.4775 87.96 89.4787 87.96 89.48C87.96 89.4812 87.96 89.4825 87.96 89.4837C87.96 89.485 87.96 89.4863 87.96 89.4875C87.96 89.4887 87.96 89.49 87.96 89.4912C87.96 89.4925 87.96 89.4937 87.96 89.495C87.96 89.4962 87.96 89.4975 87.96 89.4987C87.96 89.5 87.96 89.5013 87.96 89.5025C87.96 89.5037 87.96 89.505 87.96 89.5062C87.96 89.5075 87.96 89.5087 87.96 89.51C87.96 89.5112 87.96 89.5125 87.96 89.5137C87.96 89.515 87.96 89.5163 87.96 89.5175C87.96 89.5188 87.96 89.52 87.96 89.5212C87.96 89.5225 87.96 89.5237 87.96 89.525C87.96 89.5262 87.96 89.5275 87.96 89.5287C87.96 89.53 87.96 89.5312 87.96 89.5325C87.96 89.5338 87.96 89.535 87.96 89.5362C87.96 89.5375 87.96 89.5387 87.96 89.54C87.96 89.5412 87.96 89.5425 87.96 89.5437C87.96 89.545 87.96 89.5462 87.96 89.5475C87.96 89.5488 87.96 89.55 87.96 89.5512C87.96 89.5525 87.96 89.5537 87.96 89.555C87.96 89.5562 87.96 89.5575 87.96 89.5587C87.96 89.56 87.96 89.5612 87.96 89.5625C87.96 89.5638 87.96 89.565 87.96 89.5662C87.96 89.5675 87.96 89.5687 87.96 89.57C87.96 89.5712 87.96 89.5725 87.96 89.5737C87.96 89.575 87.96 89.5762 87.96 89.5775C87.96 89.5788 87.96 89.58 87.96 89.5813C87.96 89.5825 87.96 89.5837 87.96 89.585C87.96 89.5862 87.96 89.5875 87.96 89.5887C87.96 89.59 87.96 89.5912 87.96 89.5925C87.96 89.5938 87.96 89.595 87.96 89.5963C87.96 89.5975 87.96 89.5987 87.96 89.6C87.96 89.6012 87.96 89.6025 87.96 89.6037C87.96 89.605 87.96 89.6062 87.96 89.6075C87.96 89.6087 87.96 89.61 87.96 89.6113C87.96 89.6125 87.96 89.6137 87.96 89.615C87.96 89.6162 87.96 89.6175 87.96 89.6187C87.96 89.62 87.96 89.6212 87.96 89.6225C87.96 89.6237 87.96 89.625 87.96 89.6263C87.96 89.6275 87.96 89.6287 87.96 89.63C87.96 89.6312 87.96 89.6325 87.96 89.6337C87.96 89.635 87.96 89.6362 87.96 89.6375C87.96 89.6387 87.96 89.64 87.96 89.6413C87.96 89.6425 87.96 89.6438 87.96 89.645C87.96 89.6462 87.96 89.6475 87.96 89.6487C87.96 89.65 87.96 89.6512 87.96 89.6525C87.96 89.6537 87.96 89.655 87.96 89.6562C87.96 89.6575 87.96 89.6588 87.96 89.66C87.96 89.6612 87.96 89.6625 87.96 89.6637C87.96 89.665 87.96 89.6662 87.96 89.6675C87.96 89.6687 87.96 89.67 87.96 89.6712C87.96 89.6725 87.96 89.6738 87.96 89.675C87.96 89.6762 87.96 89.6775 87.96 89.6787C87.96 89.68 87.96 89.6812 87.96 89.6825C87.96 89.6837 87.96 89.685 87.96 89.6862C87.96 89.6875 87.96 89.6888 87.96 89.69C87.96 89.6913 87.96 89.6925 87.96 89.6937C87.96 89.695 87.96 89.6962 87.96 89.6975C87.96 89.6987 87.96 89.7 87.96 89.7012C87.96 89.7025 87.96 89.7038 87.96 89.705C87.96 89.7063 87.96 89.7075 87.96 89.7087C87.96 89.71 87.96 89.7112 87.96 89.7125C87.96 89.7137 87.96 89.715 87.96 89.7162C87.96 89.7175 87.96 89.7188 87.96 89.72C87.96 89.7213 87.96 89.7225 87.96 89.7237C87.96 89.725 87.96 89.7262 87.96 89.7275C87.96 89.7287 87.96 89.73 87.96 89.7312C87.96 89.7325 87.96 89.7337 87.96 89.735C87.96 89.7363 87.96 89.7375 87.96 89.7387C87.96 89.74 87.96 89.7412 87.96 89.7425C87.96 89.7437 87.96 89.745 87.96 89.7462C87.96 89.7475 87.96 89.7487 87.96 89.75C87.96 89.7513 87.96 89.7525 87.96 89.7538C87.96 89.755 87.96 89.7562 87.96 89.7575C87.96 89.7587 87.96 89.76 87.96 89.7612C87.96 89.7625 87.96 89.7637 87.96 89.765C87.96 89.7663 87.96 89.7675 87.96 89.7688C87.96 89.77 87.96 89.7712 87.96 89.7725C87.96 89.7737 87.96 89.775 87.96 89.7762C87.96 89.7775 87.96 89.7787 87.96 89.78C87.96 89.7812 87.96 89.7825 87.96 89.7838C87.96 89.785 87.96 89.7862 87.96 89.7875C87.96 89.7887 87.96 89.79 87.96 89.7912C87.96 89.7925 87.96 89.7937 87.96 89.795C87.96 89.7962 87.96 89.7975 87.96 89.7988C87.96 89.8 87.96 89.8012 87.96 89.8025C87.96 89.8037 87.96 89.805 87.96 89.8062C87.96 89.8075 87.96 89.8087 87.96 89.81C87.96 89.8112 87.96 89.8125 87.96 89.8138C87.96 89.815 87.96 89.8163 87.96 89.8175C87.96 89.8187 87.96 89.82 87.96 89.8212C87.96 89.8225 87.96 89.8237 87.96 89.825C87.96 89.8262 87.96 89.8275 87.96 89.8288C87.96 89.83 87.96 89.8313 87.96 89.8325C87.96 89.8337 87.96 89.835 87.96 89.8362C87.96 89.8375 87.96 89.8387 87.96 89.84C87.96 89.8412 87.96 89.8425 87.96 89.8438C87.96 89.845 87.96 89.8463 87.96 89.8475C87.96 89.8487 87.96 89.85 87.96 89.8512C87.96 89.8525 87.96 89.8537 87.96 89.855C87.96 89.8562 87.96 89.8575 87.96 89.8587C87.96 89.86 87.96 89.8613 87.96 89.8625C87.96 89.8637 87.96 89.865 87.96 89.8662C87.96 89.8675 87.96 89.8687 87.96 89.87C87.96 89.8712 87.96 89.8725 87.96 89.8737C87.96 89.875 87.96 89.8763 87.96 89.8775C87.96 89.8788 87.96 89.88 87.96 89.8812C87.96 89.8825 87.96 89.8837 87.96 89.885C87.96 89.8862 87.96 89.8875 87.96 89.8887C87.96 89.89 87.96 89.8913 87.96 89.8925C87.96 89.8938 87.96 89.895 87.96 89.8962C87.96 89.8975 87.96 89.8987 87.96 89.9C87.96 89.9012 87.96 89.9025 87.96 89.9037C87.96 89.905 87.96 89.9062 87.96 89.9075C87.96 89.9088 87.96 89.91 87.96 89.9112C87.96 89.9125 87.96 89.9137 87.96 89.915C87.96 89.9162 87.96 89.9175 87.96 89.9187C87.96 89.92 87.96 89.9212 87.96 89.9225C87.96 89.9238 87.96 89.925 87.96 89.9262C87.96 89.9275 87.96 89.9287 87.96 89.93C87.96 89.9312 87.96 89.9325 87.96 89.9337C87.96 89.935 87.96 89.9362 87.96 89.9375C87.96 89.9388 87.96 89.94 87.96 89.9413C87.96 89.9425 87.96 89.9437 87.96 89.945C87.96 89.9462 87.96 89.9475 87.96 89.9487C87.96 89.95 87.96 89.9512 87.96 89.9525C87.96 89.9538 87.96 89.955 87.96 89.9563C87.96 89.9575 87.96 89.9587 87.96 89.96C87.96 89.9612 87.96 89.9625 87.96 89.9637C87.96 89.965 87.96 89.9662 87.96 89.9675C87.96 89.9688 87.96 89.97 87.96 89.9713C87.96 89.9725 87.96 89.9737 87.96 89.975C87.96 89.9762 87.96 89.9775 87.96 89.9787C87.96 89.98 87.96 89.9812 87.96 89.9825C87.96 89.9837 87.96 89.985 87.96 89.9863C87.96 89.9875 87.96 89.9887 87.96 89.99C87.96 89.9912 87.96 89.9925 87.96 89.9937C87.96 89.995 87.96 89.9962 87.96 89.9975C87.96 89.9987 87.96 90 87.96 90.0013C87.96 90.0025 87.96 90.0038 87.96 90.005C87.96 90.0062 87.96 90.0075 87.96 90.0087C87.96 90.01 87.96 90.0112 87.96 90.0125C87.96 90.0137 87.96 90.015 87.96 90.0163C87.96 90.0175 87.96 90.0188 87.96 90.02C87.96 90.0212 87.96 90.0225 87.96 90.0237C87.96 90.025 87.96 90.0262 87.96 90.0275C87.96 90.0287 87.96 90.03 87.96 90.0312C87.96 90.0325 87.96 90.0338 87.96 90.035C87.96 90.0362 87.96 90.0375 87.96 90.0387C87.96 90.04 87.96 90.0412 87.96 90.0425C87.96 90.0437 87.96 90.045 87.96 90.0462C87.96 90.0475 87.96 90.0488 87.96 90.05C87.96 90.0513 87.96 90.0525 87.96 90.0537C87.96 90.055 87.96 90.0562 87.96 90.0575C87.96 90.0587 87.96 90.06 87.96 90.0612C87.96 90.0625 87.96 90.0638 87.96 90.065C87.96 90.0663 87.96 90.0675 87.96 90.0687C87.96 90.07 87.96 90.0712 87.96 90.0725C87.96 90.0737 87.96 90.075 87.96 90.0762C87.96 90.0775 87.96 90.0788 87.96 90.08C87.96 90.0813 87.96 90.0825 87.96 90.0837C87.96 90.085 87.96 90.0862 87.96 90.0875C87.96 90.0887 87.96 90.09 87.96 90.0912C87.96 90.0925 87.96 90.0938 87.96 90.095C87.96 90.0963 87.96 90.0975 87.96 90.0987C87.96 90.1 87.96 90.1012 87.96 90.1025C87.96 90.1037 87.96 90.105 87.96 90.1062C87.96 90.1075 87.96 90.1087 87.96 90.11C87.96 90.1113 87.96 90.1125 87.96 90.1138C87.96 90.115 87.96 90.1162 87.96 90.1175C87.96 90.1187 87.96 90.12 87.96 90.1212C87.96 90.1225 87.96 90.1237 87.96 90.125C87.96 90.1263 87.96 90.1275 87.96 90.1288C87.96 90.13 87.96 90.1312 87.96 90.1325C87.96 90.1337 87.96 90.135 87.96 90.1362C87.96 90.1375 87.96 90.1387 87.96 90.14C87.96 90.1413 87.96 90.1425 87.96 90.1438C87.96 90.145 87.96 90.1462 87.96 90.1475C87.96 90.1487 87.96 90.15 87.96 90.1512C87.96 90.1525 87.96 90.1537 87.96 90.155C87.96 90.1562 87.96 90.1575 87.96 90.1588C87.96 90.16 87.96 90.1612 87.96 90.1625C87.96 90.1637 87.96 90.165 87.96 90.1662C87.96 90.1675 87.96 90.1687 87.96 90.17C87.96 90.1712 87.96 90.1725 87.96 90.1738C87.96 90.175 87.96 90.1763 87.96 90.1775C87.96 90.1787 87.96 90.18 87.96 90.1812C87.96 90.1825 87.96 90.1837 87.96 90.185C87.96 90.1862 87.96 90.1875 87.96 90.1888C87.96 90.19 87.96 90.1913 87.96 90.1925C87.96 90.1937 87.96 90.195 87.96 90.1962C87.96 90.1975 87.96 90.1987 87.96 90.2C87.96 90.2012 87.96 90.2025 87.96 90.2038C87.96 90.205 87.96 90.2063 87.96 90.2075C87.96 90.2087 87.96 90.21 87.96 90.2112C87.96 90.2125 87.96 90.2137 87.96 90.215C87.96 90.2162 87.96 90.2175 87.96 90.2188C87.96 90.22 87.96 90.2213 87.96 90.2225C87.96 90.2237 87.96 90.225 87.96 90.2262C87.96 90.2275 87.96 90.2287 87.96 90.23C87.96 90.2312 87.96 90.2325 87.96 90.2337C87.96 90.235 87.96 90.2363 87.96 90.2375C87.96 90.2388 87.96 90.24 87.96 90.2412C87.96 90.2425 87.96 90.2437 87.96 90.245C87.96 90.2462 87.96 90.2475 87.96 90.2487C87.96 90.25 87.96 90.2513 87.96 90.2525C87.96 90.2538 87.96 90.255 87.96 90.2562C87.96 90.2575 87.96 90.2587 87.96 90.26C87.96 90.2612 87.96 90.2625 87.96 90.2637C87.96 90.265 87.96 90.2663 87.96 90.2675C87.96 90.2688 87.96 90.27 87.96 90.2712C87.96 90.2725 87.96 90.2737 87.96 90.275C87.96 90.2762 87.96 90.2775 87.96 90.2787C87.96 90.28 87.96 90.2812 87.96 90.2825C87.96 90.2838 87.96 90.285 87.96 90.2862C87.96 90.2875 87.96 90.2887 87.96 90.29C87.96 90.2912 87.96 90.2925 87.96 90.2937C87.96 90.295 87.96 90.2962 87.96 90.2975C87.96 90.2988 87.96 90.3 87.96 90.3013C87.96 90.3025 87.96 90.3037 87.96 90.305C87.96 90.3062 87.96 90.3075 87.96 90.3087C87.96 90.31 87.96 90.3112 87.96 90.3125C87.96 90.3138 87.96 90.315 87.96 90.3163C87.96 90.3175 87.96 90.3187 87.96 90.32H90.96ZM90.96 88.4H93.96C93.96 88.3987 93.96 88.3975 93.96 88.3962C93.96 88.395 93.96 88.3937 93.96 88.3925C93.96 88.3913 93.96 88.39 93.96 88.3887C93.96 88.3875 93.96 88.3862 93.96 88.385C93.96 88.3837 93.96 88.3825 93.96 88.3812C93.96 88.38 93.96 88.3787 93.96 88.3775C93.96 88.3762 93.96 88.375 93.96 88.3737C93.96 88.3725 93.96 88.3712 93.96 88.37C93.96 88.3687 93.96 88.3675 93.96 88.3662C93.96 88.365 93.96 88.3637 93.96 88.3625C93.96 88.3612 93.96 88.36 93.96 88.3587C93.96 88.3575 93.96 88.3562 93.96 88.355C93.96 88.3537 93.96 88.3525 93.96 88.3512C93.96 88.35 93.96 88.3487 93.96 88.3475C93.96 88.3462 93.96 88.345 93.96 88.3438C93.96 88.3425 93.96 88.3412 93.96 88.34C93.96 88.3387 93.96 88.3375 93.96 88.3362C93.96 88.335 93.96 88.3337 93.96 88.3325C93.96 88.3312 93.96 88.33 93.96 88.3288C93.96 88.3275 93.96 88.3262 93.96 88.325C93.96 88.3237 93.96 88.3225 93.96 88.3212C93.96 88.32 93.96 88.3187 93.96 88.3175C93.96 88.3162 93.96 88.315 93.96 88.3138C93.96 88.3125 93.96 88.3112 93.96 88.31C93.96 88.3087 93.96 88.3075 93.96 88.3062C93.96 88.305 93.96 88.3037 93.96 88.3025C93.96 88.3012 93.96 88.3 93.96 88.2987C93.96 88.2975 93.96 88.2962 93.96 88.295C93.96 88.2937 93.96 88.2925 93.96 88.2912C93.96 88.29 93.96 88.2887 93.96 88.2875C93.96 88.2862 93.96 88.285 93.96 88.2837C93.96 88.2825 93.96 88.2812 93.96 88.28C93.96 88.2787 93.96 88.2775 93.96 88.2762C93.96 88.275 93.96 88.2737 93.96 88.2725C93.96 88.2712 93.96 88.27 93.96 88.2687C93.96 88.2675 93.96 88.2663 93.96 88.265C93.96 88.2637 93.96 88.2625 93.96 88.2612C93.96 88.26 93.96 88.2587 93.96 88.2575C93.96 88.2562 93.96 88.255 93.96 88.2537C93.96 88.2525 93.96 88.2513 93.96 88.25C93.96 88.2487 93.96 88.2475 93.96 88.2462C93.96 88.245 93.96 88.2437 93.96 88.2425C93.96 88.2412 93.96 88.24 93.96 88.2387C93.96 88.2375 93.96 88.2363 93.96 88.235C93.96 88.2337 93.96 88.2325 93.96 88.2312C93.96 88.23 93.96 88.2287 93.96 88.2275C93.96 88.2262 93.96 88.225 93.96 88.2237C93.96 88.2225 93.96 88.2212 93.96 88.22C93.96 88.2188 93.96 88.2175 93.96 88.2162C93.96 88.215 93.96 88.2137 93.96 88.2125C93.96 88.2112 93.96 88.21 93.96 88.2087C93.96 88.2075 93.96 88.2062 93.96 88.205C93.96 88.2038 93.96 88.2025 93.96 88.2012C93.96 88.2 93.96 88.1987 93.96 88.1975C93.96 88.1962 93.96 88.195 93.96 88.1937C93.96 88.1925 93.96 88.1912 93.96 88.19C93.96 88.1888 93.96 88.1875 93.96 88.1862C93.96 88.185 93.96 88.1837 93.96 88.1825C93.96 88.1812 93.96 88.18 93.96 88.1787C93.96 88.1775 93.96 88.1762 93.96 88.175C93.96 88.1738 93.96 88.1725 93.96 88.1712C93.96 88.17 93.96 88.1687 93.96 88.1675C93.96 88.1662 93.96 88.165 93.96 88.1637C93.96 88.1625 93.96 88.1612 93.96 88.16C93.96 88.1587 93.96 88.1575 93.96 88.1562C93.96 88.155 93.96 88.1537 93.96 88.1525C93.96 88.1512 93.96 88.15 93.96 88.1487C93.96 88.1475 93.96 88.1462 93.96 88.145C93.96 88.1437 93.96 88.1425 93.96 88.1413C93.96 88.14 93.96 88.1387 93.96 88.1375C93.96 88.1362 93.96 88.135 93.96 88.1337C93.96 88.1325 93.96 88.1312 93.96 88.13C93.96 88.1287 93.96 88.1275 93.96 88.1263C93.96 88.125 93.96 88.1237 93.96 88.1225C93.96 88.1212 93.96 88.12 93.96 88.1187C93.96 88.1175 93.96 88.1162 93.96 88.115C93.96 88.1137 93.96 88.1125 93.96 88.1113C93.96 88.11 93.96 88.1087 93.96 88.1075C93.96 88.1062 93.96 88.105 93.96 88.1037C93.96 88.1025 93.96 88.1012 93.96 88.1C93.96 88.0987 93.96 88.0975 93.96 88.0963C93.96 88.095 93.96 88.0938 93.96 88.0925C93.96 88.0912 93.96 88.09 93.96 88.0887C93.96 88.0875 93.96 88.0862 93.96 88.085C93.96 88.0837 93.96 88.0825 93.96 88.0812C93.96 88.08 93.96 88.0788 93.96 88.0775C93.96 88.0762 93.96 88.075 93.96 88.0737C93.96 88.0725 93.96 88.0712 93.96 88.07C93.96 88.0687 93.96 88.0675 93.96 88.0662C93.96 88.065 93.96 88.0638 93.96 88.0625C93.96 88.0612 93.96 88.06 93.96 88.0587C93.96 88.0575 93.96 88.0562 93.96 88.055C93.96 88.0537 93.96 88.0525 93.96 88.0512C93.96 88.05 93.96 88.0488 93.96 88.0475C93.96 88.0462 93.96 88.045 93.96 88.0437C93.96 88.0425 93.96 88.0412 93.96 88.04C93.96 88.0387 93.96 88.0375 93.96 88.0362C93.96 88.035 93.96 88.0338 93.96 88.0325C93.96 88.0312 93.96 88.03 93.96 88.0287C93.96 88.0275 93.96 88.0262 93.96 88.025C93.96 88.0237 93.96 88.0225 93.96 88.0212C93.96 88.02 93.96 88.0187 93.96 88.0175C93.96 88.0163 93.96 88.015 93.96 88.0137C93.96 88.0125 93.96 88.0112 93.96 88.01C93.96 88.0087 93.96 88.0075 93.96 88.0062C93.96 88.005 93.96 88.0037 93.96 88.0025C93.96 88.0013 93.96 88 93.96 87.9987C93.96 87.9975 93.96 87.9962 93.96 87.995C93.96 87.9937 93.96 87.9925 93.96 87.9912C93.96 87.99 93.96 87.9887 93.96 87.9875C93.96 87.9863 93.96 87.985 93.96 87.9837C93.96 87.9825 93.96 87.9812 93.96 87.98C93.96 87.9787 93.96 87.9775 93.96 87.9762C93.96 87.975 93.96 87.9737 93.96 87.9725C93.96 87.9713 93.96 87.97 93.96 87.9688C93.96 87.9675 93.96 87.9662 93.96 87.965C93.96 87.9637 93.96 87.9625 93.96 87.9612C93.96 87.96 93.96 87.9587 93.96 87.9575C93.96 87.9563 93.96 87.955 93.96 87.9538C93.96 87.9525 93.96 87.9512 93.96 87.95C93.96 87.9487 93.96 87.9475 93.96 87.9462C93.96 87.945 93.96 87.9437 93.96 87.9425C93.96 87.9412 93.96 87.94 93.96 87.9388C93.96 87.9375 93.96 87.9362 93.96 87.935C93.96 87.9337 93.96 87.9325 93.96 87.9312C93.96 87.93 93.96 87.9287 93.96 87.9275C93.96 87.9262 93.96 87.925 93.96 87.9238C93.96 87.9225 93.96 87.9212 93.96 87.92C93.96 87.9187 93.96 87.9175 93.96 87.9162C93.96 87.915 93.96 87.9137 93.96 87.9125C93.96 87.9112 93.96 87.91 93.96 87.9088C93.96 87.9075 93.96 87.9062 93.96 87.905C93.96 87.9037 93.96 87.9025 93.96 87.9012C93.96 87.9 93.96 87.8987 93.96 87.8975C93.96 87.8962 93.96 87.895 93.96 87.8938C93.96 87.8925 93.96 87.8913 93.96 87.89C93.96 87.8887 93.96 87.8875 93.96 87.8862C93.96 87.885 93.96 87.8837 93.96 87.8825C93.96 87.8812 93.96 87.88 93.96 87.8787C93.96 87.8775 93.96 87.8763 93.96 87.875C93.96 87.8737 93.96 87.8725 93.96 87.8712C93.96 87.87 93.96 87.8687 93.96 87.8675C93.96 87.8662 93.96 87.865 93.96 87.8637C93.96 87.8625 93.96 87.8613 93.96 87.86C93.96 87.8587 93.96 87.8575 93.96 87.8562C93.96 87.855 93.96 87.8537 93.96 87.8525C93.96 87.8512 93.96 87.85 93.96 87.8487C93.96 87.8475 93.96 87.8463 93.96 87.845C93.96 87.8438 93.96 87.8425 93.96 87.8412C93.96 87.84 93.96 87.8387 93.96 87.8375C93.96 87.8362 93.96 87.835 93.96 87.8337C93.96 87.8325 93.96 87.8313 93.96 87.83C93.96 87.8288 93.96 87.8275 93.96 87.8262C93.96 87.825 93.96 87.8237 93.96 87.8225C93.96 87.8212 93.96 87.82 93.96 87.8187C93.96 87.8175 93.96 87.8162 93.96 87.815C93.96 87.8138 93.96 87.8125 93.96 87.8112C93.96 87.81 93.96 87.8087 93.96 87.8075C93.96 87.8062 93.96 87.805 93.96 87.8037C93.96 87.8025 93.96 87.8012 93.96 87.8C93.96 87.7988 93.96 87.7975 93.96 87.7962C93.96 87.795 93.96 87.7937 93.96 87.7925C93.96 87.7912 93.96 87.79 93.96 87.7887C93.96 87.7875 93.96 87.7862 93.96 87.785C93.96 87.7838 93.96 87.7825 93.96 87.7812C93.96 87.78 93.96 87.7787 93.96 87.7775C93.96 87.7762 93.96 87.775 93.96 87.7737C93.96 87.7725 93.96 87.7712 93.96 87.77C93.96 87.7688 93.96 87.7675 93.96 87.7663C93.96 87.765 93.96 87.7637 93.96 87.7625C93.96 87.7612 93.96 87.76 93.96 87.7587C93.96 87.7575 93.96 87.7562 93.96 87.755C93.96 87.7538 93.96 87.7525 93.96 87.7513C93.96 87.75 93.96 87.7487 93.96 87.7475C93.96 87.7462 93.96 87.745 93.96 87.7437C93.96 87.7425 93.96 87.7412 93.96 87.74C93.96 87.7387 93.96 87.7375 93.96 87.7363C93.96 87.735 93.96 87.7337 93.96 87.7325C93.96 87.7312 93.96 87.73 93.96 87.7287C93.96 87.7275 93.96 87.7262 93.96 87.725C93.96 87.7237 93.96 87.7225 93.96 87.7213C93.96 87.72 93.96 87.7188 93.96 87.7175C93.96 87.7162 93.96 87.715 93.96 87.7137C93.96 87.7125 93.96 87.7112 93.96 87.71C93.96 87.7087 93.96 87.7075 93.96 87.7063C93.96 87.705 93.96 87.7038 93.96 87.7025C93.96 87.7012 93.96 87.7 93.96 87.6987C93.96 87.6975 93.96 87.6962 93.96 87.695C93.96 87.6937 93.96 87.6925 93.96 87.6913C93.96 87.69 93.96 87.6888 93.96 87.6875C93.96 87.6862 93.96 87.685 93.96 87.6837C93.96 87.6825 93.96 87.6812 93.96 87.68C93.96 87.6787 93.96 87.6775 93.96 87.6762C93.96 87.675 93.96 87.6738 93.96 87.6725C93.96 87.6712 93.96 87.67 93.96 87.6687C93.96 87.6675 93.96 87.6662 93.96 87.665C93.96 87.6637 93.96 87.6625 93.96 87.6612C93.96 87.66 93.96 87.6588 93.96 87.6575C93.96 87.6562 93.96 87.655 93.96 87.6537C93.96 87.6525 93.96 87.6512 93.96 87.65C93.96 87.6487 93.96 87.6475 93.96 87.6462C93.96 87.645 93.96 87.6438 93.96 87.6425C93.96 87.6413 93.96 87.64 93.96 87.6387C93.96 87.6375 93.96 87.6362 93.96 87.635C93.96 87.6337 93.96 87.6325 93.96 87.6312C93.96 87.63 93.96 87.6288 93.96 87.6275C93.96 87.6263 93.96 87.625 93.96 87.6237C93.96 87.6225 93.96 87.6212 93.96 87.62C93.96 87.6187 93.96 87.6175 93.96 87.6162C93.96 87.615 93.96 87.6137 93.96 87.6125C93.96 87.6113 93.96 87.61 93.96 87.6087C93.96 87.6075 93.96 87.6062 93.96 87.605C93.96 87.6037 93.96 87.6025 93.96 87.6012C93.96 87.6 93.96 87.5987 93.96 87.5975C93.96 87.5963 93.96 87.595 93.96 87.5938C93.96 87.5925 93.96 87.5912 93.96 87.59C93.96 87.5887 93.96 87.5875 93.96 87.5862C93.96 87.585 93.96 87.5837 93.96 87.5825C93.96 87.5813 93.96 87.58 93.96 87.5788C93.96 87.5775 93.96 87.5762 93.96 87.575C93.96 87.5737 93.96 87.5725 93.96 87.5712C93.96 87.57 93.96 87.5687 93.96 87.5675C93.96 87.5663 93.96 87.565 93.96 87.5638C93.96 87.5625 93.96 87.5612 93.96 87.56C93.96 87.5587 93.96 87.5575 93.96 87.5562C93.96 87.555 93.96 87.5537 93.96 87.5525C93.96 87.5512 93.96 87.55 93.96 87.5488C93.96 87.5475 93.96 87.5462 93.96 87.545C93.96 87.5437 93.96 87.5425 93.96 87.5412C93.96 87.54 93.96 87.5387 93.96 87.5375C93.96 87.5362 93.96 87.535 93.96 87.5338C93.96 87.5325 93.96 87.5312 93.96 87.53C93.96 87.5287 93.96 87.5275 93.96 87.5262C93.96 87.525 93.96 87.5237 93.96 87.5225C93.96 87.5212 93.96 87.52 93.96 87.5188C93.96 87.5175 93.96 87.5163 93.96 87.515C93.96 87.5137 93.96 87.5125 93.96 87.5112C93.96 87.51 93.96 87.5087 93.96 87.5075C93.96 87.5062 93.96 87.505 93.96 87.5038C93.96 87.5025 93.96 87.5013 93.96 87.5C93.96 87.4987 93.96 87.4975 93.96 87.4962C93.96 87.495 93.96 87.4937 93.96 87.4925C93.96 87.4912 93.96 87.49 93.96 87.4888C93.96 87.4875 93.96 87.4863 93.96 87.485C93.96 87.4837 93.96 87.4825 93.96 87.4812C93.96 87.48 93.96 87.4787 93.96 87.4775C93.96 87.4762 93.96 87.475 93.96 87.4737C93.96 87.4725 93.96 87.4713 93.96 87.47C93.96 87.4688 93.96 87.4675 93.96 87.4662C93.96 87.465 93.96 87.4637 93.96 87.4625C93.96 87.4612 93.96 87.46 93.96 87.4587C93.96 87.4575 93.96 87.4563 93.96 87.455C93.96 87.4538 93.96 87.4525 93.96 87.4512C93.96 87.45 93.96 87.4487 93.96 87.4475C93.96 87.4462 93.96 87.445 93.96 87.4437C93.96 87.4425 93.96 87.4413 93.96 87.44C93.96 87.4388 93.96 87.4375 93.96 87.4362C93.96 87.435 93.96 87.4337 93.96 87.4325C93.96 87.4312 93.96 87.43 93.96 87.4287C93.96 87.4275 93.96 87.4263 93.96 87.425C93.96 87.4238 93.96 87.4225 93.96 87.4212C93.96 87.42 93.96 87.4187 93.96 87.4175C93.96 87.4162 93.96 87.415 93.96 87.4137C93.96 87.4125 93.96 87.4112 93.96 87.41C93.96 87.4088 93.96 87.4075 93.96 87.4062C93.96 87.405 93.96 87.4037 93.96 87.4025C93.96 87.4012 93.96 87.4 93.96 87.3987C93.96 87.3975 93.96 87.3962 93.96 87.395C93.96 87.3938 93.96 87.3925 93.96 87.3913C93.96 87.39 93.96 87.3887 93.96 87.3875C93.96 87.3862 93.96 87.385 93.96 87.3837C93.96 87.3825 93.96 87.3812 93.96 87.38C93.96 87.3788 93.96 87.3775 93.96 87.3763C93.96 87.375 93.96 87.3737 93.96 87.3725C93.96 87.3712 93.96 87.37 93.96 87.3687C93.96 87.3675 93.96 87.3662 93.96 87.365C93.96 87.3638 93.96 87.3625 93.96 87.3613C93.96 87.36 93.96 87.3587 93.96 87.3575C93.96 87.3562 93.96 87.355 93.96 87.3537C93.96 87.3525 93.96 87.3512 93.96 87.35C93.96 87.3487 93.96 87.3475 93.96 87.3463C93.96 87.345 93.96 87.3438 93.96 87.3425C93.96 87.3412 93.96 87.34 93.96 87.3387C93.96 87.3375 93.96 87.3362 93.96 87.335C93.96 87.3337 93.96 87.3325 93.96 87.3313C93.96 87.33 93.96 87.3288 93.96 87.3275C93.96 87.3262 93.96 87.325 93.96 87.3237C93.96 87.3225 93.96 87.3212 93.96 87.32C93.96 87.3187 93.96 87.3175 93.96 87.3163C93.96 87.315 93.96 87.3138 93.96 87.3125C93.96 87.3112 93.96 87.31 93.96 87.3087C93.96 87.3075 93.96 87.3062 93.96 87.305C93.96 87.3037 93.96 87.3025 93.96 87.3013C93.96 87.3 93.96 87.2988 93.96 87.2975C93.96 87.2962 93.96 87.295 93.96 87.2937C93.96 87.2925 93.96 87.2912 93.96 87.29C93.96 87.2887 93.96 87.2875 93.96 87.2862C93.96 87.285 93.96 87.2838 93.96 87.2825C93.96 87.2812 93.96 87.28 93.96 87.2787C93.96 87.2775 93.96 87.2762 93.96 87.275C93.96 87.2737 93.96 87.2725 93.96 87.2712C93.96 87.27 93.96 87.2688 93.96 87.2675C93.96 87.2663 93.96 87.265 93.96 87.2637C93.96 87.2625 93.96 87.2612 93.96 87.26C93.96 87.2587 93.96 87.2575 93.96 87.2562C93.96 87.255 93.96 87.2538 93.96 87.2525C93.96 87.2513 93.96 87.25 93.96 87.2487C93.96 87.2475 93.96 87.2462 93.96 87.245C93.96 87.2437 93.96 87.2425 93.96 87.2412C93.96 87.24 93.96 87.2388 93.96 87.2375C93.96 87.2363 93.96 87.235 93.96 87.2337C93.96 87.2325 93.96 87.2312 93.96 87.23C93.96 87.2287 93.96 87.2275 93.96 87.2262C93.96 87.225 93.96 87.2237 93.96 87.2225C93.96 87.2213 93.96 87.22 93.96 87.2188C93.96 87.2175 93.96 87.2162 93.96 87.215C93.96 87.2137 93.96 87.2125 93.96 87.2112C93.96 87.21 93.96 87.2087 93.96 87.2075C93.96 87.2063 93.96 87.205 93.96 87.2038C93.96 87.2025 93.96 87.2012 93.96 87.2C93.96 87.1987 93.96 87.1975 93.96 87.1962C93.96 87.195 93.96 87.1937 93.96 87.1925C93.96 87.1913 93.96 87.19 93.96 87.1888C93.96 87.1875 93.96 87.1862 93.96 87.185C93.96 87.1837 93.96 87.1825 93.96 87.1812C93.96 87.18 93.96 87.1787 93.96 87.1775C93.96 87.1763 93.96 87.175 93.96 87.1738C93.96 87.1725 93.96 87.1712 93.96 87.17C93.96 87.1687 93.96 87.1675 93.96 87.1662C93.96 87.165 93.96 87.1637 93.96 87.1625C93.96 87.1612 93.96 87.16 93.96 87.1588C93.96 87.1575 93.96 87.1562 93.96 87.155C93.96 87.1537 93.96 87.1525 93.96 87.1512C93.96 87.15 93.96 87.1487 93.96 87.1475C93.96 87.1462 93.96 87.145 93.96 87.1438C93.96 87.1425 93.96 87.1413 93.96 87.14C93.96 87.1387 93.96 87.1375 93.96 87.1362C93.96 87.135 93.96 87.1337 93.96 87.1325C93.96 87.1312 93.96 87.13 93.96 87.1288C93.96 87.1275 93.96 87.1263 93.96 87.125C93.96 87.1237 93.96 87.1225 93.96 87.1212C93.96 87.12 93.96 87.1187 93.96 87.1175C93.96 87.1162 93.96 87.115 93.96 87.1138C93.96 87.1125 93.96 87.1113 93.96 87.11C93.96 87.1087 93.96 87.1075 93.96 87.1062C93.96 87.105 93.96 87.1037 93.96 87.1025C93.96 87.1012 93.96 87.1 93.96 87.0987C93.96 87.0975 93.96 87.0963 93.96 87.095C93.96 87.0938 93.96 87.0925 93.96 87.0912C93.96 87.09 93.96 87.0887 93.96 87.0875C93.96 87.0862 93.96 87.085 93.96 87.0837C93.96 87.0825 93.96 87.0813 93.96 87.08C93.96 87.0788 93.96 87.0775 93.96 87.0762C93.96 87.075 93.96 87.0737 93.96 87.0725C93.96 87.0712 93.96 87.07 93.96 87.0687C93.96 87.0675 93.96 87.0663 93.96 87.065C93.96 87.0638 93.96 87.0625 93.96 87.0612C93.96 87.06 93.96 87.0587 93.96 87.0575C93.96 87.0562 93.96 87.055 93.96 87.0537C93.96 87.0525 93.96 87.0513 93.96 87.05C93.96 87.0488 93.96 87.0475 93.96 87.0462C93.96 87.045 93.96 87.0437 93.96 87.0425C93.96 87.0412 93.96 87.04 93.96 87.0387C93.96 87.0375 93.96 87.0362 93.96 87.035C93.96 87.0338 93.96 87.0325 93.96 87.0312C93.96 87.03 93.96 87.0287 93.96 87.0275C93.96 87.0262 93.96 87.025 93.96 87.0237C93.96 87.0225 93.96 87.0212 93.96 87.02C93.96 87.0188 93.96 87.0175 93.96 87.0163C93.96 87.015 93.96 87.0137 93.96 87.0125C93.96 87.0112 93.96 87.01 93.96 87.0087C93.96 87.0075 93.96 87.0062 93.96 87.005C93.96 87.0038 93.96 87.0025 93.96 87.0013C93.96 87 93.96 86.9987 93.96 86.9975C93.96 86.9962 93.96 86.995 93.96 86.9937C93.96 86.9925 93.96 86.9912 93.96 86.99C93.96 86.9888 93.96 86.9875 93.96 86.9863C93.96 86.985 93.96 86.9837 93.96 86.9825C93.96 86.9812 93.96 86.98 93.96 86.9787C93.96 86.9775 93.96 86.9762 93.96 86.975C93.96 86.9737 93.96 86.9725 93.96 86.9713C93.96 86.97 93.96 86.9688 93.96 86.9675C93.96 86.9662 93.96 86.965 93.96 86.9637C93.96 86.9625 93.96 86.9612 93.96 86.96C93.96 86.9587 93.96 86.9575 93.96 86.9563C93.96 86.955 93.96 86.9538 93.96 86.9525C93.96 86.9512 93.96 86.95 93.96 86.9487C93.96 86.9475 93.96 86.9462 93.96 86.945C93.96 86.9437 93.96 86.9425 93.96 86.9413C93.96 86.94 93.96 86.9388 93.96 86.9375C93.96 86.9362 93.96 86.935 93.96 86.9337C93.96 86.9325 93.96 86.9312 93.96 86.93C93.96 86.9287 93.96 86.9275 93.96 86.9263C93.96 86.925 93.96 86.9238 93.96 86.9225C93.96 86.9212 93.96 86.92 93.96 86.9187C93.96 86.9175 93.96 86.9162 93.96 86.915C93.96 86.9137 93.96 86.9125 93.96 86.9112C93.96 86.91 93.96 86.9088 93.96 86.9075C93.96 86.9062 93.96 86.905 93.96 86.9037C93.96 86.9025 93.96 86.9012 93.96 86.9C93.96 86.8987 93.96 86.8975 93.96 86.8962C93.96 86.895 93.96 86.8938 93.96 86.8925C93.96 86.8913 93.96 86.89 93.96 86.8887C93.96 86.8875 93.96 86.8862 93.96 86.885C93.96 86.8837 93.96 86.8825 93.96 86.8812C93.96 86.88 93.96 86.8788 93.96 86.8775C93.96 86.8763 93.96 86.875 93.96 86.8737C93.96 86.8725 93.96 86.8712 93.96 86.87C93.96 86.8687 93.96 86.8675 93.96 86.8662C93.96 86.865 93.96 86.8638 93.96 86.8625C93.96 86.8613 93.96 86.86 93.96 86.8587C93.96 86.8575 93.96 86.8562 93.96 86.855C93.96 86.8537 93.96 86.8525 93.96 86.8512C93.96 86.85 93.96 86.8487 93.96 86.8475C93.96 86.8463 93.96 86.845 93.96 86.8438C93.96 86.8425 93.96 86.8412 93.96 86.84C93.96 86.8387 93.96 86.8375 93.96 86.8362C93.96 86.835 93.96 86.8337 93.96 86.8325C93.96 86.8313 93.96 86.83 93.96 86.8288C93.96 86.8275 93.96 86.8262 93.96 86.825C93.96 86.8237 93.96 86.8225 93.96 86.8212C93.96 86.82 93.96 86.8187 93.96 86.8175C93.96 86.8163 93.96 86.815 93.96 86.8138C93.96 86.8125 93.96 86.8112 93.96 86.81C93.96 86.8087 93.96 86.8075 93.96 86.8062C93.96 86.805 93.96 86.8037 93.96 86.8025C93.96 86.8013 93.96 86.8 93.96 86.7988C93.96 86.7975 93.96 86.7962 93.96 86.795C93.96 86.7937 93.96 86.7925 93.96 86.7912C93.96 86.79 93.96 86.7887 93.96 86.7875C93.96 86.7862 93.96 86.785 93.96 86.7838C93.96 86.7825 93.96 86.7812 93.96 86.78C93.96 86.7787 93.96 86.7775 93.96 86.7762C93.96 86.775 93.96 86.7737 93.96 86.7725C93.96 86.7712 93.96 86.77 93.96 86.7688C93.96 86.7675 93.96 86.7663 93.96 86.765C93.96 86.7637 93.96 86.7625 93.96 86.7612C93.96 86.76 93.96 86.7587 93.96 86.7575C93.96 86.7562 93.96 86.755 93.96 86.7538C93.96 86.7525 93.96 86.7513 93.96 86.75C93.96 86.7487 93.96 86.7475 93.96 86.7462C93.96 86.745 93.96 86.7437 93.96 86.7425C93.96 86.7412 93.96 86.74 93.96 86.7388C93.96 86.7375 93.96 86.7363 93.96 86.735C93.96 86.7337 93.96 86.7325 93.96 86.7312C93.96 86.73 93.96 86.7287 93.96 86.7275C93.96 86.7262 93.96 86.725 93.96 86.7237C93.96 86.7225 93.96 86.7213 93.96 86.72C93.96 86.7188 93.96 86.7175 93.96 86.7162C93.96 86.715 93.96 86.7137 93.96 86.7125C93.96 86.7112 93.96 86.71 93.96 86.7087C93.96 86.7075 93.96 86.7063 93.96 86.705C93.96 86.7038 93.96 86.7025 93.96 86.7012C93.96 86.7 93.96 86.6987 93.96 86.6975C93.96 86.6962 93.96 86.695 93.96 86.6937C93.96 86.6925 93.96 86.6913 93.96 86.69C93.96 86.6888 93.96 86.6875 93.96 86.6862C93.96 86.685 93.96 86.6837 93.96 86.6825C93.96 86.6812 93.96 86.68 93.96 86.6787C93.96 86.6775 93.96 86.6763 93.96 86.675C93.96 86.6738 93.96 86.6725 93.96 86.6712C93.96 86.67 93.96 86.6687 93.96 86.6675C93.96 86.6662 93.96 86.665 93.96 86.6637C93.96 86.6625 93.96 86.6612 93.96 86.66C93.96 86.6588 93.96 86.6575 93.96 86.6562C93.96 86.655 93.96 86.6537 93.96 86.6525C93.96 86.6512 93.96 86.65 93.96 86.6487C93.96 86.6475 93.96 86.6462 93.96 86.645C93.96 86.6438 93.96 86.6425 93.96 86.6413C93.96 86.64 93.96 86.6387 93.96 86.6375C93.96 86.6362 93.96 86.635 93.96 86.6337C93.96 86.6325 93.96 86.6312 93.96 86.63C93.96 86.6288 93.96 86.6275 93.96 86.6263C93.96 86.625 93.96 86.6237 93.96 86.6225C93.96 86.6212 93.96 86.62 93.96 86.6187C93.96 86.6175 93.96 86.6162 93.96 86.615C93.96 86.6138 93.96 86.6125 93.96 86.6113C93.96 86.61 93.96 86.6087 93.96 86.6075C93.96 86.6062 93.96 86.605 93.96 86.6037C93.96 86.6025 93.96 86.6012 93.96 86.6C93.96 86.5987 93.96 86.5975 93.96 86.5963C93.96 86.595 93.96 86.5938 93.96 86.5925C93.96 86.5912 93.96 86.59 93.96 86.5887C93.96 86.5875 93.96 86.5862 93.96 86.585C93.96 86.5837 93.96 86.5825 93.96 86.5813C93.96 86.58 93.96 86.5788 93.96 86.5775C93.96 86.5762 93.96 86.575 93.96 86.5737C93.96 86.5725 93.96 86.5712 93.96 86.57C93.96 86.5687 93.96 86.5675 93.96 86.5663C93.96 86.565 93.96 86.5638 93.96 86.5625C93.96 86.5612 93.96 86.56 93.96 86.5587C93.96 86.5575 93.96 86.5562 93.96 86.555C93.96 86.5537 93.96 86.5525 93.96 86.5513C93.96 86.55 93.96 86.5488 93.96 86.5475C93.96 86.5462 93.96 86.545 93.96 86.5437C93.96 86.5425 93.96 86.5412 93.96 86.54C93.96 86.5387 93.96 86.5375 93.96 86.5362C93.96 86.535 93.96 86.5338 93.96 86.5325C93.96 86.5312 93.96 86.53 93.96 86.5287C93.96 86.5275 93.96 86.5262 93.96 86.525C93.96 86.5237 93.96 86.5225 93.96 86.5212C93.96 86.52 93.96 86.5188 93.96 86.5175C93.96 86.5163 93.96 86.515 93.96 86.5137C93.96 86.5125 93.96 86.5112 93.96 86.51C93.96 86.5087 93.96 86.5075 93.96 86.5062C93.96 86.505 93.96 86.5038 93.96 86.5025C93.96 86.5013 93.96 86.5 93.96 86.4987C93.96 86.4975 93.96 86.4962 93.96 86.495C93.96 86.4937 93.96 86.4925 93.96 86.4912C93.96 86.49 93.96 86.4888 93.96 86.4875C93.96 86.4863 93.96 86.485 93.96 86.4837C93.96 86.4825 93.96 86.4812 93.96 86.48H90.96H87.96C87.96 86.4812 87.96 86.4825 87.96 86.4837C87.96 86.485 87.96 86.4863 87.96 86.4875C87.96 86.4888 87.96 86.49 87.96 86.4912C87.96 86.4925 87.96 86.4937 87.96 86.495C87.96 86.4962 87.96 86.4975 87.96 86.4987C87.96 86.5 87.96 86.5013 87.96 86.5025C87.96 86.5038 87.96 86.505 87.96 86.5062C87.96 86.5075 87.96 86.5087 87.96 86.51C87.96 86.5112 87.96 86.5125 87.96 86.5137C87.96 86.515 87.96 86.5163 87.96 86.5175C87.96 86.5188 87.96 86.52 87.96 86.5212C87.96 86.5225 87.96 86.5237 87.96 86.525C87.96 86.5262 87.96 86.5275 87.96 86.5287C87.96 86.53 87.96 86.5312 87.96 86.5325C87.96 86.5338 87.96 86.535 87.96 86.5362C87.96 86.5375 87.96 86.5387 87.96 86.54C87.96 86.5412 87.96 86.5425 87.96 86.5437C87.96 86.545 87.96 86.5462 87.96 86.5475C87.96 86.5488 87.96 86.55 87.96 86.5513C87.96 86.5525 87.96 86.5537 87.96 86.555C87.96 86.5562 87.96 86.5575 87.96 86.5587C87.96 86.56 87.96 86.5612 87.96 86.5625C87.96 86.5638 87.96 86.565 87.96 86.5663C87.96 86.5675 87.96 86.5687 87.96 86.57C87.96 86.5712 87.96 86.5725 87.96 86.5737C87.96 86.575 87.96 86.5762 87.96 86.5775C87.96 86.5788 87.96 86.58 87.96 86.5813C87.96 86.5825 87.96 86.5837 87.96 86.585C87.96 86.5862 87.96 86.5875 87.96 86.5887C87.96 86.59 87.96 86.5912 87.96 86.5925C87.96 86.5938 87.96 86.595 87.96 86.5963C87.96 86.5975 87.96 86.5987 87.96 86.6C87.96 86.6012 87.96 86.6025 87.96 86.6037C87.96 86.605 87.96 86.6062 87.96 86.6075C87.96 86.6087 87.96 86.61 87.96 86.6113C87.96 86.6125 87.96 86.6138 87.96 86.615C87.96 86.6162 87.96 86.6175 87.96 86.6187C87.96 86.62 87.96 86.6212 87.96 86.6225C87.96 86.6237 87.96 86.625 87.96 86.6263C87.96 86.6275 87.96 86.6288 87.96 86.63C87.96 86.6312 87.96 86.6325 87.96 86.6337C87.96 86.635 87.96 86.6362 87.96 86.6375C87.96 86.6387 87.96 86.64 87.96 86.6413C87.96 86.6425 87.96 86.6438 87.96 86.645C87.96 86.6462 87.96 86.6475 87.96 86.6487C87.96 86.65 87.96 86.6512 87.96 86.6525C87.96 86.6537 87.96 86.655 87.96 86.6562C87.96 86.6575 87.96 86.6588 87.96 86.66C87.96 86.6612 87.96 86.6625 87.96 86.6637C87.96 86.665 87.96 86.6662 87.96 86.6675C87.96 86.6687 87.96 86.67 87.96 86.6712C87.96 86.6725 87.96 86.6738 87.96 86.675C87.96 86.6763 87.96 86.6775 87.96 86.6787C87.96 86.68 87.96 86.6812 87.96 86.6825C87.96 86.6837 87.96 86.685 87.96 86.6862C87.96 86.6875 87.96 86.6888 87.96 86.69C87.96 86.6913 87.96 86.6925 87.96 86.6937C87.96 86.695 87.96 86.6962 87.96 86.6975C87.96 86.6987 87.96 86.7 87.96 86.7012C87.96 86.7025 87.96 86.7038 87.96 86.705C87.96 86.7063 87.96 86.7075 87.96 86.7087C87.96 86.71 87.96 86.7112 87.96 86.7125C87.96 86.7137 87.96 86.715 87.96 86.7162C87.96 86.7175 87.96 86.7188 87.96 86.72C87.96 86.7213 87.96 86.7225 87.96 86.7237C87.96 86.725 87.96 86.7262 87.96 86.7275C87.96 86.7287 87.96 86.73 87.96 86.7312C87.96 86.7325 87.96 86.7337 87.96 86.735C87.96 86.7363 87.96 86.7375 87.96 86.7388C87.96 86.74 87.96 86.7412 87.96 86.7425C87.96 86.7437 87.96 86.745 87.96 86.7462C87.96 86.7475 87.96 86.7487 87.96 86.75C87.96 86.7513 87.96 86.7525 87.96 86.7538C87.96 86.755 87.96 86.7562 87.96 86.7575C87.96 86.7587 87.96 86.76 87.96 86.7612C87.96 86.7625 87.96 86.7637 87.96 86.765C87.96 86.7663 87.96 86.7675 87.96 86.7688C87.96 86.77 87.96 86.7712 87.96 86.7725C87.96 86.7737 87.96 86.775 87.96 86.7762C87.96 86.7775 87.96 86.7787 87.96 86.78C87.96 86.7812 87.96 86.7825 87.96 86.7838C87.96 86.785 87.96 86.7862 87.96 86.7875C87.96 86.7887 87.96 86.79 87.96 86.7912C87.96 86.7925 87.96 86.7937 87.96 86.795C87.96 86.7962 87.96 86.7975 87.96 86.7988C87.96 86.8 87.96 86.8013 87.96 86.8025C87.96 86.8037 87.96 86.805 87.96 86.8062C87.96 86.8075 87.96 86.8087 87.96 86.81C87.96 86.8112 87.96 86.8125 87.96 86.8138C87.96 86.815 87.96 86.8163 87.96 86.8175C87.96 86.8187 87.96 86.82 87.96 86.8212C87.96 86.8225 87.96 86.8237 87.96 86.825C87.96 86.8262 87.96 86.8275 87.96 86.8288C87.96 86.83 87.96 86.8313 87.96 86.8325C87.96 86.8337 87.96 86.835 87.96 86.8362C87.96 86.8375 87.96 86.8387 87.96 86.84C87.96 86.8412 87.96 86.8425 87.96 86.8438C87.96 86.845 87.96 86.8463 87.96 86.8475C87.96 86.8487 87.96 86.85 87.96 86.8512C87.96 86.8525 87.96 86.8537 87.96 86.855C87.96 86.8562 87.96 86.8575 87.96 86.8587C87.96 86.86 87.96 86.8613 87.96 86.8625C87.96 86.8638 87.96 86.865 87.96 86.8662C87.96 86.8675 87.96 86.8687 87.96 86.87C87.96 86.8712 87.96 86.8725 87.96 86.8737C87.96 86.875 87.96 86.8763 87.96 86.8775C87.96 86.8788 87.96 86.88 87.96 86.8812C87.96 86.8825 87.96 86.8837 87.96 86.885C87.96 86.8862 87.96 86.8875 87.96 86.8887C87.96 86.89 87.96 86.8913 87.96 86.8925C87.96 86.8938 87.96 86.895 87.96 86.8962C87.96 86.8975 87.96 86.8987 87.96 86.9C87.96 86.9012 87.96 86.9025 87.96 86.9037C87.96 86.905 87.96 86.9062 87.96 86.9075C87.96 86.9088 87.96 86.91 87.96 86.9112C87.96 86.9125 87.96 86.9137 87.96 86.915C87.96 86.9162 87.96 86.9175 87.96 86.9187C87.96 86.92 87.96 86.9212 87.96 86.9225C87.96 86.9238 87.96 86.925 87.96 86.9263C87.96 86.9275 87.96 86.9287 87.96 86.93C87.96 86.9312 87.96 86.9325 87.96 86.9337C87.96 86.935 87.96 86.9362 87.96 86.9375C87.96 86.9388 87.96 86.94 87.96 86.9413C87.96 86.9425 87.96 86.9437 87.96 86.945C87.96 86.9462 87.96 86.9475 87.96 86.9487C87.96 86.95 87.96 86.9512 87.96 86.9525C87.96 86.9538 87.96 86.955 87.96 86.9563C87.96 86.9575 87.96 86.9587 87.96 86.96C87.96 86.9612 87.96 86.9625 87.96 86.9637C87.96 86.965 87.96 86.9662 87.96 86.9675C87.96 86.9688 87.96 86.97 87.96 86.9713C87.96 86.9725 87.96 86.9737 87.96 86.975C87.96 86.9762 87.96 86.9775 87.96 86.9787C87.96 86.98 87.96 86.9812 87.96 86.9825C87.96 86.9837 87.96 86.985 87.96 86.9863C87.96 86.9875 87.96 86.9888 87.96 86.99C87.96 86.9912 87.96 86.9925 87.96 86.9937C87.96 86.995 87.96 86.9962 87.96 86.9975C87.96 86.9987 87.96 87 87.96 87.0013C87.96 87.0025 87.96 87.0038 87.96 87.005C87.96 87.0062 87.96 87.0075 87.96 87.0087C87.96 87.01 87.96 87.0112 87.96 87.0125C87.96 87.0137 87.96 87.015 87.96 87.0163C87.96 87.0175 87.96 87.0188 87.96 87.02C87.96 87.0212 87.96 87.0225 87.96 87.0237C87.96 87.025 87.96 87.0262 87.96 87.0275C87.96 87.0287 87.96 87.03 87.96 87.0312C87.96 87.0325 87.96 87.0338 87.96 87.035C87.96 87.0362 87.96 87.0375 87.96 87.0387C87.96 87.04 87.96 87.0412 87.96 87.0425C87.96 87.0437 87.96 87.045 87.96 87.0462C87.96 87.0475 87.96 87.0488 87.96 87.05C87.96 87.0513 87.96 87.0525 87.96 87.0537C87.96 87.055 87.96 87.0562 87.96 87.0575C87.96 87.0587 87.96 87.06 87.96 87.0612C87.96 87.0625 87.96 87.0638 87.96 87.065C87.96 87.0663 87.96 87.0675 87.96 87.0687C87.96 87.07 87.96 87.0712 87.96 87.0725C87.96 87.0737 87.96 87.075 87.96 87.0762C87.96 87.0775 87.96 87.0788 87.96 87.08C87.96 87.0813 87.96 87.0825 87.96 87.0837C87.96 87.085 87.96 87.0862 87.96 87.0875C87.96 87.0887 87.96 87.09 87.96 87.0912C87.96 87.0925 87.96 87.0938 87.96 87.095C87.96 87.0963 87.96 87.0975 87.96 87.0987C87.96 87.1 87.96 87.1012 87.96 87.1025C87.96 87.1037 87.96 87.105 87.96 87.1062C87.96 87.1075 87.96 87.1087 87.96 87.11C87.96 87.1113 87.96 87.1125 87.96 87.1138C87.96 87.115 87.96 87.1162 87.96 87.1175C87.96 87.1187 87.96 87.12 87.96 87.1212C87.96 87.1225 87.96 87.1237 87.96 87.125C87.96 87.1263 87.96 87.1275 87.96 87.1288C87.96 87.13 87.96 87.1312 87.96 87.1325C87.96 87.1337 87.96 87.135 87.96 87.1362C87.96 87.1375 87.96 87.1387 87.96 87.14C87.96 87.1413 87.96 87.1425 87.96 87.1438C87.96 87.145 87.96 87.1462 87.96 87.1475C87.96 87.1487 87.96 87.15 87.96 87.1512C87.96 87.1525 87.96 87.1537 87.96 87.155C87.96 87.1562 87.96 87.1575 87.96 87.1588C87.96 87.16 87.96 87.1612 87.96 87.1625C87.96 87.1637 87.96 87.165 87.96 87.1662C87.96 87.1675 87.96 87.1687 87.96 87.17C87.96 87.1712 87.96 87.1725 87.96 87.1738C87.96 87.175 87.96 87.1763 87.96 87.1775C87.96 87.1787 87.96 87.18 87.96 87.1812C87.96 87.1825 87.96 87.1837 87.96 87.185C87.96 87.1862 87.96 87.1875 87.96 87.1888C87.96 87.19 87.96 87.1913 87.96 87.1925C87.96 87.1937 87.96 87.195 87.96 87.1962C87.96 87.1975 87.96 87.1987 87.96 87.2C87.96 87.2012 87.96 87.2025 87.96 87.2038C87.96 87.205 87.96 87.2063 87.96 87.2075C87.96 87.2087 87.96 87.21 87.96 87.2112C87.96 87.2125 87.96 87.2137 87.96 87.215C87.96 87.2162 87.96 87.2175 87.96 87.2188C87.96 87.22 87.96 87.2213 87.96 87.2225C87.96 87.2237 87.96 87.225 87.96 87.2262C87.96 87.2275 87.96 87.2287 87.96 87.23C87.96 87.2312 87.96 87.2325 87.96 87.2337C87.96 87.235 87.96 87.2363 87.96 87.2375C87.96 87.2388 87.96 87.24 87.96 87.2412C87.96 87.2425 87.96 87.2437 87.96 87.245C87.96 87.2462 87.96 87.2475 87.96 87.2487C87.96 87.25 87.96 87.2513 87.96 87.2525C87.96 87.2538 87.96 87.255 87.96 87.2562C87.96 87.2575 87.96 87.2587 87.96 87.26C87.96 87.2612 87.96 87.2625 87.96 87.2637C87.96 87.265 87.96 87.2663 87.96 87.2675C87.96 87.2688 87.96 87.27 87.96 87.2712C87.96 87.2725 87.96 87.2737 87.96 87.275C87.96 87.2762 87.96 87.2775 87.96 87.2787C87.96 87.28 87.96 87.2812 87.96 87.2825C87.96 87.2838 87.96 87.285 87.96 87.2862C87.96 87.2875 87.96 87.2887 87.96 87.29C87.96 87.2912 87.96 87.2925 87.96 87.2937C87.96 87.295 87.96 87.2962 87.96 87.2975C87.96 87.2988 87.96 87.3 87.96 87.3013C87.96 87.3025 87.96 87.3037 87.96 87.305C87.96 87.3062 87.96 87.3075 87.96 87.3087C87.96 87.31 87.96 87.3112 87.96 87.3125C87.96 87.3138 87.96 87.315 87.96 87.3163C87.96 87.3175 87.96 87.3187 87.96 87.32C87.96 87.3212 87.96 87.3225 87.96 87.3237C87.96 87.325 87.96 87.3262 87.96 87.3275C87.96 87.3288 87.96 87.33 87.96 87.3313C87.96 87.3325 87.96 87.3337 87.96 87.335C87.96 87.3362 87.96 87.3375 87.96 87.3387C87.96 87.34 87.96 87.3412 87.96 87.3425C87.96 87.3438 87.96 87.345 87.96 87.3463C87.96 87.3475 87.96 87.3487 87.96 87.35C87.96 87.3512 87.96 87.3525 87.96 87.3537C87.96 87.355 87.96 87.3562 87.96 87.3575C87.96 87.3587 87.96 87.36 87.96 87.3613C87.96 87.3625 87.96 87.3638 87.96 87.365C87.96 87.3662 87.96 87.3675 87.96 87.3687C87.96 87.37 87.96 87.3712 87.96 87.3725C87.96 87.3737 87.96 87.375 87.96 87.3763C87.96 87.3775 87.96 87.3788 87.96 87.38C87.96 87.3812 87.96 87.3825 87.96 87.3837C87.96 87.385 87.96 87.3862 87.96 87.3875C87.96 87.3887 87.96 87.39 87.96 87.3913C87.96 87.3925 87.96 87.3938 87.96 87.395C87.96 87.3962 87.96 87.3975 87.96 87.3987C87.96 87.4 87.96 87.4012 87.96 87.4025C87.96 87.4037 87.96 87.405 87.96 87.4062C87.96 87.4075 87.96 87.4088 87.96 87.41C87.96 87.4112 87.96 87.4125 87.96 87.4137C87.96 87.415 87.96 87.4162 87.96 87.4175C87.96 87.4187 87.96 87.42 87.96 87.4212C87.96 87.4225 87.96 87.4238 87.96 87.425C87.96 87.4263 87.96 87.4275 87.96 87.4287C87.96 87.43 87.96 87.4312 87.96 87.4325C87.96 87.4337 87.96 87.435 87.96 87.4362C87.96 87.4375 87.96 87.4388 87.96 87.44C87.96 87.4413 87.96 87.4425 87.96 87.4437C87.96 87.445 87.96 87.4462 87.96 87.4475C87.96 87.4487 87.96 87.45 87.96 87.4512C87.96 87.4525 87.96 87.4538 87.96 87.455C87.96 87.4563 87.96 87.4575 87.96 87.4587C87.96 87.46 87.96 87.4612 87.96 87.4625C87.96 87.4637 87.96 87.465 87.96 87.4662C87.96 87.4675 87.96 87.4688 87.96 87.47C87.96 87.4713 87.96 87.4725 87.96 87.4737C87.96 87.475 87.96 87.4762 87.96 87.4775C87.96 87.4787 87.96 87.48 87.96 87.4812C87.96 87.4825 87.96 87.4837 87.96 87.485C87.96 87.4863 87.96 87.4875 87.96 87.4888C87.96 87.49 87.96 87.4912 87.96 87.4925C87.96 87.4937 87.96 87.495 87.96 87.4962C87.96 87.4975 87.96 87.4987 87.96 87.5C87.96 87.5013 87.96 87.5025 87.96 87.5038C87.96 87.505 87.96 87.5062 87.96 87.5075C87.96 87.5087 87.96 87.51 87.96 87.5112C87.96 87.5125 87.96 87.5137 87.96 87.515C87.96 87.5163 87.96 87.5175 87.96 87.5188C87.96 87.52 87.96 87.5212 87.96 87.5225C87.96 87.5237 87.96 87.525 87.96 87.5262C87.96 87.5275 87.96 87.5287 87.96 87.53C87.96 87.5312 87.96 87.5325 87.96 87.5338C87.96 87.535 87.96 87.5362 87.96 87.5375C87.96 87.5387 87.96 87.54 87.96 87.5412C87.96 87.5425 87.96 87.5437 87.96 87.545C87.96 87.5462 87.96 87.5475 87.96 87.5488C87.96 87.55 87.96 87.5512 87.96 87.5525C87.96 87.5537 87.96 87.555 87.96 87.5562C87.96 87.5575 87.96 87.5587 87.96 87.56C87.96 87.5612 87.96 87.5625 87.96 87.5638C87.96 87.565 87.96 87.5663 87.96 87.5675C87.96 87.5687 87.96 87.57 87.96 87.5712C87.96 87.5725 87.96 87.5737 87.96 87.575C87.96 87.5762 87.96 87.5775 87.96 87.5788C87.96 87.58 87.96 87.5813 87.96 87.5825C87.96 87.5837 87.96 87.585 87.96 87.5862C87.96 87.5875 87.96 87.5887 87.96 87.59C87.96 87.5912 87.96 87.5925 87.96 87.5938C87.96 87.595 87.96 87.5963 87.96 87.5975C87.96 87.5987 87.96 87.6 87.96 87.6012C87.96 87.6025 87.96 87.6037 87.96 87.605C87.96 87.6062 87.96 87.6075 87.96 87.6087C87.96 87.61 87.96 87.6113 87.96 87.6125C87.96 87.6137 87.96 87.615 87.96 87.6162C87.96 87.6175 87.96 87.6187 87.96 87.62C87.96 87.6212 87.96 87.6225 87.96 87.6237C87.96 87.625 87.96 87.6263 87.96 87.6275C87.96 87.6288 87.96 87.63 87.96 87.6312C87.96 87.6325 87.96 87.6337 87.96 87.635C87.96 87.6362 87.96 87.6375 87.96 87.6387C87.96 87.64 87.96 87.6413 87.96 87.6425C87.96 87.6438 87.96 87.645 87.96 87.6462C87.96 87.6475 87.96 87.6487 87.96 87.65C87.96 87.6512 87.96 87.6525 87.96 87.6537C87.96 87.655 87.96 87.6562 87.96 87.6575C87.96 87.6588 87.96 87.66 87.96 87.6612C87.96 87.6625 87.96 87.6637 87.96 87.665C87.96 87.6662 87.96 87.6675 87.96 87.6687C87.96 87.67 87.96 87.6712 87.96 87.6725C87.96 87.6738 87.96 87.675 87.96 87.6762C87.96 87.6775 87.96 87.6787 87.96 87.68C87.96 87.6812 87.96 87.6825 87.96 87.6837C87.96 87.685 87.96 87.6862 87.96 87.6875C87.96 87.6888 87.96 87.69 87.96 87.6913C87.96 87.6925 87.96 87.6937 87.96 87.695C87.96 87.6962 87.96 87.6975 87.96 87.6987C87.96 87.7 87.96 87.7012 87.96 87.7025C87.96 87.7038 87.96 87.705 87.96 87.7063C87.96 87.7075 87.96 87.7087 87.96 87.71C87.96 87.7112 87.96 87.7125 87.96 87.7137C87.96 87.715 87.96 87.7162 87.96 87.7175C87.96 87.7188 87.96 87.72 87.96 87.7213C87.96 87.7225 87.96 87.7237 87.96 87.725C87.96 87.7262 87.96 87.7275 87.96 87.7287C87.96 87.73 87.96 87.7312 87.96 87.7325C87.96 87.7337 87.96 87.735 87.96 87.7363C87.96 87.7375 87.96 87.7387 87.96 87.74C87.96 87.7412 87.96 87.7425 87.96 87.7437C87.96 87.745 87.96 87.7462 87.96 87.7475C87.96 87.7487 87.96 87.75 87.96 87.7513C87.96 87.7525 87.96 87.7538 87.96 87.755C87.96 87.7562 87.96 87.7575 87.96 87.7587C87.96 87.76 87.96 87.7612 87.96 87.7625C87.96 87.7637 87.96 87.765 87.96 87.7663C87.96 87.7675 87.96 87.7688 87.96 87.77C87.96 87.7712 87.96 87.7725 87.96 87.7737C87.96 87.775 87.96 87.7762 87.96 87.7775C87.96 87.7787 87.96 87.78 87.96 87.7812C87.96 87.7825 87.96 87.7838 87.96 87.785C87.96 87.7862 87.96 87.7875 87.96 87.7887C87.96 87.79 87.96 87.7912 87.96 87.7925C87.96 87.7937 87.96 87.795 87.96 87.7962C87.96 87.7975 87.96 87.7988 87.96 87.8C87.96 87.8012 87.96 87.8025 87.96 87.8037C87.96 87.805 87.96 87.8062 87.96 87.8075C87.96 87.8087 87.96 87.81 87.96 87.8112C87.96 87.8125 87.96 87.8138 87.96 87.815C87.96 87.8162 87.96 87.8175 87.96 87.8187C87.96 87.82 87.96 87.8212 87.96 87.8225C87.96 87.8237 87.96 87.825 87.96 87.8262C87.96 87.8275 87.96 87.8288 87.96 87.83C87.96 87.8313 87.96 87.8325 87.96 87.8337C87.96 87.835 87.96 87.8362 87.96 87.8375C87.96 87.8387 87.96 87.84 87.96 87.8412C87.96 87.8425 87.96 87.8438 87.96 87.845C87.96 87.8463 87.96 87.8475 87.96 87.8487C87.96 87.85 87.96 87.8512 87.96 87.8525C87.96 87.8537 87.96 87.855 87.96 87.8562C87.96 87.8575 87.96 87.8587 87.96 87.86C87.96 87.8613 87.96 87.8625 87.96 87.8637C87.96 87.865 87.96 87.8662 87.96 87.8675C87.96 87.8687 87.96 87.87 87.96 87.8712C87.96 87.8725 87.96 87.8737 87.96 87.875C87.96 87.8763 87.96 87.8775 87.96 87.8787C87.96 87.88 87.96 87.8812 87.96 87.8825C87.96 87.8837 87.96 87.885 87.96 87.8862C87.96 87.8875 87.96 87.8887 87.96 87.89C87.96 87.8913 87.96 87.8925 87.96 87.8938C87.96 87.895 87.96 87.8962 87.96 87.8975C87.96 87.8987 87.96 87.9 87.96 87.9012C87.96 87.9025 87.96 87.9037 87.96 87.905C87.96 87.9062 87.96 87.9075 87.96 87.9088C87.96 87.91 87.96 87.9112 87.96 87.9125C87.96 87.9137 87.96 87.915 87.96 87.9162C87.96 87.9175 87.96 87.9187 87.96 87.92C87.96 87.9212 87.96 87.9225 87.96 87.9238C87.96 87.925 87.96 87.9262 87.96 87.9275C87.96 87.9287 87.96 87.93 87.96 87.9312C87.96 87.9325 87.96 87.9337 87.96 87.935C87.96 87.9362 87.96 87.9375 87.96 87.9388C87.96 87.94 87.96 87.9412 87.96 87.9425C87.96 87.9437 87.96 87.945 87.96 87.9462C87.96 87.9475 87.96 87.9487 87.96 87.95C87.96 87.9512 87.96 87.9525 87.96 87.9538C87.96 87.955 87.96 87.9563 87.96 87.9575C87.96 87.9587 87.96 87.96 87.96 87.9612C87.96 87.9625 87.96 87.9637 87.96 87.965C87.96 87.9662 87.96 87.9675 87.96 87.9688C87.96 87.97 87.96 87.9713 87.96 87.9725C87.96 87.9737 87.96 87.975 87.96 87.9762C87.96 87.9775 87.96 87.9787 87.96 87.98C87.96 87.9812 87.96 87.9825 87.96 87.9837C87.96 87.985 87.96 87.9863 87.96 87.9875C87.96 87.9887 87.96 87.99 87.96 87.9912C87.96 87.9925 87.96 87.9937 87.96 87.995C87.96 87.9962 87.96 87.9975 87.96 87.9987C87.96 88 87.96 88.0013 87.96 88.0025C87.96 88.0037 87.96 88.005 87.96 88.0062C87.96 88.0075 87.96 88.0087 87.96 88.01C87.96 88.0112 87.96 88.0125 87.96 88.0137C87.96 88.015 87.96 88.0163 87.96 88.0175C87.96 88.0187 87.96 88.02 87.96 88.0212C87.96 88.0225 87.96 88.0237 87.96 88.025C87.96 88.0262 87.96 88.0275 87.96 88.0287C87.96 88.03 87.96 88.0312 87.96 88.0325C87.96 88.0338 87.96 88.035 87.96 88.0362C87.96 88.0375 87.96 88.0387 87.96 88.04C87.96 88.0412 87.96 88.0425 87.96 88.0437C87.96 88.045 87.96 88.0462 87.96 88.0475C87.96 88.0488 87.96 88.05 87.96 88.0512C87.96 88.0525 87.96 88.0537 87.96 88.055C87.96 88.0562 87.96 88.0575 87.96 88.0587C87.96 88.06 87.96 88.0612 87.96 88.0625C87.96 88.0638 87.96 88.065 87.96 88.0662C87.96 88.0675 87.96 88.0687 87.96 88.07C87.96 88.0712 87.96 88.0725 87.96 88.0737C87.96 88.075 87.96 88.0762 87.96 88.0775C87.96 88.0788 87.96 88.08 87.96 88.0812C87.96 88.0825 87.96 88.0837 87.96 88.085C87.96 88.0862 87.96 88.0875 87.96 88.0887C87.96 88.09 87.96 88.0912 87.96 88.0925C87.96 88.0938 87.96 88.095 87.96 88.0963C87.96 88.0975 87.96 88.0987 87.96 88.1C87.96 88.1012 87.96 88.1025 87.96 88.1037C87.96 88.105 87.96 88.1062 87.96 88.1075C87.96 88.1087 87.96 88.11 87.96 88.1113C87.96 88.1125 87.96 88.1137 87.96 88.115C87.96 88.1162 87.96 88.1175 87.96 88.1187C87.96 88.12 87.96 88.1212 87.96 88.1225C87.96 88.1237 87.96 88.125 87.96 88.1263C87.96 88.1275 87.96 88.1287 87.96 88.13C87.96 88.1312 87.96 88.1325 87.96 88.1337C87.96 88.135 87.96 88.1362 87.96 88.1375C87.96 88.1387 87.96 88.14 87.96 88.1413C87.96 88.1425 87.96 88.1437 87.96 88.145C87.96 88.1462 87.96 88.1475 87.96 88.1487C87.96 88.15 87.96 88.1512 87.96 88.1525C87.96 88.1537 87.96 88.155 87.96 88.1562C87.96 88.1575 87.96 88.1587 87.96 88.16C87.96 88.1612 87.96 88.1625 87.96 88.1637C87.96 88.165 87.96 88.1662 87.96 88.1675C87.96 88.1687 87.96 88.17 87.96 88.1712C87.96 88.1725 87.96 88.1738 87.96 88.175C87.96 88.1762 87.96 88.1775 87.96 88.1787C87.96 88.18 87.96 88.1812 87.96 88.1825C87.96 88.1837 87.96 88.185 87.96 88.1862C87.96 88.1875 87.96 88.1888 87.96 88.19C87.96 88.1912 87.96 88.1925 87.96 88.1937C87.96 88.195 87.96 88.1962 87.96 88.1975C87.96 88.1987 87.96 88.2 87.96 88.2012C87.96 88.2025 87.96 88.2038 87.96 88.205C87.96 88.2062 87.96 88.2075 87.96 88.2087C87.96 88.21 87.96 88.2112 87.96 88.2125C87.96 88.2137 87.96 88.215 87.96 88.2162C87.96 88.2175 87.96 88.2188 87.96 88.22C87.96 88.2212 87.96 88.2225 87.96 88.2237C87.96 88.225 87.96 88.2262 87.96 88.2275C87.96 88.2287 87.96 88.23 87.96 88.2312C87.96 88.2325 87.96 88.2337 87.96 88.235C87.96 88.2363 87.96 88.2375 87.96 88.2387C87.96 88.24 87.96 88.2412 87.96 88.2425C87.96 88.2437 87.96 88.245 87.96 88.2462C87.96 88.2475 87.96 88.2487 87.96 88.25C87.96 88.2513 87.96 88.2525 87.96 88.2537C87.96 88.255 87.96 88.2562 87.96 88.2575C87.96 88.2587 87.96 88.26 87.96 88.2612C87.96 88.2625 87.96 88.2637 87.96 88.265C87.96 88.2663 87.96 88.2675 87.96 88.2687C87.96 88.27 87.96 88.2712 87.96 88.2725C87.96 88.2737 87.96 88.275 87.96 88.2762C87.96 88.2775 87.96 88.2787 87.96 88.28C87.96 88.2812 87.96 88.2825 87.96 88.2837C87.96 88.285 87.96 88.2862 87.96 88.2875C87.96 88.2887 87.96 88.29 87.96 88.2912C87.96 88.2925 87.96 88.2937 87.96 88.295C87.96 88.2962 87.96 88.2975 87.96 88.2987C87.96 88.3 87.96 88.3012 87.96 88.3025C87.96 88.3037 87.96 88.305 87.96 88.3062C87.96 88.3075 87.96 88.3087 87.96 88.31C87.96 88.3112 87.96 88.3125 87.96 88.3138C87.96 88.315 87.96 88.3162 87.96 88.3175C87.96 88.3187 87.96 88.32 87.96 88.3212C87.96 88.3225 87.96 88.3237 87.96 88.325C87.96 88.3262 87.96 88.3275 87.96 88.3288C87.96 88.33 87.96 88.3312 87.96 88.3325C87.96 88.3337 87.96 88.335 87.96 88.3362C87.96 88.3375 87.96 88.3387 87.96 88.34C87.96 88.3412 87.96 88.3425 87.96 88.3438C87.96 88.345 87.96 88.3462 87.96 88.3475C87.96 88.3487 87.96 88.35 87.96 88.3512C87.96 88.3525 87.96 88.3537 87.96 88.355C87.96 88.3562 87.96 88.3575 87.96 88.3587C87.96 88.36 87.96 88.3612 87.96 88.3625C87.96 88.3637 87.96 88.365 87.96 88.3662C87.96 88.3675 87.96 88.3687 87.96 88.37C87.96 88.3712 87.96 88.3725 87.96 88.3737C87.96 88.375 87.96 88.3762 87.96 88.3775C87.96 88.3787 87.96 88.38 87.96 88.3812C87.96 88.3825 87.96 88.3837 87.96 88.385C87.96 88.3862 87.96 88.3875 87.96 88.3887C87.96 88.39 87.96 88.3913 87.96 88.3925C87.96 88.3937 87.96 88.395 87.96 88.3962C87.96 88.3975 87.96 88.3987 87.96 88.4H90.96ZM90.96 86.48V83.48H90.24V86.48V89.48H90.96V86.48ZM90.24 86.48L87.4234 85.4472C85.8407 89.7637 83.3445 93.3211 79.9194 96.1753L81.84 98.48L83.7606 100.785C88.0155 97.2389 91.1193 92.7963 93.0566 87.5128L90.24 86.48ZM81.84 98.48L79.9779 96.1279C76.4587 98.9138 72.4113 100.981 67.8036 102.319L68.64 105.2L69.4764 108.081C74.7887 106.539 79.5413 104.126 83.7021 100.832L81.84 98.48ZM68.64 105.2L67.8036 102.319C63.113 103.681 58.3545 104.36 53.52 104.36V107.36V110.36C58.9255 110.36 64.247 109.599 69.4764 108.081L68.64 105.2ZM53.52 107.36V104.36C44.348 104.36 36.2825 102.453 29.2488 98.7114L27.84 101.36L26.4312 104.009C34.4375 108.267 43.492 110.36 53.52 110.36V107.36ZM27.84 101.36L29.2922 98.7349C22.2394 94.8334 16.7129 89.4541 12.6672 82.5614L10.08 84.08L7.49275 85.5986C12.0871 93.4259 18.4006 99.5666 26.3878 103.985L27.84 101.36ZM10.08 84.08L12.7051 82.6278C8.82665 75.6168 6.84 67.4111 6.84 57.92H3.84H0.84C0.84 68.2689 3.01335 77.5032 7.4549 85.5322L10.08 84.08ZM3.84 57.92H6.84C6.84 46.9876 9.14664 37.7756 13.6258 30.1611L11.04 28.64L8.4542 27.1189C3.33336 35.8244 0.84 46.1323 0.84 57.92H3.84ZM11.04 28.64L13.6036 30.1982C18.2582 22.5407 24.7012 16.688 33.002 12.613L31.68 9.92L30.358 7.22699C21.0588 11.792 13.7419 18.4193 8.47643 27.0817L11.04 28.64ZM31.68 9.92L33.0216 12.6033C41.4958 8.36623 51.4215 6.2 62.88 6.2V3.2V0.199997C50.6585 0.199997 39.7843 2.51377 30.3384 7.23672L31.68 9.92ZM62.88 34.88V31.88C55.8372 31.88 49.9009 34.0165 45.3987 38.5187L47.52 40.64L49.6413 42.7613C52.8191 39.5835 57.1228 37.88 62.88 37.88V34.88ZM47.52 40.64L45.3987 38.5187C40.8432 43.0742 38.76 49.3704 38.76 56.96H41.76H44.76C44.76 50.4696 46.5168 45.8858 49.6413 42.7613L47.52 40.64ZM41.76 56.96H38.76C38.76 63.9988 40.896 69.8872 45.4443 74.246L47.52 72.08L49.5957 69.914C46.464 66.9128 44.76 62.7212 44.76 56.96H41.76ZM47.52 72.08L45.5381 74.3321C50.1775 78.4148 56.0425 80.36 62.88 80.36V77.36V74.36C57.2375 74.36 52.8625 72.7852 49.5019 69.8279L47.52 72.08ZM62.88 77.36V80.36C67.4743 80.36 71.6644 79.3844 75.3658 77.3486L73.92 74.72L72.4742 72.0914C69.7756 73.5756 66.6057 74.36 62.88 74.36V77.36ZM73.92 74.72L75.3658 77.3486C79.0247 75.3362 81.9113 72.5553 83.9563 69.0231L81.36 67.52L78.7637 66.0169C77.2887 68.5646 75.2153 70.5838 72.4742 72.0914L73.92 74.72ZM81.36 67.52L83.9325 69.0635C86.1739 65.3279 87.24 61.0167 87.24 56.24H84.24H81.24C81.24 60.1033 80.3862 63.3121 78.7875 65.9765L81.36 67.52ZM84.24 56.24H87.24C87.24 51.332 86.1859 46.9829 83.8965 43.358L81.36 44.96L78.8235 46.562C80.3742 49.0171 81.24 52.188 81.24 56.24H84.24ZM81.36 44.96L83.9887 43.5142C81.9545 39.8158 79.0642 36.9255 75.3658 34.8913L73.92 37.52L72.4743 40.1486C75.1758 41.6345 77.2455 43.7042 78.7314 46.4058L81.36 44.96ZM73.92 37.52L75.3658 34.8913C71.6644 32.8556 67.4743 31.88 62.88 31.88V34.88V37.88C66.6057 37.88 69.7756 38.6644 72.4742 40.1486L73.92 37.52Z" fill="white" mask="url(#path-1-outside-1_67_3875)"/>
</svg>
