<svg width="25" height="25" viewBox="0 0 25 25" fill="none" xmlns="http://www.w3.org/2000/svg">
<rect width="25" height="25" rx="7" fill="#D9D9D9"/>
<path d="M8.75639 5.90909V19H5.98864V8.53622H5.91193L2.91406 10.4155V7.96094L6.15483 5.90909H8.75639ZM11.8677 19V17.0057L16.5275 12.6911C16.9238 12.3075 17.2562 11.9624 17.5247 11.6555C17.7974 11.3487 18.0041 11.0483 18.1447 10.7543C18.2853 10.456 18.3556 10.1342 18.3556 9.78906C18.3556 9.40554 18.2683 9.07528 18.0936 8.7983C17.9189 8.51705 17.6802 8.30185 17.3777 8.1527C17.0751 7.99929 16.7321 7.92259 16.3485 7.92259C15.948 7.92259 15.5985 8.00355 15.3002 8.16548C15.002 8.32741 14.7718 8.55966 14.6099 8.86222C14.448 9.16477 14.367 9.52486 14.367 9.94247H11.7399C11.7399 9.08594 11.9338 8.34233 12.3216 7.71165C12.7093 7.08097 13.2527 6.59304 13.9515 6.24787C14.6504 5.9027 15.4558 5.73011 16.3677 5.73011C17.3052 5.73011 18.1213 5.89631 18.8159 6.22869C19.5147 6.55682 20.0581 7.01278 20.4458 7.59659C20.8336 8.1804 21.0275 8.84943 21.0275 9.60369C21.0275 10.098 20.9295 10.5859 20.7335 11.0675C20.5417 11.549 20.1987 12.0838 19.7044 12.6719C19.21 13.2557 18.5133 13.9567 17.6142 14.7749L15.7029 16.6477V16.7372H21.2001V19H11.8677Z" fill="white"/>
</svg>
