<svg width="20" height="22" viewBox="0 0 20 22" fill="none" xmlns="http://www.w3.org/2000/svg">
<path d="M19.4279 11.9454C19.7933 11.3267 20 10.6667 20 9.86875C20 8.03479 18.4493 6.30292 16.4242 6.30292H14.9042C15.1092 5.76917 15.2729 5.13083 15.2729 4.36375C15.2729 1.33067 13.7025 0 11.3033 0C8.73638 0 8.88279 3.95554 8.31333 4.525C7.36554 5.47279 6.24604 7.29363 5.44833 8H1.33333C0.596958 8 0 8.59696 0 9.33333V19.3333C0 20.0697 0.596958 20.6667 1.33333 20.6667H4C4.62054 20.6667 5.142 20.2428 5.29075 19.6688C7.14529 19.7105 8.41825 21.3329 12.6992 21.3329C13 21.3329 13.3333 21.3333 13.625 21.3333C16.8382 21.3333 18.2911 19.6907 18.3308 17.3613C18.8858 16.5935 19.1766 15.5645 19.0533 14.57C19.4639 13.8012 19.6227 12.889 19.4279 11.9454ZM16.855 14.1883C17.3783 15.0687 16.9075 16.2471 16.2742 16.5871C16.595 18.6196 15.5405 19.3329 14.0608 19.3329H12.485C9.50004 19.3329 7.56713 17.7571 5.33333 17.7571V10H5.78833C6.97 10 8.62083 7.04625 9.7275 5.93917C10.9092 4.7575 10.5154 2.78792 11.3033 2C13.2729 2 13.2729 3.37417 13.2729 4.36375C13.2729 5.99583 12.0913 6.72708 12.0913 8.30292H16.4242C17.3038 8.30292 17.9963 9.09083 18 9.87875C18.0038 10.6663 17.4658 11.4542 17.0721 11.4542C17.6341 12.0606 17.7542 13.339 16.855 14.1883ZM3.66667 18C3.66667 18.5523 3.21896 19 2.66667 19C2.11438 19 1.66667 18.5523 1.66667 18C1.66667 17.4477 2.11438 17 2.66667 17C3.21896 17 3.66667 17.4477 3.66667 18Z" fill="white"/>
</svg>
